%TF.GenerationSoftware,Altium Limited,Altium Designer,26.8.1 (31)*%
G04 Layer_Physical_Order=6*
G04 Layer_Color=16711680*
G04 Board_Origin=0|0*
%FSLAX45Y45*%
%MOMM*%
%TF.SameCoordinates,53F6FBF9-B70B-408D-9132-D8E13A354014*%
%TF.FilePolarity,Positive*%
%TF.FileFunction,Copper,L6,Bot,Signal*%
%TF.Part,Single*%
G01*
G75*
%TA.AperFunction,Conductor*%
%ADD10C,0.17780*%
%TA.AperFunction,SMDPad,CuDef*%
%ADD15R,0.60000X0.64000*%
%ADD16R,0.64000X0.60000*%
%ADD17R,0.60000X0.75000*%
%ADD20R,0.75000X0.60000*%
%ADD22R,0.35000X0.40000*%
%ADD26R,0.40000X0.35000*%
%TA.AperFunction,Conductor*%
%ADD73C,0.17900*%
%ADD74C,0.38100*%
%ADD77C,0.10200*%
%ADD80C,0.25400*%
%ADD81C,0.20300*%
%ADD84C,0.17800*%
%ADD85C,0.12700*%
%ADD86C,0.22860*%
%ADD91C,0.30000*%
%ADD96C,0.15200*%
%ADD97C,0.18000*%
%ADD99C,0.20320*%
%ADD101C,0.10160*%
%ADD102C,0.25600*%
%ADD103C,0.16002*%
%ADD104C,0.19200*%
%TA.AperFunction,ComponentPad*%
%ADD110O,2.50000X1.75000*%
%ADD111C,0.50000*%
%ADD112O,1.50000X2.00000*%
%ADD113O,0.90000X1.55000*%
%ADD114O,1.40000X0.90000*%
%ADD115C,0.60000*%
G04:AMPARAMS|DCode=116|XSize=2.1mm|YSize=1.5mm|CornerRadius=0.375mm|HoleSize=0mm|Usage=FLASHONLY|Rotation=270.000|XOffset=0mm|YOffset=0mm|HoleType=Round|Shape=RoundedRectangle|*
%AMROUNDEDRECTD116*
21,1,2.10000,0.75000,0,0,270.0*
21,1,1.35000,1.50000,0,0,270.0*
1,1,0.75000,-0.37500,-0.67500*
1,1,0.75000,-0.37500,0.67500*
1,1,0.75000,0.37500,0.67500*
1,1,0.75000,0.37500,-0.67500*
%
%ADD116ROUNDEDRECTD116*%
G04:AMPARAMS|DCode=117|XSize=2.1mm|YSize=1.5mm|CornerRadius=0.375mm|HoleSize=0mm|Usage=FLASHONLY|Rotation=180.000|XOffset=0mm|YOffset=0mm|HoleType=Round|Shape=RoundedRectangle|*
%AMROUNDEDRECTD117*
21,1,2.10000,0.75000,0,0,180.0*
21,1,1.35000,1.50000,0,0,180.0*
1,1,0.75000,-0.67500,0.37500*
1,1,0.75000,0.67500,0.37500*
1,1,0.75000,0.67500,-0.37500*
1,1,0.75000,-0.67500,-0.37500*
%
%ADD117ROUNDEDRECTD117*%
%ADD118C,1.50000*%
%ADD119C,1.75000*%
%ADD120C,2.50000*%
%ADD121C,1.95000*%
%ADD122R,1.95000X1.95000*%
%ADD123C,0.85000*%
%ADD124O,0.85000X1.15000*%
%ADD125C,0.90000*%
%TA.AperFunction,ViaPad*%
%ADD126C,0.40000*%
%ADD127C,0.70000*%
%ADD128C,0.55000*%
%TA.AperFunction,SMDPad,CuDef*%
%ADD131R,0.80000X0.50000*%
G04:AMPARAMS|DCode=132|XSize=1.65mm|YSize=0.58mm|CornerRadius=0.0725mm|HoleSize=0mm|Usage=FLASHONLY|Rotation=180.000|XOffset=0mm|YOffset=0mm|HoleType=Round|Shape=RoundedRectangle|*
%AMROUNDEDRECTD132*
21,1,1.65000,0.43500,0,0,180.0*
21,1,1.50500,0.58000,0,0,180.0*
1,1,0.14500,-0.75250,0.21750*
1,1,0.14500,0.75250,0.21750*
1,1,0.14500,0.75250,-0.21750*
1,1,0.14500,-0.75250,-0.21750*
%
%ADD132ROUNDEDRECTD132*%
G36*
X15520000Y23095000D02*
X15389999D01*
X15387500Y23097501D01*
Y23322501D01*
X15520000D01*
Y23095000D01*
D02*
G37*
G36*
X15930000Y23332500D02*
X15930000Y23127499D01*
X15892500Y23089999D01*
X15542500D01*
Y23185001D01*
X15545000Y23300000D01*
X15546036Y23302499D01*
X15645000D01*
X15710001Y23367500D01*
X15895000D01*
X15930000Y23332500D01*
D02*
G37*
D10*
X14324602Y20208360D02*
G03*
X14355463Y20177499I30861J0D01*
G01*
X14050281Y20219649D02*
G03*
X14019420Y20250510I-30861J0D01*
G01*
X14149722D02*
G03*
X14118861Y20219649I0J-30861D01*
G01*
X13913121D02*
G03*
X13882260Y20250510I-30861J0D01*
G01*
X14012563D02*
G03*
X13981702Y20219649I0J-30861D01*
G01*
X14286882Y20250510D02*
G03*
X14256021Y20219649I0J-30861D01*
G01*
X14324602D02*
G03*
X14293739Y20250510I-30861J0D01*
G01*
X14187440Y20219649D02*
G03*
X14156580Y20250510I-30861J0D01*
G01*
X14088000Y20141574D02*
G03*
X14118861Y20172435I0J30861D01*
G01*
X14225160Y20141574D02*
G03*
X14256021Y20172435I0J30861D01*
G01*
X14187440D02*
G03*
X14218301Y20141574I30861J0D01*
G01*
X13913121Y20172435D02*
G03*
X13943982Y20141574I30861J0D01*
G01*
X14050281Y20172435D02*
G03*
X14081142Y20141574I30861J0D01*
G01*
X13950841D02*
G03*
X13981702Y20172435I0J30861D01*
G01*
X13638802Y20219649D02*
G03*
X13607941Y20250510I-30861J0D01*
G01*
X13738242D02*
G03*
X13707381Y20219649I0J-30861D01*
G01*
X13601082Y20250510D02*
G03*
X13570221Y20219649I0J-30861D01*
G01*
X13775961D02*
G03*
X13745100Y20250510I-30861J0D01*
G01*
X13875401D02*
G03*
X13844540Y20219649I0J-30861D01*
G01*
X13501640D02*
G03*
X13470779Y20250510I-30861J0D01*
G01*
X13463922D02*
G03*
X13433061Y20219649I0J-30861D01*
G01*
X13402200Y20176042D02*
G03*
X13433061Y20206903I0J30861D01*
G01*
X13676520Y20141574D02*
G03*
X13707381Y20172435I0J30861D01*
G01*
X13539360Y20141574D02*
G03*
X13570221Y20172435I0J30861D01*
G01*
X13638802D02*
G03*
X13669662Y20141574I30861J0D01*
G01*
X13775961Y20172435D02*
G03*
X13806822Y20141574I30861J0D01*
G01*
X13813680D02*
G03*
X13844540Y20172435I0J30861D01*
G01*
X13501640D02*
G03*
X13532503Y20141574I30861J0D01*
G01*
X13977499Y18442500D02*
X14921758D01*
X14934258Y18430000D01*
X15872501D01*
X16082500Y18639999D01*
Y18710001D01*
X14505000Y20277499D02*
X15082500D01*
X14425685Y20198186D02*
X14505000Y20277499D01*
X15082500D02*
X15131940Y20326939D01*
X13267500Y20072501D02*
X13371042Y20176042D01*
X13267500Y19772501D02*
Y20072501D01*
X14355463Y20177499D02*
X14405000D01*
X14324602Y20208360D02*
Y20219649D01*
X14012563Y20250510D02*
X14019420D01*
X14286882D02*
X14293739D01*
X14149722D02*
X14156580D01*
X14405000Y20177499D02*
X14425685Y20198186D01*
X14256021Y20172435D02*
Y20219649D01*
X14187440Y20172435D02*
Y20219649D01*
X14218301Y20141574D02*
X14225160D01*
X14050281Y20172435D02*
Y20219649D01*
X13981702Y20172435D02*
Y20219649D01*
X14118861Y20172435D02*
Y20219649D01*
X13913121Y20172435D02*
Y20219649D01*
X14081142Y20141574D02*
X14088000D01*
X13943982D02*
X13950841D01*
X13738242Y20250510D02*
X13745100D01*
X13601082D02*
X13607941D01*
X13875401D02*
X13882260D01*
X13638802Y20172435D02*
Y20219649D01*
X13707381Y20172435D02*
Y20219649D01*
X13463922Y20250510D02*
X13470779D01*
X13501640Y20172435D02*
Y20219649D01*
X13433061Y20206903D02*
Y20219649D01*
X13570221Y20172435D02*
Y20219649D01*
X13371042Y20176042D02*
X13393309D01*
X13402200D01*
X13844540Y20172435D02*
Y20219649D01*
X13775961Y20172435D02*
Y20219649D01*
X13806822Y20141574D02*
X13813680D01*
X13532503D02*
X13539360D01*
X13669662D02*
X13676520D01*
X15131940Y20326939D02*
X15184441D01*
X15187500Y20330000D01*
X10976013Y23626488D02*
X11056906D01*
X10972500Y23630000D02*
X10976013Y23626488D01*
X13310963Y20801537D02*
Y21452702D01*
X13439999Y20672501D02*
X14157501D01*
X13310963Y20801537D02*
X13439999Y20672501D01*
X13152589Y21567410D02*
X13196255D01*
X13142500Y21577499D02*
X13152589Y21567410D01*
X13196255D02*
X13310963Y21452702D01*
X14157501Y20672501D02*
X14342500Y20487500D01*
X15492261D01*
X15567261Y20412500D02*
X15567500D01*
X15492261Y20487500D02*
X15567261Y20412500D01*
X13980000Y18385001D02*
X14950507D01*
X14958006Y18377499D01*
X15922501D01*
X16139999Y18595000D01*
Y18710001D01*
X14305000Y20455000D02*
X15277499D01*
X13417671Y20614999D02*
X14145000D01*
X14305000Y20455000D01*
X13277670Y20755000D02*
X13417671Y20614999D01*
X13092500Y20755000D02*
X13277670D01*
X15360001Y20100000D02*
Y20210001D01*
X15337500Y20232500D02*
Y20395000D01*
Y20232500D02*
X15360001Y20210001D01*
X15277499Y20455000D02*
X15337500Y20395000D01*
X13220000Y19670000D02*
X13362500Y19527499D01*
X13047501Y20377499D02*
X13220000Y20205000D01*
Y19670000D02*
Y20205000D01*
X13362500Y19527499D02*
X13364999D01*
X13047501Y21362500D02*
X13111391Y21426390D01*
Y21433890D01*
X13132500Y21455000D01*
X13139999D01*
X13047501Y20377499D02*
Y21362500D01*
X14132500Y18760001D02*
X14705000D01*
X14707500Y18762500D01*
X13364999Y19527499D02*
X14132500Y18760001D01*
X14285001Y18995000D02*
X14402499Y18877499D01*
X16067500D02*
X16412500Y19222501D01*
X14402499Y18877499D02*
X16067500D01*
X16412500Y19222501D02*
Y19762500D01*
X16271452Y19903548D02*
X16412500Y19762500D01*
X16184113Y19903548D02*
X16271452D01*
X16535001Y18960001D02*
Y18964999D01*
X16757500Y19187500D02*
Y22345000D01*
X16535001Y18964999D02*
X16757500Y19187500D01*
Y22345000D02*
X17007500Y22595000D01*
Y22842500D01*
X17062500Y22897501D01*
X13337500Y20500000D02*
X14107500D01*
X14232500Y20375000D01*
X15205649Y20375281D02*
X15205930Y20375000D01*
X15174352Y20375281D02*
X15205649D01*
X15174071Y20375000D02*
X15174352Y20375281D01*
X14232500Y20375000D02*
X15174071D01*
X15205930D02*
X15217500D01*
X15232500Y19970000D02*
X15236752Y19974251D01*
X15251752D01*
X15271550Y19994051D01*
Y20060950D01*
X15264999Y20067500D02*
Y20327499D01*
Y20067500D02*
X15271550Y20060950D01*
X15217500Y20375000D02*
X15264999Y20327499D01*
X14370000Y18847501D02*
X16089999D01*
X14239999Y18977499D02*
X14370000Y18847501D01*
X16089999D02*
X16489999Y19247501D01*
Y19930000D01*
X16412500Y20007500D02*
X16489999Y19930000D01*
X16055000Y20007500D02*
X16412500D01*
X15902499Y20160001D02*
X16055000Y20007500D01*
X15902499Y20335001D02*
X15905000Y20337500D01*
X15902499Y20160001D02*
Y20335001D01*
X13985001Y18547501D02*
X15910001D01*
X13982500Y18550000D02*
X13985001Y18547501D01*
X15910001D02*
X16026028Y18663528D01*
Y18706029D01*
X16030000Y18710001D01*
X14455000Y19080000D02*
Y19114999D01*
X14505000Y19030000D02*
X15822501D01*
X14455000Y19080000D02*
X14505000Y19030000D01*
X15822501D02*
X16012500Y19220000D01*
Y19382500D01*
X12995000Y20352499D02*
X13162500Y20185001D01*
Y19632500D02*
Y20185001D01*
X12556110Y21031390D02*
Y21048891D01*
Y21031390D02*
X12995000Y20592500D01*
X12535000Y21070000D02*
X12556110Y21048891D01*
X12995000Y20352499D02*
Y20592500D01*
X14862279Y18754779D02*
X14864999Y18757500D01*
X14819778Y18754779D02*
X14862279D01*
X14075000Y18720000D02*
X14785001D01*
X13162500Y19632500D02*
X14075000Y18720000D01*
X14785001D02*
X14819778Y18754779D01*
X12385000Y21070000D02*
X12406110Y21048891D01*
Y21021390D02*
X12572500Y20855000D01*
X12406110Y21021390D02*
Y21048891D01*
X13102499Y19592500D02*
Y20157500D01*
X12932500Y20327499D02*
X13102499Y20157500D01*
X14012500Y18682500D02*
X14812500D01*
X14814999Y18685001D01*
X13102499Y19592500D02*
X14012500Y18682500D01*
X12657500Y20855000D02*
X12932500Y20580000D01*
X12572500Y20855000D02*
X12657500D01*
X12932500Y20327499D02*
Y20580000D01*
X13295000Y20587500D02*
X13296001D01*
X13328500Y20555000D01*
X14122086D01*
X14262085Y20414999D01*
X15242500D01*
X15300000Y19975000D02*
Y20357500D01*
X15232500Y19907500D02*
X15300000Y19975000D01*
X15242500Y20414999D02*
X15300000Y20357500D01*
X14550000Y20217500D02*
X14632500Y20135001D01*
X14827132D01*
X15230000Y19580000D02*
X15275000Y19625000D01*
X14827132Y20135001D02*
X15209631Y19752499D01*
X15252499D02*
X15275000Y19730000D01*
Y19625000D02*
Y19730000D01*
X15209631Y19752499D02*
X15252499D01*
X13187500Y20462500D02*
X13220000D01*
X13991487Y20395000D02*
X14003987Y20407500D01*
X13287500Y20395000D02*
X13991487D01*
X14003987Y20407500D02*
X14010001D01*
X13220000Y20462500D02*
X13287500Y20395000D01*
X15117500Y20552499D02*
Y20639999D01*
X15177499Y20700000D01*
X14358427Y18819560D02*
X16114560D01*
X16560001Y19264999D02*
Y19950000D01*
X16114560Y18819560D02*
X16560001Y19264999D01*
X14195000Y18947501D02*
X14320000Y18822501D01*
X14355487D01*
X14358427Y18819560D01*
X16460001Y20050000D02*
X16560001Y19950000D01*
X16080000Y20050000D02*
X16460001D01*
X15952499Y20177499D02*
X16080000Y20050000D01*
X15952499Y20177499D02*
Y20352499D01*
X15782500Y20377499D02*
X15927499D01*
X15780000Y20375000D02*
X15782500Y20377499D01*
X15927499D02*
X15952499Y20352499D01*
X14364999Y19050000D02*
X14480000Y18935001D01*
X16012500D01*
X16137219Y19059720D01*
X16160280Y19082780D02*
X16262500Y19185001D01*
X16137219Y19059720D02*
X16138148D01*
X16160280Y19081851D01*
Y19082780D01*
X16146111Y19691389D02*
X16262500Y19575000D01*
X16146111Y19691389D02*
Y19692877D01*
X16135001Y19703987D02*
X16146111Y19692877D01*
X16135001Y19703987D02*
Y19710001D01*
X16262500Y19185001D02*
Y19575000D01*
X14967500Y19207500D02*
X15039999D01*
X15772501Y19085001D02*
X15815031Y19127531D01*
X14439999Y19267500D02*
X14622501Y19085001D01*
X15772501D01*
X14439999Y19267500D02*
Y19587500D01*
X14445000Y19592500D01*
X15792500Y19351936D02*
X15806390Y19365826D01*
Y19367877D01*
X15792500Y19239731D02*
Y19351936D01*
X15806390Y19367877D02*
X15817500Y19378987D01*
X15792500Y19239731D02*
X15815031Y19217200D01*
X15817500Y19378987D02*
Y19385001D01*
X15815031Y19127531D02*
Y19217200D01*
X12810001Y21975000D02*
X12814999Y21970000D01*
Y21845000D02*
Y21970000D01*
X12817500Y21967500D01*
X13375000Y20822501D02*
Y21592500D01*
X13000000Y21967500D02*
X13375000Y21592500D01*
X12817500Y21967500D02*
X13000000D01*
X15177499Y20547501D02*
X15238249Y20608249D01*
Y20645749D01*
X15242500Y20650000D01*
X14016560Y20357500D02*
X14022501D01*
X13969060Y20310001D02*
X14016560Y20357500D01*
X13267500Y20310001D02*
X13969060D01*
X13244250Y20333249D02*
X13267500Y20310001D01*
X13244250Y20333249D02*
Y20360748D01*
X13239999Y20364999D02*
X13244250Y20360748D01*
X16476611Y19006615D02*
Y19012627D01*
X15642500Y21792500D02*
X15782500Y21652499D01*
X15927499D01*
X16689999Y19226015D02*
Y20889999D01*
X16476611Y19012627D02*
X16689999Y19226015D01*
X15927499Y21652499D02*
X16689999Y20889999D01*
X15581325Y18708450D02*
X15848048D01*
X15879599Y18739999D02*
X15882500D01*
X15848048Y18708450D02*
X15879599Y18739999D01*
X14925000Y18647501D02*
X14992500Y18714999D01*
X15574776D01*
X15581325Y18708450D01*
X12872501Y20314999D02*
X13042500Y20145000D01*
Y19562500D02*
Y20145000D01*
X12232500Y21067500D02*
X12500000Y20800000D01*
X12637500D02*
X12872501Y20564999D01*
Y20314999D02*
Y20564999D01*
X12500000Y20800000D02*
X12637500D01*
X14797275Y18647501D02*
X14798825Y18645950D01*
X14831175D01*
X14832726Y18647501D01*
X14925000D01*
X13957500D02*
X14797275D01*
X13042500Y19562500D02*
X13957500Y18647501D01*
X13212500Y20532500D02*
X13289999Y20455000D01*
X13139999Y20532500D02*
X13212500D01*
X13289999Y20455000D02*
X14050000D01*
X14172501Y20332500D02*
X14802499D01*
X14050000Y20455000D02*
X14172501Y20332500D01*
X15300000Y20610001D02*
Y20645000D01*
X15237500Y20547501D02*
X15300000Y20610001D01*
X15237500Y20545000D02*
Y20547501D01*
X15470000Y21592500D02*
X15857500D01*
X16039999Y21410001D01*
X16549525Y20090474D02*
X16620000Y20020000D01*
X16432500Y19052499D02*
X16620000Y19239999D01*
Y20020000D01*
X16102026Y20090474D02*
X16549525D01*
X16039999Y20152499D02*
X16102026Y20090474D01*
X16039999Y20152499D02*
Y21410001D01*
X11010000Y23852499D02*
X11022500Y23864999D01*
X10947500Y23852499D02*
X11010000D01*
X10951390Y23766110D02*
X10972500Y23745000D01*
X10951390Y23766110D02*
Y23801939D01*
X10947500Y23805830D02*
X10951390Y23801939D01*
X10947500Y23805830D02*
Y23852499D01*
X12700000Y21755000D02*
Y21845000D01*
X12851245Y21700255D02*
X12853500Y21698000D01*
X12754745Y21700255D02*
X12851245D01*
X12700000Y21755000D02*
X12754745Y21700255D01*
X12385000Y21185001D02*
Y21327499D01*
X12268500Y21444000D02*
X12385000Y21327499D01*
X12136500Y21444000D02*
X12268500D01*
X12232500Y21182500D02*
Y21274500D01*
X12136500Y21317000D02*
X12190000D01*
X12232500Y21274500D01*
X12535000Y21185001D02*
Y21397501D01*
X12361500Y21571001D02*
X12535000Y21397501D01*
X12136500Y21571001D02*
X12361500D01*
D15*
X17549500Y20075000D02*
D03*
X15582500Y22592500D02*
D03*
X15487500Y23137500D02*
D03*
X15941499Y19320000D02*
D03*
X11369500Y23180000D02*
D03*
X11371000Y23055000D02*
D03*
X12322500Y21830000D02*
D03*
X15853500Y19320000D02*
D03*
X17637500Y20075000D02*
D03*
X15494501Y22592500D02*
D03*
X12234500Y21830000D02*
D03*
X11457500Y23180000D02*
D03*
X11459000Y23055000D02*
D03*
X15575500Y23137500D02*
D03*
D16*
X15880000Y19900999D02*
D03*
X14942500Y23163000D02*
D03*
X14839999Y21367500D02*
D03*
X14560001Y21370500D02*
D03*
X15880000Y19989000D02*
D03*
X14942500Y23075000D02*
D03*
X14560001Y21282500D02*
D03*
X14839999Y21279500D02*
D03*
D17*
X10972500Y23630000D02*
D03*
X12535000Y21070000D02*
D03*
X12385000D02*
D03*
X15542500Y24189999D02*
D03*
X14457500D02*
D03*
X12232500Y21067500D02*
D03*
X12535000Y21185001D02*
D03*
X14457500Y24075000D02*
D03*
X11320000Y16939999D02*
D03*
Y16825000D02*
D03*
X12385000Y21185001D02*
D03*
X12232500Y21182500D02*
D03*
X15542500Y24075000D02*
D03*
X10972500Y23745000D02*
D03*
D20*
X13142500Y21577499D02*
D03*
X15480000Y23264999D02*
D03*
X10625000Y19422501D02*
D03*
X13139999Y21455000D02*
D03*
X14967500Y19207500D02*
D03*
X12814999Y21845000D02*
D03*
X12810001Y21975000D02*
D03*
X12695000D02*
D03*
X11137500Y23864999D02*
D03*
X14852499Y19207500D02*
D03*
X11022500Y23864999D02*
D03*
X12700000Y21845000D02*
D03*
X13027499Y21577499D02*
D03*
X10740000Y19422501D02*
D03*
X15595001Y23264999D02*
D03*
X13025000Y21455000D02*
D03*
D22*
X15764999Y19907500D02*
D03*
X15480000Y20027499D02*
D03*
X15752499Y19656000D02*
D03*
X15414999Y19799001D02*
D03*
X15555000Y19639499D02*
D03*
X15422501Y19659500D02*
D03*
X15880000Y19593500D02*
D03*
X15632500Y19583501D02*
D03*
X15880000Y19531500D02*
D03*
X15480000Y20089499D02*
D03*
X15764999Y19969501D02*
D03*
X15752499Y19593999D02*
D03*
X15632500Y19521500D02*
D03*
X15555000Y19577499D02*
D03*
X15422501Y19597501D02*
D03*
X15414999Y19860999D02*
D03*
D26*
X15684500Y19910001D02*
D03*
X15492500Y19942499D02*
D03*
X15737500Y19822499D02*
D03*
X15769000Y19462500D02*
D03*
X15475999Y19522501D02*
D03*
X15305000Y19337500D02*
D03*
X15831000Y19462500D02*
D03*
X15799500Y19822499D02*
D03*
X15622501Y19910001D02*
D03*
X15430499Y19942499D02*
D03*
X15414000Y19522501D02*
D03*
X15367000Y19337500D02*
D03*
D73*
X15686000Y19918550D02*
X15689549Y19914999D01*
X15810001Y19642500D02*
X15814999D01*
X15804021D02*
X15810001D01*
X17469351Y20097955D02*
X17469695D01*
X15584236Y22374718D02*
X15584517Y22374435D01*
X15686000Y19960999D02*
X15687500Y19962498D01*
X15517500Y22375000D02*
X15517783Y22374718D01*
X15177985Y22373468D02*
X15179517Y22371936D01*
X15427499Y20035001D02*
X15431250Y20031250D01*
X15543750Y19941249D02*
X15545000Y19939999D01*
X15492500Y19942499D02*
X15493750Y19941249D01*
X15476250Y20031250D02*
X15480000Y20027499D01*
X15685001Y19910001D02*
X15689999Y19914999D01*
X15689549D02*
X15689999D01*
X15684500Y19910001D02*
X15685001D01*
X15728951Y19831049D02*
X15737500Y19822499D01*
X15699930Y19831049D02*
X15728951D01*
X15690981Y19839999D02*
X15699930Y19831049D01*
X15685001Y19839999D02*
X15690981D01*
X15814999Y19642500D02*
X15852621Y19604878D01*
X15791521Y19655000D02*
X15804021Y19642500D01*
X15753499Y19655000D02*
X15791521D01*
X15861292Y19604550D02*
X15873950D01*
X15852621Y19604878D02*
X15860963D01*
X15752499Y19656000D02*
X15753499Y19655000D01*
X15486520Y19780000D02*
X15492500D01*
X15873950Y19604550D02*
X15877499Y19600999D01*
X15860963Y19604878D02*
X15861292Y19604550D01*
X15768636Y19462865D02*
X15769000Y19462500D01*
X15750000Y19542500D02*
X15753978Y19538522D01*
X15297501Y19385001D02*
X15301250Y19381250D01*
Y19341251D02*
X15305000Y19337500D01*
X15301250Y19341251D02*
Y19381250D01*
X14939999Y23165500D02*
X14942500Y23163000D01*
X15114999Y22375000D02*
X15116531Y22373468D01*
X15060484Y22225967D02*
X15062016Y22224435D01*
X14997501Y22227499D02*
X14999033Y22225967D01*
X14837500Y21364999D02*
X14839999Y21367500D01*
X14560001Y21370500D02*
X14563000Y21367500D01*
X12852499Y21316000D02*
X12853500Y21317000D01*
X12742500Y21314999D02*
X12743500Y21316000D01*
X11367128Y23177629D02*
X11369500Y23180000D01*
X10622500Y19420000D02*
X10625000Y19422501D01*
X10562500Y19420000D02*
X10622500D01*
X15880000Y19448463D02*
Y19450000D01*
X15860001Y19326498D02*
Y19428464D01*
X15880000Y19448463D01*
X15853500Y19320000D02*
X15860001Y19326498D01*
X15676849Y19530330D02*
X15691521Y19545000D01*
X15539517Y24192982D02*
X15542500Y24189999D01*
X15479500Y22607500D02*
X15492000Y22595000D01*
X15494501Y22592500D01*
X15473729Y20095770D02*
X15480000Y20089499D01*
X15764999Y19969501D02*
X15766000Y19968500D01*
X15427499Y20100000D02*
X15431729Y20095770D01*
X15799500Y19822499D02*
X15799750Y19822249D01*
Y19777750D02*
Y19822249D01*
Y19777750D02*
X15800000Y19777499D01*
X15759000Y19587500D02*
X15810001D01*
X15752499Y19593999D02*
X15759000Y19587500D01*
X15691521Y19545000D02*
X15692500D01*
X15414999Y19860999D02*
Y19863499D01*
X15375000Y19939999D02*
X15377499Y19942499D01*
X15366000Y19338499D02*
X15367000Y19337500D01*
X15364999Y19385001D02*
X15366000Y19384000D01*
Y19338499D02*
Y19384000D01*
X14942000Y23074500D02*
X14942500Y23075000D01*
X14457500Y24189999D02*
X14457500Y24190001D01*
X12692500Y21972501D02*
X12695000Y21975000D01*
X12136250Y21697749D02*
X12136500Y21698000D01*
X11459000Y23055000D02*
X11469128Y23065129D01*
X11457500Y23180000D02*
X11460129Y23182629D01*
X11457500Y23056500D02*
X11459000Y23055000D01*
X12025000Y21697501D02*
X12025250Y21697749D01*
X14852499Y19207500D02*
X14872501Y19227499D01*
D74*
X17492650Y20075000D02*
X17549500D01*
X17469695Y20097955D02*
X17492650Y20075000D01*
X15644026Y22602629D02*
X15644540D01*
X15641925Y22600526D02*
X15644026Y22602629D01*
X15765950Y19906551D02*
X15817937D01*
X15819485Y19905000D01*
X15764999Y19907500D02*
X15765950Y19906551D01*
X15590527Y22600526D02*
X15641925D01*
X15582500Y22592500D02*
X15590527Y22600526D01*
X15517783Y22374718D02*
X15584236D01*
X15387500Y22227499D02*
X15455000D01*
X15861363Y19904637D02*
X15866000Y19900000D01*
X15820364Y19904637D02*
X15861363D01*
X15820000Y19905000D02*
X15820364Y19904637D01*
X15819485Y19905000D02*
X15820000D01*
X15625000Y19641986D02*
Y19642500D01*
X15624486D02*
X15625000D01*
Y19641986D02*
X15630949Y19636037D01*
X15558270Y19706561D02*
Y19707076D01*
X15555000Y19703290D02*
X15558270Y19706561D01*
X15555000Y19639499D02*
Y19703290D01*
X15492500Y19645000D02*
X15493015D01*
X15498515Y19639499D01*
X15621484D02*
X15624486Y19642500D01*
X15555000Y19639499D02*
X15621484D01*
X15498515D02*
X15555000D01*
X15630949Y19584450D02*
X15631900Y19583501D01*
X15630949Y19584450D02*
Y19636037D01*
X15631900Y19583501D02*
X15632500D01*
X14939999Y23165500D02*
Y23225000D01*
X15116531Y22373468D02*
X15177985D01*
X14999033Y22225967D02*
X15060484D01*
X14782500Y21364999D02*
X14837500D01*
X14563000Y21367500D02*
X14620000D01*
X12743500Y21316000D02*
X12852499D01*
X11307040Y23177629D02*
X11367128D01*
X11360050Y23065950D02*
Y23067950D01*
X11302564D02*
X11360050D01*
Y23065950D02*
X11371000Y23055000D01*
X11300000Y23070000D02*
X11300514D01*
X11302564Y23067950D01*
X12322500Y21830000D02*
X12377500D01*
X12025250Y21697749D02*
X12136250D01*
X12175000Y21830000D02*
X12234500D01*
X12632500Y21972501D02*
X12692500D01*
X15817250Y19969749D02*
X15817500Y19970000D01*
X15869534D01*
X15766550Y19969749D02*
X15817250D01*
X17638362Y20074138D02*
X17704633D01*
X15539517Y24192982D02*
Y24259436D01*
X15401270Y22595000D02*
X15492000D01*
X15323000Y22646001D02*
X15350269D01*
X15401270Y22595000D01*
X14942000Y22900000D02*
Y23074500D01*
X14457500Y24190001D02*
Y24257500D01*
X11469128Y23065129D02*
X11514540D01*
X11460129Y23182629D02*
X11512040D01*
X11457500Y23056500D02*
Y23180000D01*
X11137500Y23864999D02*
X11210000D01*
D77*
X15585001Y19277499D02*
X15656560Y19349060D01*
Y19405685D01*
X15681798Y19430923D01*
X15941499Y19320000D02*
X15947501Y19325999D01*
X15262622Y19482240D02*
X15263142Y19482761D01*
X15321960Y19482240D02*
X15380260D01*
X15175630Y19489999D02*
X15183389Y19482240D01*
X15175626Y19489999D02*
X15175630D01*
X15321442Y19482761D02*
X15321960Y19482240D01*
X15183389D02*
X15262622D01*
X15380260D02*
X15514999Y19347501D01*
X15263142Y19482761D02*
X15321442D01*
X15582500Y19347501D02*
X15620000Y19385001D01*
X15514999Y19347501D02*
X15582500D01*
X14557500Y19422501D02*
X14563202Y19416798D01*
X15139606Y19285260D02*
X15142365Y19282500D01*
X15681798Y19430923D02*
Y19444298D01*
X15687500Y19450000D01*
D80*
X17637500Y20075000D02*
X17638362Y20074138D01*
X17704633D02*
X17705495Y20073277D01*
X10743750Y19426250D02*
X10878750D01*
X16269679Y15752499D02*
X16495000D01*
X16547501Y15700000D02*
X16552499D01*
X16495000Y15752499D02*
X16547501Y15700000D01*
X16263213Y15758966D02*
X16269679Y15752499D01*
X16241034Y15758966D02*
X16263213D01*
X16232500Y15767500D02*
X16241034Y15758966D01*
X16483931Y15683151D02*
X16553542Y15613541D01*
X16556459D01*
X16233167Y15683151D02*
X16483931D01*
X16195000Y16139999D02*
X16207069D01*
X16242068Y16175000D01*
X16460001D01*
X16195000Y16255000D02*
X16207069D01*
X16239569Y16222501D01*
X16417500D01*
X16537500Y16342500D01*
Y16837500D01*
X16539999Y16839999D01*
X16592500Y16307500D02*
Y16775829D01*
X16460001Y16175000D02*
X16592500Y16307500D01*
Y16775829D02*
X16599905Y16783234D01*
X11316250Y16943750D02*
X11320000Y16939999D01*
X11236250Y16943750D02*
X11316250D01*
X11232500Y16947501D02*
X11236250Y16943750D01*
D81*
X14232143Y20055006D02*
G03*
X14196593Y20090556I-35550J0D01*
G01*
X14196593D02*
G03*
X14161043Y20055006I0J-35550D01*
G01*
X14232143Y20035550D02*
G03*
X14267693Y20000000I35550J0D01*
G01*
X13947743Y20055006D02*
G03*
X13912193Y20090556I-35550J0D01*
G01*
X14054393D02*
G03*
X14018843Y20055006I0J-35550D01*
G01*
X13912193Y20090556D02*
G03*
X13876643Y20055006I0J-35550D01*
G01*
X14089943D02*
G03*
X14054393Y20090556I-35550J0D01*
G01*
X14089943Y20022516D02*
G03*
X14125491Y19986966I35550J0D01*
G01*
X13983293D02*
G03*
X14018843Y20022516I0J35550D01*
G01*
X14125493Y19986966D02*
G03*
X14161043Y20022516I0J35550D01*
G01*
X13841093Y19986966D02*
G03*
X13876643Y20022516I0J35550D01*
G01*
X13947743D02*
G03*
X13983293Y19986966I35550J0D01*
G01*
X13663342Y20055006D02*
G03*
X13627792Y20090556I-35550J0D01*
G01*
X13769994D02*
G03*
X13734444Y20055006I0J-35550D01*
G01*
X13627792Y20090556D02*
G03*
X13592242Y20055006I0J-35550D01*
G01*
X13805544D02*
G03*
X13769994Y20090556I-35550J0D01*
G01*
X13521143Y20055006D02*
G03*
X13485593Y20090556I-35550J0D01*
G01*
X13485593D02*
G03*
X13450043Y20055006I0J-35550D01*
G01*
X13414493Y20000000D02*
G03*
X13450043Y20035550I0J35550D01*
G01*
X13698894Y19986966D02*
G03*
X13734444Y20022516I0J35550D01*
G01*
X13663342D02*
G03*
X13698894Y19986966I35550J0D01*
G01*
X13805544Y20022516D02*
G03*
X13841093Y19986966I35550J0D01*
G01*
X13521143Y20022516D02*
G03*
X13556693Y19986966I35550J0D01*
G01*
X13556693D02*
G03*
X13592242Y20022516I0J35550D01*
G01*
X16189999Y19582500D02*
X16192500Y19580000D01*
Y19180000D02*
Y19580000D01*
X16117500Y19105000D02*
X16192500Y19180000D01*
X16114999Y19105000D02*
X16117500D01*
X14285001Y18995000D02*
Y19447501D01*
X13442500Y19727499D02*
X14005000D01*
X14285001Y19447501D01*
X14239999Y18977499D02*
Y19432500D01*
X14000000Y19672501D02*
X14239999Y19432500D01*
X13451430Y19672501D02*
X14000000D01*
X13447699Y19668768D02*
X13451430Y19672501D01*
X13441269Y19668768D02*
X13447699D01*
X13437500Y19664999D02*
X13441269Y19668768D01*
X14195000Y18947501D02*
Y19405000D01*
X13982500Y19617500D02*
X14195000Y19405000D01*
X13445331Y19607500D02*
X13455331Y19617500D01*
X13439999Y19607500D02*
X13445331D01*
X13455331Y19617500D02*
X13982500D01*
X14364999Y19050000D02*
Y19532500D01*
X14039999Y19857500D02*
X14364999Y19532500D01*
X13439999Y19857500D02*
X14039999D01*
X13395000Y19575000D02*
X13414627Y19555373D01*
X13395000Y19985001D02*
X13404343Y19994342D01*
X13395000Y19575000D02*
Y19985001D01*
X14435001Y19745000D02*
Y19960001D01*
X14517500Y19662500D02*
X15207169D01*
X14435001Y19745000D02*
X14517500Y19662500D01*
X14395000Y20000000D02*
X14435001Y19960001D01*
X14334682Y20000000D02*
X14395000D01*
X14196593Y20090556D02*
X14196593D01*
X14161043Y20022516D02*
Y20055006D01*
X14089943Y20022516D02*
Y20055006D01*
X14267693Y20000000D02*
X14334682D01*
X14232143Y20035550D02*
Y20055006D01*
X14054393Y20090556D02*
X14054393D01*
X13912193D02*
X13912193D01*
X14018843Y20022516D02*
Y20055006D01*
X13876643Y20022516D02*
Y20055006D01*
X13947743Y20022516D02*
Y20055006D01*
X15224669Y19645000D02*
X15230000D01*
X15207169Y19662500D02*
X15224669Y19645000D01*
X13983293Y19986966D02*
X13983293D01*
X14125491D02*
X14125493D01*
X13769994Y20090556D02*
X13769994D01*
X13627792D02*
X13627792D01*
X13805544Y20022516D02*
Y20055006D01*
X13663342Y20022516D02*
Y20055006D01*
X13734444Y20022516D02*
Y20055006D01*
X13485593Y20090556D02*
X13485593D01*
X13521143Y20022516D02*
Y20055006D01*
X13450043Y20035550D02*
Y20055006D01*
X13592242Y20022516D02*
Y20055006D01*
X13410001Y20000000D02*
X13414493D01*
X13404343Y19994342D02*
X13410001Y20000000D01*
X13698894Y19986966D02*
X13698894D01*
X13841093D02*
X13841093D01*
X13556693D02*
X13556693D01*
X13439626Y19555373D02*
X13442500Y19552499D01*
X13414627Y19555373D02*
X13439626D01*
X14325000Y19025000D02*
Y19489999D01*
X14020000Y19795000D02*
X14325000Y19489999D01*
X13437500Y19795000D02*
X14020000D01*
D84*
X15847501Y18597501D02*
X16005000Y18755000D01*
X13980000Y18602499D02*
X13984248Y18598251D01*
X13999945D01*
X14000697Y18597501D01*
X15847501D01*
X16005000Y18755000D02*
X16164999D01*
X16190752Y18729248D01*
Y18714249D02*
Y18729248D01*
Y18714249D02*
X16195000Y18710001D01*
X14533784Y19587999D02*
X14631784Y19489999D01*
X14895239D02*
X15175626D01*
X14861320Y19488440D02*
X14893678D01*
X14631784Y19489999D02*
X14859761D01*
X14861320Y19488440D01*
X14893678D02*
X14895239Y19489999D01*
X14511748Y19588252D02*
X14527444D01*
X14507500Y19592500D02*
X14511748Y19588252D01*
X14527444D02*
X14527698Y19587999D01*
X14533784D01*
X14402499Y19075000D02*
X14507500Y18970000D01*
X15912500D01*
X14402499Y19075000D02*
Y19564999D01*
X14055000Y19912500D02*
X14402499Y19564999D01*
X13442500Y19912500D02*
X14055000D01*
X15971007Y19500000D02*
X16070000D01*
X15953506Y19517500D02*
X15971007Y19500000D01*
X15950000Y19517500D02*
X15953506D01*
X16070000Y19500000D02*
X16130000Y19439999D01*
X15912500Y18970000D02*
X16130000Y19187500D01*
Y19439999D01*
X14500000Y19750000D02*
X14845000D01*
X14897501Y19802499D01*
X15110001D02*
X15201028Y19711472D01*
X15228528D01*
X15230000Y19710001D01*
X14897501Y19802499D02*
X15110001D01*
X15963680Y19738440D02*
X15987740Y19762500D01*
X16212500D02*
X16332500Y19642500D01*
X15987740Y19762500D02*
X16212500D01*
X15921561Y19738440D02*
X15963680D01*
X15882500Y19777499D02*
X15921561Y19738440D01*
X14325000Y19025000D02*
X14442500Y18907500D01*
X16045000D02*
X16332500Y19195000D01*
X14442500Y18907500D02*
X14467973D01*
X16024529D02*
X16045000D01*
X14467973D02*
X14468423Y18907050D01*
X16024077D01*
X16024529Y18907500D01*
X16332500Y19195000D02*
Y19642500D01*
X15479761Y19277499D02*
X15585001D01*
X15472000Y19285260D02*
X15479761Y19277499D01*
X15139606Y19285260D02*
X15472000D01*
X14563202Y19416798D02*
X14591577D01*
X14613374Y19395000D01*
X14952499D01*
X15062241Y19285260D01*
X15139606D01*
X14347501Y24292500D02*
X14439999Y24385001D01*
X15727499D01*
X14347501Y23946001D02*
Y24292500D01*
X14342500Y23941000D02*
X14347501Y23946001D01*
X15124516Y21411935D02*
X15257500Y21544919D01*
Y21870000D02*
X15480000Y22092500D01*
X15257500Y21544919D02*
Y21870000D01*
X15480000Y22092500D02*
X15762500D01*
X16060001Y22389999D02*
Y24052499D01*
X15762500Y22092500D02*
X16060001Y22389999D01*
X15727499Y24385001D02*
X16060001Y24052499D01*
X14555000Y21222501D02*
Y21277499D01*
X14560001Y21282500D01*
X14839999Y21222501D02*
Y21279500D01*
X15082500Y21357500D02*
X15125000Y21314999D01*
X15082500Y21357500D02*
Y21445000D01*
X15210001Y21572501D01*
Y21887500D02*
X15455000Y22132500D01*
X15210001Y21572501D02*
Y21887500D01*
X15395000Y23960500D02*
X15414500Y23941000D01*
X15395000Y23960500D02*
Y24289999D01*
X15445000Y24339999D01*
X15702499D01*
X15455000Y22132500D02*
X15735001D01*
X16014999Y22412500D02*
Y24027499D01*
X15702499Y24339999D02*
X16014999Y24027499D01*
X15735001Y22132500D02*
X16014999Y22412500D01*
D85*
X15335001Y19825000D02*
Y19952499D01*
X15717261Y20002260D02*
X15752499Y20037500D01*
X15335001Y19952499D02*
X15372501Y19989999D01*
X15195000Y19812500D02*
Y20075000D01*
X15163197Y20106802D02*
X15195000Y20075000D01*
X15217500Y19789999D02*
X15300000D01*
X15335001Y19825000D01*
X15195000Y19812500D02*
X15217500Y19789999D01*
X15672377Y20000990D02*
X15702623D01*
X15703893Y20002260D01*
X15671107D02*
X15672377Y20000990D01*
X15594760Y20002260D02*
X15671107D01*
X15703893D02*
X15717261D01*
X15582500Y19989999D02*
X15594760Y20002260D01*
X15372501Y19989999D02*
X15582500D01*
X15950000Y19514999D02*
Y19517500D01*
X15831000Y19462500D02*
X15878751D01*
X15838277Y19455223D02*
X15874776D01*
X15878250Y19538251D02*
X15878751Y19537750D01*
X15877499Y19539000D02*
X15878250Y19538251D01*
X15831000Y19462500D02*
X15838277Y19455223D01*
X15874776D02*
X15880000Y19450000D01*
Y19455223D02*
Y19462500D01*
Y19527499D02*
Y19536501D01*
D86*
X15686000Y19918550D02*
Y19960999D01*
X15431250Y20031250D02*
X15476250D01*
X15493750Y19941249D02*
X15543750D01*
X15467520Y19799001D02*
X15486520Y19780000D01*
X15414999Y19799001D02*
X15467520D01*
X15422501Y19657001D02*
Y19659500D01*
X15416431Y19650929D02*
X15422501Y19657001D01*
X15399409Y19650929D02*
X15416431D01*
X15397708Y19649228D02*
X15399409Y19650929D01*
X15378848Y19649228D02*
X15397708D01*
X15365781Y19648279D02*
X15377899D01*
X15378848Y19649228D01*
X15362500Y19645000D02*
X15365781Y19648279D01*
X15768636Y19462865D02*
Y19496364D01*
X15753978Y19511021D02*
Y19538522D01*
Y19511021D02*
X15768636Y19496364D01*
X15947501Y19325999D02*
Y19382500D01*
X15484219Y19564221D02*
X15487500Y19567500D01*
X15478149Y19522501D02*
X15484219Y19528571D01*
Y19564221D01*
X15475999Y19522501D02*
X15478149D01*
X15880000Y19462500D02*
Y19527499D01*
X15362500Y19579999D02*
X15367139D01*
X15379012Y19591873D02*
X15416873D01*
X15367139Y19579999D02*
X15379012Y19591873D01*
X15555000Y19517500D02*
Y19577499D01*
X15632500Y19521500D02*
Y19524001D01*
X15651701Y19530070D02*
X15651961Y19530330D01*
X15676849D01*
X15357500Y19517500D02*
X15360001Y19520000D01*
X15632500Y19524001D02*
X15638570Y19530070D01*
X15411501Y19520000D02*
X15414000Y19522501D01*
X15638570Y19530070D02*
X15651701D01*
X15416873Y19591873D02*
X15422501Y19597501D01*
X15360001Y19520000D02*
X15411501D01*
X15431729Y20095770D02*
X15473729D01*
X15622501Y19910001D02*
Y19962498D01*
X15377499Y19942499D02*
X15430499D01*
X15375000Y19903499D02*
Y19939999D01*
Y19903499D02*
X15414999Y19863499D01*
X14872501Y19227499D02*
Y19285001D01*
D91*
X10740000Y19422501D02*
X10743750Y19426250D01*
X10878750D02*
X10882500Y19430000D01*
D96*
X15542500Y24075000D02*
X15603596D01*
X15612500Y24066096D01*
Y24028395D02*
Y24066096D01*
X15668500Y23941000D02*
Y23972395D01*
X15612500Y24028395D02*
X15668500Y23972395D01*
X14596500Y23941000D02*
Y23983501D01*
X14505000Y24075000D02*
X14596500Y23983501D01*
X14457500Y24075000D02*
X14505000D01*
X11245000Y16824699D02*
X11245300Y16825000D01*
X11320000D01*
X11067800Y16824699D02*
X11245000D01*
X10920300Y16972200D02*
X11067800Y16824699D01*
X10920000Y17027499D02*
X10920300Y17027200D01*
Y16972200D02*
Y17027200D01*
D97*
X15871500Y19527499D02*
X15880000Y19536000D01*
Y19536501D01*
X15805000Y19535001D02*
X15810953D01*
X15818452Y19527499D01*
X15871500D01*
D99*
X16567500Y18592500D02*
Y18852499D01*
X16505000Y18914999D02*
X16567500Y18852499D01*
X12765000Y18189999D02*
X16164999D01*
X16567500Y18592500D01*
X12570000Y17995000D02*
X12765000Y18189999D01*
D101*
X12853500Y21571001D02*
X13021001D01*
X13027499Y21577499D01*
X12853500Y21444000D02*
X13014000D01*
X13025000Y21455000D01*
D102*
X10952500Y19470000D02*
X11017336Y19534836D01*
X11158618D01*
X14814999Y22646001D02*
X14857018Y22603983D01*
X15026982Y22603983D02*
X15069000Y22646001D01*
X10952500Y19550000D02*
X10953399Y19549100D01*
D103*
X13183498Y23481812D02*
Y23556837D01*
X13119330Y23621005D02*
X13183498Y23556837D01*
X13225000Y23499004D02*
Y23557500D01*
X13287500Y23620000D01*
X13183498Y23481812D02*
X13242809Y23422501D01*
X13225000Y23499004D02*
X13260001Y23464001D01*
X13347191D01*
X13426501Y23384691D01*
Y23280309D02*
Y23384691D01*
X13242809Y23422501D02*
X13330000D01*
X13385001Y23367500D01*
Y23297501D02*
Y23367500D01*
X13342191Y23195998D02*
X13426501Y23280309D01*
X13220435Y23195998D02*
X13342191D01*
X13325000Y23237500D02*
X13385001Y23297501D01*
X13237625Y23237500D02*
X13325000D01*
X13228252Y23246873D02*
Y23326875D01*
X13186749Y23229683D02*
X13220435Y23195998D01*
X13186749Y23229683D02*
Y23326875D01*
X13228252Y23246873D02*
X13237625Y23237500D01*
X13177374Y23336250D02*
X13186749Y23326875D01*
X13113750Y23336250D02*
X13177374D01*
X13112500Y23335001D02*
X13113750Y23336250D01*
X13228252Y23326875D02*
X13238875Y23337500D01*
X13302499D01*
D104*
X14529800Y20919147D02*
Y21171204D01*
X14400000Y21301003D02*
Y21630000D01*
Y21301003D02*
X14529800Y21171204D01*
X14360400Y21284599D02*
Y21646404D01*
Y21284599D02*
X14490199Y21154800D01*
Y20919147D02*
Y21154800D01*
X14291403Y22242900D02*
X14832899D01*
X14275000Y22282500D02*
X14852499D01*
X13732500Y21739999D02*
X14275000Y22282500D01*
X13772099Y21723598D02*
X14291403Y22242900D01*
X14852499Y22282500D02*
X14894600Y22324600D01*
X14868903Y22242900D02*
X14911003Y22285001D01*
X14832899Y22242900D02*
X14868903D01*
X14817500Y22227499D02*
X14832899Y22242900D01*
X13772099Y20987900D02*
Y21723598D01*
X13732500Y20971498D02*
Y21739999D01*
X14181020Y20808611D02*
Y20836020D01*
X14185564Y20901514D02*
X14224760Y20862317D01*
Y20796349D02*
Y20862317D01*
X14080437Y20785001D02*
X14157410D01*
X14064034Y20745399D02*
X14173811D01*
X14181020Y20836020D02*
X14185001Y20839999D01*
X14173811Y20745399D02*
X14224760Y20796349D01*
X14157410Y20785001D02*
X14181020Y20808611D01*
X13985944Y20823489D02*
X14064034Y20745399D01*
X14002345Y20863091D02*
X14080437Y20785001D01*
X15214600Y22508904D02*
Y22717101D01*
Y22508904D02*
X15309337Y22414166D01*
X15214600Y22717101D02*
X15263260Y22765759D01*
X15175000Y22492500D02*
Y22733504D01*
Y22492500D02*
X15264999Y22402499D01*
X15175000Y22733504D02*
X15246857Y22805360D01*
X15196001Y22900000D02*
X15246027Y22849973D01*
X15263260Y22765759D02*
X15308260D01*
X15290727Y22849973D02*
X15303200Y22837500D01*
X15342799Y22837500D02*
X15355273Y22849973D01*
X15246027D02*
X15290729D01*
X15303200Y22816702D02*
Y22837500D01*
X15342799Y22800301D02*
Y22837500D01*
X15308260Y22765759D02*
X15342799Y22800301D01*
X15246857Y22805360D02*
X15291856D01*
X15303200Y22816702D01*
X15355273Y22849973D02*
X15399973D01*
X15450000Y22900000D01*
X13880507Y20823489D02*
X13985944D01*
X13896910Y20863091D02*
X14002345D01*
X15231323Y22213823D02*
Y22236324D01*
X15168741Y22212100D02*
X15229601D01*
X14486481Y20915427D02*
X14490199Y20919147D01*
X14486481Y20901480D02*
Y20915427D01*
X14482500Y20897501D02*
X14486481Y20901480D01*
X14828596Y22114600D02*
X15053596D01*
X14360400Y21646404D02*
X14828596Y22114600D01*
X15053596D02*
X15148209Y22209212D01*
X15229601Y22212100D02*
X15231323Y22213823D01*
X15165852Y22209212D02*
X15168741Y22212100D01*
X15148209Y22209212D02*
X15165852D01*
X15237900Y22242900D02*
X15256120D01*
X15267368Y22254147D01*
X15231323Y22236324D02*
X15237900Y22242900D01*
X15267368Y22254147D02*
Y22366832D01*
X15264999Y22369200D02*
X15267368Y22366832D01*
X15264999Y22369200D02*
Y22402499D01*
X13732500Y20971498D02*
X13880507Y20823489D01*
X14984973Y22401646D02*
Y22443324D01*
X14973726Y22390401D02*
X14984973Y22401646D01*
X14922200Y22506097D02*
X14984973Y22443324D01*
X14950400Y22390401D02*
X14973726D01*
X14935001Y22375000D02*
X14950400Y22390401D01*
X14922223Y22375000D02*
X14935001D01*
X14814999Y22646001D02*
X14910953D01*
X14922200Y22634753D01*
Y22506097D02*
Y22634753D01*
X14906824Y22359599D02*
X14922223Y22375000D01*
X14906824Y22335847D02*
Y22359599D01*
X14894600Y22324600D02*
X14895576D01*
X14906824Y22335847D01*
X13772099Y20987900D02*
X13896910Y20863091D01*
X14973048Y22646001D02*
X15069000D01*
X15024573Y22345721D02*
Y22459727D01*
X15012975Y22471326D02*
X15024573Y22459727D01*
X14961800Y22522501D02*
Y22634753D01*
Y22522501D02*
X15012975Y22471326D01*
X14961800Y22634753D02*
X14973048Y22646001D01*
X15012975Y22471326D02*
Y22471326D01*
X14911003Y22285001D02*
X14963850D01*
X15024573Y22345721D01*
X15307100Y22348483D02*
Y22388164D01*
X14533521Y20901480D02*
Y20915427D01*
X14529800Y20919147D02*
X14533521Y20915427D01*
Y20901480D02*
X14537500Y20897501D01*
X14400000Y21630000D02*
X14845000Y22075000D01*
X15070000D01*
X15164612Y22169612D01*
X15252112D02*
X15306969Y22224467D01*
X15164612Y22169612D02*
X15252112D01*
X15306969Y22224467D02*
Y22348354D01*
X15307100Y22348483D01*
Y22388164D02*
X15309337Y22390401D01*
X15324738Y22375000D02*
X15337500D01*
X15309337Y22390401D02*
X15324738Y22375000D01*
X15309337Y22390401D02*
Y22414166D01*
D110*
X19735001Y23814000D02*
D03*
X19727499Y22853999D02*
D03*
X19764999Y16403000D02*
D03*
X19752499Y15210500D02*
D03*
X19727499Y23108000D02*
D03*
X19735001Y24067999D02*
D03*
X19727499Y22600000D02*
D03*
X19735001Y23560001D02*
D03*
X19764999Y16657001D02*
D03*
X19752499Y15464500D02*
D03*
D111*
X12290000Y18060001D02*
D03*
Y17950000D02*
D03*
D112*
X14607500Y14945000D02*
D03*
X13131500Y14947501D02*
D03*
X14942000Y22900000D02*
D03*
X14353500Y14945000D02*
D03*
X14561000Y22646001D02*
D03*
X14688000Y22900000D02*
D03*
X15450000D02*
D03*
X15069000Y22646001D02*
D03*
X14814999D02*
D03*
X15196001Y22900000D02*
D03*
X12877499Y14947501D02*
D03*
D113*
X10917500Y19910500D02*
D03*
Y19109500D02*
D03*
D114*
X10882500Y19942999D02*
D03*
X10297500D02*
D03*
X10882500Y19077000D02*
D03*
X10297500Y19077000D02*
D03*
D115*
X10952500Y19789999D02*
D03*
Y19230000D02*
D03*
X10882500Y19270000D02*
D03*
Y19350000D02*
D03*
Y19430000D02*
D03*
Y19750000D02*
D03*
Y19670000D02*
D03*
Y19589999D02*
D03*
X10952500Y19389999D02*
D03*
Y19470000D02*
D03*
Y19630000D02*
D03*
Y19550000D02*
D03*
D116*
X11430000Y15700000D02*
D03*
D117*
X10960000Y15400000D02*
D03*
Y16000000D02*
D03*
D118*
X15323000Y22646001D02*
D03*
D119*
X15414500Y23941000D02*
D03*
X14596500D02*
D03*
X15668500D02*
D03*
X14342500D02*
D03*
D120*
X14217999Y23230000D02*
D03*
X15792999D02*
D03*
D121*
X12914999Y24214999D02*
D03*
D122*
X13414999D02*
D03*
D123*
X11017500Y19870000D02*
D03*
D124*
X11017500Y19150000D02*
D03*
D125*
X17735001Y24114999D02*
D03*
X18035001D02*
D03*
D126*
X15694659Y19380200D02*
D03*
X13977499Y18442500D02*
D03*
X16082500Y18710001D02*
D03*
X13267500Y19772501D02*
D03*
X15187500Y20330000D02*
D03*
X15495000Y19450000D02*
D03*
X18180000Y18660001D02*
D03*
X14877499Y19527499D02*
D03*
X17935001Y18827499D02*
D03*
X15232500Y19517500D02*
D03*
X17932500Y19075000D02*
D03*
X18492500Y19117500D02*
D03*
X15364999Y19710001D02*
D03*
X15562500Y19189999D02*
D03*
X18235001Y19095000D02*
D03*
X15170000Y20100000D02*
D03*
X15752499Y20037500D02*
D03*
X15167500Y19450000D02*
D03*
X11056906Y23626488D02*
D03*
X15232500Y20037500D02*
D03*
X14497501Y19972501D02*
D03*
X14445000Y17880000D02*
D03*
X16142500Y19627499D02*
D03*
X14567500Y22064999D02*
D03*
X15880000Y19650000D02*
D03*
X14512500Y22064999D02*
D03*
X15567500Y20412500D02*
D03*
X19994092Y24253578D02*
D03*
X19744092Y24503578D02*
D03*
X19508806Y23757785D02*
D03*
X19244092Y24503578D02*
D03*
X19008806Y24257785D02*
D03*
X19508806D02*
D03*
X19008806Y23757785D02*
D03*
X19994092Y23753578D02*
D03*
X19258806Y23507785D02*
D03*
X19994092Y23253578D02*
D03*
X19035001Y23145000D02*
D03*
X18744092Y24503578D02*
D03*
X18508806Y24257785D02*
D03*
Y23757785D02*
D03*
Y24007785D02*
D03*
X18244092Y24503578D02*
D03*
X18008806Y24257785D02*
D03*
Y24007785D02*
D03*
X18758806Y23507785D02*
D03*
X18258806D02*
D03*
X18758806Y23257785D02*
D03*
X18008806D02*
D03*
X17995667Y23746065D02*
D03*
X20020053Y22755145D02*
D03*
X19994092Y22253578D02*
D03*
X19508806Y22257785D02*
D03*
Y22757785D02*
D03*
X19008806Y23007785D02*
D03*
Y22507785D02*
D03*
X19758806Y22007785D02*
D03*
X19250000Y22000000D02*
D03*
X19080000Y22005000D02*
D03*
X18515378Y23008966D02*
D03*
X18508806Y22507785D02*
D03*
X19003836Y22242226D02*
D03*
X18508806Y22257785D02*
D03*
X18258806Y22757785D02*
D03*
X18008806Y22507785D02*
D03*
X18258806Y22257785D02*
D03*
X18947040Y22000130D02*
D03*
X18510599Y22002563D02*
D03*
X18008806Y22007785D02*
D03*
X17758806Y24257785D02*
D03*
X17744092Y24503578D02*
D03*
X17758806Y24007785D02*
D03*
X17258806Y24257785D02*
D03*
X17244092Y24503578D02*
D03*
X17008806Y24007785D02*
D03*
X17758806Y23507785D02*
D03*
X17508806Y23257785D02*
D03*
X17464999Y23785001D02*
D03*
X17258806Y23757785D02*
D03*
X16758806Y24257785D02*
D03*
X16744092Y24503578D02*
D03*
X16758806Y23757785D02*
D03*
X16508806Y24007785D02*
D03*
X16263295Y24250679D02*
D03*
X16244092Y24503578D02*
D03*
X16258806Y23757785D02*
D03*
X16902322Y23282207D02*
D03*
X17852499Y23139999D02*
D03*
X17758411Y22995917D02*
D03*
X17061456Y22978032D02*
D03*
X17508806Y22507785D02*
D03*
Y22757785D02*
D03*
X17758806Y22257785D02*
D03*
X17508806Y22007785D02*
D03*
X17258806Y22257785D02*
D03*
X17093958Y22593031D02*
D03*
X17004782Y22005441D02*
D03*
X16600000Y23155000D02*
D03*
X16599628Y23028865D02*
D03*
X16602499Y22900000D02*
D03*
X16048807Y22037785D02*
D03*
X19997472Y21747697D02*
D03*
X19508806Y21757785D02*
D03*
X19994141Y20768086D02*
D03*
X19994092Y21253578D02*
D03*
X19258806Y21007785D02*
D03*
Y21257785D02*
D03*
Y20757785D02*
D03*
X19024541Y20555128D02*
D03*
X18758806Y21507785D02*
D03*
X18508806Y21757785D02*
D03*
Y21007785D02*
D03*
Y21257785D02*
D03*
X17875000Y21752499D02*
D03*
X18852499Y20550000D02*
D03*
X19258806Y20507785D02*
D03*
X19217039Y20312630D02*
D03*
X19994092Y20253577D02*
D03*
X19256010Y20251953D02*
D03*
X19984146Y19765150D02*
D03*
X19177040Y19722629D02*
D03*
X19039999Y20085001D02*
D03*
X18847501Y20322501D02*
D03*
X18852499Y20070000D02*
D03*
X18847501Y19697501D02*
D03*
X17700000Y20714999D02*
D03*
X17535001Y20614999D02*
D03*
X17697501Y20314999D02*
D03*
X17508806Y21507785D02*
D03*
X16648807Y21857785D02*
D03*
X17508806Y21257785D02*
D03*
X16474194Y21262964D02*
D03*
X16388806Y21457785D02*
D03*
X16308806Y21117786D02*
D03*
X16118806Y20947784D02*
D03*
X17258806Y20757785D02*
D03*
X16928806Y20887785D02*
D03*
X17508806Y20757785D02*
D03*
X16591458Y20575533D02*
D03*
X16162500Y20250000D02*
D03*
X17673923Y19855531D02*
D03*
X17695930Y19688554D02*
D03*
X16102499Y20217500D02*
D03*
X17469351Y20097955D02*
D03*
X16439999Y19917500D02*
D03*
X16012500Y19710001D02*
D03*
X15938806Y22117786D02*
D03*
X15897017Y21981937D02*
D03*
X15764517Y21989436D02*
D03*
X15758806Y23007785D02*
D03*
X15744092Y24503578D02*
D03*
X15758806Y22507785D02*
D03*
Y22757785D02*
D03*
X15644540Y22602629D02*
D03*
X15697017Y21989436D02*
D03*
X15838806Y21727785D02*
D03*
X15976459Y20395532D02*
D03*
X15882500Y20100000D02*
D03*
X15781458Y20438033D02*
D03*
X15705000Y21807500D02*
D03*
X15689999Y20100000D02*
D03*
X15687500Y19962498D02*
D03*
X15505605Y23759955D02*
D03*
X15487500Y23200000D02*
D03*
X15584517Y22374435D02*
D03*
X15578806Y22197784D02*
D03*
X15518806Y21997784D02*
D03*
X15498958Y21650533D02*
D03*
X15410001Y23295000D02*
D03*
X15258806Y23257785D02*
D03*
X15439999Y23200000D02*
D03*
X15410001Y23247501D02*
D03*
X15258806Y24007785D02*
D03*
X15244092Y24503578D02*
D03*
X15253680Y23503970D02*
D03*
X15410001Y23117500D02*
D03*
Y23164999D02*
D03*
X15455000Y22227499D02*
D03*
X15179517Y22371936D02*
D03*
X15567500Y20352499D02*
D03*
X15427499Y20035001D02*
D03*
X15545000Y19939999D02*
D03*
X15305000Y21620000D02*
D03*
X15298807Y21207785D02*
D03*
X15198956Y21410532D02*
D03*
Y21315532D02*
D03*
X15397501Y20530000D02*
D03*
X15198946Y21060315D02*
D03*
X15185001Y20639999D02*
D03*
X15186458Y20273032D02*
D03*
X15820000Y19905000D02*
D03*
X15880000Y19839999D02*
D03*
X15685001Y19839999D02*
D03*
X15810001Y19642500D02*
D03*
X15688271Y19707076D02*
D03*
X15685773Y19772075D02*
D03*
X15687500Y19645000D02*
D03*
X15623273Y19837074D02*
D03*
Y19774574D02*
D03*
X15558270Y19839575D02*
D03*
X15623273Y19709575D02*
D03*
X15558270Y19707076D02*
D03*
Y19772075D02*
D03*
X15493272Y19842075D02*
D03*
X15297501Y19839999D02*
D03*
X15493272Y19709575D02*
D03*
X15492500Y19780000D02*
D03*
X15625000Y19642500D02*
D03*
X15492500Y19645000D02*
D03*
X15362500Y19645000D02*
D03*
X19994092Y18753578D02*
D03*
Y19253578D02*
D03*
X19997475Y18265742D02*
D03*
X19758806Y18507785D02*
D03*
X19008806Y19007785D02*
D03*
X18750000Y19000000D02*
D03*
X19008806Y18757785D02*
D03*
X18758806D02*
D03*
X19502023Y17744514D02*
D03*
Y17994514D02*
D03*
X20002023Y17744514D02*
D03*
X19744092Y17503578D02*
D03*
X19258806Y18257785D02*
D03*
X19002023Y17994514D02*
D03*
Y17744514D02*
D03*
X18274472Y19498077D02*
D03*
X18193192Y19127238D02*
D03*
X18434492Y19078978D02*
D03*
X18258806Y18757785D02*
D03*
X18005232Y19076437D02*
D03*
X17802032Y18751318D02*
D03*
X18089052Y18664958D02*
D03*
X18502023Y17994514D02*
D03*
X18353212Y18649718D02*
D03*
X18744092Y17503578D02*
D03*
X18502023Y17744514D02*
D03*
X18030632Y18611618D02*
D03*
X18002023Y17994514D02*
D03*
Y17744514D02*
D03*
X19994092Y17253578D02*
D03*
X19508806Y17257785D02*
D03*
X19994092Y16753578D02*
D03*
X19575897Y17021031D02*
D03*
X19244092Y17503578D02*
D03*
X19000000Y17250000D02*
D03*
X19008806Y17007785D02*
D03*
X18508806D02*
D03*
X18244092Y17503578D02*
D03*
X18008806Y17257785D02*
D03*
X18508806D02*
D03*
X17518806Y18747784D02*
D03*
X17502023Y17994514D02*
D03*
X17744092Y17503578D02*
D03*
X17502023Y17744514D02*
D03*
X17258806Y17257785D02*
D03*
X17244092Y17503578D02*
D03*
X17208957Y17178032D02*
D03*
X17763197Y17006757D02*
D03*
X16994092Y18003578D02*
D03*
X16698807Y18737785D02*
D03*
X16994092Y17753578D02*
D03*
X16744092Y17503578D02*
D03*
X16571458Y18918031D02*
D03*
X16494092Y18003578D02*
D03*
Y17753578D02*
D03*
X16758806Y17257785D02*
D03*
X16542500Y16922501D02*
D03*
X16672501Y16767500D02*
D03*
X19994092Y16253578D02*
D03*
X19558806Y16387785D02*
D03*
X19994092Y16003578D02*
D03*
X19744092D02*
D03*
X19068806Y16247784D02*
D03*
X19244092Y16003578D02*
D03*
X19744092Y15753578D02*
D03*
X19494092D02*
D03*
X20000000Y15500000D02*
D03*
X19244092Y15503578D02*
D03*
X18994092Y15753578D02*
D03*
X18744092Y16003578D02*
D03*
X18494092Y15753578D02*
D03*
X18244092Y16003578D02*
D03*
X17994092Y15753578D02*
D03*
X18244092Y15503578D02*
D03*
X19744092Y15003578D02*
D03*
X19538806Y15197784D02*
D03*
X20000000Y15000000D02*
D03*
X19750000Y14750000D02*
D03*
X19244092Y15003578D02*
D03*
X19018806Y15147784D02*
D03*
X19250000Y14750000D02*
D03*
X18750000D02*
D03*
X18250000D02*
D03*
X17744092Y16003578D02*
D03*
X17356458Y15910532D02*
D03*
X17494092Y15753578D02*
D03*
X16987308Y16010007D02*
D03*
X16744092Y15753578D02*
D03*
X16630000Y15675000D02*
D03*
X16494092Y16003578D02*
D03*
X16602499Y15552499D02*
D03*
X17744092Y15503578D02*
D03*
X17750000Y14750000D02*
D03*
X17250000D02*
D03*
X16494092Y15003578D02*
D03*
X16750000Y14750000D02*
D03*
X16138959Y19500533D02*
D03*
X15947501Y19382500D02*
D03*
X15750000Y19542500D02*
D03*
X16360001Y19007500D02*
D03*
X16087500Y19289999D02*
D03*
X16046457Y19170532D02*
D03*
X15764999Y19135001D02*
D03*
X15870000Y19010001D02*
D03*
X15487500Y19567500D02*
D03*
X15492500Y19320000D02*
D03*
X15297501Y19385001D02*
D03*
Y19580000D02*
D03*
X15597501Y19137500D02*
D03*
X15395000Y19217500D02*
D03*
X15239999Y19160001D02*
D03*
X16253958Y18710532D02*
D03*
X16252470Y17494060D02*
D03*
X16250000Y17250000D02*
D03*
X16433957Y16368031D02*
D03*
X16196458Y16325533D02*
D03*
X15994092Y18003578D02*
D03*
X15914999Y18780000D02*
D03*
X15994092Y17753578D02*
D03*
X15744092Y17503578D02*
D03*
X15994092Y16503578D02*
D03*
X15744092Y16753578D02*
D03*
X16196458Y16073032D02*
D03*
X16232500Y15850000D02*
D03*
X16250000Y14750000D02*
D03*
X16238957Y15105531D02*
D03*
X16000000Y15000000D02*
D03*
X15750000Y15250000D02*
D03*
Y14750000D02*
D03*
X15597501Y18747501D02*
D03*
X15494092Y17753578D02*
D03*
Y18003578D02*
D03*
X15244092Y15253578D02*
D03*
X15500000Y15000000D02*
D03*
X15250000Y14750000D02*
D03*
X15015979Y24251611D02*
D03*
X15008806Y23757785D02*
D03*
X14939999Y23225000D02*
D03*
X14758806Y23507785D02*
D03*
X15062016Y22224435D02*
D03*
X14758806Y24007785D02*
D03*
X14744092Y24503578D02*
D03*
X14508806Y23257785D02*
D03*
Y23757785D02*
D03*
X14244092Y24503578D02*
D03*
X14008806Y24007785D02*
D03*
Y23507785D02*
D03*
X14258806Y22507785D02*
D03*
Y22757785D02*
D03*
X14298956Y22395532D02*
D03*
X14258806Y23007785D02*
D03*
X14538957Y22115532D02*
D03*
X14387016Y22161935D02*
D03*
X15139999Y22030000D02*
D03*
Y21947501D02*
D03*
X14339517Y22161935D02*
D03*
X13744092Y24503578D02*
D03*
X13508806Y24007785D02*
D03*
X13758806Y23757785D02*
D03*
X13244092Y24503578D02*
D03*
X13758806Y23257785D02*
D03*
X13512228Y23492760D02*
D03*
X13293958Y23278032D02*
D03*
X13508806Y23257785D02*
D03*
X13203957Y23645532D02*
D03*
X13008806Y24007785D02*
D03*
X12744092Y24503578D02*
D03*
X13121457Y23265532D02*
D03*
X12758806Y23257785D02*
D03*
X13806458Y23105531D02*
D03*
X12758806Y23007785D02*
D03*
X13631458Y22763033D02*
D03*
X13500000Y22500000D02*
D03*
Y22000000D02*
D03*
Y22250000D02*
D03*
X13008806Y22507785D02*
D03*
X12770607Y22755255D02*
D03*
X13258806Y22257785D02*
D03*
X15100000Y21787500D02*
D03*
X14796458Y21845532D02*
D03*
X14664517Y21621936D02*
D03*
X14662016Y21456937D02*
D03*
X14620000Y21367500D02*
D03*
X14782500Y21364999D02*
D03*
X15080000Y21105000D02*
D03*
X14988806Y20937785D02*
D03*
X15092500Y20232500D02*
D03*
X14872501Y20880000D02*
D03*
X14605000Y21017500D02*
D03*
X14620000Y20700000D02*
D03*
X14781458Y20230531D02*
D03*
X14497017Y21621936D02*
D03*
X14499516Y21454436D02*
D03*
X14355000Y21852499D02*
D03*
X14337500Y21230000D02*
D03*
X14298807Y21597784D02*
D03*
X13958806Y21527785D02*
D03*
X12761847Y21501692D02*
D03*
X12742500Y21314999D02*
D03*
X14220000Y21120000D02*
D03*
X13948807Y21117786D02*
D03*
X14189999Y21020000D02*
D03*
X12980132Y21012294D02*
D03*
X12976027Y21241585D02*
D03*
X12758806Y21007785D02*
D03*
X14307500Y20787500D02*
D03*
X14425000Y20272501D02*
D03*
X14073956Y20308032D02*
D03*
X13982500Y20757500D02*
D03*
X13091457Y20698032D02*
D03*
X12980704Y20759572D02*
D03*
X13283957Y20528032D02*
D03*
X13121457Y20478032D02*
D03*
X13173956Y20395532D02*
D03*
X13321457Y20350533D02*
D03*
X12322500Y24412500D02*
D03*
X11994092Y24503578D02*
D03*
X11494092D02*
D03*
X11758806Y24257785D02*
D03*
X11508806Y24007785D02*
D03*
X12508806D02*
D03*
X12008806D02*
D03*
X12508806Y23507785D02*
D03*
X12008806Y23257785D02*
D03*
X11758806Y23507785D02*
D03*
Y23757785D02*
D03*
X11508806Y23257785D02*
D03*
X11307040Y23177629D02*
D03*
X11258806Y23757785D02*
D03*
Y24257785D02*
D03*
Y23507785D02*
D03*
X11300000Y23070000D02*
D03*
X12508806Y23007785D02*
D03*
Y22507785D02*
D03*
X12258806Y22757785D02*
D03*
X12027500Y23012500D02*
D03*
X12508806Y22007785D02*
D03*
X12377500Y21830000D02*
D03*
X12508806Y21507785D02*
D03*
Y21757785D02*
D03*
X12258806Y22007785D02*
D03*
X11508806D02*
D03*
X12010941Y22001286D02*
D03*
X11758806Y22007785D02*
D03*
X11282500Y23012500D02*
D03*
X11759629Y21510776D02*
D03*
X11758806Y21757785D02*
D03*
X12008806Y21507785D02*
D03*
X11508806D02*
D03*
Y21757785D02*
D03*
X11500000Y21250000D02*
D03*
X10994092Y24503578D02*
D03*
X10967500Y24410001D02*
D03*
X10969989Y24239055D02*
D03*
X11057500Y23697501D02*
D03*
X11008806Y23257785D02*
D03*
X10888957Y23853032D02*
D03*
X10753957Y24020377D02*
D03*
X10507053Y24491078D02*
D03*
X10244092Y24253578D02*
D03*
X10508806Y23757785D02*
D03*
X10758806Y23507785D02*
D03*
X10810000Y23335001D02*
D03*
X10748549Y22998438D02*
D03*
X10508806Y23257785D02*
D03*
X10244092Y23753578D02*
D03*
Y23253578D02*
D03*
X11008806Y22257785D02*
D03*
X10972500Y22995000D02*
D03*
X10508806Y22757785D02*
D03*
X10758806Y22507785D02*
D03*
X10244092Y22253578D02*
D03*
Y22753578D02*
D03*
X10500000Y22250000D02*
D03*
X10244092Y21753578D02*
D03*
Y21253578D02*
D03*
X12000000Y21250000D02*
D03*
X11750000D02*
D03*
X12000000Y21000000D02*
D03*
X11750000D02*
D03*
X12258806Y20757785D02*
D03*
X11758806D02*
D03*
X10244092Y20753577D02*
D03*
X10508806Y20507785D02*
D03*
X12005517Y20503654D02*
D03*
X11508806Y20507785D02*
D03*
X11758806Y20257785D02*
D03*
X11258806D02*
D03*
X10997614Y20491978D02*
D03*
X10758806Y20257785D02*
D03*
X10244092Y20253577D02*
D03*
X14937500Y20145000D02*
D03*
X14556458Y19473032D02*
D03*
X14541458Y20140532D02*
D03*
X14852499Y19435001D02*
D03*
X14907500Y19330000D02*
D03*
X14353166Y20072723D02*
D03*
X14488959Y19858032D02*
D03*
X13483958Y19960532D02*
D03*
X14472501Y19637500D02*
D03*
X13516457Y19550533D02*
D03*
X14008806Y19507785D02*
D03*
X13758806D02*
D03*
X13347501Y19772501D02*
D03*
X15127499Y19245000D02*
D03*
X14877499Y18707500D02*
D03*
X14994092Y18003578D02*
D03*
X14698807Y18007785D02*
D03*
X14453957Y19173032D02*
D03*
X14017007Y19227187D02*
D03*
X14652499Y19135001D02*
D03*
X14008806Y19007785D02*
D03*
X13756078Y19248228D02*
D03*
X13808806Y18667786D02*
D03*
X13508806Y18757785D02*
D03*
X13258806Y19007785D02*
D03*
X13008806Y19257785D02*
D03*
Y18757785D02*
D03*
X13978958Y18495532D02*
D03*
X13978806Y18327785D02*
D03*
X13994092Y18003578D02*
D03*
X13744092Y18253578D02*
D03*
X13368806Y18247784D02*
D03*
X12994092Y18253578D02*
D03*
X13244092Y18003578D02*
D03*
X12500000Y19747501D02*
D03*
X12767068Y18999924D02*
D03*
X12500000Y18750000D02*
D03*
X12568957Y18078032D02*
D03*
X12494092Y18253578D02*
D03*
X12512134Y17760629D02*
D03*
X12244092Y18503578D02*
D03*
X14994092Y17503578D02*
D03*
Y17753578D02*
D03*
X14558806Y17707785D02*
D03*
X14494092Y17503578D02*
D03*
X15108957Y17133032D02*
D03*
X14995399Y16985098D02*
D03*
X14494092Y17003578D02*
D03*
X14995399Y16496507D02*
D03*
X14298807Y17247784D02*
D03*
Y17737785D02*
D03*
X13994092Y17503578D02*
D03*
X13744092Y17753578D02*
D03*
Y17253578D02*
D03*
X13994092Y16253578D02*
D03*
X13986967Y15501329D02*
D03*
X13744092Y15003578D02*
D03*
X14000000Y14750000D02*
D03*
X12994092Y17753578D02*
D03*
X13260857Y17492737D02*
D03*
X12994092Y17253578D02*
D03*
X13494092Y16003578D02*
D03*
Y16753578D02*
D03*
X13735889Y15505437D02*
D03*
X13494092Y15503578D02*
D03*
X12744092Y15753578D02*
D03*
Y16253578D02*
D03*
X13494092Y15003578D02*
D03*
X12744092D02*
D03*
Y16753578D02*
D03*
X12250000Y14750000D02*
D03*
X12244092Y15503578D02*
D03*
Y16003578D02*
D03*
Y16503578D02*
D03*
X12240000Y15130000D02*
D03*
X11758806Y19507785D02*
D03*
X11994092Y19253578D02*
D03*
X11494092D02*
D03*
X11994092Y18253578D02*
D03*
X11744092Y18003578D02*
D03*
X10244092Y19753578D02*
D03*
X10598806Y19747784D02*
D03*
X10895000Y19512500D02*
D03*
X10598806Y19247784D02*
D03*
X10562500Y19420000D02*
D03*
X10244092Y19253578D02*
D03*
X11244092Y19003578D02*
D03*
X10244092Y18753578D02*
D03*
X10994092Y18003578D02*
D03*
X10244092Y18253578D02*
D03*
X11744092Y17503578D02*
D03*
Y17003578D02*
D03*
Y16503578D02*
D03*
Y16003578D02*
D03*
X11750000Y14750000D02*
D03*
X11744092Y15503578D02*
D03*
X11244092D02*
D03*
X11250000Y14750000D02*
D03*
X10994092Y17753578D02*
D03*
X10898957Y17118031D02*
D03*
X10244092Y17253578D02*
D03*
Y17753578D02*
D03*
X10994092Y15753578D02*
D03*
X10750000Y14750000D02*
D03*
X10250000Y15000000D02*
D03*
X10244092Y16003578D02*
D03*
Y16503578D02*
D03*
Y15503578D02*
D03*
X13980000Y18385001D02*
D03*
X16139999Y18710001D02*
D03*
X15950000Y19645000D02*
D03*
X17692500Y18750000D02*
D03*
X15620000Y19450000D02*
D03*
X19080000Y20139999D02*
D03*
X15034286Y19871745D02*
D03*
X18247501Y19572501D02*
D03*
X15947501Y19970000D02*
D03*
X13092500Y20755000D02*
D03*
X15360001Y20100000D02*
D03*
X14705000Y21850000D02*
D03*
X15950000Y19580000D02*
D03*
X14707500Y18762500D02*
D03*
X15232500Y19382500D02*
D03*
X13980000Y18602499D02*
D03*
X16189999Y19582500D02*
D03*
X16195000Y18710001D02*
D03*
X16114999Y19105000D02*
D03*
X16184113Y19903548D02*
D03*
X13442500Y19727499D02*
D03*
X18700000Y21147501D02*
D03*
X18695000Y20677499D02*
D03*
X18217500Y19442500D02*
D03*
X16450000Y19864999D02*
D03*
X15755000Y20100000D02*
D03*
X16087500Y20352499D02*
D03*
X16255000Y19805000D02*
D03*
X18852499Y20239999D02*
D03*
X16535001Y18960001D02*
D03*
X17007500Y22595000D02*
D03*
X17062128Y22893864D02*
D03*
X14697501Y17680000D02*
D03*
X15620000Y19385001D02*
D03*
X14507500Y19592500D02*
D03*
X13337500Y20500000D02*
D03*
X15232500Y19970000D02*
D03*
X15905000Y20337500D02*
D03*
X13437500Y19664999D02*
D03*
X13982500Y18550000D02*
D03*
X16030000Y18710001D02*
D03*
X18062500Y19120000D02*
D03*
X15947501Y19447501D02*
D03*
X14455000Y19114999D02*
D03*
X16012500Y19382500D02*
D03*
X14497501Y19912500D02*
D03*
X14642500Y17762500D02*
D03*
X14864999Y18757500D02*
D03*
X15752499Y19385001D02*
D03*
X14814999Y18685001D02*
D03*
X13442500Y19912500D02*
D03*
X15950000Y19514999D02*
D03*
X15600000Y20297501D02*
D03*
X18850000Y19750000D02*
D03*
X18162500Y19527499D02*
D03*
X15947501Y19902499D02*
D03*
X18850000Y20392500D02*
D03*
X15947501Y19777499D02*
D03*
X13295000Y20587500D02*
D03*
X15232500Y19907500D02*
D03*
X14544868Y20216327D02*
D03*
X15230000Y19580000D02*
D03*
X13187500Y20462500D02*
D03*
X14010001Y20407500D02*
D03*
X15177499Y20700000D02*
D03*
X15117500Y20552499D02*
D03*
X17075000Y23277499D02*
D03*
X16505000Y18914999D02*
D03*
X15880000Y19450000D02*
D03*
X15805000Y19535001D02*
D03*
X15780000Y20375000D02*
D03*
X13439999Y19607500D02*
D03*
Y19857500D02*
D03*
X16135001Y19710001D02*
D03*
X16335001Y19907500D02*
D03*
X18852499Y20475000D02*
D03*
X18814999Y19127499D02*
D03*
X16222501Y19677499D02*
D03*
X17967500Y18562500D02*
D03*
X15557500Y19450000D02*
D03*
X15297501Y19447501D02*
D03*
X15039999Y19207500D02*
D03*
X14300000Y22337500D02*
D03*
X14500000Y19807500D02*
D03*
X14642500Y17825000D02*
D03*
X14795000Y20050000D02*
D03*
X15817500Y19385001D02*
D03*
X14445000Y19592500D02*
D03*
X13375000Y20822501D02*
D03*
X15817500Y19970000D02*
D03*
X14762500Y21012500D02*
D03*
X19027499Y21789999D02*
D03*
X19014999Y21847501D02*
D03*
X19155000Y20662500D02*
D03*
X19019540Y20315129D02*
D03*
X18295000Y23789999D02*
D03*
X16605000Y23410001D02*
D03*
X17685001Y20552499D02*
D03*
X17705495Y20073277D02*
D03*
X16097501Y20160001D02*
D03*
X15895000Y21897501D02*
D03*
X15539517Y24259436D02*
D03*
X15895000Y21850000D02*
D03*
X15392500Y21770000D02*
D03*
X15510001Y21400000D02*
D03*
X15416853Y20244518D02*
D03*
X15427499Y20100000D02*
D03*
X19024541Y19810129D02*
D03*
X15800000Y19777499D02*
D03*
X19027040Y19665129D02*
D03*
X16232500Y18820000D02*
D03*
X15810001Y19587500D02*
D03*
X15692500Y19545000D02*
D03*
X15622501Y19962498D02*
D03*
X15555000Y19517500D02*
D03*
X15377499Y19942499D02*
D03*
X15362500Y19579999D02*
D03*
X15357500Y19517500D02*
D03*
X15364999Y19385001D02*
D03*
X15370000Y15637500D02*
D03*
X14457500Y24257500D02*
D03*
X14602499Y22322501D02*
D03*
X14272017Y22159436D02*
D03*
X12150000Y22480000D02*
D03*
X15105000Y21617500D02*
D03*
X12632500Y21972501D02*
D03*
X12175000Y21830000D02*
D03*
X12025000Y21697501D02*
D03*
X11514540Y23065129D02*
D03*
X11512040Y23182629D02*
D03*
X11537040Y23012630D02*
D03*
X11210000Y23864999D02*
D03*
X11364540Y22492628D02*
D03*
X10854540D02*
D03*
X11800000Y22295000D02*
D03*
X11632500Y22300000D02*
D03*
X14917500Y20814999D02*
D03*
X14539999Y20832500D02*
D03*
X14512500Y20785001D02*
D03*
X14889999Y20677499D02*
D03*
X14114999Y20900000D02*
D03*
X14070000Y20872501D02*
D03*
X14485001Y20830000D02*
D03*
X14114999Y20852499D02*
D03*
X15095000Y20092500D02*
D03*
X15083270Y19369576D02*
D03*
X14872501Y19285001D02*
D03*
X13509058Y20355545D02*
D03*
X15230000Y19645000D02*
D03*
X13442500Y19552499D02*
D03*
X15177499Y20547501D02*
D03*
X15242500Y20650000D02*
D03*
X17705000Y20160001D02*
D03*
X16620000Y20475000D02*
D03*
X18850000Y19814999D02*
D03*
X15687500Y20037500D02*
D03*
X18147501Y19095000D02*
D03*
X15560001Y19385001D02*
D03*
X14022501Y20357500D02*
D03*
X13239999Y20364999D02*
D03*
X14602499Y19242500D02*
D03*
X14500000Y19750000D02*
D03*
X15230000Y19710001D02*
D03*
X16476611Y19006615D02*
D03*
X15642500Y21792500D02*
D03*
X15882500Y18739999D02*
D03*
X15685001Y19185001D02*
D03*
X13437500Y19795000D02*
D03*
X15882500Y19777499D02*
D03*
X16387500Y19910001D02*
D03*
X18257500Y19347501D02*
D03*
X18057500Y19482500D02*
D03*
X15947501Y19842500D02*
D03*
X15817500Y20100000D02*
D03*
X16100000Y20300000D02*
D03*
X18300000Y18607500D02*
D03*
X15427499Y19385001D02*
D03*
X18852499Y20630000D02*
D03*
X16927499Y19375000D02*
D03*
X19097501Y20050000D02*
D03*
X15232500Y19839999D02*
D03*
X14557500Y19422501D02*
D03*
X14762500Y17785001D02*
D03*
X15687500Y19450000D02*
D03*
X14802499Y20332500D02*
D03*
X13139999Y20532500D02*
D03*
X15300000Y20645000D02*
D03*
X15237500Y20545000D02*
D03*
X14657500Y20232500D02*
D03*
X14664999Y19264999D02*
D03*
X15470000Y21592500D02*
D03*
X16432500Y19052499D02*
D03*
X14185564Y20901514D02*
D03*
X14185001Y20839999D02*
D03*
X14482500Y20897501D02*
D03*
X15124516Y21411935D02*
D03*
X14537500Y20897501D02*
D03*
X14927017Y22001936D02*
D03*
Y21936935D02*
D03*
X14555000Y21222501D02*
D03*
X14839999D02*
D03*
X10947500Y23852499D02*
D03*
X15125000Y21314999D02*
D03*
D127*
X19345000Y16392500D02*
D03*
X18892500Y16714999D02*
D03*
X17146062Y16951234D02*
D03*
X17664999Y16687500D02*
D03*
X17441061Y16813734D02*
D03*
X17148563Y16826234D02*
D03*
X18875000Y15512500D02*
D03*
X18100000Y16170000D02*
D03*
X17972501D02*
D03*
X19342500Y15207500D02*
D03*
X18092500Y14957500D02*
D03*
X17125000Y15702499D02*
D03*
Y15572501D02*
D03*
X16724464Y16213734D02*
D03*
X16851965Y16211235D02*
D03*
X17642500Y15462500D02*
D03*
X17964999Y14957500D02*
D03*
X17439999Y15564999D02*
D03*
X16825000Y14955000D02*
D03*
X16685001Y14957500D02*
D03*
X16132500Y17280000D02*
D03*
X16227499Y16814999D02*
D03*
X15842500Y16439999D02*
D03*
X16154324Y16015376D02*
D03*
X16156824Y15897874D02*
D03*
X16207500Y15557500D02*
D03*
X15777499Y15572501D02*
D03*
X15727499Y17325000D02*
D03*
X15672501Y16370000D02*
D03*
X15495000D02*
D03*
X15489999Y15955000D02*
D03*
X15712500Y15767500D02*
D03*
X15525000Y15507500D02*
D03*
X15197501Y15697501D02*
D03*
X15205000Y15572501D02*
D03*
X15152499Y17557500D02*
D03*
X15166583Y16829555D02*
D03*
Y16709554D02*
D03*
X14175470Y16468535D02*
D03*
X14607433Y15376541D02*
D03*
X14552432Y15491541D02*
D03*
X13102594Y15376089D02*
D03*
X11690000Y16389999D02*
D03*
Y16300000D02*
D03*
X11560000Y16200000D02*
D03*
X11470000D02*
D03*
X11120000Y16722501D02*
D03*
X11107500Y16597501D02*
D03*
X10690000Y16780000D02*
D03*
X10545000Y16770000D02*
D03*
X14907251Y17267175D02*
D03*
X15627499Y15500000D02*
D03*
X15564999Y16210001D02*
D03*
X16082500Y17452499D02*
D03*
X17272501Y15910001D02*
D03*
X17200000Y17062500D02*
D03*
X16339246Y16347928D02*
D03*
X16314244Y15107928D02*
D03*
X15979245Y17010428D02*
D03*
X16601585Y15122054D02*
D03*
X14702962Y15647672D02*
D03*
X16869084Y15704555D02*
D03*
X18029083Y15187054D02*
D03*
X18036584Y16399554D02*
D03*
X16662500Y16427499D02*
D03*
X16981586Y17037054D02*
D03*
X16451585Y16747054D02*
D03*
X15399084Y16714554D02*
D03*
X16197501Y15435001D02*
D03*
X15210001Y17135001D02*
D03*
X16552499Y15700000D02*
D03*
X16232500Y15767500D02*
D03*
X16556459Y15613541D02*
D03*
X16233167Y15683151D02*
D03*
X16195000Y16139999D02*
D03*
Y16255000D02*
D03*
X16599905Y16783234D02*
D03*
X16539999Y16839999D02*
D03*
D128*
X13285001Y23527499D02*
D03*
X13130000Y23420000D02*
D03*
X13687650Y23116081D02*
D03*
X13763481Y22889490D02*
D03*
X13533481Y22824490D02*
D03*
X12687500Y20662500D02*
D03*
X12690000Y20600000D02*
D03*
X12781689Y20380659D02*
D03*
X11087500Y21805000D02*
D03*
X11085000Y21917500D02*
D03*
X10922500Y21947501D02*
D03*
X10925000Y21837500D02*
D03*
X12446689Y20285660D02*
D03*
X12668771Y20258466D02*
D03*
X12370967Y20547260D02*
D03*
Y20484760D02*
D03*
X11392500Y20982500D02*
D03*
X11305000Y20900000D02*
D03*
X11195000D02*
D03*
X11050000Y20872501D02*
D03*
X12346689Y20378160D02*
D03*
X12329189Y20283160D02*
D03*
X11193630Y20789859D02*
D03*
X11306130D02*
D03*
X12953098Y20148074D02*
D03*
X12950598Y20023074D02*
D03*
X12937500Y19475000D02*
D03*
X12665640Y19226520D02*
D03*
X12245000Y19970000D02*
D03*
X12130000Y20139999D02*
D03*
X12430000Y18110001D02*
D03*
X12178629Y17873630D02*
D03*
X12590849Y17531529D02*
D03*
Y17404028D02*
D03*
X12732500Y17264999D02*
D03*
X12220000Y17395000D02*
D03*
X12225397Y17210950D02*
D03*
X12235000Y17132500D02*
D03*
X12045000Y20137500D02*
D03*
X12020544Y19418083D02*
D03*
X11965000Y19689999D02*
D03*
X12107500Y18989999D02*
D03*
X12020000Y18914999D02*
D03*
X12032500Y18630000D02*
D03*
X12112500Y18500000D02*
D03*
X11720000Y18760001D02*
D03*
X11450000Y19585001D02*
D03*
X11477500Y19420000D02*
D03*
X11440000Y18830000D02*
D03*
X11090000Y18717500D02*
D03*
X11440000Y18667500D02*
D03*
X11092500Y18587500D02*
D03*
X11090000Y18457500D02*
D03*
X12122897Y17395949D02*
D03*
X12120000Y17214999D02*
D03*
X11952500Y17289999D02*
D03*
X11217500Y17080000D02*
D03*
X11217308Y17014999D02*
D03*
X11212500Y16872501D02*
D03*
X10852500Y16867500D02*
D03*
X12570000Y17932500D02*
D03*
Y17995000D02*
D03*
X13810001Y23035001D02*
D03*
X13762500Y22957500D02*
D03*
X11373473Y21783659D02*
D03*
Y21913660D02*
D03*
Y21976160D02*
D03*
Y21851160D02*
D03*
X12812500Y20214999D02*
D03*
X12374516Y20066493D02*
D03*
X11402500Y20500000D02*
D03*
X12777500Y19407500D02*
D03*
X12178044Y19683083D02*
D03*
X13700000Y22762500D02*
D03*
X11332500Y19420000D02*
D03*
X12520000Y17010001D02*
D03*
X12385000D02*
D03*
X12452500D02*
D03*
X11158618Y19534836D02*
D03*
X11127500Y19877499D02*
D03*
Y19972501D02*
D03*
X13287148Y23621146D02*
D03*
X13119330Y23621005D02*
D03*
X13112500Y23335001D02*
D03*
X13302499Y23337500D02*
D03*
X11950116Y17398268D02*
D03*
X12389629Y17615096D02*
D03*
X12450000Y17614999D02*
D03*
X11940000Y18475000D02*
D03*
X11937500Y18539999D02*
D03*
Y18602499D02*
D03*
X12107500Y18027499D02*
D03*
X11455000Y20755000D02*
D03*
X11280462Y20647955D02*
D03*
X10902500Y20972501D02*
D03*
X11832500Y18972501D02*
D03*
X11835000Y19039999D02*
D03*
X11740000Y19042500D02*
D03*
X11765000Y19975000D02*
D03*
Y19880000D02*
D03*
X12032500Y19900000D02*
D03*
X12127500D02*
D03*
X10920000Y17027499D02*
D03*
X11232500Y16947501D02*
D03*
D131*
X15517500Y22375000D02*
D03*
X15387500Y22227499D02*
D03*
X15114999Y22375000D02*
D03*
X14997501Y22227499D02*
D03*
X14817500D02*
D03*
X14935001Y22375000D02*
D03*
X15337500D02*
D03*
X15207500Y22227499D02*
D03*
D132*
X12853500Y21317000D02*
D03*
X12136500Y21698000D02*
D03*
X12853500D02*
D03*
Y21571001D02*
D03*
Y21444000D02*
D03*
X12136500Y21317000D02*
D03*
Y21444000D02*
D03*
Y21571001D02*
D03*
%TF.MD5,2103801c0d0087d395c2816da13906cc*%
M02*
