%TF.GenerationSoftware,Altium Limited,Altium Designer,26.8.1 (31)*%
G04 Layer_Color=32896*
G04 Board_Origin=0|0*
%FSLAX45Y45*%
%MOMM*%
%TF.SameCoordinates,53F6FBF9-B70B-408D-9132-D8E13A354014*%
%TF.FilePolarity,Positive*%
%TF.FileFunction,Legend,Bot*%
%TF.Part,Single*%
G01*
G75*
%TA.AperFunction,NonConductor*%
%ADD133C,0.20000*%
%ADD136C,0.10000*%
%ADD140C,0.15000*%
%ADD141C,0.12700*%
%ADD143R,0.17800X0.50800*%
%ADD144R,0.20000X0.47300*%
D133*
X13028500Y21698000D02*
G03*
X13028500Y21698000I-10000J0D01*
G01*
X14887500Y22197501D02*
Y22257500D01*
X14937500Y22202499D02*
Y22217500D01*
X14887500Y22227499D02*
X14937500Y22202499D01*
X14887500Y22227499D02*
X14937500Y22252499D01*
Y22217500D02*
Y22252499D01*
X15005000Y22345000D02*
Y22405000D01*
X15055000Y22350000D02*
Y22364999D01*
X15005000Y22375000D02*
X15055000Y22350000D01*
X15005000Y22375000D02*
X15055000Y22400000D01*
Y22364999D02*
Y22400000D01*
X15407500Y22345000D02*
Y22405000D01*
X15457500Y22350000D02*
Y22364999D01*
X15407500Y22375000D02*
X15457500Y22350000D01*
X15407500Y22375000D02*
X15457500Y22400000D01*
Y22364999D02*
Y22400000D01*
X15277499Y22197501D02*
Y22257500D01*
X15327499Y22202499D02*
Y22217500D01*
X15277499Y22227499D02*
X15327499Y22202499D01*
X15277499Y22227499D02*
X15327499Y22252499D01*
Y22217500D02*
Y22252499D01*
D136*
X15645000Y19620000D02*
X15664999D01*
Y19485001D02*
Y19620000D01*
X15645000Y19485001D02*
X15664999D01*
X15600000D02*
X15620000D01*
X15600000D02*
Y19620000D01*
X15620000D01*
X15528999Y19909999D02*
Y19929999D01*
X15394000Y19909999D02*
X15528999D01*
X15394000D02*
Y19929999D01*
Y19954999D02*
Y19974998D01*
X15528999D01*
Y19954999D02*
Y19974998D01*
X15492500Y19990999D02*
X15512500D01*
Y20125999D01*
X15492500D02*
X15512500D01*
X15447501D02*
X15467500D01*
X15447501Y19990999D02*
Y20125999D01*
Y19990999D02*
X15467500D01*
X15847501Y19630000D02*
X15867500D01*
X15847501Y19495000D02*
Y19630000D01*
Y19495000D02*
X15867500D01*
X15892500D02*
X15912500D01*
Y19630000D01*
X15892500D02*
X15912500D01*
X15382500Y19762498D02*
X15402499D01*
X15382500D02*
Y19897499D01*
X15402499D01*
X15427499D02*
X15447501D01*
Y19762498D02*
Y19897499D01*
X15427499Y19762498D02*
X15447501D01*
X15764999Y19692499D02*
X15785001D01*
Y19557500D02*
Y19692499D01*
X15764999Y19557500D02*
X15785001D01*
X15720000D02*
X15739999D01*
X15720000D02*
Y19692499D01*
X15739999D01*
X15403500Y19304999D02*
Y19324998D01*
X15268500Y19304999D02*
X15403500D01*
X15268500D02*
Y19324998D01*
Y19350000D02*
Y19370000D01*
X15403500D01*
Y19350000D02*
Y19370000D01*
X15700999Y19834999D02*
Y19854999D01*
X15836000D01*
Y19834999D02*
Y19854999D01*
Y19789999D02*
Y19809999D01*
X15700999Y19789999D02*
X15836000D01*
X15700999D02*
Y19809999D01*
X15732500Y19475000D02*
Y19495000D01*
X15867500D01*
Y19475000D02*
Y19495000D01*
Y19429999D02*
Y19449998D01*
X15732500Y19429999D02*
X15867500D01*
X15732500D02*
Y19449998D01*
X15721001Y19922501D02*
Y19942500D01*
X15586000D02*
X15721001D01*
X15586000Y19922501D02*
Y19942500D01*
Y19877499D02*
Y19897499D01*
Y19877499D02*
X15721001D01*
Y19897499D01*
X15435001Y19696001D02*
X15455000D01*
Y19561000D02*
Y19696001D01*
X15435001Y19561000D02*
X15455000D01*
X15389999D02*
X15410001D01*
X15389999D02*
Y19696001D01*
X15410001D01*
X15732500Y19871001D02*
X15752499D01*
X15732500D02*
Y20006000D01*
X15752499D01*
X15777499D02*
X15797501D01*
Y19871001D02*
Y20006000D01*
X15777499Y19871001D02*
X15797501D01*
X15512500Y19489999D02*
Y19510001D01*
X15377499Y19489999D02*
X15512500D01*
X15377499D02*
Y19510001D01*
Y19535001D02*
Y19555000D01*
X15512500D01*
Y19535001D02*
Y19555000D01*
X15567500Y19675999D02*
X15587500D01*
Y19541000D02*
Y19675999D01*
X15567500Y19541000D02*
X15587500D01*
X15522501D02*
X15542500D01*
X15522501D02*
Y19675999D01*
X15542500D01*
D140*
X11080000Y23814200D02*
Y23915800D01*
X11194300Y23903101D02*
Y23915800D01*
X10965700D02*
X11194300D01*
X10965700Y23903101D02*
Y23915800D01*
Y23814200D02*
Y23826900D01*
Y23814200D02*
X11194300D01*
Y23826900D01*
X12484200Y21127499D02*
X12585800D01*
X12484200Y21013200D02*
X12496900D01*
X12484200D02*
Y21241800D01*
X12496900D01*
X12573100D02*
X12585800D01*
Y21013200D02*
Y21241800D01*
X12573100Y21013200D02*
X12585800D01*
X15067500Y22265601D02*
Y22291000D01*
X14742400D02*
X15067500D01*
X14747501Y22240199D02*
Y22291000D01*
X14729700Y22240199D02*
X14747501D01*
X14729700D02*
Y22291000D01*
X14747501D01*
X14729700Y22164000D02*
X14747501D01*
X14729700D02*
Y22214799D01*
X14747501D01*
Y22164000D02*
Y22214799D01*
X14742400Y22164000D02*
X15067500D01*
Y22189400D01*
X15631500Y23087500D02*
Y23107500D01*
X15431500Y23087500D02*
X15631500D01*
X15431500D02*
Y23107500D01*
Y23167500D02*
Y23187500D01*
X15631500D01*
Y23167500D02*
Y23187500D01*
X14589999Y21226500D02*
X14610001D01*
Y21426500D01*
X14589999D02*
X14610001D01*
X14510001D02*
X14530000D01*
X14510001Y21226500D02*
Y21426500D01*
Y21226500D02*
X14530000D01*
X12752500Y21924200D02*
Y22025800D01*
X12866800Y21924200D02*
Y21936900D01*
X12638200Y21924200D02*
X12866800D01*
X12638200D02*
Y21936900D01*
Y22013100D02*
Y22025800D01*
X12866800D01*
Y22013100D02*
Y22025800D01*
X14406699Y24132500D02*
X14508299D01*
X14406699Y24246800D02*
X14419398D01*
X14406699Y24018201D02*
Y24246800D01*
Y24018201D02*
X14419398D01*
X14495599D02*
X14508299D01*
Y24246800D01*
X14495599D02*
X14508299D01*
X12871800Y21883099D02*
Y21895799D01*
X12643200D02*
X12871800D01*
X12643200Y21883099D02*
Y21895799D01*
Y21794200D02*
Y21806900D01*
Y21794200D02*
X12871800D01*
Y21806900D01*
X12757500Y21794200D02*
Y21895799D01*
X11358100Y16996800D02*
X11370800D01*
Y16768201D02*
Y16996800D01*
X11358100Y16768201D02*
X11370800D01*
X11269200D02*
X11281900D01*
X11269200D02*
Y16996800D01*
X11281900D01*
X11269200Y16882500D02*
X11370800D01*
X15830000Y20045000D02*
X15850000D01*
X15830000Y19845000D02*
Y20045000D01*
Y19845000D02*
X15850000D01*
X15910001D02*
X15930000D01*
Y20045000D01*
X15910001D02*
X15930000D01*
X17693500Y20025000D02*
Y20045000D01*
X17493500Y20025000D02*
X17693500D01*
X17493500D02*
Y20045000D01*
Y20105000D02*
Y20125000D01*
X17693500D01*
Y20105000D02*
Y20125000D01*
X12178500Y21860001D02*
Y21880000D01*
X12378500D01*
Y21860001D02*
Y21880000D01*
Y21780000D02*
Y21800000D01*
X12178500Y21780000D02*
X12378500D01*
X12178500D02*
Y21800000D01*
X12423100Y21013200D02*
X12435800D01*
Y21241800D01*
X12423100D02*
X12435800D01*
X12334200D02*
X12346900D01*
X12334200Y21013200D02*
Y21241800D01*
Y21013200D02*
X12346900D01*
X12334200Y21127499D02*
X12435800D01*
X14870000Y21223500D02*
X14889999D01*
Y21423500D01*
X14870000D02*
X14889999D01*
X14789999D02*
X14810001D01*
X14789999Y21223500D02*
Y21423500D01*
Y21223500D02*
X14810001D01*
X12270600Y21010699D02*
X12283300D01*
Y21239301D01*
X12270600D02*
X12283300D01*
X12181700D02*
X12194400D01*
X12181700Y21010699D02*
Y21239301D01*
Y21010699D02*
X12194400D01*
X12181700Y21125000D02*
X12283300D01*
X15185001Y22413100D02*
Y22438499D01*
X14859900D02*
X15185001D01*
X14864999Y22387700D02*
Y22438499D01*
X14847200Y22387700D02*
X14864999D01*
X14847200D02*
Y22438499D01*
X14864999D01*
X14847200Y22311501D02*
X14864999D01*
X14847200D02*
Y22362300D01*
X14864999D01*
Y22311501D02*
Y22362300D01*
X14859900Y22311501D02*
X15185001D01*
Y22336900D01*
X14892500Y23019000D02*
X14912500D01*
X14892500D02*
Y23219000D01*
X14912500D01*
X14972501D02*
X14992500D01*
Y23019000D02*
Y23219000D01*
X14972501Y23019000D02*
X14992500D01*
X13199300Y21615601D02*
Y21628300D01*
X12970700D02*
X13199300D01*
X12970700Y21615601D02*
Y21628300D01*
Y21526700D02*
Y21539400D01*
Y21526700D02*
X13199300D01*
Y21539400D01*
X13085001Y21526700D02*
Y21628300D01*
X15580600Y24246800D02*
X15593300D01*
Y24018201D02*
Y24246800D01*
X15580600Y24018201D02*
X15593300D01*
X15491701D02*
X15504401D01*
X15491701D02*
Y24246800D01*
X15504401D01*
X15491701Y24132500D02*
X15593300D01*
X10568200Y19460600D02*
Y19473300D01*
X10796800D01*
Y19460600D02*
Y19473300D01*
Y19371700D02*
Y19384399D01*
X10568200Y19371700D02*
X10796800D01*
X10568200D02*
Y19384399D01*
X10682500Y19371700D02*
Y19473300D01*
X15797501Y19349998D02*
Y19370000D01*
X15997501D01*
Y19349998D02*
Y19370000D01*
Y19270000D02*
Y19289999D01*
X15797501Y19270000D02*
X15997501D01*
X15797501D02*
Y19289999D01*
X10921700Y23687500D02*
X11023300D01*
X11010600Y23573199D02*
X11023300D01*
Y23801801D01*
X11010600D02*
X11023300D01*
X10921700D02*
X10934400D01*
X10921700Y23573199D02*
Y23801801D01*
Y23573199D02*
X10934400D01*
X11515000Y23005000D02*
Y23025000D01*
X11315000Y23005000D02*
X11515000D01*
X11315000D02*
Y23025000D01*
Y23085001D02*
Y23105000D01*
X11515000D01*
Y23085001D02*
Y23105000D01*
X15438499Y22622501D02*
Y22642500D01*
X15638499D01*
Y22622501D02*
Y22642500D01*
Y22542500D02*
Y22562500D01*
X15438499Y22542500D02*
X15638499D01*
X15438499D02*
Y22562500D01*
X14910001Y19156700D02*
Y19258299D01*
X15024300Y19245599D02*
Y19258299D01*
X14795700D02*
X15024300D01*
X14795700Y19245599D02*
Y19258299D01*
Y19156700D02*
Y19169400D01*
Y19156700D02*
X15024300D01*
Y19169400D01*
X15537502Y23214200D02*
Y23315800D01*
X15423201Y23214200D02*
Y23226900D01*
Y23214200D02*
X15651801D01*
Y23226900D01*
Y23303101D02*
Y23315800D01*
X15423201D02*
X15651801D01*
X15423201Y23303101D02*
Y23315800D01*
X15587500Y22413100D02*
Y22438499D01*
X15262399D02*
X15587500D01*
X15267500Y22387700D02*
Y22438499D01*
X15249699Y22387700D02*
X15267500D01*
X15249699D02*
Y22438499D01*
X15267500D01*
X15249699Y22311501D02*
X15267500D01*
X15249699D02*
Y22362300D01*
X15267500D01*
Y22311501D02*
Y22362300D01*
X15262399Y22311501D02*
X15587500D01*
Y22336900D01*
X11513500Y23130000D02*
Y23150000D01*
X11313500Y23130000D02*
X11513500D01*
X11313500D02*
Y23150000D01*
Y23210001D02*
Y23230000D01*
X11513500D01*
Y23210001D02*
Y23230000D01*
X13082500Y21404201D02*
Y21505800D01*
X13196800Y21404201D02*
Y21416901D01*
X12968201Y21404201D02*
X13196800D01*
X12968201D02*
Y21416901D01*
Y21493100D02*
Y21505800D01*
X13196800D01*
Y21493100D02*
Y21505800D01*
X15457500Y22265601D02*
Y22291000D01*
X15132401D02*
X15457500D01*
X15137500Y22240199D02*
Y22291000D01*
X15119701Y22240199D02*
X15137500D01*
X15119701D02*
Y22291000D01*
X15137500D01*
X15119701Y22164000D02*
X15137500D01*
X15119701D02*
Y22214799D01*
X15137500D01*
Y22164000D02*
Y22214799D01*
X15132401Y22164000D02*
X15457500D01*
Y22189400D01*
D141*
X12230500Y21769501D02*
X12759500D01*
X12230500Y21245500D02*
X12759500D01*
D143*
X14738596Y22265620D02*
D03*
X14856097Y22413123D02*
D03*
X15258614Y22413120D02*
D03*
X15128596Y22265620D02*
D03*
D144*
X14737514Y22191158D02*
D03*
X14854984Y22338667D02*
D03*
X15257497Y22338734D02*
D03*
X15127475Y22191116D02*
D03*
%TF.MD5,c989604a8a69034b7c73010624ffa73a*%
M02*
