%TF.GenerationSoftware,Altium Limited,Altium Designer,26.8.1 (31)*%
G04 Layer_Color=0*
G04 Board_Origin=0|0*
%FSLAX45Y45*%
%MOMM*%
%TF.SameCoordinates,53F6FBF9-B70B-408D-9132-D8E13A354014*%
%TF.FilePolarity,Positive*%
%TF.FileFunction,Plated,1,6,PTH,Drill*%
%TF.Part,Single*%
G01*
G75*
%TA.AperFunction,ComponentDrill*%
%ADD149C,0.90000*%
%ADD150C,1.10000*%
%ADD151C,0.20320*%
%ADD152C,1.10000*%
%ADD153O,0.60000X1.25000*%
%ADD154O,1.10000X0.60000*%
%ADD155C,0.40000*%
%ADD156O,1.00000X1.60000*%
%ADD157O,1.60000X1.00000*%
%ADD158C,1.02000*%
%ADD159C,1.60000*%
%ADD160C,1.30000*%
%TA.AperFunction,ViaDrill,NotFilled*%
%ADD161C,0.20000*%
%ADD162C,0.30000*%
%ADD163C,0.25000*%
D149*
X15323000Y22646001D02*
D03*
X14942000Y22900000D02*
D03*
X14561000Y22646001D02*
D03*
X14688000Y22900000D02*
D03*
X15450000D02*
D03*
X15069000Y22646001D02*
D03*
X14814999D02*
D03*
X15196001Y22900000D02*
D03*
D150*
X19735001Y23814000D02*
D03*
X19727499Y22853999D02*
D03*
X19764999Y16403000D02*
D03*
X19752499Y15210500D02*
D03*
X19727499Y23108000D02*
D03*
X19735001Y24067999D02*
D03*
X19727499Y22600000D02*
D03*
X19735001Y23560001D02*
D03*
X19764999Y16657001D02*
D03*
X19752499Y15464500D02*
D03*
D151*
X12290000Y18060001D02*
D03*
Y17950000D02*
D03*
D152*
X14607500Y14945000D02*
D03*
X13131500Y14947501D02*
D03*
X14353500Y14945000D02*
D03*
X12877499Y14947501D02*
D03*
D153*
X10917500Y19910500D02*
D03*
Y19109500D02*
D03*
D154*
X10882500Y19942999D02*
D03*
X10297500D02*
D03*
X10882500Y19077000D02*
D03*
X10297500Y19077000D02*
D03*
D155*
X10952500Y19789999D02*
D03*
Y19230000D02*
D03*
X10882500Y19270000D02*
D03*
Y19350000D02*
D03*
Y19430000D02*
D03*
Y19750000D02*
D03*
Y19670000D02*
D03*
Y19589999D02*
D03*
X10952500Y19389999D02*
D03*
Y19470000D02*
D03*
Y19630000D02*
D03*
Y19550000D02*
D03*
D156*
X11430000Y15700000D02*
D03*
D157*
X10960000Y15400000D02*
D03*
Y16000000D02*
D03*
D158*
X15414500Y23941000D02*
D03*
X14596500D02*
D03*
X15668500D02*
D03*
X14342500D02*
D03*
D159*
X14217999Y23230000D02*
D03*
X15792999D02*
D03*
D160*
X12914999Y24214999D02*
D03*
X13414999D02*
D03*
D161*
X15694659Y19380200D02*
D03*
X13977499Y18442500D02*
D03*
X16082500Y18710001D02*
D03*
X13267500Y19772501D02*
D03*
X15187500Y20330000D02*
D03*
X15495000Y19450000D02*
D03*
X18180000Y18660001D02*
D03*
X14877499Y19527499D02*
D03*
X17935001Y18827499D02*
D03*
X15232500Y19517500D02*
D03*
X17932500Y19075000D02*
D03*
X18492500Y19117500D02*
D03*
X15364999Y19710001D02*
D03*
X15562500Y19189999D02*
D03*
X18235001Y19095000D02*
D03*
X15170000Y20100000D02*
D03*
X15752499Y20037500D02*
D03*
X15167500Y19450000D02*
D03*
X11056906Y23626488D02*
D03*
X15232500Y20037500D02*
D03*
X14497501Y19972501D02*
D03*
X14445000Y17880000D02*
D03*
X16142500Y19627499D02*
D03*
X14567500Y22064999D02*
D03*
X15880000Y19650000D02*
D03*
X14512500Y22064999D02*
D03*
X15567500Y20412500D02*
D03*
X19994092Y24253578D02*
D03*
X19744092Y24503578D02*
D03*
X19508806Y23757785D02*
D03*
X19244092Y24503578D02*
D03*
X19008806Y24257785D02*
D03*
X19508806D02*
D03*
X19008806Y23757785D02*
D03*
X19994092Y23753578D02*
D03*
X19258806Y23507785D02*
D03*
X19994092Y23253578D02*
D03*
X19035001Y23145000D02*
D03*
X18744092Y24503578D02*
D03*
X18508806Y24257785D02*
D03*
Y23757785D02*
D03*
Y24007785D02*
D03*
X18244092Y24503578D02*
D03*
X18008806Y24257785D02*
D03*
Y24007785D02*
D03*
X18758806Y23507785D02*
D03*
X18258806D02*
D03*
X18758806Y23257785D02*
D03*
X18008806D02*
D03*
X17995667Y23746065D02*
D03*
X20020053Y22755145D02*
D03*
X19994092Y22253578D02*
D03*
X19508806Y22257785D02*
D03*
Y22757785D02*
D03*
X19008806Y23007785D02*
D03*
Y22507785D02*
D03*
X19758806Y22007785D02*
D03*
X19250000Y22000000D02*
D03*
X19080000Y22005000D02*
D03*
X18515378Y23008966D02*
D03*
X18508806Y22507785D02*
D03*
X19003836Y22242226D02*
D03*
X18508806Y22257785D02*
D03*
X18258806Y22757785D02*
D03*
X18008806Y22507785D02*
D03*
X18258806Y22257785D02*
D03*
X18947040Y22000130D02*
D03*
X18510599Y22002563D02*
D03*
X18008806Y22007785D02*
D03*
X17758806Y24257785D02*
D03*
X17744092Y24503578D02*
D03*
X17758806Y24007785D02*
D03*
X17258806Y24257785D02*
D03*
X17244092Y24503578D02*
D03*
X17008806Y24007785D02*
D03*
X17758806Y23507785D02*
D03*
X17508806Y23257785D02*
D03*
X17464999Y23785001D02*
D03*
X17258806Y23757785D02*
D03*
X16758806Y24257785D02*
D03*
X16744092Y24503578D02*
D03*
X16758806Y23757785D02*
D03*
X16508806Y24007785D02*
D03*
X16263295Y24250679D02*
D03*
X16244092Y24503578D02*
D03*
X16258806Y23757785D02*
D03*
X16902322Y23282207D02*
D03*
X17852499Y23139999D02*
D03*
X17758411Y22995917D02*
D03*
X17061456Y22978032D02*
D03*
X17508806Y22507785D02*
D03*
Y22757785D02*
D03*
X17758806Y22257785D02*
D03*
X17508806Y22007785D02*
D03*
X17258806Y22257785D02*
D03*
X17093958Y22593031D02*
D03*
X17004782Y22005441D02*
D03*
X16600000Y23155000D02*
D03*
X16599628Y23028865D02*
D03*
X16602499Y22900000D02*
D03*
X16048807Y22037785D02*
D03*
X19997472Y21747697D02*
D03*
X19508806Y21757785D02*
D03*
X19994141Y20768086D02*
D03*
X19994092Y21253578D02*
D03*
X19258806Y21007785D02*
D03*
Y21257785D02*
D03*
Y20757785D02*
D03*
X19024541Y20555128D02*
D03*
X18758806Y21507785D02*
D03*
X18508806Y21757785D02*
D03*
Y21007785D02*
D03*
Y21257785D02*
D03*
X17875000Y21752499D02*
D03*
X18852499Y20550000D02*
D03*
X19258806Y20507785D02*
D03*
X19217039Y20312630D02*
D03*
X19994092Y20253577D02*
D03*
X19256010Y20251953D02*
D03*
X19984146Y19765150D02*
D03*
X19177040Y19722629D02*
D03*
X19039999Y20085001D02*
D03*
X18847501Y20322501D02*
D03*
X18852499Y20070000D02*
D03*
X18847501Y19697501D02*
D03*
X17700000Y20714999D02*
D03*
X17535001Y20614999D02*
D03*
X17697501Y20314999D02*
D03*
X17508806Y21507785D02*
D03*
X16648807Y21857785D02*
D03*
X17508806Y21257785D02*
D03*
X16474194Y21262964D02*
D03*
X16388806Y21457785D02*
D03*
X16308806Y21117786D02*
D03*
X16118806Y20947784D02*
D03*
X17258806Y20757785D02*
D03*
X16928806Y20887785D02*
D03*
X17508806Y20757785D02*
D03*
X16591458Y20575533D02*
D03*
X16162500Y20250000D02*
D03*
X17673923Y19855531D02*
D03*
X17695930Y19688554D02*
D03*
X16102499Y20217500D02*
D03*
X17469351Y20097955D02*
D03*
X16439999Y19917500D02*
D03*
X16012500Y19710001D02*
D03*
X15938806Y22117786D02*
D03*
X15897017Y21981937D02*
D03*
X15764517Y21989436D02*
D03*
X15758806Y23007785D02*
D03*
X15744092Y24503578D02*
D03*
X15758806Y22507785D02*
D03*
Y22757785D02*
D03*
X15644540Y22602629D02*
D03*
X15697017Y21989436D02*
D03*
X15838806Y21727785D02*
D03*
X15976459Y20395532D02*
D03*
X15882500Y20100000D02*
D03*
X15781458Y20438033D02*
D03*
X15705000Y21807500D02*
D03*
X15689999Y20100000D02*
D03*
X15687500Y19962498D02*
D03*
X15505605Y23759955D02*
D03*
X15487500Y23200000D02*
D03*
X15584517Y22374435D02*
D03*
X15578806Y22197784D02*
D03*
X15518806Y21997784D02*
D03*
X15498958Y21650533D02*
D03*
X15410001Y23295000D02*
D03*
X15258806Y23257785D02*
D03*
X15439999Y23200000D02*
D03*
X15410001Y23247501D02*
D03*
X15258806Y24007785D02*
D03*
X15244092Y24503578D02*
D03*
X15253680Y23503970D02*
D03*
X15410001Y23117500D02*
D03*
Y23164999D02*
D03*
X15455000Y22227499D02*
D03*
X15179517Y22371936D02*
D03*
X15567500Y20352499D02*
D03*
X15427499Y20035001D02*
D03*
X15545000Y19939999D02*
D03*
X15305000Y21620000D02*
D03*
X15298807Y21207785D02*
D03*
X15198956Y21410532D02*
D03*
Y21315532D02*
D03*
X15397501Y20530000D02*
D03*
X15198946Y21060315D02*
D03*
X15185001Y20639999D02*
D03*
X15186458Y20273032D02*
D03*
X15820000Y19905000D02*
D03*
X15880000Y19839999D02*
D03*
X15685001Y19839999D02*
D03*
X15810001Y19642500D02*
D03*
X15688271Y19707076D02*
D03*
X15685773Y19772075D02*
D03*
X15687500Y19645000D02*
D03*
X15623273Y19837074D02*
D03*
Y19774574D02*
D03*
X15558270Y19839575D02*
D03*
X15623273Y19709575D02*
D03*
X15558270Y19707076D02*
D03*
Y19772075D02*
D03*
X15493272Y19842075D02*
D03*
X15297501Y19839999D02*
D03*
X15493272Y19709575D02*
D03*
X15492500Y19780000D02*
D03*
X15625000Y19642500D02*
D03*
X15492500Y19645000D02*
D03*
X15362500Y19645000D02*
D03*
X19994092Y18753578D02*
D03*
Y19253578D02*
D03*
X19997475Y18265742D02*
D03*
X19758806Y18507785D02*
D03*
X19008806Y19007785D02*
D03*
X18750000Y19000000D02*
D03*
X19008806Y18757785D02*
D03*
X18758806D02*
D03*
X19502023Y17744514D02*
D03*
Y17994514D02*
D03*
X20002023Y17744514D02*
D03*
X19744092Y17503578D02*
D03*
X19258806Y18257785D02*
D03*
X19002023Y17994514D02*
D03*
Y17744514D02*
D03*
X18274472Y19498077D02*
D03*
X18193192Y19127238D02*
D03*
X18434492Y19078978D02*
D03*
X18258806Y18757785D02*
D03*
X18005232Y19076437D02*
D03*
X17802032Y18751318D02*
D03*
X18089052Y18664958D02*
D03*
X18502023Y17994514D02*
D03*
X18353212Y18649718D02*
D03*
X18744092Y17503578D02*
D03*
X18502023Y17744514D02*
D03*
X18030632Y18611618D02*
D03*
X18002023Y17994514D02*
D03*
Y17744514D02*
D03*
X19994092Y17253578D02*
D03*
X19508806Y17257785D02*
D03*
X19994092Y16753578D02*
D03*
X19575897Y17021031D02*
D03*
X19244092Y17503578D02*
D03*
X19000000Y17250000D02*
D03*
X19008806Y17007785D02*
D03*
X18508806D02*
D03*
X18244092Y17503578D02*
D03*
X18008806Y17257785D02*
D03*
X18508806D02*
D03*
X17518806Y18747784D02*
D03*
X17502023Y17994514D02*
D03*
X17744092Y17503578D02*
D03*
X17502023Y17744514D02*
D03*
X17258806Y17257785D02*
D03*
X17244092Y17503578D02*
D03*
X17208957Y17178032D02*
D03*
X17763197Y17006757D02*
D03*
X16994092Y18003578D02*
D03*
X16698807Y18737785D02*
D03*
X16994092Y17753578D02*
D03*
X16744092Y17503578D02*
D03*
X16571458Y18918031D02*
D03*
X16494092Y18003578D02*
D03*
Y17753578D02*
D03*
X16758806Y17257785D02*
D03*
X16542500Y16922501D02*
D03*
X16672501Y16767500D02*
D03*
X19994092Y16253578D02*
D03*
X19558806Y16387785D02*
D03*
X19994092Y16003578D02*
D03*
X19744092D02*
D03*
X19068806Y16247784D02*
D03*
X19244092Y16003578D02*
D03*
X19744092Y15753578D02*
D03*
X19494092D02*
D03*
X20000000Y15500000D02*
D03*
X19244092Y15503578D02*
D03*
X18994092Y15753578D02*
D03*
X18744092Y16003578D02*
D03*
X18494092Y15753578D02*
D03*
X18244092Y16003578D02*
D03*
X17994092Y15753578D02*
D03*
X18244092Y15503578D02*
D03*
X19744092Y15003578D02*
D03*
X19538806Y15197784D02*
D03*
X20000000Y15000000D02*
D03*
X19750000Y14750000D02*
D03*
X19244092Y15003578D02*
D03*
X19018806Y15147784D02*
D03*
X19250000Y14750000D02*
D03*
X18750000D02*
D03*
X18250000D02*
D03*
X17744092Y16003578D02*
D03*
X17356458Y15910532D02*
D03*
X17494092Y15753578D02*
D03*
X16987308Y16010007D02*
D03*
X16744092Y15753578D02*
D03*
X16630000Y15675000D02*
D03*
X16494092Y16003578D02*
D03*
X16602499Y15552499D02*
D03*
X17744092Y15503578D02*
D03*
X17750000Y14750000D02*
D03*
X17250000D02*
D03*
X16494092Y15003578D02*
D03*
X16750000Y14750000D02*
D03*
X16138959Y19500533D02*
D03*
X15947501Y19382500D02*
D03*
X15750000Y19542500D02*
D03*
X16360001Y19007500D02*
D03*
X16087500Y19289999D02*
D03*
X16046457Y19170532D02*
D03*
X15764999Y19135001D02*
D03*
X15870000Y19010001D02*
D03*
X15487500Y19567500D02*
D03*
X15492500Y19320000D02*
D03*
X15297501Y19385001D02*
D03*
Y19580000D02*
D03*
X15597501Y19137500D02*
D03*
X15395000Y19217500D02*
D03*
X15239999Y19160001D02*
D03*
X16253958Y18710532D02*
D03*
X16252470Y17494060D02*
D03*
X16250000Y17250000D02*
D03*
X16433957Y16368031D02*
D03*
X16196458Y16325533D02*
D03*
X15994092Y18003578D02*
D03*
X15914999Y18780000D02*
D03*
X15994092Y17753578D02*
D03*
X15744092Y17503578D02*
D03*
X15994092Y16503578D02*
D03*
X15744092Y16753578D02*
D03*
X16196458Y16073032D02*
D03*
X16232500Y15850000D02*
D03*
X16250000Y14750000D02*
D03*
X16238957Y15105531D02*
D03*
X16000000Y15000000D02*
D03*
X15750000Y15250000D02*
D03*
Y14750000D02*
D03*
X15597501Y18747501D02*
D03*
X15494092Y17753578D02*
D03*
Y18003578D02*
D03*
X15244092Y15253578D02*
D03*
X15500000Y15000000D02*
D03*
X15250000Y14750000D02*
D03*
X15015979Y24251611D02*
D03*
X15008806Y23757785D02*
D03*
X14939999Y23225000D02*
D03*
X14758806Y23507785D02*
D03*
X15062016Y22224435D02*
D03*
X14758806Y24007785D02*
D03*
X14744092Y24503578D02*
D03*
X14508806Y23257785D02*
D03*
Y23757785D02*
D03*
X14244092Y24503578D02*
D03*
X14008806Y24007785D02*
D03*
Y23507785D02*
D03*
X14258806Y22507785D02*
D03*
Y22757785D02*
D03*
X14298956Y22395532D02*
D03*
X14258806Y23007785D02*
D03*
X14538957Y22115532D02*
D03*
X14387016Y22161935D02*
D03*
X15139999Y22030000D02*
D03*
Y21947501D02*
D03*
X14339517Y22161935D02*
D03*
X13744092Y24503578D02*
D03*
X13508806Y24007785D02*
D03*
X13758806Y23757785D02*
D03*
X13244092Y24503578D02*
D03*
X13758806Y23257785D02*
D03*
X13512228Y23492760D02*
D03*
X13293958Y23278032D02*
D03*
X13508806Y23257785D02*
D03*
X13203957Y23645532D02*
D03*
X13008806Y24007785D02*
D03*
X12744092Y24503578D02*
D03*
X13121457Y23265532D02*
D03*
X12758806Y23257785D02*
D03*
X13806458Y23105531D02*
D03*
X12758806Y23007785D02*
D03*
X13631458Y22763033D02*
D03*
X13500000Y22500000D02*
D03*
Y22000000D02*
D03*
Y22250000D02*
D03*
X13008806Y22507785D02*
D03*
X12770607Y22755255D02*
D03*
X13258806Y22257785D02*
D03*
X15100000Y21787500D02*
D03*
X14796458Y21845532D02*
D03*
X14664517Y21621936D02*
D03*
X14662016Y21456937D02*
D03*
X14620000Y21367500D02*
D03*
X14782500Y21364999D02*
D03*
X15080000Y21105000D02*
D03*
X14988806Y20937785D02*
D03*
X15092500Y20232500D02*
D03*
X14872501Y20880000D02*
D03*
X14605000Y21017500D02*
D03*
X14620000Y20700000D02*
D03*
X14781458Y20230531D02*
D03*
X14497017Y21621936D02*
D03*
X14499516Y21454436D02*
D03*
X14355000Y21852499D02*
D03*
X14337500Y21230000D02*
D03*
X14298807Y21597784D02*
D03*
X13958806Y21527785D02*
D03*
X12761847Y21501692D02*
D03*
X12742500Y21314999D02*
D03*
X14220000Y21120000D02*
D03*
X13948807Y21117786D02*
D03*
X14189999Y21020000D02*
D03*
X12980132Y21012294D02*
D03*
X12976027Y21241585D02*
D03*
X12758806Y21007785D02*
D03*
X14307500Y20787500D02*
D03*
X14425000Y20272501D02*
D03*
X14073956Y20308032D02*
D03*
X13982500Y20757500D02*
D03*
X13091457Y20698032D02*
D03*
X12980704Y20759572D02*
D03*
X13283957Y20528032D02*
D03*
X13121457Y20478032D02*
D03*
X13173956Y20395532D02*
D03*
X13321457Y20350533D02*
D03*
X12322500Y24412500D02*
D03*
X11994092Y24503578D02*
D03*
X11494092D02*
D03*
X11758806Y24257785D02*
D03*
X11508806Y24007785D02*
D03*
X12508806D02*
D03*
X12008806D02*
D03*
X12508806Y23507785D02*
D03*
X12008806Y23257785D02*
D03*
X11758806Y23507785D02*
D03*
Y23757785D02*
D03*
X11508806Y23257785D02*
D03*
X11307040Y23177629D02*
D03*
X11258806Y23757785D02*
D03*
Y24257785D02*
D03*
Y23507785D02*
D03*
X11300000Y23070000D02*
D03*
X12508806Y23007785D02*
D03*
Y22507785D02*
D03*
X12258806Y22757785D02*
D03*
X12027500Y23012500D02*
D03*
X12508806Y22007785D02*
D03*
X12377500Y21830000D02*
D03*
X12508806Y21507785D02*
D03*
Y21757785D02*
D03*
X12258806Y22007785D02*
D03*
X11508806D02*
D03*
X12010941Y22001286D02*
D03*
X11758806Y22007785D02*
D03*
X11282500Y23012500D02*
D03*
X11759629Y21510776D02*
D03*
X11758806Y21757785D02*
D03*
X12008806Y21507785D02*
D03*
X11508806D02*
D03*
Y21757785D02*
D03*
X11500000Y21250000D02*
D03*
X10994092Y24503578D02*
D03*
X10967500Y24410001D02*
D03*
X10969989Y24239055D02*
D03*
X11057500Y23697501D02*
D03*
X11008806Y23257785D02*
D03*
X10888957Y23853032D02*
D03*
X10753957Y24020377D02*
D03*
X10507053Y24491078D02*
D03*
X10244092Y24253578D02*
D03*
X10508806Y23757785D02*
D03*
X10758806Y23507785D02*
D03*
X10810000Y23335001D02*
D03*
X10748549Y22998438D02*
D03*
X10508806Y23257785D02*
D03*
X10244092Y23753578D02*
D03*
Y23253578D02*
D03*
X11008806Y22257785D02*
D03*
X10972500Y22995000D02*
D03*
X10508806Y22757785D02*
D03*
X10758806Y22507785D02*
D03*
X10244092Y22253578D02*
D03*
Y22753578D02*
D03*
X10500000Y22250000D02*
D03*
X10244092Y21753578D02*
D03*
Y21253578D02*
D03*
X12000000Y21250000D02*
D03*
X11750000D02*
D03*
X12000000Y21000000D02*
D03*
X11750000D02*
D03*
X12258806Y20757785D02*
D03*
X11758806D02*
D03*
X10244092Y20753577D02*
D03*
X10508806Y20507785D02*
D03*
X12005517Y20503654D02*
D03*
X11508806Y20507785D02*
D03*
X11758806Y20257785D02*
D03*
X11258806D02*
D03*
X10997614Y20491978D02*
D03*
X10758806Y20257785D02*
D03*
X10244092Y20253577D02*
D03*
X14937500Y20145000D02*
D03*
X14556458Y19473032D02*
D03*
X14541458Y20140532D02*
D03*
X14852499Y19435001D02*
D03*
X14907500Y19330000D02*
D03*
X14353166Y20072723D02*
D03*
X14488959Y19858032D02*
D03*
X13483958Y19960532D02*
D03*
X14472501Y19637500D02*
D03*
X13516457Y19550533D02*
D03*
X14008806Y19507785D02*
D03*
X13758806D02*
D03*
X13347501Y19772501D02*
D03*
X15127499Y19245000D02*
D03*
X14877499Y18707500D02*
D03*
X14994092Y18003578D02*
D03*
X14698807Y18007785D02*
D03*
X14453957Y19173032D02*
D03*
X14017007Y19227187D02*
D03*
X14652499Y19135001D02*
D03*
X14008806Y19007785D02*
D03*
X13756078Y19248228D02*
D03*
X13808806Y18667786D02*
D03*
X13508806Y18757785D02*
D03*
X13258806Y19007785D02*
D03*
X13008806Y19257785D02*
D03*
Y18757785D02*
D03*
X13978958Y18495532D02*
D03*
X13978806Y18327785D02*
D03*
X13994092Y18003578D02*
D03*
X13744092Y18253578D02*
D03*
X13368806Y18247784D02*
D03*
X12994092Y18253578D02*
D03*
X13244092Y18003578D02*
D03*
X12500000Y19747501D02*
D03*
X12767068Y18999924D02*
D03*
X12500000Y18750000D02*
D03*
X12568957Y18078032D02*
D03*
X12494092Y18253578D02*
D03*
X12512134Y17760629D02*
D03*
X12244092Y18503578D02*
D03*
X14994092Y17503578D02*
D03*
Y17753578D02*
D03*
X14558806Y17707785D02*
D03*
X14494092Y17503578D02*
D03*
X15108957Y17133032D02*
D03*
X14995399Y16985098D02*
D03*
X14494092Y17003578D02*
D03*
X14995399Y16496507D02*
D03*
X14298807Y17247784D02*
D03*
Y17737785D02*
D03*
X13994092Y17503578D02*
D03*
X13744092Y17753578D02*
D03*
Y17253578D02*
D03*
X13994092Y16253578D02*
D03*
X13986967Y15501329D02*
D03*
X13744092Y15003578D02*
D03*
X14000000Y14750000D02*
D03*
X12994092Y17753578D02*
D03*
X13260857Y17492737D02*
D03*
X12994092Y17253578D02*
D03*
X13494092Y16003578D02*
D03*
Y16753578D02*
D03*
X13735889Y15505437D02*
D03*
X13494092Y15503578D02*
D03*
X12744092Y15753578D02*
D03*
Y16253578D02*
D03*
X13494092Y15003578D02*
D03*
X12744092D02*
D03*
Y16753578D02*
D03*
X12250000Y14750000D02*
D03*
X12244092Y15503578D02*
D03*
Y16003578D02*
D03*
Y16503578D02*
D03*
X12240000Y15130000D02*
D03*
X11758806Y19507785D02*
D03*
X11994092Y19253578D02*
D03*
X11494092D02*
D03*
X11994092Y18253578D02*
D03*
X11744092Y18003578D02*
D03*
X10244092Y19753578D02*
D03*
X10598806Y19747784D02*
D03*
X10895000Y19512500D02*
D03*
X10598806Y19247784D02*
D03*
X10562500Y19420000D02*
D03*
X10244092Y19253578D02*
D03*
X11244092Y19003578D02*
D03*
X10244092Y18753578D02*
D03*
X10994092Y18003578D02*
D03*
X10244092Y18253578D02*
D03*
X11744092Y17503578D02*
D03*
Y17003578D02*
D03*
Y16503578D02*
D03*
Y16003578D02*
D03*
X11750000Y14750000D02*
D03*
X11744092Y15503578D02*
D03*
X11244092D02*
D03*
X11250000Y14750000D02*
D03*
X10994092Y17753578D02*
D03*
X10898957Y17118031D02*
D03*
X10244092Y17253578D02*
D03*
Y17753578D02*
D03*
X10994092Y15753578D02*
D03*
X10750000Y14750000D02*
D03*
X10250000Y15000000D02*
D03*
X10244092Y16003578D02*
D03*
Y16503578D02*
D03*
Y15503578D02*
D03*
X13980000Y18385001D02*
D03*
X16139999Y18710001D02*
D03*
X15950000Y19645000D02*
D03*
X17692500Y18750000D02*
D03*
X15620000Y19450000D02*
D03*
X19080000Y20139999D02*
D03*
X15034286Y19871745D02*
D03*
X18247501Y19572501D02*
D03*
X15947501Y19970000D02*
D03*
X13092500Y20755000D02*
D03*
X15360001Y20100000D02*
D03*
X14705000Y21850000D02*
D03*
X15950000Y19580000D02*
D03*
X14707500Y18762500D02*
D03*
X15232500Y19382500D02*
D03*
X13980000Y18602499D02*
D03*
X16189999Y19582500D02*
D03*
X16195000Y18710001D02*
D03*
X16114999Y19105000D02*
D03*
X16184113Y19903548D02*
D03*
X13442500Y19727499D02*
D03*
X18700000Y21147501D02*
D03*
X18695000Y20677499D02*
D03*
X18217500Y19442500D02*
D03*
X16450000Y19864999D02*
D03*
X15755000Y20100000D02*
D03*
X16087500Y20352499D02*
D03*
X16255000Y19805000D02*
D03*
X18852499Y20239999D02*
D03*
X16535001Y18960001D02*
D03*
X17007500Y22595000D02*
D03*
X17062128Y22893864D02*
D03*
X14697501Y17680000D02*
D03*
X15620000Y19385001D02*
D03*
X14507500Y19592500D02*
D03*
X13337500Y20500000D02*
D03*
X15232500Y19970000D02*
D03*
X15905000Y20337500D02*
D03*
X13437500Y19664999D02*
D03*
X13982500Y18550000D02*
D03*
X16030000Y18710001D02*
D03*
X18062500Y19120000D02*
D03*
X15947501Y19447501D02*
D03*
X14455000Y19114999D02*
D03*
X16012500Y19382500D02*
D03*
X14497501Y19912500D02*
D03*
X14642500Y17762500D02*
D03*
X14864999Y18757500D02*
D03*
X15752499Y19385001D02*
D03*
X14814999Y18685001D02*
D03*
X13442500Y19912500D02*
D03*
X15950000Y19514999D02*
D03*
X15600000Y20297501D02*
D03*
X18850000Y19750000D02*
D03*
X18162500Y19527499D02*
D03*
X15947501Y19902499D02*
D03*
X18850000Y20392500D02*
D03*
X15947501Y19777499D02*
D03*
X13295000Y20587500D02*
D03*
X15232500Y19907500D02*
D03*
X14544868Y20216327D02*
D03*
X15230000Y19580000D02*
D03*
X13187500Y20462500D02*
D03*
X14010001Y20407500D02*
D03*
X15177499Y20700000D02*
D03*
X15117500Y20552499D02*
D03*
X17075000Y23277499D02*
D03*
X16505000Y18914999D02*
D03*
X15880000Y19450000D02*
D03*
X15805000Y19535001D02*
D03*
X15780000Y20375000D02*
D03*
X13439999Y19607500D02*
D03*
Y19857500D02*
D03*
X16135001Y19710001D02*
D03*
X16335001Y19907500D02*
D03*
X18852499Y20475000D02*
D03*
X18814999Y19127499D02*
D03*
X16222501Y19677499D02*
D03*
X17967500Y18562500D02*
D03*
X15557500Y19450000D02*
D03*
X15297501Y19447501D02*
D03*
X15039999Y19207500D02*
D03*
X14300000Y22337500D02*
D03*
X14500000Y19807500D02*
D03*
X14642500Y17825000D02*
D03*
X14795000Y20050000D02*
D03*
X15817500Y19385001D02*
D03*
X14445000Y19592500D02*
D03*
X13375000Y20822501D02*
D03*
X15817500Y19970000D02*
D03*
X14762500Y21012500D02*
D03*
X19027499Y21789999D02*
D03*
X19014999Y21847501D02*
D03*
X19155000Y20662500D02*
D03*
X19019540Y20315129D02*
D03*
X18295000Y23789999D02*
D03*
X16605000Y23410001D02*
D03*
X17685001Y20552499D02*
D03*
X17705495Y20073277D02*
D03*
X16097501Y20160001D02*
D03*
X15895000Y21897501D02*
D03*
X15539517Y24259436D02*
D03*
X15895000Y21850000D02*
D03*
X15392500Y21770000D02*
D03*
X15510001Y21400000D02*
D03*
X15416853Y20244518D02*
D03*
X15427499Y20100000D02*
D03*
X19024541Y19810129D02*
D03*
X15800000Y19777499D02*
D03*
X19027040Y19665129D02*
D03*
X16232500Y18820000D02*
D03*
X15810001Y19587500D02*
D03*
X15692500Y19545000D02*
D03*
X15622501Y19962498D02*
D03*
X15555000Y19517500D02*
D03*
X15377499Y19942499D02*
D03*
X15362500Y19579999D02*
D03*
X15357500Y19517500D02*
D03*
X15364999Y19385001D02*
D03*
X15370000Y15637500D02*
D03*
X14457500Y24257500D02*
D03*
X14602499Y22322501D02*
D03*
X14272017Y22159436D02*
D03*
X12150000Y22480000D02*
D03*
X15105000Y21617500D02*
D03*
X12632500Y21972501D02*
D03*
X12175000Y21830000D02*
D03*
X12025000Y21697501D02*
D03*
X11514540Y23065129D02*
D03*
X11512040Y23182629D02*
D03*
X11537040Y23012630D02*
D03*
X11210000Y23864999D02*
D03*
X11364540Y22492628D02*
D03*
X10854540D02*
D03*
X11800000Y22295000D02*
D03*
X11632500Y22300000D02*
D03*
X14917500Y20814999D02*
D03*
X14539999Y20832500D02*
D03*
X14512500Y20785001D02*
D03*
X14889999Y20677499D02*
D03*
X14114999Y20900000D02*
D03*
X14070000Y20872501D02*
D03*
X14485001Y20830000D02*
D03*
X14114999Y20852499D02*
D03*
X15095000Y20092500D02*
D03*
X15083270Y19369576D02*
D03*
X14872501Y19285001D02*
D03*
X13509058Y20355545D02*
D03*
X15230000Y19645000D02*
D03*
X13442500Y19552499D02*
D03*
X15177499Y20547501D02*
D03*
X15242500Y20650000D02*
D03*
X17705000Y20160001D02*
D03*
X16620000Y20475000D02*
D03*
X18850000Y19814999D02*
D03*
X15687500Y20037500D02*
D03*
X18147501Y19095000D02*
D03*
X15560001Y19385001D02*
D03*
X14022501Y20357500D02*
D03*
X13239999Y20364999D02*
D03*
X14602499Y19242500D02*
D03*
X14500000Y19750000D02*
D03*
X15230000Y19710001D02*
D03*
X16476611Y19006615D02*
D03*
X15642500Y21792500D02*
D03*
X15882500Y18739999D02*
D03*
X15685001Y19185001D02*
D03*
X13437500Y19795000D02*
D03*
X15882500Y19777499D02*
D03*
X16387500Y19910001D02*
D03*
X18257500Y19347501D02*
D03*
X18057500Y19482500D02*
D03*
X15947501Y19842500D02*
D03*
X15817500Y20100000D02*
D03*
X16100000Y20300000D02*
D03*
X18300000Y18607500D02*
D03*
X15427499Y19385001D02*
D03*
X18852499Y20630000D02*
D03*
X16927499Y19375000D02*
D03*
X19097501Y20050000D02*
D03*
X15232500Y19839999D02*
D03*
X14557500Y19422501D02*
D03*
X14762500Y17785001D02*
D03*
X15687500Y19450000D02*
D03*
X14802499Y20332500D02*
D03*
X13139999Y20532500D02*
D03*
X15300000Y20645000D02*
D03*
X15237500Y20545000D02*
D03*
X14657500Y20232500D02*
D03*
X14664999Y19264999D02*
D03*
X15470000Y21592500D02*
D03*
X16432500Y19052499D02*
D03*
X14185564Y20901514D02*
D03*
X14185001Y20839999D02*
D03*
X14482500Y20897501D02*
D03*
X15124516Y21411935D02*
D03*
X14537500Y20897501D02*
D03*
X14927017Y22001936D02*
D03*
Y21936935D02*
D03*
X14555000Y21222501D02*
D03*
X14839999D02*
D03*
X10947500Y23852499D02*
D03*
X15125000Y21314999D02*
D03*
D162*
X19345000Y16392500D02*
D03*
X18892500Y16714999D02*
D03*
X17146062Y16951234D02*
D03*
X17664999Y16687500D02*
D03*
X17441061Y16813734D02*
D03*
X17148563Y16826234D02*
D03*
X18875000Y15512500D02*
D03*
X18100000Y16170000D02*
D03*
X17972501D02*
D03*
X19342500Y15207500D02*
D03*
X18092500Y14957500D02*
D03*
X17125000Y15702499D02*
D03*
Y15572501D02*
D03*
X16724464Y16213734D02*
D03*
X16851965Y16211235D02*
D03*
X17642500Y15462500D02*
D03*
X17964999Y14957500D02*
D03*
X17439999Y15564999D02*
D03*
X16825000Y14955000D02*
D03*
X16685001Y14957500D02*
D03*
X16132500Y17280000D02*
D03*
X16227499Y16814999D02*
D03*
X15842500Y16439999D02*
D03*
X16154324Y16015376D02*
D03*
X16156824Y15897874D02*
D03*
X16207500Y15557500D02*
D03*
X15777499Y15572501D02*
D03*
X15727499Y17325000D02*
D03*
X15672501Y16370000D02*
D03*
X15495000D02*
D03*
X15489999Y15955000D02*
D03*
X15712500Y15767500D02*
D03*
X15525000Y15507500D02*
D03*
X15197501Y15697501D02*
D03*
X15205000Y15572501D02*
D03*
X15152499Y17557500D02*
D03*
X15166583Y16829555D02*
D03*
Y16709554D02*
D03*
X14175470Y16468535D02*
D03*
X14607433Y15376541D02*
D03*
X14552432Y15491541D02*
D03*
X13102594Y15376089D02*
D03*
X11690000Y16389999D02*
D03*
Y16300000D02*
D03*
X11560000Y16200000D02*
D03*
X11470000D02*
D03*
X11120000Y16722501D02*
D03*
X11107500Y16597501D02*
D03*
X10690000Y16780000D02*
D03*
X10545000Y16770000D02*
D03*
X14907251Y17267175D02*
D03*
X15627499Y15500000D02*
D03*
X15564999Y16210001D02*
D03*
X16082500Y17452499D02*
D03*
X17272501Y15910001D02*
D03*
X17200000Y17062500D02*
D03*
X16339246Y16347928D02*
D03*
X16314244Y15107928D02*
D03*
X15979245Y17010428D02*
D03*
X16601585Y15122054D02*
D03*
X14702962Y15647672D02*
D03*
X16869084Y15704555D02*
D03*
X18029083Y15187054D02*
D03*
X18036584Y16399554D02*
D03*
X16662500Y16427499D02*
D03*
X16981586Y17037054D02*
D03*
X16451585Y16747054D02*
D03*
X15399084Y16714554D02*
D03*
X16197501Y15435001D02*
D03*
X15210001Y17135001D02*
D03*
X16552499Y15700000D02*
D03*
X16232500Y15767500D02*
D03*
X16556459Y15613541D02*
D03*
X16233167Y15683151D02*
D03*
X16195000Y16139999D02*
D03*
Y16255000D02*
D03*
X16599905Y16783234D02*
D03*
X16539999Y16839999D02*
D03*
D163*
X13285001Y23527499D02*
D03*
X13130000Y23420000D02*
D03*
X13687650Y23116081D02*
D03*
X13763481Y22889490D02*
D03*
X13533481Y22824490D02*
D03*
X12687500Y20662500D02*
D03*
X12690000Y20600000D02*
D03*
X12781689Y20380659D02*
D03*
X11087500Y21805000D02*
D03*
X11085000Y21917500D02*
D03*
X10922500Y21947501D02*
D03*
X10925000Y21837500D02*
D03*
X12446689Y20285660D02*
D03*
X12668771Y20258466D02*
D03*
X12370967Y20547260D02*
D03*
Y20484760D02*
D03*
X11392500Y20982500D02*
D03*
X11305000Y20900000D02*
D03*
X11195000D02*
D03*
X11050000Y20872501D02*
D03*
X12346689Y20378160D02*
D03*
X12329189Y20283160D02*
D03*
X11193630Y20789859D02*
D03*
X11306130D02*
D03*
X12953098Y20148074D02*
D03*
X12950598Y20023074D02*
D03*
X12937500Y19475000D02*
D03*
X12665640Y19226520D02*
D03*
X12245000Y19970000D02*
D03*
X12130000Y20139999D02*
D03*
X12430000Y18110001D02*
D03*
X12178629Y17873630D02*
D03*
X12590849Y17531529D02*
D03*
Y17404028D02*
D03*
X12732500Y17264999D02*
D03*
X12220000Y17395000D02*
D03*
X12225397Y17210950D02*
D03*
X12235000Y17132500D02*
D03*
X12045000Y20137500D02*
D03*
X12020544Y19418083D02*
D03*
X11965000Y19689999D02*
D03*
X12107500Y18989999D02*
D03*
X12020000Y18914999D02*
D03*
X12032500Y18630000D02*
D03*
X12112500Y18500000D02*
D03*
X11720000Y18760001D02*
D03*
X11450000Y19585001D02*
D03*
X11477500Y19420000D02*
D03*
X11440000Y18830000D02*
D03*
X11090000Y18717500D02*
D03*
X11440000Y18667500D02*
D03*
X11092500Y18587500D02*
D03*
X11090000Y18457500D02*
D03*
X12122897Y17395949D02*
D03*
X12120000Y17214999D02*
D03*
X11952500Y17289999D02*
D03*
X11217500Y17080000D02*
D03*
X11217308Y17014999D02*
D03*
X11212500Y16872501D02*
D03*
X10852500Y16867500D02*
D03*
X12570000Y17932500D02*
D03*
Y17995000D02*
D03*
X13810001Y23035001D02*
D03*
X13762500Y22957500D02*
D03*
X11373473Y21783659D02*
D03*
Y21913660D02*
D03*
Y21976160D02*
D03*
Y21851160D02*
D03*
X12812500Y20214999D02*
D03*
X12374516Y20066493D02*
D03*
X11402500Y20500000D02*
D03*
X12777500Y19407500D02*
D03*
X12178044Y19683083D02*
D03*
X13700000Y22762500D02*
D03*
X11332500Y19420000D02*
D03*
X12520000Y17010001D02*
D03*
X12385000D02*
D03*
X12452500D02*
D03*
X11158618Y19534836D02*
D03*
X11127500Y19877499D02*
D03*
Y19972501D02*
D03*
X13287148Y23621146D02*
D03*
X13119330Y23621005D02*
D03*
X13112500Y23335001D02*
D03*
X13302499Y23337500D02*
D03*
X11950116Y17398268D02*
D03*
X12389629Y17615096D02*
D03*
X12450000Y17614999D02*
D03*
X11940000Y18475000D02*
D03*
X11937500Y18539999D02*
D03*
Y18602499D02*
D03*
X12107500Y18027499D02*
D03*
X11455000Y20755000D02*
D03*
X11280462Y20647955D02*
D03*
X10902500Y20972501D02*
D03*
X11832500Y18972501D02*
D03*
X11835000Y19039999D02*
D03*
X11740000Y19042500D02*
D03*
X11765000Y19975000D02*
D03*
Y19880000D02*
D03*
X12032500Y19900000D02*
D03*
X12127500D02*
D03*
X10920000Y17027499D02*
D03*
X11232500Y16947501D02*
D03*
%TF.MD5,d16f8ab101b152e25df76f3ba606803e*%
M02*
