%TF.GenerationSoftware,Altium Limited,Altium Designer,26.8.1 (31)*%
G04 Layer_Color=8421504*
G04 Board_Origin=0|0*
%FSLAX45Y45*%
%MOMM*%
%TF.SameCoordinates,53F6FBF9-B70B-408D-9132-D8E13A354014*%
%TF.FilePolarity,Positive*%
%TF.FileFunction,Paste,Top*%
%TF.Part,Single*%
G01*
G75*
%TA.AperFunction,BGAPad,CuDef*%
%ADD11C,0.27940*%
%TA.AperFunction,SMDPad,CuDef*%
%ADD12R,0.25480X0.80800*%
%ADD13R,0.80800X0.25480*%
%ADD14O,1.20000X0.55000*%
%ADD15R,0.60000X0.64000*%
%ADD16R,0.64000X0.60000*%
%ADD17R,0.60000X0.75000*%
%ADD18R,0.27940X1.47320*%
G04:AMPARAMS|DCode=19|XSize=1.4mm|YSize=2.1mm|CornerRadius=0.35mm|HoleSize=0mm|Usage=FLASHONLY|Rotation=90.000|XOffset=0mm|YOffset=0mm|HoleType=Round|Shape=RoundedRectangle|*
%AMROUNDEDRECTD19*
21,1,1.40000,1.40000,0,0,90.0*
21,1,0.70000,2.10000,0,0,90.0*
1,1,0.70000,0.70000,0.35000*
1,1,0.70000,0.70000,-0.35000*
1,1,0.70000,-0.70000,-0.35000*
1,1,0.70000,-0.70000,0.35000*
%
%ADD19ROUNDEDRECTD19*%
%ADD20R,0.75000X0.60000*%
%ADD21R,2.40000X0.76000*%
%ADD22R,0.35000X0.40000*%
%ADD23R,0.60000X0.80000*%
%ADD24R,0.70000X0.40000*%
%ADD25O,1.45000X0.60000*%
%ADD26R,0.40000X0.35000*%
%ADD27R,0.90000X0.80000*%
%ADD28R,1.39700X0.43180*%
%ADD29O,1.55000X0.60000*%
%ADD30R,0.25400X0.76200*%
%ADD31R,1.19380X1.19380*%
%ADD32R,0.55880X1.32080*%
G04:AMPARAMS|DCode=33|XSize=1.37mm|YSize=0.48mm|CornerRadius=0.06mm|HoleSize=0mm|Usage=FLASHONLY|Rotation=180.000|XOffset=0mm|YOffset=0mm|HoleType=Round|Shape=RoundedRectangle|*
%AMROUNDEDRECTD33*
21,1,1.37000,0.36000,0,0,180.0*
21,1,1.25000,0.48000,0,0,180.0*
1,1,0.12000,-0.62500,0.18000*
1,1,0.12000,0.62500,0.18000*
1,1,0.12000,0.62500,-0.18000*
1,1,0.12000,-0.62500,-0.18000*
%
%ADD33ROUNDEDRECTD33*%
%ADD34R,1.47320X0.27940*%
%ADD35R,0.40000X0.30000*%
%ADD36R,2.20980X2.20980*%
%TA.AperFunction,ConnectorPad*%
%ADD37R,1.50000X1.90000*%
%ADD38R,1.00000X1.40000*%
%ADD39R,0.70000X1.40000*%
%ADD40R,1.20000X3.20000*%
%TA.AperFunction,SMDPad,CuDef*%
%ADD41R,1.20000X1.20000*%
%TA.AperFunction,ConnectorPad*%
%ADD42R,0.70000X1.20000*%
%TA.AperFunction,SMDPad,CuDef*%
%ADD43R,3.15000X2.45000*%
%ADD46R,1.75260X1.75260*%
%ADD47R,1.00000X1.00000*%
%ADD48R,0.45000X0.30000*%
%ADD50O,0.60000X1.45000*%
%ADD51R,0.40000X0.70000*%
%ADD52R,1.75260X2.48920*%
%ADD53R,0.60000X0.20000*%
%TA.AperFunction,ConnectorPad*%
%ADD54R,0.70000X0.32000*%
%TA.AperFunction,SMDPad,CuDef*%
%ADD55R,0.68260X0.33020*%
%ADD56R,0.81280X0.40640*%
%ADD57R,2.50000X1.70000*%
%ADD58R,0.85000X0.20000*%
%ADD59R,0.20000X1.25000*%
%ADD60R,1.00000X0.90000*%
%ADD61R,0.75000X1.40000*%
%ADD62R,0.70000X1.10000*%
%ADD63R,1.80000X2.00000*%
%ADD64R,1.62000X3.30200*%
%TA.AperFunction,ConnectorPad*%
%ADD65R,0.80000X1.40000*%
%TA.AperFunction,SMDPad,CuDef*%
%ADD66R,0.40000X1.05000*%
%ADD67R,0.76200X0.25400*%
%ADD68R,0.40000X0.75000*%
%ADD69R,3.20000X2.50000*%
%ADD70R,0.15000X0.70000*%
%ADD71O,0.76000X1.27000*%
%ADD72R,1.00000X0.80000*%
G36*
X12339906Y17991055D02*
X12340000Y17990100D01*
Y17929900D01*
X12339906Y17928944D01*
X12339627Y17928024D01*
X12339174Y17927177D01*
X12338565Y17926434D01*
X12337822Y17925826D01*
X12336975Y17925372D01*
X12336056Y17925095D01*
X12335100Y17925000D01*
X12244900D01*
X12243944Y17925095D01*
X12243025Y17925372D01*
X12242178Y17925826D01*
X12241435Y17926434D01*
X12240826Y17927177D01*
X12240373Y17928024D01*
X12240094Y17928944D01*
X12240000Y17929900D01*
Y17990100D01*
X12240094Y17991055D01*
X12240373Y17991975D01*
X12240826Y17992822D01*
X12241435Y17993565D01*
X12242178Y17994174D01*
X12243025Y17994627D01*
X12243944Y17994907D01*
X12244900Y17995000D01*
X12335100D01*
X12336056Y17994907D01*
X12336975Y17994627D01*
X12337822Y17994174D01*
X12338565Y17993565D01*
X12339174Y17992822D01*
X12339627Y17991975D01*
X12339906Y17991055D01*
D02*
G37*
G36*
Y18081056D02*
X12340000Y18080099D01*
Y18019901D01*
X12339906Y18018944D01*
X12339627Y18018024D01*
X12339174Y18017177D01*
X12338565Y18016435D01*
X12337822Y18015826D01*
X12336975Y18015373D01*
X12336056Y18015094D01*
X12335100Y18014999D01*
X12244900D01*
X12243944Y18015094D01*
X12243025Y18015373D01*
X12242178Y18015826D01*
X12241435Y18016435D01*
X12240826Y18017177D01*
X12240373Y18018024D01*
X12240094Y18018944D01*
X12240000Y18019901D01*
Y18080099D01*
X12240094Y18081056D01*
X12240373Y18081975D01*
X12240826Y18082822D01*
X12241435Y18083565D01*
X12242178Y18084174D01*
X12243025Y18084627D01*
X12243944Y18084906D01*
X12244900Y18085001D01*
X12335100D01*
X12336056Y18084906D01*
X12336975Y18084627D01*
X12337822Y18084174D01*
X12338565Y18083565D01*
X12339174Y18082822D01*
X12339627Y18081975D01*
X12339906Y18081056D01*
D02*
G37*
G36*
X12514598Y19777480D02*
X12484142D01*
D01*
X12470000Y19763338D01*
D01*
Y19732883D01*
D01*
X12484142Y19718739D01*
D01*
X12514598D01*
D01*
X12528740Y19732883D01*
D01*
Y19763338D01*
D01*
X12514598Y19777480D01*
D01*
D02*
G37*
D11*
X15135001Y19547501D02*
D03*
X15655000Y19352499D02*
D03*
Y20197499D02*
D03*
X15720000Y19417500D02*
D03*
X15264999D02*
D03*
X15589999Y19287500D02*
D03*
X15330000D02*
D03*
X15980000Y19352499D02*
D03*
X16045000D02*
D03*
X15785001Y19417500D02*
D03*
X15200000Y19677499D02*
D03*
X15850000D02*
D03*
X15264999D02*
D03*
X15914999Y19612500D02*
D03*
X16045000D02*
D03*
X15135001Y19677499D02*
D03*
X15655000Y19287500D02*
D03*
X15720000D02*
D03*
X15330000Y19352499D02*
D03*
X15200000Y19417500D02*
D03*
X15850000D02*
D03*
Y19482500D02*
D03*
X15200000Y20002499D02*
D03*
X15135001Y19352499D02*
D03*
Y19482500D02*
D03*
Y19612500D02*
D03*
Y19742500D02*
D03*
Y19807500D02*
D03*
Y19937498D02*
D03*
Y20002499D02*
D03*
Y20132500D02*
D03*
X15200000Y19287500D02*
D03*
Y19352499D02*
D03*
Y19547501D02*
D03*
Y19612500D02*
D03*
Y19742500D02*
D03*
Y19807500D02*
D03*
Y19872499D02*
D03*
Y19937498D02*
D03*
Y20132500D02*
D03*
Y20197499D02*
D03*
X15264999Y19287500D02*
D03*
Y19547501D02*
D03*
Y19742500D02*
D03*
Y19807500D02*
D03*
Y19937498D02*
D03*
Y20002499D02*
D03*
Y20067499D02*
D03*
Y20197499D02*
D03*
X15330000Y19417500D02*
D03*
Y19482500D02*
D03*
Y19742500D02*
D03*
Y19807500D02*
D03*
Y20002499D02*
D03*
Y20067499D02*
D03*
Y20132500D02*
D03*
Y20197499D02*
D03*
X15395000Y19417500D02*
D03*
Y20067499D02*
D03*
Y20132500D02*
D03*
X15460001Y19287500D02*
D03*
Y20132500D02*
D03*
X15525000Y20002499D02*
D03*
Y20067499D02*
D03*
Y20197499D02*
D03*
X15589999Y20067499D02*
D03*
Y20197499D02*
D03*
X15655000Y19417500D02*
D03*
Y19482500D02*
D03*
Y20067499D02*
D03*
X15785001Y19287500D02*
D03*
X15850000Y19937498D02*
D03*
Y20002499D02*
D03*
Y20067499D02*
D03*
Y20132500D02*
D03*
X15914999Y19287500D02*
D03*
Y19352499D02*
D03*
Y20002499D02*
D03*
Y20067499D02*
D03*
Y20132500D02*
D03*
Y20197499D02*
D03*
X15980000Y19287500D02*
D03*
Y19417500D02*
D03*
Y19482500D02*
D03*
Y19547501D02*
D03*
Y19677499D02*
D03*
Y20067499D02*
D03*
Y20197499D02*
D03*
X16045000Y19417500D02*
D03*
Y19677499D02*
D03*
Y20067499D02*
D03*
X15914999Y19742500D02*
D03*
X15980000Y19807500D02*
D03*
X15720000Y20067499D02*
D03*
X15914999Y19937498D02*
D03*
X15135001Y19872499D02*
D03*
X15914999D02*
D03*
X15264999D02*
D03*
X16045000Y19547501D02*
D03*
X15589999Y19482500D02*
D03*
X15525000Y19417500D02*
D03*
X15720000Y20132500D02*
D03*
X16045000Y19872499D02*
D03*
X15914999Y19677499D02*
D03*
X16045000Y19807500D02*
D03*
Y19482500D02*
D03*
X15589999Y19352499D02*
D03*
Y19417500D02*
D03*
X15460001D02*
D03*
X15980000Y19742500D02*
D03*
X15589999Y20132500D02*
D03*
X15200000Y19482500D02*
D03*
X15785001Y20067499D02*
D03*
X15655000Y20002499D02*
D03*
X15330000Y19677499D02*
D03*
X15264999Y19482500D02*
D03*
X15720000Y20197499D02*
D03*
X15460001D02*
D03*
Y19482500D02*
D03*
X15980000Y20132500D02*
D03*
X15914999Y19807500D02*
D03*
X15980000Y19937498D02*
D03*
X15914999Y19482500D02*
D03*
X15980000Y20002499D02*
D03*
X15785001Y20132500D02*
D03*
X15525000D02*
D03*
X16045000Y19937498D02*
D03*
Y20002499D02*
D03*
X15200000Y20067499D02*
D03*
X15980000Y19872499D02*
D03*
X15264999Y20132500D02*
D03*
X15850000Y19287500D02*
D03*
Y19742500D02*
D03*
X15264999Y19612500D02*
D03*
X16045000Y19742500D02*
D03*
X15850000Y19352499D02*
D03*
X15785001D02*
D03*
Y20197499D02*
D03*
X15850000D02*
D03*
X15914999Y19547501D02*
D03*
X15980000Y19612500D02*
D03*
X16045000Y20132500D02*
D03*
X15460001Y20067499D02*
D03*
X15785001Y20002499D02*
D03*
X15589999D02*
D03*
X15395000Y20197499D02*
D03*
Y20002499D02*
D03*
X15850000Y19807500D02*
D03*
Y19547501D02*
D03*
X15720000Y19482500D02*
D03*
X15330000Y19937498D02*
D03*
Y19547501D02*
D03*
X15525000Y19482500D02*
D03*
X15395000D02*
D03*
Y19352499D02*
D03*
X15135001Y20067499D02*
D03*
Y19417500D02*
D03*
X16045000Y20197499D02*
D03*
X15850000Y19612500D02*
D03*
Y19872499D02*
D03*
X15655000Y20132500D02*
D03*
X15720000Y20002499D02*
D03*
X15655000Y19872499D02*
D03*
X15525000D02*
D03*
X15460001Y20002499D02*
D03*
X15330000Y19872499D02*
D03*
X15135001Y20197499D02*
D03*
X15720000Y19872499D02*
D03*
Y19807500D02*
D03*
Y19742500D02*
D03*
X15655000D02*
D03*
Y19807500D02*
D03*
X15589999Y19872499D02*
D03*
Y19807500D02*
D03*
Y19742500D02*
D03*
X15720000Y19677499D02*
D03*
X15655000D02*
D03*
X15720000Y19612500D02*
D03*
X15655000D02*
D03*
X15589999Y19677499D02*
D03*
Y19612500D02*
D03*
X15525000Y19807500D02*
D03*
Y19742500D02*
D03*
Y19677499D02*
D03*
X15460001Y19872499D02*
D03*
Y19807500D02*
D03*
Y19742500D02*
D03*
Y19677499D02*
D03*
X15525000Y19612500D02*
D03*
X15460001D02*
D03*
X15330000D02*
D03*
X15785001Y19482500D02*
D03*
X15914999Y19417500D02*
D03*
X16045000Y19287500D02*
D03*
X15720000Y19352499D02*
D03*
X15525000D02*
D03*
X15460001D02*
D03*
X15525000Y19287500D02*
D03*
X15264999Y19352499D02*
D03*
X15135001Y19287500D02*
D03*
X15395000D02*
D03*
D12*
X12473970Y19503239D02*
D03*
X12423170D02*
D03*
X12575570D02*
D03*
X12524770D02*
D03*
X12677170D02*
D03*
Y19992979D02*
D03*
X12423170D02*
D03*
X12372370D02*
D03*
X12575570D02*
D03*
X12524770D02*
D03*
X12321570D02*
D03*
X12473970D02*
D03*
X12626370D02*
D03*
Y19503239D02*
D03*
X12372370D02*
D03*
X12321570D02*
D03*
D13*
X12744240Y19773511D02*
D03*
X12254500Y19875110D02*
D03*
Y19925909D02*
D03*
X12744240Y19722710D02*
D03*
Y19671910D02*
D03*
Y19925909D02*
D03*
Y19621111D02*
D03*
Y19875110D02*
D03*
X12254500Y19671910D02*
D03*
X12744240Y19570309D02*
D03*
Y19824310D02*
D03*
X12254500Y19570309D02*
D03*
Y19621111D02*
D03*
Y19722710D02*
D03*
Y19773511D02*
D03*
Y19824310D02*
D03*
D14*
X17787502Y20632500D02*
D03*
Y19992500D02*
D03*
X18937502Y21432500D02*
D03*
X17787502Y20872501D02*
D03*
X18937502Y20952499D02*
D03*
X17787502Y21672501D02*
D03*
X18937502Y20552499D02*
D03*
Y20072501D02*
D03*
X17787502Y21752499D02*
D03*
Y20712500D02*
D03*
Y20312500D02*
D03*
Y19832500D02*
D03*
Y19672501D02*
D03*
X18937502Y21032500D02*
D03*
Y21672501D02*
D03*
Y20152499D02*
D03*
X17787502Y21432500D02*
D03*
Y20472501D02*
D03*
X18937502Y21112500D02*
D03*
X17787502Y21352499D02*
D03*
Y19912500D02*
D03*
X18937502Y20232500D02*
D03*
X17787502Y21032500D02*
D03*
Y20392500D02*
D03*
X18937502Y20872501D02*
D03*
Y19752499D02*
D03*
X17787502Y21272501D02*
D03*
X18937502Y20392500D02*
D03*
Y20472501D02*
D03*
Y21192500D02*
D03*
Y21352499D02*
D03*
X17787502Y20232500D02*
D03*
X18937502Y21592500D02*
D03*
Y21752499D02*
D03*
Y20712500D02*
D03*
Y20312500D02*
D03*
X17787502Y20552499D02*
D03*
Y20072501D02*
D03*
X18937502Y19832500D02*
D03*
Y19672501D02*
D03*
X17787502Y20152499D02*
D03*
X18937502Y19912500D02*
D03*
Y20792500D02*
D03*
X17787502Y21592500D02*
D03*
Y21512500D02*
D03*
Y21192500D02*
D03*
X18937502Y21272501D02*
D03*
X17787502Y19752499D02*
D03*
X18937502Y21512500D02*
D03*
Y20632500D02*
D03*
Y19992500D02*
D03*
X17787502Y20952499D02*
D03*
Y21112500D02*
D03*
Y20792500D02*
D03*
D15*
X14997501Y19420000D02*
D03*
X19159000Y20312500D02*
D03*
X19176500Y19792500D02*
D03*
X19174001Y19647501D02*
D03*
X17534500Y20552499D02*
D03*
X15249001Y21624998D02*
D03*
X17066499Y16952499D02*
D03*
X17069000Y16827499D02*
D03*
X17363000Y16817500D02*
D03*
X17049001Y15702499D02*
D03*
X17363000Y15564999D02*
D03*
X17049001Y15572501D02*
D03*
X16078000Y16014999D02*
D03*
X16074001Y15895000D02*
D03*
X15238499Y16832500D02*
D03*
X15234499Y16712500D02*
D03*
X15710500Y15695000D02*
D03*
X15710500Y15575000D02*
D03*
X15282001Y15697501D02*
D03*
X15280000Y15577499D02*
D03*
X15076500Y22050000D02*
D03*
X14359000Y22224998D02*
D03*
Y22095000D02*
D03*
X15074001Y21927499D02*
D03*
X14562500Y20702499D02*
D03*
X12717500Y20377499D02*
D03*
X11181000Y21800000D02*
D03*
Y21920000D02*
D03*
X12415000Y20377499D02*
D03*
X14909500Y19420000D02*
D03*
X12887360Y20147479D02*
D03*
X12879359Y20017480D02*
D03*
X12863361Y19477480D02*
D03*
X14252000Y16505000D02*
D03*
X12524000Y17530000D02*
D03*
Y17400000D02*
D03*
X12301000Y17089999D02*
D03*
X12027000Y19689999D02*
D03*
X11004001Y18720000D02*
D03*
Y18460001D02*
D03*
Y18589999D02*
D03*
X11024000Y16600000D02*
D03*
Y16730000D02*
D03*
X15622501Y15695000D02*
D03*
X15622501Y15575000D02*
D03*
X19071001Y20312500D02*
D03*
X17622501Y20552499D02*
D03*
X19088499Y19792500D02*
D03*
X19086000Y19647501D02*
D03*
X15370000Y15697501D02*
D03*
X15367999Y15577499D02*
D03*
X14271001Y22224998D02*
D03*
Y22095000D02*
D03*
X15161000Y21624998D02*
D03*
X11269000Y21920000D02*
D03*
Y21800000D02*
D03*
X14474500Y20702499D02*
D03*
X12799360Y20147479D02*
D03*
X12791360Y20017480D02*
D03*
X12775360Y19477480D02*
D03*
X12115000Y19689999D02*
D03*
X12503000Y20377499D02*
D03*
X12629500D02*
D03*
X17274998Y16817500D02*
D03*
X15326500Y16832500D02*
D03*
X16961000Y15702499D02*
D03*
X10936000Y16600000D02*
D03*
X12389000Y17089999D02*
D03*
X12436000Y17530000D02*
D03*
Y17400000D02*
D03*
X14339999Y16505000D02*
D03*
X17275000Y15564999D02*
D03*
X15986000Y15895000D02*
D03*
X14986000Y21927499D02*
D03*
X16981000Y16827499D02*
D03*
X16978500Y16952499D02*
D03*
X14988499Y22050000D02*
D03*
X10916001Y18589999D02*
D03*
X10656000Y17289999D02*
D03*
X10744000D02*
D03*
X15989999Y16014999D02*
D03*
X10916001Y18720000D02*
D03*
X10936000Y16730000D02*
D03*
X15322499Y16712500D02*
D03*
X10916001Y18460001D02*
D03*
X16961000Y15572501D02*
D03*
D16*
X15000000Y20187498D02*
D03*
X19077501Y21936501D02*
D03*
X18947501D02*
D03*
X19082500Y20578500D02*
D03*
X16257500Y20190500D02*
D03*
X15964999Y21974001D02*
D03*
X15395000Y20425499D02*
D03*
X18947501Y16628000D02*
D03*
X17697501Y16610500D02*
D03*
X18102499Y16245000D02*
D03*
X17972501Y16247000D02*
D03*
X18942500Y15428999D02*
D03*
X18092500Y15036000D02*
D03*
X17964999Y15036000D02*
D03*
X16850000Y16286000D02*
D03*
X16725000Y16286000D02*
D03*
X17682500Y15361501D02*
D03*
X16825000Y15035001D02*
D03*
X16685001Y15035001D02*
D03*
X15842500Y16364000D02*
D03*
X15845000Y15567000D02*
D03*
X15670000Y16289000D02*
D03*
X15495000Y16298000D02*
D03*
Y15584500D02*
D03*
X13210001Y23403999D02*
D03*
X13822501Y22866000D02*
D03*
X15000000Y20275499D02*
D03*
X14810001Y20884500D02*
D03*
X13992500Y20818500D02*
D03*
X12449360Y20225481D02*
D03*
X12669360Y20191479D02*
D03*
X10977500Y20886000D02*
D03*
X12329360Y20221480D02*
D03*
X12645000Y19291000D02*
D03*
X12142500Y20063000D02*
D03*
X12480000Y18053999D02*
D03*
X14620000Y15561000D02*
D03*
X14489999Y15561000D02*
D03*
X12020000Y20065500D02*
D03*
X12108799Y18910419D02*
D03*
X12102500Y17877000D02*
D03*
X12480000Y17966000D02*
D03*
X15495000Y16210001D02*
D03*
X19077501Y21848500D02*
D03*
X18947501D02*
D03*
X19082500Y20666499D02*
D03*
X15964999Y21886002D02*
D03*
X16257500Y20102499D02*
D03*
X15395000Y20337498D02*
D03*
X13822501Y22953999D02*
D03*
X14810001Y20972501D02*
D03*
X13992500Y20906500D02*
D03*
X12329360Y20133479D02*
D03*
X12645000Y19378999D02*
D03*
X12669360Y20103481D02*
D03*
X12449360Y20137480D02*
D03*
X18102499Y16333000D02*
D03*
X14480000Y16669000D02*
D03*
Y16581000D02*
D03*
X13210001Y23316000D02*
D03*
X10977500Y20974001D02*
D03*
X12020000Y19977499D02*
D03*
X17697501Y16522501D02*
D03*
X15495000Y15672501D02*
D03*
X16685001Y15123000D02*
D03*
X15845000Y15655000D02*
D03*
X14489999Y15649001D02*
D03*
X15845000Y15883000D02*
D03*
Y15795000D02*
D03*
X16850000Y16374001D02*
D03*
X15670000Y16200999D02*
D03*
X17964999Y15124001D02*
D03*
X18092500Y15124001D02*
D03*
X10277500Y17064000D02*
D03*
Y16975999D02*
D03*
X16725000Y16374001D02*
D03*
X17972501Y16335001D02*
D03*
X12142500Y19975000D02*
D03*
X15842500Y16125000D02*
D03*
Y16037000D02*
D03*
X18942500Y15341000D02*
D03*
X17685001Y15050999D02*
D03*
Y15139000D02*
D03*
X12108799Y18822418D02*
D03*
X12102500Y17964999D02*
D03*
X18947501Y16539999D02*
D03*
X17697501Y16296001D02*
D03*
Y16384000D02*
D03*
X14620000Y15649001D02*
D03*
X15842500Y16275999D02*
D03*
X17682500Y15273500D02*
D03*
X16825000Y15123000D02*
D03*
X11540000Y20849001D02*
D03*
Y20761000D02*
D03*
D17*
X15360001Y16322501D02*
D03*
X15152499Y17460001D02*
D03*
X12109983Y18572334D02*
D03*
X10545000Y16855000D02*
D03*
X11067500Y22617500D02*
D03*
X14605000Y22135001D02*
D03*
X11925000Y22632500D02*
D03*
X14350000Y17002499D02*
D03*
X11795000Y22477499D02*
D03*
X11775000Y22630000D02*
D03*
X11515000D02*
D03*
X16010001Y17450000D02*
D03*
X15392500Y21707500D02*
D03*
X14605000Y22250000D02*
D03*
X11795000Y22362500D02*
D03*
X11635000Y22367500D02*
D03*
X14600000Y20830000D02*
D03*
X14422501Y20845000D02*
D03*
X11635000Y22482500D02*
D03*
X11655000Y22630000D02*
D03*
X11195000Y22620000D02*
D03*
X15392500Y21592500D02*
D03*
X11925000Y22747501D02*
D03*
X15360001Y16207500D02*
D03*
X13117500Y16189999D02*
D03*
Y16305000D02*
D03*
X16307500Y15322501D02*
D03*
Y15207500D02*
D03*
X13247501Y16192500D02*
D03*
Y16307500D02*
D03*
X11775000Y22745000D02*
D03*
X17274998Y16947501D02*
D03*
Y17062500D02*
D03*
X14350000Y16750000D02*
D03*
Y16635001D02*
D03*
Y16887500D02*
D03*
X12847501Y16189999D02*
D03*
Y16305000D02*
D03*
X12977499Y16192500D02*
D03*
Y16307500D02*
D03*
X17275000Y15697501D02*
D03*
Y15812500D02*
D03*
X12109983Y18687335D02*
D03*
X10545000Y16970000D02*
D03*
X17820000Y15155000D02*
D03*
Y15270000D02*
D03*
X11655000Y22745000D02*
D03*
X14600000Y20945000D02*
D03*
X11515000Y22745000D02*
D03*
X14422501Y20960001D02*
D03*
X15152499Y17345000D02*
D03*
X16010001Y17335001D02*
D03*
X17825000Y16397501D02*
D03*
Y16512500D02*
D03*
X11195000Y22735001D02*
D03*
X16337500Y16562500D02*
D03*
Y16447501D02*
D03*
X11067500Y22732500D02*
D03*
X10417500Y17080000D02*
D03*
Y16964999D02*
D03*
D18*
X14555280Y21958279D02*
D03*
X14504480D02*
D03*
X14354620D02*
D03*
X14606081Y21114999D02*
D03*
X14405420D02*
D03*
X14705141Y21958279D02*
D03*
X14306360D02*
D03*
X14755940Y21114999D02*
D03*
X14306360D02*
D03*
X14354620D02*
D03*
X14504480D02*
D03*
X14456219D02*
D03*
X14405420Y21958279D02*
D03*
X14456219D02*
D03*
X14606081D02*
D03*
X14656880D02*
D03*
X14755940D02*
D03*
X14806740D02*
D03*
X14855000D02*
D03*
Y21114999D02*
D03*
X14806740D02*
D03*
X14705141D02*
D03*
X14656880D02*
D03*
X14555280D02*
D03*
D19*
X18900000Y23139999D02*
D03*
X17989999D02*
D03*
Y22689999D02*
D03*
X18900000D02*
D03*
D20*
X17537500Y23782500D02*
D03*
X16130000Y17200000D02*
D03*
X13620000Y23117500D02*
D03*
X12072500Y20222501D02*
D03*
X12665000Y17267500D02*
D03*
X12091860Y19417480D02*
D03*
X11515000Y18830000D02*
D03*
Y18670000D02*
D03*
X11375000Y19587500D02*
D03*
X11037500Y22489999D02*
D03*
X16417500Y18837500D02*
D03*
X15092500Y15834200D02*
D03*
X11965000Y22485001D02*
D03*
X15092500Y15954201D02*
D03*
X14905000Y17342500D02*
D03*
X15907500Y20747501D02*
D03*
X13635001Y20275000D02*
D03*
X15092500Y16214200D02*
D03*
X18225000Y23789999D02*
D03*
X15510001Y21464999D02*
D03*
X15507500Y21339999D02*
D03*
X16302499Y18837500D02*
D03*
X14610001Y22385001D02*
D03*
X12080000Y22485001D02*
D03*
X11305000Y22489999D02*
D03*
X10922500D02*
D03*
X14917500Y20757500D02*
D03*
X14817500Y20632500D02*
D03*
X14117500Y20954999D02*
D03*
X14117500Y20785001D02*
D03*
X13520000Y20275000D02*
D03*
X14800000Y19202499D02*
D03*
X11402500Y20570000D02*
D03*
X15092500Y16084200D02*
D03*
X11190000Y22489999D02*
D03*
X14685001Y19202499D02*
D03*
X12140000Y19814999D02*
D03*
X12206860Y19417480D02*
D03*
X12187500Y20222501D02*
D03*
X18110001Y23789999D02*
D03*
X15985001Y15647501D02*
D03*
X16100000D02*
D03*
X11740000Y18970000D02*
D03*
X11625000D02*
D03*
X17652499Y23782500D02*
D03*
X16822501Y15275000D02*
D03*
X16707500D02*
D03*
X15395000Y21464999D02*
D03*
X14802499Y20757500D02*
D03*
X11630000Y18830000D02*
D03*
X14242500Y15655000D02*
D03*
X14357500D02*
D03*
X16562500Y15275000D02*
D03*
X16447501D02*
D03*
X15982500Y15775000D02*
D03*
X16097501D02*
D03*
X14702499Y20632500D02*
D03*
X15207500Y16214200D02*
D03*
Y16084200D02*
D03*
Y15954201D02*
D03*
Y15834200D02*
D03*
X16589999Y16535001D02*
D03*
X16475000D02*
D03*
X19195000Y15337500D02*
D03*
X19080000D02*
D03*
X14725000Y22385001D02*
D03*
X11260000Y19587500D02*
D03*
X16100000Y16135001D02*
D03*
X15985001D02*
D03*
X18080000Y15297501D02*
D03*
X17964999D02*
D03*
X11632500Y18530000D02*
D03*
X11747500D02*
D03*
X11287500Y20570000D02*
D03*
X16095000Y16262500D02*
D03*
X15980000D02*
D03*
X19192500Y16535001D02*
D03*
X19077499D02*
D03*
X16022501Y20747501D02*
D03*
X15392500Y21339999D02*
D03*
X13505000Y23117500D02*
D03*
X12025000Y19814999D02*
D03*
X12667500Y17137500D02*
D03*
X12552500D02*
D03*
X16014999Y17200000D02*
D03*
X15020000Y17342500D02*
D03*
X17980000Y16514999D02*
D03*
X18095000D02*
D03*
X14232500Y20785001D02*
D03*
X10757500Y17170000D02*
D03*
X10642500D02*
D03*
X16725000Y16537500D02*
D03*
X16839999D02*
D03*
X12550000Y17267500D02*
D03*
X14232500Y20954999D02*
D03*
X11630000Y18670000D02*
D03*
D21*
X16750000Y23283000D02*
D03*
Y23028999D02*
D03*
Y23156000D02*
D03*
Y22902000D02*
D03*
X17230000D02*
D03*
Y23283000D02*
D03*
X16750000Y23410001D02*
D03*
X17230000D02*
D03*
Y23156000D02*
D03*
Y23028999D02*
D03*
D22*
X16162500Y20196999D02*
D03*
Y20135001D02*
D03*
D23*
X15819000Y21990001D02*
D03*
X15639000D02*
D03*
X15819000Y21870001D02*
D03*
X15639000D02*
D03*
D24*
X19342500Y16462500D02*
D03*
X19342500Y15264999D02*
D03*
X19342500Y16532500D02*
D03*
X19342500Y15335001D02*
D03*
D25*
X18795000Y16642999D02*
D03*
X17542500Y16650500D02*
D03*
X18782500Y15435500D02*
D03*
X17537500Y15395500D02*
D03*
X16997501Y16650500D02*
D03*
Y16523500D02*
D03*
Y16269501D02*
D03*
X17542500Y16523500D02*
D03*
Y16396500D02*
D03*
Y16269501D02*
D03*
X16997501Y16396500D02*
D03*
X18795000Y16262000D02*
D03*
Y16389000D02*
D03*
X18250000Y16262000D02*
D03*
Y16516000D02*
D03*
Y16642999D02*
D03*
X18795000Y16516000D02*
D03*
X18250000Y16389000D02*
D03*
X18782500Y15054500D02*
D03*
X18237500D02*
D03*
Y15435500D02*
D03*
X18782500Y15308501D02*
D03*
X18237500D02*
D03*
X18782500Y15181500D02*
D03*
X18237500D02*
D03*
X17537500Y15268500D02*
D03*
X16992500Y15395500D02*
D03*
Y15268500D02*
D03*
Y15014500D02*
D03*
X17537500Y15141499D02*
D03*
Y15014500D02*
D03*
X16992500Y15141499D02*
D03*
D26*
X16341499Y18964999D02*
D03*
X15786000Y19072499D02*
D03*
X15436000Y19114999D02*
D03*
X15576750Y19072501D02*
D03*
X15226500Y19114999D02*
D03*
X14434000Y20220000D02*
D03*
X14955499Y20082500D02*
D03*
X14956500Y19322501D02*
D03*
X16403500Y18964999D02*
D03*
X15638750Y19072501D02*
D03*
X15374001Y19114999D02*
D03*
X14496001Y20220000D02*
D03*
X15724001Y19072499D02*
D03*
X15288499Y19114999D02*
D03*
X15017500Y20082500D02*
D03*
X15018500Y19322501D02*
D03*
D27*
X15757500Y18939999D02*
D03*
X15617500Y18829999D02*
D03*
X12599360Y20632480D02*
D03*
X12459360Y20522479D02*
D03*
X15617500Y18939999D02*
D03*
X15757500Y18829999D02*
D03*
X12459360Y20632480D02*
D03*
X12599360Y20522479D02*
D03*
D28*
X16342880Y16814540D02*
D03*
X16328940Y15558020D02*
D03*
X16795000Y16878040D02*
D03*
X16342880D02*
D03*
X16795000Y16685001D02*
D03*
Y16748500D02*
D03*
X16342880Y16685001D02*
D03*
X16795000Y16814540D02*
D03*
X16342880Y16748500D02*
D03*
X16781059Y15621519D02*
D03*
X16328940D02*
D03*
Y15428481D02*
D03*
X16781059Y15491980D02*
D03*
Y15428481D02*
D03*
Y15558020D02*
D03*
X16328940Y15491980D02*
D03*
D29*
X15852499Y17323000D02*
D03*
X15312498D02*
D03*
Y17196001D02*
D03*
Y17069000D02*
D03*
X15852499Y17196001D02*
D03*
Y17069000D02*
D03*
Y16942000D02*
D03*
X15312498D02*
D03*
D30*
X15514999Y16102319D02*
D03*
X15414999Y15807680D02*
D03*
X15464999Y16102319D02*
D03*
X15564999Y15807680D02*
D03*
X15464999D02*
D03*
X15514999D02*
D03*
X15564999Y16102319D02*
D03*
X15414999D02*
D03*
D31*
X15489999Y15955000D02*
D03*
D32*
X13205000Y23542500D02*
D03*
X13299995Y23730460D02*
D03*
X13110004D02*
D03*
D33*
X13662500Y22892500D02*
D03*
X13432500Y22827499D02*
D03*
X13662500Y23022501D02*
D03*
Y22957500D02*
D03*
Y22827499D02*
D03*
X13432500Y23022501D02*
D03*
Y22892500D02*
D03*
Y22957500D02*
D03*
D34*
X15002319Y21810960D02*
D03*
Y21762700D02*
D03*
X14159039D02*
D03*
Y21711900D02*
D03*
X15002319Y21562041D02*
D03*
Y21612840D02*
D03*
X14159039Y21661099D02*
D03*
X15002319Y21711900D02*
D03*
Y21511240D02*
D03*
Y21310580D02*
D03*
Y21661099D02*
D03*
Y21460440D02*
D03*
Y21361380D02*
D03*
Y21262320D02*
D03*
X14159039D02*
D03*
Y21310580D02*
D03*
Y21361380D02*
D03*
Y21412180D02*
D03*
Y21460440D02*
D03*
Y21511240D02*
D03*
Y21562041D02*
D03*
Y21612840D02*
D03*
Y21810960D02*
D03*
X15002319Y21412180D02*
D03*
D35*
X15032500Y21105000D02*
D03*
X14942500D02*
D03*
X13167500Y23185001D02*
D03*
X13077499D02*
D03*
X13272501D02*
D03*
X13362498D02*
D03*
D36*
X14580679Y21536639D02*
D03*
D37*
X12215000Y24414999D02*
D03*
D38*
X12025000Y22914999D02*
D03*
D39*
X11285000D02*
D03*
X11505000D02*
D03*
X11835000D02*
D03*
X11725000D02*
D03*
X11615000D02*
D03*
X11395000D02*
D03*
X11175000D02*
D03*
X11065000D02*
D03*
D40*
X10885000Y24314999D02*
D03*
D41*
X10895000Y23335001D02*
D03*
D42*
X10970000Y22905000D02*
D03*
D43*
X10695000Y21889999D02*
D03*
Y21270000D02*
D03*
D46*
X11250019Y20845000D02*
D03*
D47*
X12499370Y19748109D02*
D03*
D48*
X12387500Y18070000D02*
D03*
Y17939999D02*
D03*
X12192500Y18070000D02*
D03*
Y17939999D02*
D03*
X12387500Y18005000D02*
D03*
X12192500D02*
D03*
D50*
X14219501Y16357500D02*
D03*
Y15812500D02*
D03*
X14346500D02*
D03*
X14600500D02*
D03*
X14346500Y16357500D02*
D03*
X14473500D02*
D03*
X14600500D02*
D03*
X14473500Y15812500D02*
D03*
D51*
X14539999Y15375000D02*
D03*
X13042500Y15377499D02*
D03*
X14470000Y15375000D02*
D03*
X12972501Y15377499D02*
D03*
D52*
X12170000Y17305000D02*
D03*
D53*
X12006700Y18685001D02*
D03*
Y18835001D02*
D03*
X11776700Y18785001D02*
D03*
Y18735001D02*
D03*
X12006700Y18785001D02*
D03*
Y18735001D02*
D03*
X11776700Y18685001D02*
D03*
Y18835001D02*
D03*
D54*
X11083500Y19785001D02*
D03*
Y19235001D02*
D03*
Y19285001D02*
D03*
Y19335001D02*
D03*
Y19385001D02*
D03*
Y19435001D02*
D03*
Y19485001D02*
D03*
Y19535001D02*
D03*
Y19585001D02*
D03*
Y19635001D02*
D03*
Y19685001D02*
D03*
Y19735001D02*
D03*
D55*
X11410960Y19420000D02*
D03*
Y19370000D02*
D03*
Y19470000D02*
D03*
X11269040Y19370000D02*
D03*
Y19420000D02*
D03*
Y19470000D02*
D03*
D56*
X12025220Y17305000D02*
D03*
Y17400000D02*
D03*
X12314780D02*
D03*
Y17305000D02*
D03*
X12025220Y17210001D02*
D03*
X12314780D02*
D03*
D57*
X11510000Y16339999D02*
D03*
X11110000D02*
D03*
D58*
X11134000Y17070000D02*
D03*
Y16989999D02*
D03*
Y16910001D02*
D03*
Y17030000D02*
D03*
X10839000Y16910001D02*
D03*
Y16950000D02*
D03*
Y16989999D02*
D03*
Y17030000D02*
D03*
Y17070000D02*
D03*
X11134000Y16950000D02*
D03*
D59*
X11004000Y16862500D02*
D03*
X10934000D02*
D03*
X11039000Y17117500D02*
D03*
X10969000D02*
D03*
D60*
X10690000Y16887500D02*
D03*
Y17022501D02*
D03*
D61*
X15405000Y18959999D02*
D03*
X15260001D02*
D03*
D62*
X17810001Y23910001D02*
D03*
X17660001D02*
D03*
X18110001D02*
D03*
D63*
X11325000Y21630000D02*
D03*
Y21180000D02*
D03*
D64*
X10404700Y16339999D02*
D03*
X11640600Y19845000D02*
D03*
X11250000D02*
D03*
X10795300Y16339999D02*
D03*
D65*
X10895000Y23955000D02*
D03*
D66*
X11924200Y18692500D02*
D03*
Y18827499D02*
D03*
X11854200Y18692500D02*
D03*
Y18827499D02*
D03*
D67*
X15637320Y15880000D02*
D03*
Y15930000D02*
D03*
Y15980000D02*
D03*
Y16030000D02*
D03*
X15342680D02*
D03*
Y15980000D02*
D03*
Y15930000D02*
D03*
Y15880000D02*
D03*
D68*
X13164999Y22995000D02*
D03*
X13250000D02*
D03*
Y22810001D02*
D03*
X13164999D02*
D03*
D69*
X11010000Y18270000D02*
D03*
Y17460001D02*
D03*
D70*
X10970000Y16989999D02*
D03*
X11030000D02*
D03*
D71*
X12984000Y15992500D02*
D03*
X12857001D02*
D03*
X12984000Y15582500D02*
D03*
X12857001D02*
D03*
X13111000Y15582500D02*
D03*
X13238000D02*
D03*
Y15992500D02*
D03*
X13111000D02*
D03*
D72*
X17510001Y24230000D02*
D03*
X18260001D02*
D03*
Y24000000D02*
D03*
X17510001D02*
D03*
%TF.MD5,6ae23a7703aad7952e60485da951f310*%
M02*
