%TF.GenerationSoftware,Altium Limited,Altium Designer,26.8.1 (31)*%
G04 Layer_Physical_Order=5*
G04 Layer_Color=16737945*
G04 Board_Origin=0|0*
%FSLAX45Y45*%
%MOMM*%
%TF.SameCoordinates,53F6FBF9-B70B-408D-9132-D8E13A354014*%
%TF.FilePolarity,Positive*%
%TF.FileFunction,Copper,L5,Inr,Signal*%
%TF.Part,Single*%
G01*
G75*
%TA.AperFunction,ComponentPad*%
%ADD110O,2.50000X1.75000*%
%ADD111C,0.50000*%
%ADD112O,1.50000X2.00000*%
%ADD113O,0.90000X1.55000*%
%ADD114O,1.40000X0.90000*%
%ADD115C,0.60000*%
G04:AMPARAMS|DCode=116|XSize=2.1mm|YSize=1.5mm|CornerRadius=0.375mm|HoleSize=0mm|Usage=FLASHONLY|Rotation=270.000|XOffset=0mm|YOffset=0mm|HoleType=Round|Shape=RoundedRectangle|*
%AMROUNDEDRECTD116*
21,1,2.10000,0.75000,0,0,270.0*
21,1,1.35000,1.50000,0,0,270.0*
1,1,0.75000,-0.37500,-0.67500*
1,1,0.75000,-0.37500,0.67500*
1,1,0.75000,0.37500,0.67500*
1,1,0.75000,0.37500,-0.67500*
%
%ADD116ROUNDEDRECTD116*%
G04:AMPARAMS|DCode=117|XSize=2.1mm|YSize=1.5mm|CornerRadius=0.375mm|HoleSize=0mm|Usage=FLASHONLY|Rotation=180.000|XOffset=0mm|YOffset=0mm|HoleType=Round|Shape=RoundedRectangle|*
%AMROUNDEDRECTD117*
21,1,2.10000,0.75000,0,0,180.0*
21,1,1.35000,1.50000,0,0,180.0*
1,1,0.75000,-0.67500,0.37500*
1,1,0.75000,0.67500,0.37500*
1,1,0.75000,0.67500,-0.37500*
1,1,0.75000,-0.67500,-0.37500*
%
%ADD117ROUNDEDRECTD117*%
%ADD118C,1.50000*%
%ADD119C,1.75000*%
%ADD120C,2.50000*%
%ADD121C,1.95000*%
%ADD123C,0.85000*%
%ADD124O,0.85000X1.15000*%
%ADD125C,0.90000*%
%TA.AperFunction,ViaPad*%
%ADD126C,0.40000*%
%ADD127C,0.70000*%
%ADD128C,0.55000*%
G36*
X20047501Y24320000D02*
Y14860001D01*
X19835001Y14647501D01*
X10332500D01*
X10137500Y14842500D01*
Y24330000D01*
X10367500Y24560001D01*
Y24562500D01*
X19805000D01*
X20047501Y24320000D01*
D02*
G37*
%LPC*%
G36*
X15545515Y24289597D02*
X15533517D01*
X15522433Y24285005D01*
X15513950Y24276521D01*
X15509357Y24265436D01*
Y24253436D01*
X15513950Y24242352D01*
X15522433Y24233868D01*
X15533517Y24229276D01*
X15545515D01*
X15556601Y24233868D01*
X15565085Y24242352D01*
X15569678Y24253436D01*
Y24265436D01*
X15565085Y24276521D01*
X15556601Y24285005D01*
X15545515Y24289597D01*
D02*
G37*
G36*
X14463499Y24287660D02*
X14451501D01*
X14440416Y24283069D01*
X14431932Y24274583D01*
X14427341Y24263499D01*
Y24251501D01*
X14431932Y24240416D01*
X14440416Y24231932D01*
X14451501Y24227341D01*
X14463499D01*
X14474583Y24231932D01*
X14483067Y24240416D01*
X14487660Y24251501D01*
Y24263499D01*
X14483067Y24274583D01*
X14474583Y24283069D01*
X14463499Y24287660D01*
D02*
G37*
G36*
X13429173Y24322659D02*
X13400826D01*
X13373445Y24315323D01*
X13348895Y24301149D01*
X13328851Y24281105D01*
X13314677Y24256555D01*
X13307339Y24229173D01*
Y24200826D01*
X13314677Y24173445D01*
X13328851Y24148895D01*
X13348895Y24128851D01*
X13373445Y24114677D01*
X13400826Y24107339D01*
X13429173D01*
X13456555Y24114677D01*
X13481105Y24128851D01*
X13501149Y24148895D01*
X13515323Y24173445D01*
X13522659Y24200826D01*
Y24229173D01*
X13515323Y24256555D01*
X13501149Y24281105D01*
X13481105Y24301149D01*
X13456555Y24315323D01*
X13429173Y24322659D01*
D02*
G37*
G36*
X12929173D02*
X12900826D01*
X12873445Y24315323D01*
X12848895Y24301149D01*
X12828851Y24281105D01*
X12814677Y24256555D01*
X12807339Y24229173D01*
Y24200826D01*
X12814677Y24173445D01*
X12828851Y24148895D01*
X12848895Y24128851D01*
X12873445Y24114677D01*
X12900826Y24107339D01*
X12929173D01*
X12956555Y24114677D01*
X12981105Y24128851D01*
X13001149Y24148895D01*
X13015323Y24173445D01*
X13022659Y24200826D01*
Y24229173D01*
X13015323Y24256555D01*
X13001149Y24281105D01*
X12981105Y24301149D01*
X12956555Y24315323D01*
X12929173Y24322659D01*
D02*
G37*
G36*
X18045972Y24170160D02*
X18024028D01*
X18003754Y24161761D01*
X17988239Y24146246D01*
X17979840Y24125972D01*
Y24104028D01*
X17988239Y24083754D01*
X18003754Y24068237D01*
X18024028Y24059840D01*
X18045972D01*
X18066246Y24068237D01*
X18081763Y24083754D01*
X18090160Y24104028D01*
Y24125972D01*
X18081763Y24146246D01*
X18066246Y24161761D01*
X18045972Y24170160D01*
D02*
G37*
G36*
X17745972D02*
X17724028D01*
X17703755Y24161761D01*
X17688239Y24146246D01*
X17679840Y24125972D01*
Y24104028D01*
X17688239Y24083754D01*
X17703755Y24068237D01*
X17724028Y24059840D01*
X17745972D01*
X17766246Y24068237D01*
X17781763Y24083754D01*
X17790160Y24104028D01*
Y24125972D01*
X17781763Y24146246D01*
X17766246Y24161761D01*
X17745972Y24170160D01*
D02*
G37*
G36*
X19772501Y24166502D02*
X19697501D01*
X19672005Y24163145D01*
X19648248Y24153307D01*
X19627847Y24137653D01*
X19612193Y24117252D01*
X19602353Y24093495D01*
X19598997Y24067999D01*
X19602353Y24042506D01*
X19612193Y24018748D01*
X19627847Y23998347D01*
X19648248Y23982693D01*
X19672005Y23972855D01*
X19697501Y23969498D01*
X19772501D01*
X19797993Y23972855D01*
X19821751Y23982693D01*
X19842152Y23998347D01*
X19857806Y24018748D01*
X19867645Y24042506D01*
X19871004Y24067999D01*
X19867645Y24093495D01*
X19857806Y24117252D01*
X19842152Y24137653D01*
X19821751Y24153307D01*
X19797993Y24163145D01*
X19772501Y24166502D01*
D02*
G37*
G36*
X15681357Y24038660D02*
X15655643D01*
X15630804Y24032005D01*
X15608534Y24019147D01*
X15590353Y24000964D01*
X15577495Y23978696D01*
X15570840Y23953857D01*
Y23928143D01*
X15577495Y23903304D01*
X15590353Y23881035D01*
X15608534Y23862852D01*
X15630804Y23849995D01*
X15655643Y23843340D01*
X15681357D01*
X15706195Y23849995D01*
X15728465Y23862852D01*
X15746648Y23881035D01*
X15759505Y23903304D01*
X15766161Y23928143D01*
Y23953857D01*
X15759505Y23978696D01*
X15746648Y24000964D01*
X15728465Y24019147D01*
X15706195Y24032005D01*
X15681357Y24038660D01*
D02*
G37*
G36*
X15427357D02*
X15401643D01*
X15376805Y24032005D01*
X15354535Y24019147D01*
X15336353Y24000964D01*
X15323495Y23978696D01*
X15316840Y23953857D01*
Y23928143D01*
X15323495Y23903304D01*
X15336353Y23881035D01*
X15354535Y23862852D01*
X15376805Y23849995D01*
X15401643Y23843340D01*
X15427357D01*
X15452196Y23849995D01*
X15474464Y23862852D01*
X15492647Y23881035D01*
X15505505Y23903304D01*
X15512160Y23928143D01*
Y23953857D01*
X15505505Y23978696D01*
X15492647Y24000964D01*
X15474464Y24019147D01*
X15452196Y24032005D01*
X15427357Y24038660D01*
D02*
G37*
G36*
X14609357D02*
X14583643D01*
X14558804Y24032005D01*
X14536536Y24019147D01*
X14518353Y24000964D01*
X14505496Y23978696D01*
X14498840Y23953857D01*
Y23928143D01*
X14505496Y23903304D01*
X14518353Y23881035D01*
X14536536Y23862852D01*
X14558804Y23849995D01*
X14583643Y23843340D01*
X14609357D01*
X14634196Y23849995D01*
X14656465Y23862852D01*
X14674648Y23881035D01*
X14687505Y23903304D01*
X14694160Y23928143D01*
Y23953857D01*
X14687505Y23978696D01*
X14674648Y24000964D01*
X14656465Y24019147D01*
X14634196Y24032005D01*
X14609357Y24038660D01*
D02*
G37*
G36*
X14355357D02*
X14329643D01*
X14304805Y24032005D01*
X14282536Y24019147D01*
X14264352Y24000964D01*
X14251495Y23978696D01*
X14244839Y23953857D01*
Y23928143D01*
X14251495Y23903304D01*
X14264352Y23881035D01*
X14282536Y23862852D01*
X14304805Y23849995D01*
X14329643Y23843340D01*
X14355357D01*
X14380196Y23849995D01*
X14402464Y23862852D01*
X14420648Y23881035D01*
X14433505Y23903304D01*
X14440160Y23928143D01*
Y23953857D01*
X14433505Y23978696D01*
X14420648Y24000964D01*
X14402464Y24019147D01*
X14380196Y24032005D01*
X14355357Y24038660D01*
D02*
G37*
G36*
X11215999Y23895160D02*
X11204001D01*
X11192916Y23890569D01*
X11184432Y23882085D01*
X11179840Y23870999D01*
Y23859001D01*
X11184432Y23847916D01*
X11192916Y23839432D01*
X11204001Y23834840D01*
X11215999D01*
X11227084Y23839432D01*
X11235568Y23847916D01*
X11240160Y23859001D01*
Y23870999D01*
X11235568Y23882085D01*
X11227084Y23890569D01*
X11215999Y23895160D01*
D02*
G37*
G36*
X10953499Y23882660D02*
X10941501D01*
X10930416Y23878069D01*
X10921932Y23869585D01*
X10917340Y23858499D01*
Y23846501D01*
X10921932Y23835416D01*
X10930416Y23826932D01*
X10941501Y23822340D01*
X10953499D01*
X10964584Y23826932D01*
X10973068Y23835416D01*
X10977660Y23846501D01*
Y23858499D01*
X10973068Y23869585D01*
X10964584Y23878069D01*
X10953499Y23882660D01*
D02*
G37*
G36*
X18300999Y23820160D02*
X18289001D01*
X18277916Y23815569D01*
X18269432Y23807085D01*
X18264841Y23795999D01*
Y23784001D01*
X18269432Y23772916D01*
X18277916Y23764432D01*
X18289001Y23759840D01*
X18300999D01*
X18312083Y23764432D01*
X18320567Y23772916D01*
X18325160Y23784001D01*
Y23795999D01*
X18320567Y23807085D01*
X18312083Y23815569D01*
X18300999Y23820160D01*
D02*
G37*
G36*
X11062905Y23656647D02*
X11050907D01*
X11039822Y23652055D01*
X11031338Y23643571D01*
X11026746Y23632486D01*
Y23620488D01*
X11031338Y23609402D01*
X11039822Y23600919D01*
X11050907Y23596327D01*
X11062905D01*
X11073991Y23600919D01*
X11082475Y23609402D01*
X11087066Y23620488D01*
Y23632486D01*
X11082475Y23643571D01*
X11073991Y23652055D01*
X11062905Y23656647D01*
D02*
G37*
G36*
X13294638Y23658804D02*
X13279655D01*
X13265816Y23653072D01*
X13255222Y23642477D01*
X13249487Y23628635D01*
Y23613654D01*
X13255222Y23599812D01*
X13265816Y23589218D01*
X13279655Y23583485D01*
X13294638D01*
X13308479Y23589218D01*
X13319073Y23599812D01*
X13324808Y23613654D01*
Y23628635D01*
X13319073Y23642477D01*
X13308479Y23653072D01*
X13294638Y23658804D01*
D02*
G37*
G36*
X13126820Y23658665D02*
X13111839D01*
X13097997Y23652931D01*
X13087402Y23642339D01*
X13081670Y23628496D01*
Y23613515D01*
X13087402Y23599672D01*
X13097997Y23589078D01*
X13111839Y23583345D01*
X13126820D01*
X13140663Y23589078D01*
X13151256Y23599672D01*
X13156990Y23613515D01*
Y23628496D01*
X13151256Y23642339D01*
X13140663Y23652931D01*
X13126820Y23658665D01*
D02*
G37*
G36*
X19772501Y23658504D02*
X19697501D01*
X19672005Y23655145D01*
X19648248Y23645306D01*
X19627847Y23629652D01*
X19612193Y23609251D01*
X19602353Y23585495D01*
X19598997Y23560001D01*
X19602353Y23534506D01*
X19612193Y23510748D01*
X19627847Y23490347D01*
X19648248Y23474693D01*
X19672005Y23464854D01*
X19697501Y23461497D01*
X19772501D01*
X19797993Y23464854D01*
X19821751Y23474693D01*
X19842152Y23490347D01*
X19857806Y23510748D01*
X19867645Y23534506D01*
X19871004Y23560001D01*
X19867645Y23585495D01*
X19857806Y23609251D01*
X19842152Y23629652D01*
X19821751Y23645306D01*
X19797993Y23655145D01*
X19772501Y23658504D01*
D02*
G37*
G36*
X16610999Y23440160D02*
X16599001D01*
X16587917Y23435568D01*
X16579433Y23427084D01*
X16574840Y23415999D01*
Y23404001D01*
X16579433Y23392915D01*
X16587917Y23384431D01*
X16599001Y23379840D01*
X16610999D01*
X16622084Y23384431D01*
X16630568Y23392915D01*
X16635159Y23404001D01*
Y23415999D01*
X16630568Y23427084D01*
X16622084Y23435568D01*
X16610999Y23440160D01*
D02*
G37*
G36*
X15593759Y23705161D02*
X15560242D01*
X15527367Y23698621D01*
X15496399Y23685794D01*
X15468530Y23667172D01*
X15444827Y23643469D01*
X15426205Y23615601D01*
X15413379Y23584634D01*
X15406841Y23551759D01*
Y23518240D01*
X15413379Y23485365D01*
X15426205Y23454399D01*
X15444827Y23426529D01*
X15468530Y23402827D01*
X15496399Y23384206D01*
X15527367Y23371379D01*
X15560242Y23364841D01*
X15593759D01*
X15626634Y23371379D01*
X15657600Y23384206D01*
X15685471Y23402827D01*
X15709172Y23426529D01*
X15727794Y23454399D01*
X15740620Y23485365D01*
X15747160Y23518240D01*
Y23551759D01*
X15740620Y23584634D01*
X15727794Y23615601D01*
X15709172Y23643469D01*
X15685471Y23667172D01*
X15657600Y23685794D01*
X15626634Y23698621D01*
X15593759Y23705161D01*
D02*
G37*
G36*
X14450758D02*
X14417241D01*
X14384366Y23698621D01*
X14353400Y23685794D01*
X14325529Y23667172D01*
X14301828Y23643469D01*
X14283206Y23615601D01*
X14270380Y23584634D01*
X14263840Y23551759D01*
Y23518240D01*
X14270380Y23485365D01*
X14283206Y23454399D01*
X14301828Y23426529D01*
X14325529Y23402827D01*
X14353400Y23384206D01*
X14384366Y23371379D01*
X14417241Y23364841D01*
X14450758D01*
X14483633Y23371379D01*
X14514601Y23384206D01*
X14542471Y23402827D01*
X14566171Y23426529D01*
X14584795Y23454399D01*
X14597621Y23485365D01*
X14604160Y23518240D01*
Y23551759D01*
X14597621Y23584634D01*
X14584795Y23615601D01*
X14566171Y23643469D01*
X14542471Y23667172D01*
X14514601Y23685794D01*
X14483633Y23698621D01*
X14450758Y23705161D01*
D02*
G37*
G36*
X13309991Y23375160D02*
X13295009D01*
X13281168Y23369426D01*
X13270573Y23358833D01*
X13264841Y23344991D01*
Y23330009D01*
X13270573Y23316167D01*
X13281168Y23305573D01*
X13295009Y23299840D01*
X13309991D01*
X13323833Y23305573D01*
X13334425Y23316167D01*
X13340160Y23330009D01*
Y23344991D01*
X13334425Y23358833D01*
X13323833Y23369426D01*
X13309991Y23375160D01*
D02*
G37*
G36*
X13119991Y23372659D02*
X13105009D01*
X13091167Y23366927D01*
X13080574Y23356332D01*
X13074840Y23342491D01*
Y23327509D01*
X13080574Y23313667D01*
X13091167Y23303075D01*
X13105009Y23297340D01*
X13119991D01*
X13133833Y23303075D01*
X13144427Y23313667D01*
X13150160Y23327509D01*
Y23342491D01*
X13144427Y23356332D01*
X13133833Y23366927D01*
X13119991Y23372659D01*
D02*
G37*
G36*
X17081000Y23307660D02*
X17069000D01*
X17057916Y23303069D01*
X17049431Y23294585D01*
X17044839Y23283499D01*
Y23271501D01*
X17049431Y23260416D01*
X17057916Y23251932D01*
X17069000Y23247340D01*
X17081000D01*
X17092084Y23251932D01*
X17100568Y23260416D01*
X17105161Y23271501D01*
Y23283499D01*
X17100568Y23294585D01*
X17092084Y23303069D01*
X17081000Y23307660D01*
D02*
G37*
G36*
X11518039Y23212788D02*
X11506041D01*
X11494956Y23208197D01*
X11486472Y23199713D01*
X11481880Y23188628D01*
Y23176630D01*
X11486472Y23165544D01*
X11494956Y23157060D01*
X11506041Y23152469D01*
X11518039D01*
X11529125Y23157060D01*
X11537609Y23165544D01*
X11542200Y23176630D01*
Y23188628D01*
X11537609Y23199713D01*
X11529125Y23208197D01*
X11518039Y23212788D01*
D02*
G37*
G36*
X15810794Y23365160D02*
X15775206D01*
X15740829Y23355949D01*
X15710010Y23338155D01*
X15684845Y23312990D01*
X15667052Y23282170D01*
X15657840Y23247794D01*
Y23212206D01*
X15667052Y23177831D01*
X15684845Y23147009D01*
X15710010Y23121844D01*
X15740829Y23104051D01*
X15775206Y23094839D01*
X15810794D01*
X15845171Y23104051D01*
X15875990Y23121844D01*
X15901155Y23147009D01*
X15918948Y23177831D01*
X15928160Y23212206D01*
Y23247794D01*
X15918948Y23282170D01*
X15901155Y23312990D01*
X15875990Y23338155D01*
X15845171Y23355949D01*
X15810794Y23365160D01*
D02*
G37*
G36*
X14235794D02*
X14200206D01*
X14165829Y23355949D01*
X14135010Y23338155D01*
X14109845Y23312990D01*
X14092052Y23282170D01*
X14082840Y23247794D01*
Y23212206D01*
X14092052Y23177831D01*
X14109845Y23147009D01*
X14135010Y23121844D01*
X14165829Y23104051D01*
X14200206Y23094839D01*
X14235794D01*
X14270171Y23104051D01*
X14300990Y23121844D01*
X14326155Y23147009D01*
X14343948Y23177831D01*
X14353160Y23212206D01*
Y23247794D01*
X14343948Y23282170D01*
X14326155Y23312990D01*
X14300990Y23338155D01*
X14270171Y23355949D01*
X14235794Y23365160D01*
D02*
G37*
G36*
X19764999Y23206503D02*
X19689999D01*
X19664507Y23203146D01*
X19640749Y23193306D01*
X19620348Y23177652D01*
X19604694Y23157251D01*
X19594855Y23133495D01*
X19591496Y23108000D01*
X19594855Y23082506D01*
X19604694Y23058749D01*
X19620348Y23038348D01*
X19640749Y23022694D01*
X19664507Y23012854D01*
X19689999Y23009497D01*
X19764999D01*
X19790495Y23012854D01*
X19814252Y23022694D01*
X19834653Y23038348D01*
X19850307Y23058749D01*
X19860146Y23082506D01*
X19863503Y23108000D01*
X19860146Y23133495D01*
X19850307Y23157251D01*
X19834653Y23177652D01*
X19814252Y23193306D01*
X19790495Y23203146D01*
X19764999Y23206503D01*
D02*
G37*
G36*
X13817491Y23072659D02*
X13802509D01*
X13788667Y23066927D01*
X13778075Y23056332D01*
X13772340Y23042491D01*
Y23027509D01*
X13778075Y23013667D01*
X13788667Y23003073D01*
X13802509Y22997340D01*
X13817491D01*
X13831332Y23003073D01*
X13841927Y23013667D01*
X13847659Y23027509D01*
Y23042491D01*
X13841927Y23056332D01*
X13831332Y23066927D01*
X13817491Y23072659D01*
D02*
G37*
G36*
X11520540Y23095290D02*
X11508541D01*
X11497456Y23090697D01*
X11488972Y23082213D01*
X11484380Y23071127D01*
Y23059129D01*
X11488972Y23048044D01*
X11497456Y23039560D01*
X11504228Y23036755D01*
X11508774Y23032335D01*
X11509440Y23024809D01*
X11506880Y23018628D01*
Y23006628D01*
X11511472Y22995544D01*
X11519956Y22987061D01*
X11531041Y22982469D01*
X11543039D01*
X11554124Y22987061D01*
X11562609Y22995544D01*
X11567200Y23006628D01*
Y23018628D01*
X11562609Y23029713D01*
X11554124Y23038197D01*
X11547352Y23041002D01*
X11542806Y23045422D01*
X11542140Y23052950D01*
X11544700Y23059129D01*
Y23071127D01*
X11540109Y23082213D01*
X11531625Y23090697D01*
X11520540Y23095290D01*
D02*
G37*
G36*
X13769991Y22995160D02*
X13755009D01*
X13741167Y22989426D01*
X13730574Y22978833D01*
X13724840Y22964992D01*
Y22950009D01*
X13730574Y22936166D01*
X13741167Y22925574D01*
X13755009Y22919839D01*
X13769991D01*
X13783833Y22925574D01*
X13794427Y22936166D01*
X13800160Y22950009D01*
Y22964992D01*
X13794427Y22978833D01*
X13783833Y22989426D01*
X13769991Y22995160D01*
D02*
G37*
G36*
X17068126Y22924025D02*
X17056128D01*
X17045042Y22919434D01*
X17036559Y22910950D01*
X17031967Y22899864D01*
Y22887866D01*
X17036559Y22876781D01*
X17045042Y22868295D01*
X17056128Y22863705D01*
X17068126D01*
X17079211Y22868295D01*
X17087695Y22876781D01*
X17092287Y22887866D01*
Y22899864D01*
X17087695Y22910950D01*
X17079211Y22919434D01*
X17068126Y22924025D01*
D02*
G37*
G36*
X15450000Y23010895D02*
X15427769Y23007968D01*
X15407053Y22999387D01*
X15389262Y22985738D01*
X15375613Y22967947D01*
X15367032Y22947231D01*
X15364105Y22925000D01*
Y22875000D01*
X15367032Y22852769D01*
X15375613Y22832053D01*
X15389262Y22814262D01*
X15407053Y22800613D01*
X15427769Y22792032D01*
X15450000Y22789105D01*
X15472231Y22792032D01*
X15492947Y22800613D01*
X15510738Y22814262D01*
X15524387Y22832053D01*
X15532968Y22852769D01*
X15535895Y22875000D01*
Y22925000D01*
X15532968Y22947231D01*
X15524387Y22967947D01*
X15510738Y22985738D01*
X15492947Y22999387D01*
X15472231Y23007968D01*
X15450000Y23010895D01*
D02*
G37*
G36*
X15196001D02*
X15173769Y23007968D01*
X15153053Y22999387D01*
X15135263Y22985738D01*
X15121613Y22967947D01*
X15113033Y22947231D01*
X15110104Y22925000D01*
Y22875000D01*
X15113033Y22852769D01*
X15121613Y22832053D01*
X15135263Y22814262D01*
X15153053Y22800613D01*
X15173769Y22792032D01*
X15196001Y22789105D01*
X15218231Y22792032D01*
X15238947Y22800613D01*
X15256737Y22814262D01*
X15270387Y22832053D01*
X15278967Y22852769D01*
X15281895Y22875000D01*
Y22925000D01*
X15278967Y22947231D01*
X15270387Y22967947D01*
X15256737Y22985738D01*
X15238947Y22999387D01*
X15218231Y23007968D01*
X15196001Y23010895D01*
D02*
G37*
G36*
X14942000D02*
X14919769Y23007968D01*
X14899052Y22999387D01*
X14881264Y22985738D01*
X14867613Y22967947D01*
X14859032Y22947231D01*
X14856105Y22925000D01*
Y22875000D01*
X14859032Y22852769D01*
X14867613Y22832053D01*
X14881264Y22814262D01*
X14899052Y22800613D01*
X14919769Y22792032D01*
X14942000Y22789105D01*
X14964230Y22792032D01*
X14984947Y22800613D01*
X15002737Y22814262D01*
X15016386Y22832053D01*
X15024968Y22852769D01*
X15027895Y22875000D01*
Y22925000D01*
X15024968Y22947231D01*
X15016386Y22967947D01*
X15002737Y22985738D01*
X14984947Y22999387D01*
X14964230Y23007968D01*
X14942000Y23010895D01*
D02*
G37*
G36*
X14688000D02*
X14665768Y23007968D01*
X14645053Y22999387D01*
X14627263Y22985738D01*
X14613612Y22967947D01*
X14605032Y22947231D01*
X14602106Y22925000D01*
Y22875000D01*
X14605032Y22852769D01*
X14613612Y22832053D01*
X14627263Y22814262D01*
X14645053Y22800613D01*
X14665768Y22792032D01*
X14688000Y22789105D01*
X14710231Y22792032D01*
X14730946Y22800613D01*
X14748737Y22814262D01*
X14762387Y22832053D01*
X14770969Y22852769D01*
X14773895Y22875000D01*
Y22925000D01*
X14770969Y22947231D01*
X14762387Y22967947D01*
X14748737Y22985738D01*
X14730946Y22999387D01*
X14710231Y23007968D01*
X14688000Y23010895D01*
D02*
G37*
G36*
X13707491Y22800160D02*
X13692509D01*
X13678667Y22794427D01*
X13668074Y22783833D01*
X13662340Y22769991D01*
Y22755009D01*
X13668074Y22741167D01*
X13678667Y22730574D01*
X13692509Y22724840D01*
X13707491D01*
X13721333Y22730574D01*
X13731927Y22741167D01*
X13737660Y22755009D01*
Y22769991D01*
X13731927Y22783833D01*
X13721333Y22794427D01*
X13707491Y22800160D01*
D02*
G37*
G36*
X17013499Y22625160D02*
X17001501D01*
X16990416Y22620567D01*
X16981931Y22612083D01*
X16977341Y22600999D01*
Y22589001D01*
X16981931Y22577916D01*
X16990416Y22569432D01*
X17001501Y22564841D01*
X17013499D01*
X17024583Y22569432D01*
X17033067Y22577916D01*
X17037660Y22589001D01*
Y22600999D01*
X17033067Y22612083D01*
X17024583Y22620567D01*
X17013499Y22625160D01*
D02*
G37*
G36*
X15334212Y22731160D02*
X15311789D01*
X15290131Y22725356D01*
X15270711Y22714145D01*
X15254855Y22698289D01*
X15243645Y22678870D01*
X15237840Y22657211D01*
Y22634789D01*
X15243645Y22613130D01*
X15254855Y22593710D01*
X15270711Y22577855D01*
X15290131Y22566644D01*
X15311789Y22560840D01*
X15334212D01*
X15355870Y22566644D01*
X15375290Y22577855D01*
X15391145Y22593710D01*
X15402356Y22613130D01*
X15408160Y22634789D01*
Y22657211D01*
X15402356Y22678870D01*
X15391145Y22698289D01*
X15375290Y22714145D01*
X15355870Y22725356D01*
X15334212Y22731160D01*
D02*
G37*
G36*
X15069000Y22756895D02*
X15046770Y22753967D01*
X15026053Y22745387D01*
X15008263Y22731737D01*
X14994614Y22713947D01*
X14986032Y22693231D01*
X14983105Y22671001D01*
Y22621001D01*
X14986032Y22598769D01*
X14994614Y22578052D01*
X15008263Y22560263D01*
X15026053Y22546613D01*
X15046770Y22538033D01*
X15069000Y22535104D01*
X15091231Y22538033D01*
X15111948Y22546613D01*
X15129736Y22560263D01*
X15143387Y22578052D01*
X15151968Y22598769D01*
X15154895Y22621001D01*
Y22671001D01*
X15151968Y22693231D01*
X15143387Y22713947D01*
X15129736Y22731737D01*
X15111948Y22745387D01*
X15091231Y22753967D01*
X15069000Y22756895D01*
D02*
G37*
G36*
X14814999D02*
X14792769Y22753967D01*
X14772054Y22745387D01*
X14754263Y22731737D01*
X14740613Y22713947D01*
X14732031Y22693231D01*
X14729105Y22671001D01*
Y22621001D01*
X14732031Y22598769D01*
X14740613Y22578052D01*
X14754263Y22560263D01*
X14772054Y22546613D01*
X14792769Y22538033D01*
X14814999Y22535104D01*
X14837231Y22538033D01*
X14857947Y22546613D01*
X14875737Y22560263D01*
X14889388Y22578052D01*
X14897968Y22598769D01*
X14900896Y22621001D01*
Y22671001D01*
X14897968Y22693231D01*
X14889388Y22713947D01*
X14875737Y22731737D01*
X14857947Y22745387D01*
X14837231Y22753967D01*
X14814999Y22756895D01*
D02*
G37*
G36*
X14561000D02*
X14538770Y22753967D01*
X14518053Y22745387D01*
X14500262Y22731737D01*
X14486613Y22713947D01*
X14478032Y22693231D01*
X14475105Y22671001D01*
Y22621001D01*
X14478032Y22598769D01*
X14486613Y22578052D01*
X14500262Y22560263D01*
X14518053Y22546613D01*
X14538770Y22538033D01*
X14561000Y22535104D01*
X14583231Y22538033D01*
X14603947Y22546613D01*
X14621738Y22560263D01*
X14635387Y22578052D01*
X14643968Y22598769D01*
X14646895Y22621001D01*
Y22671001D01*
X14643968Y22693231D01*
X14635387Y22713947D01*
X14621738Y22731737D01*
X14603947Y22745387D01*
X14583231Y22753967D01*
X14561000Y22756895D01*
D02*
G37*
G36*
X19764999Y22698503D02*
X19689999D01*
X19664507Y22695146D01*
X19640749Y22685306D01*
X19620348Y22669652D01*
X19604694Y22649251D01*
X19594855Y22625494D01*
X19591496Y22600000D01*
X19594855Y22574506D01*
X19604694Y22550749D01*
X19620348Y22530348D01*
X19640749Y22514694D01*
X19664507Y22504854D01*
X19689999Y22501497D01*
X19764999D01*
X19790495Y22504854D01*
X19814252Y22514694D01*
X19834653Y22530348D01*
X19850307Y22550749D01*
X19860146Y22574506D01*
X19863503Y22600000D01*
X19860146Y22625494D01*
X19850307Y22649251D01*
X19834653Y22669652D01*
X19814252Y22685306D01*
X19790495Y22695146D01*
X19764999Y22698503D01*
D02*
G37*
G36*
X11370539Y22522789D02*
X11358541D01*
X11347456Y22518198D01*
X11338972Y22509714D01*
X11334380Y22498628D01*
Y22486629D01*
X11338972Y22475545D01*
X11347456Y22467059D01*
X11358541Y22462469D01*
X11370539D01*
X11381624Y22467059D01*
X11390109Y22475545D01*
X11394700Y22486629D01*
Y22498628D01*
X11390109Y22509714D01*
X11381624Y22518198D01*
X11370539Y22522789D01*
D02*
G37*
G36*
X10860539D02*
X10848541D01*
X10837456Y22518198D01*
X10828972Y22509714D01*
X10824380Y22498628D01*
Y22486629D01*
X10828972Y22475545D01*
X10837456Y22467059D01*
X10848541Y22462469D01*
X10860539D01*
X10871624Y22467059D01*
X10880109Y22475545D01*
X10884700Y22486629D01*
Y22498628D01*
X10880109Y22509714D01*
X10871624Y22518198D01*
X10860539Y22522789D01*
D02*
G37*
G36*
X12155999Y22510159D02*
X12144001D01*
X12132916Y22505568D01*
X12124432Y22497084D01*
X12119840Y22485999D01*
Y22474001D01*
X12124432Y22462917D01*
X12132916Y22454433D01*
X12144001Y22449840D01*
X12155999D01*
X12167084Y22454433D01*
X12175568Y22462917D01*
X12180160Y22474001D01*
Y22485999D01*
X12175568Y22497084D01*
X12167084Y22505568D01*
X12155999Y22510159D01*
D02*
G37*
G36*
X14306000Y22367661D02*
X14294000D01*
X14282916Y22363068D01*
X14274432Y22354584D01*
X14269839Y22343500D01*
Y22331500D01*
X14274432Y22320416D01*
X14282916Y22311932D01*
X14294000Y22307339D01*
X14306000D01*
X14317084Y22311932D01*
X14325569Y22320416D01*
X14330161Y22331500D01*
Y22343500D01*
X14325569Y22354584D01*
X14317084Y22363068D01*
X14306000Y22367661D01*
D02*
G37*
G36*
X14608499Y22352660D02*
X14596501D01*
X14585416Y22348068D01*
X14576932Y22339584D01*
X14572340Y22328499D01*
Y22316501D01*
X14576932Y22305415D01*
X14585416Y22296931D01*
X14596501Y22292340D01*
X14608499D01*
X14619585Y22296931D01*
X14628069Y22305415D01*
X14632660Y22316501D01*
Y22328499D01*
X14628069Y22339584D01*
X14619585Y22348068D01*
X14608499Y22352660D01*
D02*
G37*
G36*
X11638499Y22330161D02*
X11626501D01*
X11615416Y22325569D01*
X11606932Y22317084D01*
X11602340Y22306000D01*
Y22294000D01*
X11606932Y22282916D01*
X11615416Y22274432D01*
X11626501Y22269839D01*
X11638499D01*
X11649584Y22274432D01*
X11658068Y22282916D01*
X11662660Y22294000D01*
Y22306000D01*
X11658068Y22317084D01*
X11649584Y22325569D01*
X11638499Y22330161D01*
D02*
G37*
G36*
X11805999Y22325160D02*
X11794001D01*
X11782916Y22320569D01*
X11774432Y22312083D01*
X11769840Y22300999D01*
Y22289001D01*
X11774432Y22277916D01*
X11782916Y22269432D01*
X11794001Y22264841D01*
X11805999D01*
X11817084Y22269432D01*
X11825568Y22277916D01*
X11830160Y22289001D01*
Y22300999D01*
X11825568Y22312083D01*
X11817084Y22320569D01*
X11805999Y22325160D01*
D02*
G37*
G36*
X14278017Y22189597D02*
X14266019D01*
X14254933Y22185005D01*
X14246449Y22176521D01*
X14241856Y22165434D01*
Y22153436D01*
X14246449Y22142352D01*
X14254933Y22133868D01*
X14266019Y22129276D01*
X14278017D01*
X14289101Y22133868D01*
X14297586Y22142352D01*
X14302177Y22153436D01*
Y22165434D01*
X14297586Y22176521D01*
X14289101Y22185005D01*
X14278017Y22189597D01*
D02*
G37*
G36*
X14573499Y22095160D02*
X14561501D01*
X14550417Y22090569D01*
X14546637Y22086790D01*
X14539999Y22083145D01*
X14533363Y22086790D01*
X14529584Y22090569D01*
X14518500Y22095160D01*
X14506500D01*
X14495416Y22090569D01*
X14486932Y22082085D01*
X14482339Y22070999D01*
Y22059001D01*
X14486932Y22047916D01*
X14495416Y22039432D01*
X14506500Y22034840D01*
X14518500D01*
X14529584Y22039432D01*
X14533363Y22043210D01*
X14539999Y22046855D01*
X14546637Y22043210D01*
X14550417Y22039432D01*
X14561501Y22034840D01*
X14573499D01*
X14584584Y22039432D01*
X14593068Y22047916D01*
X14597659Y22059001D01*
Y22070999D01*
X14593068Y22082085D01*
X14584584Y22090569D01*
X14573499Y22095160D01*
D02*
G37*
G36*
X12638499Y22002660D02*
X12626501D01*
X12615416Y21998068D01*
X12606932Y21989584D01*
X12602340Y21978499D01*
Y21966501D01*
X12606932Y21955415D01*
X12615416Y21946931D01*
X12626501Y21942340D01*
X12638499D01*
X12649584Y21946931D01*
X12658068Y21955415D01*
X12662660Y21966501D01*
Y21978499D01*
X12658068Y21989584D01*
X12649584Y21998068D01*
X12638499Y22002660D01*
D02*
G37*
G36*
X14933015Y22032095D02*
X14921017D01*
X14909933Y22027505D01*
X14901450Y22019020D01*
X14896857Y22007935D01*
Y21995937D01*
X14901450Y21984853D01*
X14909933Y21976369D01*
X14913393Y21974934D01*
Y21963937D01*
X14909933Y21962505D01*
X14901450Y21954021D01*
X14896857Y21942937D01*
Y21930937D01*
X14901450Y21919852D01*
X14909933Y21911368D01*
X14921017Y21906776D01*
X14933015D01*
X14944101Y21911368D01*
X14952586Y21919852D01*
X14957178Y21930937D01*
Y21942937D01*
X14952586Y21954021D01*
X14944101Y21962505D01*
X14940642Y21963937D01*
Y21974934D01*
X14944101Y21976369D01*
X14952586Y21984853D01*
X14957178Y21995937D01*
Y22007935D01*
X14952586Y22019020D01*
X14944101Y22027505D01*
X14933015Y22032095D01*
D02*
G37*
G36*
X15900999Y21927660D02*
X15889001D01*
X15877916Y21923068D01*
X15869432Y21914584D01*
X15864841Y21903499D01*
Y21891501D01*
X15869432Y21880415D01*
X15876097Y21873750D01*
X15869432Y21867084D01*
X15864841Y21856000D01*
Y21844000D01*
X15869432Y21832916D01*
X15877916Y21824432D01*
X15889001Y21819839D01*
X15900999D01*
X15912083Y21824432D01*
X15920567Y21832916D01*
X15925160Y21844000D01*
Y21856000D01*
X15920567Y21867084D01*
X15913902Y21873750D01*
X15920567Y21880415D01*
X15925160Y21891501D01*
Y21903499D01*
X15920567Y21914584D01*
X15912083Y21923068D01*
X15900999Y21927660D01*
D02*
G37*
G36*
X14710999Y21880161D02*
X14699001D01*
X14687917Y21875568D01*
X14679433Y21867084D01*
X14674840Y21856000D01*
Y21844000D01*
X14679433Y21832916D01*
X14687917Y21824432D01*
X14699001Y21819839D01*
X14710999D01*
X14722084Y21824432D01*
X14730568Y21832916D01*
X14735159Y21844000D01*
Y21856000D01*
X14730568Y21867084D01*
X14722084Y21875568D01*
X14710999Y21880161D01*
D02*
G37*
G36*
X12180999Y21860159D02*
X12169001D01*
X12157916Y21855568D01*
X12149432Y21847084D01*
X12144840Y21835999D01*
Y21824001D01*
X12149432Y21812917D01*
X12157916Y21804433D01*
X12169001Y21799840D01*
X12180999D01*
X12192084Y21804433D01*
X12200568Y21812917D01*
X12205160Y21824001D01*
Y21835999D01*
X12200568Y21847084D01*
X12192084Y21855568D01*
X12180999Y21860159D01*
D02*
G37*
G36*
X15648499Y21822659D02*
X15636501D01*
X15625417Y21818068D01*
X15616933Y21809584D01*
X15612340Y21798499D01*
Y21786501D01*
X15616933Y21775417D01*
X15625417Y21766933D01*
X15636501Y21762340D01*
X15648499D01*
X15659584Y21766933D01*
X15668068Y21775417D01*
X15672659Y21786501D01*
Y21798499D01*
X15668068Y21809584D01*
X15659584Y21818068D01*
X15648499Y21822659D01*
D02*
G37*
G36*
X19020999Y21877660D02*
X19009001D01*
X18997916Y21873068D01*
X18989432Y21864584D01*
X18984840Y21853499D01*
Y21841501D01*
X18989432Y21830415D01*
X18997916Y21821931D01*
X19001094Y21820615D01*
X19003477Y21808630D01*
X19001932Y21807085D01*
X18997340Y21795999D01*
Y21784001D01*
X19001932Y21772916D01*
X19010416Y21764432D01*
X19021501Y21759840D01*
X19033499D01*
X19044585Y21764432D01*
X19053069Y21772916D01*
X19057660Y21784001D01*
Y21795999D01*
X19053069Y21807085D01*
X19044585Y21815569D01*
X19041406Y21816885D01*
X19039021Y21828870D01*
X19040569Y21830415D01*
X19045160Y21841501D01*
Y21853499D01*
X19040569Y21864584D01*
X19032085Y21873068D01*
X19020999Y21877660D01*
D02*
G37*
G36*
X11380964Y22013820D02*
X11365982D01*
X11352141Y22008086D01*
X11341547Y21997491D01*
X11335813Y21983652D01*
Y21968669D01*
X11341547Y21954826D01*
X11351464Y21944910D01*
X11341547Y21934991D01*
X11335813Y21921152D01*
Y21906169D01*
X11341547Y21892326D01*
X11351464Y21882410D01*
X11341547Y21872491D01*
X11335813Y21858652D01*
Y21843669D01*
X11341547Y21829826D01*
X11347327Y21824046D01*
X11351103Y21817410D01*
X11347327Y21810773D01*
X11341547Y21804993D01*
X11335813Y21791151D01*
Y21776169D01*
X11341547Y21762328D01*
X11352141Y21751733D01*
X11365982Y21746001D01*
X11380964D01*
X11394806Y21751733D01*
X11405400Y21762328D01*
X11411133Y21776169D01*
Y21791151D01*
X11405400Y21804993D01*
X11399620Y21810773D01*
X11395844Y21817410D01*
X11399620Y21824046D01*
X11405400Y21829826D01*
X11411133Y21843669D01*
Y21858652D01*
X11405400Y21872491D01*
X11395482Y21882410D01*
X11405400Y21892326D01*
X11411133Y21906169D01*
Y21921152D01*
X11405400Y21934991D01*
X11395482Y21944910D01*
X11405400Y21954826D01*
X11411133Y21968669D01*
Y21983652D01*
X11405400Y21997491D01*
X11394806Y22008086D01*
X11380964Y22013820D01*
D02*
G37*
G36*
X15398499Y21800160D02*
X15386501D01*
X15375417Y21795567D01*
X15366933Y21787083D01*
X15362340Y21775999D01*
Y21764001D01*
X15366933Y21752916D01*
X15375417Y21744431D01*
X15386501Y21739841D01*
X15398499D01*
X15409584Y21744431D01*
X15418068Y21752916D01*
X15422659Y21764001D01*
Y21775999D01*
X15418068Y21787083D01*
X15409584Y21795567D01*
X15398499Y21800160D01*
D02*
G37*
G36*
X12030999Y21727660D02*
X12019001D01*
X12007916Y21723068D01*
X11999432Y21714584D01*
X11994840Y21703499D01*
Y21691501D01*
X11999432Y21680415D01*
X12007916Y21671931D01*
X12019001Y21667340D01*
X12030999D01*
X12042084Y21671931D01*
X12050568Y21680415D01*
X12055160Y21691501D01*
Y21703499D01*
X12050568Y21714584D01*
X12042084Y21723068D01*
X12030999Y21727660D01*
D02*
G37*
G36*
X15110999Y21647659D02*
X15099001D01*
X15087917Y21643068D01*
X15079433Y21634584D01*
X15074840Y21623499D01*
Y21611501D01*
X15079433Y21600417D01*
X15087917Y21591933D01*
X15099001Y21587340D01*
X15110999D01*
X15122084Y21591933D01*
X15130568Y21600417D01*
X15135159Y21611501D01*
Y21623499D01*
X15130568Y21634584D01*
X15122084Y21643068D01*
X15110999Y21647659D01*
D02*
G37*
G36*
X15475999Y21622659D02*
X15464001D01*
X15452916Y21618069D01*
X15444432Y21609584D01*
X15439841Y21598499D01*
Y21586501D01*
X15444432Y21575417D01*
X15452916Y21566933D01*
X15464001Y21562340D01*
X15475999D01*
X15487083Y21566933D01*
X15495567Y21575417D01*
X15500160Y21586501D01*
Y21598499D01*
X15495567Y21609584D01*
X15487083Y21618069D01*
X15475999Y21622659D01*
D02*
G37*
G36*
X15130516Y21442096D02*
X15118518D01*
X15107433Y21437505D01*
X15098949Y21429021D01*
X15094357Y21417937D01*
Y21405937D01*
X15098949Y21394852D01*
X15107433Y21386368D01*
X15118518Y21381776D01*
X15130516D01*
X15141602Y21386368D01*
X15150085Y21394852D01*
X15154677Y21405937D01*
Y21417937D01*
X15150085Y21429021D01*
X15141602Y21437505D01*
X15130516Y21442096D01*
D02*
G37*
G36*
X15515999Y21430161D02*
X15504001D01*
X15492915Y21425569D01*
X15484431Y21417084D01*
X15479840Y21406000D01*
Y21394000D01*
X15484431Y21382916D01*
X15492915Y21374432D01*
X15504001Y21369839D01*
X15515999D01*
X15527084Y21374432D01*
X15535568Y21382916D01*
X15540160Y21394000D01*
Y21406000D01*
X15535568Y21417084D01*
X15527084Y21425569D01*
X15515999Y21430161D01*
D02*
G37*
G36*
X15131000Y21345160D02*
X15119000D01*
X15107916Y21340569D01*
X15099432Y21332085D01*
X15094839Y21320999D01*
Y21309001D01*
X15099432Y21297916D01*
X15107916Y21289432D01*
X15119000Y21284840D01*
X15131000D01*
X15142084Y21289432D01*
X15150568Y21297916D01*
X15155161Y21309001D01*
Y21320999D01*
X15150568Y21332085D01*
X15142084Y21340569D01*
X15131000Y21345160D01*
D02*
G37*
G36*
X14845999Y21252660D02*
X14834001D01*
X14822916Y21248068D01*
X14814432Y21239584D01*
X14809840Y21228499D01*
Y21216501D01*
X14814432Y21205415D01*
X14822916Y21196931D01*
X14834001Y21192340D01*
X14845999D01*
X14857085Y21196931D01*
X14865569Y21205415D01*
X14870160Y21216501D01*
Y21228499D01*
X14865569Y21239584D01*
X14857085Y21248068D01*
X14845999Y21252660D01*
D02*
G37*
G36*
X14560999D02*
X14549001D01*
X14537917Y21248068D01*
X14529433Y21239584D01*
X14524840Y21228499D01*
Y21216501D01*
X14529433Y21205415D01*
X14537917Y21196931D01*
X14549001Y21192340D01*
X14560999D01*
X14572084Y21196931D01*
X14580569Y21205415D01*
X14585159Y21216501D01*
Y21228499D01*
X14580569Y21239584D01*
X14572084Y21248068D01*
X14560999Y21252660D01*
D02*
G37*
G36*
X18706000Y21177660D02*
X18694000D01*
X18682916Y21173068D01*
X18674432Y21164584D01*
X18669839Y21153499D01*
Y21141501D01*
X18674432Y21130415D01*
X18682916Y21121931D01*
X18694000Y21117340D01*
X18706000D01*
X18717084Y21121931D01*
X18725569Y21130415D01*
X18730161Y21141501D01*
Y21153499D01*
X18725569Y21164584D01*
X18717084Y21173068D01*
X18706000Y21177660D01*
D02*
G37*
G36*
X14768500Y21042661D02*
X14756500D01*
X14745416Y21038068D01*
X14736932Y21029584D01*
X14732339Y21018500D01*
Y21006500D01*
X14736932Y20995416D01*
X14745416Y20986932D01*
X14756500Y20982339D01*
X14768500D01*
X14779584Y20986932D01*
X14788068Y20995416D01*
X14792661Y21006500D01*
Y21018500D01*
X14788068Y21029584D01*
X14779584Y21038068D01*
X14768500Y21042661D01*
D02*
G37*
G36*
X10909991Y21010159D02*
X10895009D01*
X10881167Y21004427D01*
X10870573Y20993832D01*
X10864840Y20979991D01*
Y20965009D01*
X10870573Y20951167D01*
X10881167Y20940575D01*
X10895009Y20934840D01*
X10909991D01*
X10923833Y20940575D01*
X10934426Y20951167D01*
X10940160Y20965009D01*
Y20979991D01*
X10934426Y20993832D01*
X10923833Y21004427D01*
X10909991Y21010159D01*
D02*
G37*
G36*
X14543500Y20927660D02*
X14531500D01*
X14520416Y20923068D01*
X14516637Y20919290D01*
X14510001Y20915645D01*
X14503363Y20919290D01*
X14499583Y20923068D01*
X14488499Y20927660D01*
X14476501D01*
X14465416Y20923068D01*
X14456932Y20914584D01*
X14452341Y20903499D01*
Y20891501D01*
X14456932Y20880415D01*
X14465416Y20871931D01*
X14473143Y20868732D01*
X14473674Y20857953D01*
X14467915Y20855568D01*
X14459431Y20847084D01*
X14454840Y20835999D01*
Y20824001D01*
X14459431Y20812917D01*
X14467915Y20804433D01*
X14475591Y20801253D01*
X14482339Y20790999D01*
Y20779001D01*
X14486932Y20767915D01*
X14495416Y20759431D01*
X14506500Y20754840D01*
X14518500D01*
X14529584Y20759431D01*
X14538068Y20767915D01*
X14542661Y20779001D01*
Y20790999D01*
X14542171Y20792180D01*
X14545999Y20802341D01*
X14547812Y20803091D01*
X14557085Y20806932D01*
X14565569Y20815416D01*
X14570160Y20826501D01*
Y20838499D01*
X14565569Y20849583D01*
X14557085Y20858069D01*
X14552374Y20860019D01*
Y20871016D01*
X14554584Y20871931D01*
X14563068Y20880415D01*
X14567661Y20891501D01*
Y20903499D01*
X14563068Y20914584D01*
X14554584Y20923068D01*
X14543500Y20927660D01*
D02*
G37*
G36*
X14191563Y20931673D02*
X14179565D01*
X14168480Y20927081D01*
X14159996Y20918597D01*
X14155405Y20907512D01*
Y20895512D01*
X14159996Y20884428D01*
X14167876Y20876549D01*
X14168193Y20870679D01*
X14167915Y20865569D01*
X14159431Y20857085D01*
X14154840Y20846001D01*
X14145160Y20847157D01*
X14145160Y20858499D01*
X14140569Y20869585D01*
X14133904Y20876250D01*
X14140569Y20882916D01*
X14145160Y20894000D01*
Y20906000D01*
X14140569Y20917084D01*
X14132085Y20925569D01*
X14120999Y20930161D01*
X14109001D01*
X14097916Y20925569D01*
X14089432Y20917084D01*
X14086253Y20909410D01*
X14075999Y20902660D01*
X14064001D01*
X14052916Y20898068D01*
X14044432Y20889584D01*
X14039841Y20878499D01*
Y20866501D01*
X14044432Y20855415D01*
X14052916Y20846931D01*
X14064001Y20842340D01*
X14075999D01*
X14085016Y20846075D01*
X14089432Y20835416D01*
X14097916Y20826932D01*
X14109001Y20822340D01*
X14120999D01*
X14132085Y20826932D01*
X14140569Y20835416D01*
X14145160Y20846500D01*
X14154840Y20845341D01*
X14154840Y20834001D01*
X14159431Y20822916D01*
X14167915Y20814432D01*
X14179001Y20809840D01*
X14190999D01*
X14202084Y20814432D01*
X14210568Y20822916D01*
X14215160Y20834001D01*
Y20845999D01*
X14210568Y20857085D01*
X14202689Y20864964D01*
X14202371Y20870834D01*
X14202649Y20875945D01*
X14211133Y20884428D01*
X14215724Y20895512D01*
Y20907512D01*
X14211133Y20918597D01*
X14202649Y20927081D01*
X14191563Y20931673D01*
D02*
G37*
G36*
X13381000Y20852660D02*
X13369000D01*
X13357916Y20848068D01*
X13349432Y20839584D01*
X13344839Y20828499D01*
Y20816501D01*
X13349432Y20805415D01*
X13357916Y20796931D01*
X13369000Y20792340D01*
X13381000D01*
X13392084Y20796931D01*
X13400568Y20805415D01*
X13405161Y20816501D01*
Y20828499D01*
X13400568Y20839584D01*
X13392084Y20848068D01*
X13381000Y20852660D01*
D02*
G37*
G36*
X14923499Y20845160D02*
X14911501D01*
X14900417Y20840569D01*
X14891933Y20832085D01*
X14887340Y20820999D01*
Y20809001D01*
X14891933Y20797916D01*
X14900417Y20789432D01*
X14911501Y20784840D01*
X14923499D01*
X14934584Y20789432D01*
X14943068Y20797916D01*
X14947659Y20809001D01*
Y20820999D01*
X14943068Y20832085D01*
X14934584Y20840569D01*
X14923499Y20845160D01*
D02*
G37*
G36*
X13098499Y20785159D02*
X13086501D01*
X13075417Y20780568D01*
X13066933Y20772084D01*
X13062340Y20760999D01*
Y20749001D01*
X13066933Y20737917D01*
X13075417Y20729431D01*
X13086501Y20724840D01*
X13098499D01*
X13109584Y20729431D01*
X13118069Y20737917D01*
X13122659Y20749001D01*
Y20760999D01*
X13118069Y20772084D01*
X13109584Y20780568D01*
X13098499Y20785159D01*
D02*
G37*
G36*
X11462491Y20792661D02*
X11447509D01*
X11433667Y20786926D01*
X11423073Y20776334D01*
X11417340Y20762491D01*
Y20747508D01*
X11423073Y20733667D01*
X11433667Y20723073D01*
X11447509Y20717340D01*
X11462491D01*
X11476333Y20723073D01*
X11486926Y20733667D01*
X11492660Y20747508D01*
Y20762491D01*
X11486926Y20776334D01*
X11476333Y20786926D01*
X11462491Y20792661D01*
D02*
G37*
G36*
X15183499Y20730161D02*
X15171501D01*
X15160416Y20725568D01*
X15151932Y20717084D01*
X15147340Y20706000D01*
Y20694000D01*
X15151932Y20682916D01*
X15160416Y20674432D01*
X15171501Y20669839D01*
X15183499D01*
X15194585Y20674432D01*
X15203069Y20682916D01*
X15207660Y20694000D01*
Y20706000D01*
X15203069Y20717084D01*
X15194585Y20725568D01*
X15183499Y20730161D01*
D02*
G37*
G36*
X18700999Y20707660D02*
X18689001D01*
X18677916Y20703069D01*
X18669432Y20694585D01*
X18664841Y20683499D01*
Y20671501D01*
X18669432Y20660416D01*
X18677916Y20651932D01*
X18689001Y20647340D01*
X18700999D01*
X18712083Y20651932D01*
X18720567Y20660416D01*
X18725160Y20671501D01*
Y20683499D01*
X18720567Y20694585D01*
X18712083Y20703069D01*
X18700999Y20707660D01*
D02*
G37*
G36*
X14895999D02*
X14884001D01*
X14872916Y20703069D01*
X14864432Y20694585D01*
X14859840Y20683499D01*
Y20671501D01*
X14864432Y20660416D01*
X14872916Y20651932D01*
X14884001Y20647340D01*
X14895999D01*
X14907085Y20651932D01*
X14915569Y20660416D01*
X14920160Y20671501D01*
Y20683499D01*
X14915569Y20694585D01*
X14907085Y20703069D01*
X14895999Y20707660D01*
D02*
G37*
G36*
X19160999Y20692661D02*
X19149001D01*
X19137917Y20688068D01*
X19129433Y20679584D01*
X19124840Y20668500D01*
Y20656500D01*
X19129433Y20645416D01*
X19137917Y20636932D01*
X19149001Y20632339D01*
X19160999D01*
X19172084Y20636932D01*
X19180568Y20645416D01*
X19185159Y20656500D01*
Y20668500D01*
X19180568Y20679584D01*
X19172084Y20688068D01*
X19160999Y20692661D01*
D02*
G37*
G36*
X15248499Y20680161D02*
X15236501D01*
X15225417Y20675569D01*
X15216933Y20667084D01*
X15212340Y20656000D01*
Y20644000D01*
X15216933Y20632916D01*
X15225417Y20624432D01*
X15236501Y20619839D01*
X15248499D01*
X15259584Y20624432D01*
X15263327Y20628174D01*
X15274207Y20627921D01*
X15275388Y20626961D01*
X15282916Y20619432D01*
X15294000Y20614841D01*
X15306000D01*
X15317084Y20619432D01*
X15325568Y20627916D01*
X15330161Y20639001D01*
Y20650999D01*
X15325568Y20662083D01*
X15317084Y20670569D01*
X15306000Y20675160D01*
X15294000D01*
X15282916Y20670569D01*
X15279173Y20666826D01*
X15268294Y20667079D01*
X15267113Y20668040D01*
X15259584Y20675569D01*
X15248499Y20680161D01*
D02*
G37*
G36*
X11287953Y20685616D02*
X11272971D01*
X11259130Y20679881D01*
X11248536Y20669289D01*
X11242803Y20655447D01*
Y20640465D01*
X11248536Y20626624D01*
X11259130Y20616029D01*
X11272971Y20610297D01*
X11287953D01*
X11301795Y20616029D01*
X11312389Y20626624D01*
X11318122Y20640465D01*
Y20655447D01*
X11312389Y20669289D01*
X11301795Y20679881D01*
X11287953Y20685616D01*
D02*
G37*
G36*
X18858499Y20660159D02*
X18846501D01*
X18835416Y20655568D01*
X18826932Y20647084D01*
X18822340Y20635999D01*
Y20624001D01*
X18826932Y20612917D01*
X18835416Y20604431D01*
X18846501Y20599840D01*
X18858499D01*
X18869585Y20604431D01*
X18878069Y20612917D01*
X18882660Y20624001D01*
Y20635999D01*
X18878069Y20647084D01*
X18869585Y20655568D01*
X18858499Y20660159D01*
D02*
G37*
G36*
X13300999Y20617661D02*
X13289001D01*
X13277916Y20613069D01*
X13269432Y20604584D01*
X13264841Y20593500D01*
Y20581500D01*
X13269432Y20570416D01*
X13277916Y20561932D01*
X13289001Y20557339D01*
X13300999D01*
X13312083Y20561932D01*
X13320567Y20570416D01*
X13325160Y20581500D01*
Y20593500D01*
X13320567Y20604584D01*
X13312083Y20613069D01*
X13300999Y20617661D01*
D02*
G37*
G36*
X17690999Y20582660D02*
X17679001D01*
X17667915Y20578069D01*
X17659431Y20569585D01*
X17654840Y20558499D01*
Y20546501D01*
X17659431Y20535416D01*
X17667915Y20526932D01*
X17679001Y20522340D01*
X17690999D01*
X17702084Y20526932D01*
X17710568Y20535416D01*
X17715160Y20546501D01*
Y20558499D01*
X17710568Y20569585D01*
X17702084Y20578069D01*
X17690999Y20582660D01*
D02*
G37*
G36*
X15123499D02*
X15111501D01*
X15100417Y20578069D01*
X15091933Y20569585D01*
X15087340Y20558499D01*
Y20546501D01*
X15091933Y20535416D01*
X15100417Y20526932D01*
X15111501Y20522340D01*
X15123499D01*
X15134584Y20526932D01*
X15140096Y20532442D01*
X15150607Y20531441D01*
X15151759Y20530832D01*
X15151932Y20530415D01*
X15160416Y20521931D01*
X15171501Y20517340D01*
X15183499D01*
X15194585Y20521931D01*
X15200827Y20528174D01*
X15210312Y20527953D01*
X15212708Y20527139D01*
X15220416Y20519432D01*
X15231500Y20514841D01*
X15243500D01*
X15254584Y20519432D01*
X15263068Y20527916D01*
X15267661Y20539001D01*
Y20550999D01*
X15263068Y20562083D01*
X15254584Y20570567D01*
X15243500Y20575160D01*
X15231500D01*
X15220416Y20570567D01*
X15214172Y20564326D01*
X15204688Y20564548D01*
X15202290Y20565361D01*
X15194585Y20573068D01*
X15183499Y20577660D01*
X15171501D01*
X15160416Y20573068D01*
X15154906Y20567558D01*
X15144392Y20568559D01*
X15143240Y20569168D01*
X15143069Y20569585D01*
X15134584Y20578069D01*
X15123499Y20582660D01*
D02*
G37*
G36*
X13145999Y20562660D02*
X13134001D01*
X13122916Y20558067D01*
X13114432Y20549583D01*
X13109840Y20538499D01*
Y20526501D01*
X13114432Y20515416D01*
X13122916Y20506932D01*
X13134001Y20502341D01*
X13145999D01*
X13157085Y20506932D01*
X13165569Y20515416D01*
X13170160Y20526501D01*
Y20538499D01*
X13165569Y20549583D01*
X13157085Y20558067D01*
X13145999Y20562660D01*
D02*
G37*
G36*
X13343500Y20530161D02*
X13331500D01*
X13320416Y20525568D01*
X13311932Y20517084D01*
X13307339Y20506000D01*
Y20494000D01*
X13311932Y20482916D01*
X13320416Y20474431D01*
X13331500Y20469839D01*
X13343500D01*
X13354584Y20474431D01*
X13363069Y20482916D01*
X13367661Y20494000D01*
Y20506000D01*
X13363069Y20517084D01*
X13354584Y20525568D01*
X13343500Y20530161D01*
D02*
G37*
G36*
X11409991Y20537660D02*
X11395009D01*
X11381167Y20531926D01*
X11370573Y20521333D01*
X11364840Y20507491D01*
Y20492509D01*
X11370573Y20478667D01*
X11381167Y20468073D01*
X11395009Y20462340D01*
X11409991D01*
X11423833Y20468073D01*
X11434426Y20478667D01*
X11440160Y20492509D01*
Y20507491D01*
X11434426Y20521333D01*
X11423833Y20531926D01*
X11409991Y20537660D01*
D02*
G37*
G36*
X18858499Y20505161D02*
X18846501D01*
X18835416Y20500568D01*
X18826932Y20492084D01*
X18822340Y20481000D01*
Y20469000D01*
X18826932Y20457916D01*
X18835416Y20449432D01*
X18846501Y20444839D01*
X18858499D01*
X18869585Y20449432D01*
X18878069Y20457916D01*
X18882660Y20469000D01*
Y20481000D01*
X18878069Y20492084D01*
X18869585Y20500568D01*
X18858499Y20505161D01*
D02*
G37*
G36*
X16625999D02*
X16614001D01*
X16602916Y20500568D01*
X16594432Y20492084D01*
X16589841Y20481000D01*
Y20469000D01*
X16594432Y20457916D01*
X16602916Y20449432D01*
X16614001Y20444839D01*
X16625999D01*
X16637083Y20449432D01*
X16645567Y20457916D01*
X16650160Y20469000D01*
Y20481000D01*
X16645567Y20492084D01*
X16637083Y20500568D01*
X16625999Y20505161D01*
D02*
G37*
G36*
X13193500Y20492661D02*
X13181500D01*
X13170416Y20488068D01*
X13161932Y20479584D01*
X13157339Y20468500D01*
Y20456500D01*
X13161932Y20445416D01*
X13170416Y20436932D01*
X13181500Y20432339D01*
X13193500D01*
X13204584Y20436932D01*
X13213068Y20445416D01*
X13217661Y20456500D01*
Y20468500D01*
X13213068Y20479584D01*
X13204584Y20488068D01*
X13193500Y20492661D01*
D02*
G37*
G36*
X15573499Y20442661D02*
X15561501D01*
X15550417Y20438068D01*
X15541933Y20429584D01*
X15537340Y20418500D01*
Y20406500D01*
X15541933Y20395416D01*
X15550417Y20386932D01*
X15561501Y20382339D01*
X15573499D01*
X15584584Y20386932D01*
X15593068Y20395416D01*
X15597659Y20406500D01*
Y20418500D01*
X15593068Y20429584D01*
X15584584Y20438068D01*
X15573499Y20442661D01*
D02*
G37*
G36*
X18856000Y20422659D02*
X18844000D01*
X18832916Y20418068D01*
X18824432Y20409584D01*
X18819839Y20398499D01*
Y20386501D01*
X18824432Y20375417D01*
X18832916Y20366933D01*
X18844000Y20362340D01*
X18856000D01*
X18867084Y20366933D01*
X18875569Y20375417D01*
X18880161Y20386501D01*
Y20398499D01*
X18875569Y20409584D01*
X18867084Y20418068D01*
X18856000Y20422659D01*
D02*
G37*
G36*
X15785999Y20405161D02*
X15774001D01*
X15762917Y20400568D01*
X15754433Y20392084D01*
X15749840Y20381000D01*
Y20369000D01*
X15754433Y20357916D01*
X15762917Y20349431D01*
X15774001Y20344839D01*
X15785999D01*
X15797084Y20349431D01*
X15805568Y20357916D01*
X15810159Y20369000D01*
Y20381000D01*
X15805568Y20392084D01*
X15797084Y20400568D01*
X15785999Y20405161D01*
D02*
G37*
G36*
X13245999Y20395160D02*
X13234001D01*
X13222916Y20390569D01*
X13214432Y20382085D01*
X13209840Y20370999D01*
Y20359001D01*
X13214432Y20347916D01*
X13222916Y20339432D01*
X13234001Y20334840D01*
X13245999D01*
X13257085Y20339432D01*
X13265569Y20347916D01*
X13270160Y20359001D01*
Y20370999D01*
X13265569Y20382085D01*
X13257085Y20390569D01*
X13245999Y20395160D01*
D02*
G37*
G36*
X14015999Y20437660D02*
X14004001D01*
X13992915Y20433067D01*
X13984431Y20424583D01*
X13979840Y20413499D01*
Y20401501D01*
X13984431Y20390416D01*
X13992915Y20381932D01*
X13995053Y20370049D01*
X13992340Y20363499D01*
Y20351501D01*
X13996931Y20340416D01*
X14005415Y20331932D01*
X14016501Y20327341D01*
X14028499D01*
X14039584Y20331932D01*
X14048068Y20340416D01*
X14052660Y20351501D01*
Y20363499D01*
X14048068Y20374583D01*
X14039584Y20383067D01*
X14037447Y20394951D01*
X14040160Y20401501D01*
Y20413499D01*
X14035568Y20424583D01*
X14027084Y20433067D01*
X14015999Y20437660D01*
D02*
G37*
G36*
X13515056Y20385706D02*
X13503058D01*
X13491972Y20381113D01*
X13483488Y20372629D01*
X13478897Y20361543D01*
Y20349545D01*
X13483488Y20338460D01*
X13491972Y20329976D01*
X13503058Y20325385D01*
X13515056D01*
X13526141Y20329976D01*
X13534625Y20338460D01*
X13539217Y20349545D01*
Y20361543D01*
X13534625Y20372629D01*
X13526141Y20381113D01*
X13515056Y20385706D01*
D02*
G37*
G36*
X15910999Y20367661D02*
X15899001D01*
X15887917Y20363068D01*
X15879433Y20354584D01*
X15874840Y20343500D01*
Y20331500D01*
X15879433Y20320416D01*
X15887917Y20311932D01*
X15899001Y20307339D01*
X15910999D01*
X15922084Y20311932D01*
X15930568Y20320416D01*
X15935159Y20331500D01*
Y20343500D01*
X15930568Y20354584D01*
X15922084Y20363068D01*
X15910999Y20367661D01*
D02*
G37*
G36*
X14808499Y20362660D02*
X14796501D01*
X14785416Y20358069D01*
X14776932Y20349583D01*
X14772340Y20338499D01*
Y20326501D01*
X14776932Y20315416D01*
X14785416Y20306932D01*
X14796501Y20302341D01*
X14808499D01*
X14819585Y20306932D01*
X14828069Y20315416D01*
X14832660Y20326501D01*
Y20338499D01*
X14828069Y20349583D01*
X14819585Y20358069D01*
X14808499Y20362660D01*
D02*
G37*
G36*
X15193500Y20360159D02*
X15181500D01*
X15170416Y20355568D01*
X15161932Y20347084D01*
X15157339Y20335999D01*
Y20324001D01*
X15161932Y20312917D01*
X15170416Y20304433D01*
X15181500Y20299840D01*
X15193500D01*
X15204584Y20304433D01*
X15213068Y20312917D01*
X15217661Y20324001D01*
Y20335999D01*
X15213068Y20347084D01*
X15204584Y20355568D01*
X15193500Y20360159D01*
D02*
G37*
G36*
X19025540Y20345288D02*
X19013541D01*
X19002457Y20340697D01*
X18993971Y20332213D01*
X18989380Y20321127D01*
Y20309129D01*
X18993971Y20298044D01*
X19002457Y20289560D01*
X19013541Y20284969D01*
X19025540D01*
X19036626Y20289560D01*
X19045110Y20298044D01*
X19049699Y20309129D01*
Y20321127D01*
X19045110Y20332213D01*
X19036626Y20340697D01*
X19025540Y20345288D01*
D02*
G37*
G36*
X16093500Y20382660D02*
X16081500D01*
X16070416Y20378069D01*
X16061932Y20369585D01*
X16057339Y20358499D01*
Y20346501D01*
X16061932Y20335416D01*
X16070416Y20326932D01*
X16071529Y20326471D01*
X16073438Y20314684D01*
X16069839Y20306000D01*
Y20294000D01*
X16074432Y20282916D01*
X16082916Y20274432D01*
X16094000Y20269839D01*
X16106000D01*
X16117084Y20274432D01*
X16125568Y20282916D01*
X16130161Y20294000D01*
Y20306000D01*
X16125568Y20317084D01*
X16117084Y20325568D01*
X16115971Y20326028D01*
X16114062Y20337817D01*
X16117661Y20346501D01*
Y20358499D01*
X16113068Y20369585D01*
X16104584Y20378069D01*
X16093500Y20382660D01*
D02*
G37*
G36*
X15606000Y20327660D02*
X15594000D01*
X15582916Y20323068D01*
X15574432Y20314584D01*
X15569839Y20303499D01*
Y20291501D01*
X15574432Y20280415D01*
X15582916Y20271931D01*
X15594000Y20267340D01*
X15606000D01*
X15617084Y20271931D01*
X15625568Y20280415D01*
X15630161Y20291501D01*
Y20303499D01*
X15625568Y20314584D01*
X15617084Y20323068D01*
X15606000Y20327660D01*
D02*
G37*
G36*
X15422853Y20274678D02*
X15410855D01*
X15399770Y20270087D01*
X15391286Y20261603D01*
X15386694Y20250517D01*
Y20238519D01*
X15391286Y20227434D01*
X15399770Y20218950D01*
X15410855Y20214359D01*
X15422853D01*
X15433939Y20218950D01*
X15442422Y20227434D01*
X15447014Y20238519D01*
Y20250517D01*
X15442422Y20261603D01*
X15433939Y20270087D01*
X15422853Y20274678D01*
D02*
G37*
G36*
X18858499Y20270160D02*
X18846501D01*
X18835416Y20265569D01*
X18826932Y20257085D01*
X18822340Y20245999D01*
Y20234001D01*
X18826932Y20222916D01*
X18835416Y20214432D01*
X18846501Y20209840D01*
X18858499D01*
X18869585Y20214432D01*
X18878069Y20222916D01*
X18882660Y20234001D01*
Y20245999D01*
X18878069Y20257085D01*
X18869585Y20265569D01*
X18858499Y20270160D01*
D02*
G37*
G36*
X14663499Y20262660D02*
X14651501D01*
X14640416Y20258067D01*
X14631932Y20249583D01*
X14627341Y20238499D01*
Y20226501D01*
X14631932Y20215416D01*
X14640416Y20206932D01*
X14651501Y20202341D01*
X14663499D01*
X14674583Y20206932D01*
X14683067Y20215416D01*
X14687660Y20226501D01*
Y20238499D01*
X14683067Y20249583D01*
X14674583Y20258067D01*
X14663499Y20262660D01*
D02*
G37*
G36*
X14550868Y20246487D02*
X14538870D01*
X14527785Y20241895D01*
X14519301Y20233411D01*
X14514709Y20222327D01*
Y20210329D01*
X14519301Y20199243D01*
X14527785Y20190758D01*
X14538870Y20186166D01*
X14550868D01*
X14561954Y20190758D01*
X14570438Y20199243D01*
X14575029Y20210329D01*
Y20222327D01*
X14570438Y20233411D01*
X14561954Y20241895D01*
X14550868Y20246487D01*
D02*
G37*
G36*
X12819991Y20252660D02*
X12805009D01*
X12791167Y20246925D01*
X12780573Y20236333D01*
X12774840Y20222491D01*
Y20207509D01*
X12780573Y20193668D01*
X12791167Y20183073D01*
X12805009Y20177341D01*
X12819991D01*
X12833833Y20183073D01*
X12844426Y20193668D01*
X12850160Y20207509D01*
Y20222491D01*
X12844426Y20236333D01*
X12833833Y20246925D01*
X12819991Y20252660D01*
D02*
G37*
G36*
X16103499Y20190160D02*
X16091501D01*
X16080415Y20185568D01*
X16071931Y20177084D01*
X16067340Y20165999D01*
Y20154001D01*
X16071931Y20142915D01*
X16080415Y20134431D01*
X16091501Y20129840D01*
X16103499D01*
X16114584Y20134431D01*
X16123068Y20142915D01*
X16127660Y20154001D01*
Y20165999D01*
X16123068Y20177084D01*
X16114584Y20185568D01*
X16103499Y20190160D01*
D02*
G37*
G36*
X17710999Y20190160D02*
X17699001D01*
X17687917Y20185568D01*
X17679433Y20177084D01*
X17674840Y20165999D01*
Y20154001D01*
X17679433Y20142915D01*
X17687917Y20134431D01*
X17699001Y20129840D01*
X17710999D01*
X17722084Y20134431D01*
X17730569Y20142915D01*
X17735159Y20154001D01*
Y20165999D01*
X17730569Y20177084D01*
X17722084Y20185568D01*
X17710999Y20190160D01*
D02*
G37*
G36*
X15823499Y20130161D02*
X15811501D01*
X15800417Y20125568D01*
X15791933Y20117084D01*
X15791750Y20116643D01*
X15780751D01*
X15780568Y20117084D01*
X15772084Y20125568D01*
X15760999Y20130161D01*
X15749001D01*
X15737917Y20125568D01*
X15729433Y20117084D01*
X15724840Y20106000D01*
Y20094000D01*
X15729433Y20082916D01*
X15737915Y20074432D01*
X15737106Y20063770D01*
X15735416Y20063068D01*
X15726932Y20054584D01*
X15725499Y20051125D01*
X15714500D01*
X15713068Y20054584D01*
X15704584Y20063068D01*
X15693500Y20067661D01*
X15681500D01*
X15670416Y20063068D01*
X15661932Y20054584D01*
X15657339Y20043500D01*
Y20031500D01*
X15661932Y20020416D01*
X15670416Y20011932D01*
X15681500Y20007339D01*
X15693500D01*
X15704584Y20011932D01*
X15713068Y20020416D01*
X15714500Y20023875D01*
X15725499D01*
X15726932Y20020416D01*
X15735416Y20011932D01*
X15746501Y20007339D01*
X15758499D01*
X15769585Y20011932D01*
X15778069Y20020416D01*
X15782660Y20031500D01*
Y20043500D01*
X15778069Y20054584D01*
X15769585Y20063068D01*
X15770393Y20073730D01*
X15772084Y20074432D01*
X15780568Y20082916D01*
X15780751Y20083357D01*
X15791750D01*
X15791933Y20082916D01*
X15800417Y20074432D01*
X15811501Y20069839D01*
X15823499D01*
X15834584Y20074432D01*
X15843068Y20082916D01*
X15847659Y20094000D01*
Y20106000D01*
X15843068Y20117084D01*
X15834584Y20125568D01*
X15823499Y20130161D01*
D02*
G37*
G36*
X19085999Y20170160D02*
X19074001D01*
X19062917Y20165569D01*
X19054433Y20157085D01*
X19049840Y20145999D01*
Y20134001D01*
X19054433Y20122916D01*
X19062917Y20114432D01*
X19074001Y20109840D01*
X19085999D01*
X19097084Y20114432D01*
X19105568Y20122916D01*
X19110159Y20134001D01*
Y20145999D01*
X19105568Y20157085D01*
X19097084Y20165569D01*
X19085999Y20170160D01*
D02*
G37*
G36*
X15175999Y20130161D02*
X15164001D01*
X15152916Y20125568D01*
X15144431Y20117084D01*
X15139841Y20106000D01*
Y20094000D01*
X15144431Y20082916D01*
X15152916Y20074432D01*
X15164001Y20069839D01*
X15175999D01*
X15187083Y20074432D01*
X15195567Y20082916D01*
X15200160Y20094000D01*
Y20106000D01*
X15195567Y20117084D01*
X15187083Y20125568D01*
X15175999Y20130161D01*
D02*
G37*
G36*
X15365999D02*
X15354001D01*
X15342915Y20125568D01*
X15334431Y20117084D01*
X15329840Y20106000D01*
Y20094000D01*
X15334431Y20082916D01*
X15342915Y20074432D01*
X15354001Y20069839D01*
X15365999D01*
X15377084Y20074432D01*
X15385568Y20082916D01*
X15388251Y20089394D01*
X15399249D01*
X15401932Y20082915D01*
X15410416Y20074431D01*
X15421501Y20069839D01*
X15433499D01*
X15444585Y20074431D01*
X15453069Y20082915D01*
X15457660Y20094000D01*
Y20106000D01*
X15453069Y20117084D01*
X15444585Y20125568D01*
X15433499Y20130161D01*
X15421501D01*
X15410416Y20125568D01*
X15401932Y20117084D01*
X15399249Y20110606D01*
X15388252D01*
X15385568Y20117084D01*
X15377084Y20125568D01*
X15365999Y20130161D01*
D02*
G37*
G36*
X15100999Y20122659D02*
X15089001D01*
X15077916Y20118068D01*
X15069432Y20109584D01*
X15064841Y20098499D01*
Y20086501D01*
X15069432Y20075417D01*
X15077916Y20066933D01*
X15089001Y20062340D01*
X15100999D01*
X15112083Y20066933D01*
X15120567Y20075417D01*
X15125160Y20086501D01*
Y20098499D01*
X15120567Y20109584D01*
X15112083Y20118068D01*
X15100999Y20122659D01*
D02*
G37*
G36*
X17711493Y20103436D02*
X17699495D01*
X17688409Y20098845D01*
X17679926Y20090361D01*
X17675334Y20079276D01*
Y20067278D01*
X17679926Y20056192D01*
X17688409Y20047708D01*
X17699495Y20043117D01*
X17711493D01*
X17722578Y20047708D01*
X17731062Y20056192D01*
X17735654Y20067278D01*
Y20079276D01*
X17731062Y20090361D01*
X17722578Y20098845D01*
X17711493Y20103436D01*
D02*
G37*
G36*
X12382007Y20104152D02*
X12367025D01*
X12353184Y20098419D01*
X12342590Y20087825D01*
X12336856Y20073982D01*
Y20059003D01*
X12342590Y20045160D01*
X12353184Y20034566D01*
X12367025Y20028833D01*
X12382007D01*
X12395849Y20034566D01*
X12406443Y20045160D01*
X12412176Y20059003D01*
Y20073982D01*
X12406443Y20087825D01*
X12395849Y20098419D01*
X12382007Y20104152D01*
D02*
G37*
G36*
X19103499Y20080161D02*
X19091501D01*
X19080415Y20075568D01*
X19071931Y20067084D01*
X19067340Y20056000D01*
Y20044000D01*
X19071931Y20032916D01*
X19080415Y20024432D01*
X19091501Y20019839D01*
X19103499D01*
X19114584Y20024432D01*
X19123068Y20032916D01*
X19127660Y20044000D01*
Y20056000D01*
X19123068Y20067084D01*
X19114584Y20075568D01*
X19103499Y20080161D01*
D02*
G37*
G36*
X14800999D02*
X14789001D01*
X14777916Y20075568D01*
X14769431Y20067084D01*
X14764841Y20056000D01*
Y20044000D01*
X14769431Y20032916D01*
X14777916Y20024432D01*
X14789001Y20019839D01*
X14800999D01*
X14812083Y20024432D01*
X14820567Y20032916D01*
X14825160Y20044000D01*
Y20056000D01*
X14820567Y20067084D01*
X14812083Y20075568D01*
X14800999Y20080161D01*
D02*
G37*
G36*
X15823499Y20000160D02*
X15811501D01*
X15800417Y19995567D01*
X15791933Y19987083D01*
X15787340Y19975999D01*
Y19964001D01*
X15791933Y19952916D01*
X15800417Y19944432D01*
X15811501Y19939841D01*
X15823499D01*
X15834584Y19944432D01*
X15843068Y19952916D01*
X15847659Y19964001D01*
Y19975999D01*
X15843068Y19987083D01*
X15834584Y19995567D01*
X15823499Y20000160D01*
D02*
G37*
G36*
X11772491Y20012660D02*
X11757509D01*
X11743667Y20006926D01*
X11733074Y19996333D01*
X11727340Y19982491D01*
Y19967509D01*
X11733074Y19953667D01*
X11743667Y19943073D01*
X11757509Y19937340D01*
X11772491D01*
X11786333Y19943073D01*
X11796927Y19953667D01*
X11802660Y19967509D01*
Y19982491D01*
X11796927Y19996333D01*
X11786333Y20006926D01*
X11772491Y20012660D01*
D02*
G37*
G36*
X11134991Y20010159D02*
X11120009D01*
X11106167Y20004427D01*
X11095573Y19993832D01*
X11089840Y19979991D01*
Y19965009D01*
X11095573Y19951167D01*
X11106167Y19940575D01*
X11120009Y19934840D01*
X11134991D01*
X11148833Y19940575D01*
X11159426Y19951167D01*
X11165160Y19965009D01*
Y19979991D01*
X11159426Y19993832D01*
X11148833Y20004427D01*
X11134991Y20010159D01*
D02*
G37*
G36*
X15628499Y19992659D02*
X15616501D01*
X15605415Y19988068D01*
X15596931Y19979584D01*
X15592340Y19968500D01*
Y19956500D01*
X15596931Y19945415D01*
X15605415Y19936931D01*
X15616501Y19932339D01*
X15628499D01*
X15639584Y19936931D01*
X15648068Y19945415D01*
X15652660Y19956500D01*
Y19968500D01*
X15648068Y19979584D01*
X15639584Y19988068D01*
X15628499Y19992659D01*
D02*
G37*
G36*
X16393500Y19940160D02*
X16381500D01*
X16370416Y19935568D01*
X16361932Y19927084D01*
X16353363Y19931790D01*
X16352084Y19933067D01*
X16340999Y19937660D01*
X16329001D01*
X16317915Y19933067D01*
X16309431Y19924583D01*
X16304840Y19913499D01*
Y19901501D01*
X16309431Y19890416D01*
X16317915Y19881932D01*
X16329001Y19877341D01*
X16340999D01*
X16352084Y19881932D01*
X16360568Y19890414D01*
X16369138Y19885710D01*
X16370416Y19884431D01*
X16381500Y19879840D01*
X16393500D01*
X16404584Y19884431D01*
X16413069Y19892915D01*
X16417661Y19904001D01*
Y19915999D01*
X16413069Y19927084D01*
X16404584Y19935568D01*
X16393500Y19940160D01*
D02*
G37*
G36*
X15383499Y19972659D02*
X15371501D01*
X15360416Y19968068D01*
X15351932Y19959584D01*
X15347340Y19948499D01*
Y19936501D01*
X15351932Y19925415D01*
X15360416Y19916931D01*
X15371501Y19912338D01*
X15383499D01*
X15394585Y19916931D01*
X15403069Y19925415D01*
X15407660Y19936501D01*
Y19948499D01*
X15403069Y19959584D01*
X15394585Y19968068D01*
X15383499Y19972659D01*
D02*
G37*
G36*
X14503499Y20002660D02*
X14491501D01*
X14480415Y19998068D01*
X14471931Y19989584D01*
X14467340Y19978499D01*
Y19966501D01*
X14471931Y19955415D01*
X14478906Y19948441D01*
X14479771Y19942500D01*
X14478906Y19936559D01*
X14471931Y19929584D01*
X14467340Y19918500D01*
Y19906500D01*
X14471931Y19895416D01*
X14480415Y19886932D01*
X14491501Y19882339D01*
X14503499D01*
X14514584Y19886932D01*
X14523068Y19895416D01*
X14527660Y19906500D01*
Y19918500D01*
X14523068Y19929584D01*
X14516093Y19936559D01*
X14515228Y19942500D01*
X14516093Y19948441D01*
X14523068Y19955415D01*
X14527660Y19966501D01*
Y19978499D01*
X14523068Y19989584D01*
X14514584Y19998068D01*
X14503499Y20002660D01*
D02*
G37*
G36*
X16190112Y19933707D02*
X16178113D01*
X16167027Y19929115D01*
X16158543Y19920631D01*
X16153954Y19909547D01*
Y19897548D01*
X16158543Y19886462D01*
X16167027Y19877979D01*
X16178113Y19873387D01*
X16190112D01*
X16201196Y19877979D01*
X16209682Y19886462D01*
X16214273Y19897548D01*
Y19909547D01*
X16209682Y19920631D01*
X16201196Y19929115D01*
X16190112Y19933707D01*
D02*
G37*
G36*
X12134991Y19937660D02*
X12120009D01*
X12106167Y19931927D01*
X12095573Y19921333D01*
X12089840Y19907491D01*
Y19892509D01*
X12095573Y19878667D01*
X12106167Y19868074D01*
X12120009Y19862340D01*
X12134991D01*
X12148833Y19868074D01*
X12159427Y19878667D01*
X12165160Y19892509D01*
Y19907491D01*
X12159427Y19921333D01*
X12148833Y19931927D01*
X12134991Y19937660D01*
D02*
G37*
G36*
X12039991D02*
X12025009D01*
X12011167Y19931927D01*
X12000573Y19921333D01*
X11994840Y19907491D01*
Y19892509D01*
X12000573Y19878667D01*
X12011167Y19868074D01*
X12025009Y19862340D01*
X12039991D01*
X12053833Y19868074D01*
X12064426Y19878667D01*
X12070160Y19892509D01*
Y19907491D01*
X12064426Y19921333D01*
X12053833Y19931927D01*
X12039991Y19937660D01*
D02*
G37*
G36*
X11772491Y19917661D02*
X11757509D01*
X11743667Y19911926D01*
X11733074Y19901334D01*
X11727340Y19887491D01*
Y19872508D01*
X11733074Y19858667D01*
X11743667Y19848073D01*
X11757509Y19842340D01*
X11772491D01*
X11786333Y19848073D01*
X11796927Y19858667D01*
X11802660Y19872508D01*
Y19887491D01*
X11796927Y19901334D01*
X11786333Y19911926D01*
X11772491Y19917661D01*
D02*
G37*
G36*
X15040285Y19901904D02*
X15028287D01*
X15017201Y19897314D01*
X15008717Y19888829D01*
X15004126Y19877744D01*
Y19865746D01*
X15008717Y19854662D01*
X15017201Y19846178D01*
X15028287Y19841585D01*
X15040285D01*
X15051370Y19846178D01*
X15059854Y19854662D01*
X15064445Y19865746D01*
Y19877744D01*
X15059854Y19888829D01*
X15051370Y19897314D01*
X15040285Y19901904D01*
D02*
G37*
G36*
X11134991Y19915160D02*
X11120009D01*
X11106167Y19909427D01*
X11095573Y19898833D01*
X11089840Y19884991D01*
Y19870009D01*
X11095573Y19856168D01*
X11106167Y19845573D01*
X11120009Y19839841D01*
X11134991D01*
X11148833Y19845573D01*
X11159426Y19856168D01*
X11165160Y19870009D01*
Y19884991D01*
X11159426Y19898833D01*
X11148833Y19909427D01*
X11134991Y19915160D01*
D02*
G37*
G36*
X16456000Y19895160D02*
X16444000D01*
X16432916Y19890569D01*
X16424432Y19882085D01*
X16419839Y19870999D01*
Y19859001D01*
X16424432Y19847916D01*
X16432916Y19839432D01*
X16444000Y19834840D01*
X16456000D01*
X16467084Y19839432D01*
X16475569Y19847916D01*
X16480161Y19859001D01*
Y19870999D01*
X16475569Y19882085D01*
X16467084Y19890569D01*
X16456000Y19895160D01*
D02*
G37*
G36*
X11027974Y19922659D02*
X11007025D01*
X10987670Y19914642D01*
X10972857Y19899831D01*
X10964840Y19880475D01*
Y19859525D01*
X10972857Y19840170D01*
X10987670Y19825357D01*
X11007025Y19817340D01*
X11027974D01*
X11047329Y19825357D01*
X11062143Y19840170D01*
X11070160Y19859525D01*
Y19880475D01*
X11062143Y19899831D01*
X11047329Y19914642D01*
X11027974Y19922659D01*
D02*
G37*
G36*
X15238499Y20067661D02*
X15226501D01*
X15215416Y20063068D01*
X15206932Y20054584D01*
X15202341Y20043500D01*
Y20031500D01*
X15206932Y20020416D01*
X15215416Y20011932D01*
X15221893Y20009248D01*
Y19998251D01*
X15215416Y19995567D01*
X15206932Y19987083D01*
X15202341Y19975999D01*
Y19964001D01*
X15206932Y19952916D01*
X15215416Y19944432D01*
X15215858Y19944249D01*
Y19933250D01*
X15215416Y19933067D01*
X15206932Y19924583D01*
X15202341Y19913499D01*
Y19901501D01*
X15206932Y19890416D01*
X15215416Y19881932D01*
X15221893Y19879250D01*
Y19868251D01*
X15215416Y19865569D01*
X15206932Y19857085D01*
X15202341Y19845999D01*
Y19834001D01*
X15206932Y19822916D01*
X15215416Y19814432D01*
X15226501Y19809840D01*
X15238499D01*
X15249583Y19814432D01*
X15258069Y19822916D01*
X15262660Y19834001D01*
Y19845999D01*
X15258069Y19857085D01*
X15249583Y19865569D01*
X15243108Y19868251D01*
Y19879250D01*
X15249583Y19881932D01*
X15258069Y19890416D01*
X15262660Y19901501D01*
Y19913499D01*
X15258069Y19924583D01*
X15249583Y19933067D01*
X15249142Y19933250D01*
Y19944249D01*
X15249583Y19944432D01*
X15258069Y19952916D01*
X15262660Y19964001D01*
Y19975999D01*
X15258069Y19987083D01*
X15249583Y19995567D01*
X15243108Y19998251D01*
Y20009248D01*
X15249583Y20011932D01*
X15258069Y20020416D01*
X15262660Y20031500D01*
Y20043500D01*
X15258069Y20054584D01*
X15249583Y20063068D01*
X15238499Y20067661D01*
D02*
G37*
G36*
X15953499Y20000160D02*
X15941501D01*
X15930415Y19995567D01*
X15921931Y19987083D01*
X15917340Y19975999D01*
Y19964001D01*
X15921931Y19952916D01*
X15930415Y19944432D01*
X15936893Y19941750D01*
Y19930751D01*
X15930415Y19928069D01*
X15921931Y19919585D01*
X15917340Y19908499D01*
Y19896501D01*
X15921931Y19885416D01*
X15928906Y19878441D01*
X15929771Y19872501D01*
X15928906Y19866559D01*
X15921931Y19859584D01*
X15917340Y19848499D01*
Y19836501D01*
X15921931Y19825417D01*
X15930415Y19816931D01*
X15933875Y19815498D01*
Y19804501D01*
X15930415Y19803069D01*
X15921931Y19794585D01*
X15920499Y19791125D01*
X15909502D01*
X15908069Y19794585D01*
X15899583Y19803069D01*
X15888499Y19807660D01*
X15876501D01*
X15865416Y19803069D01*
X15856932Y19794585D01*
X15852341Y19783499D01*
Y19771501D01*
X15856932Y19760416D01*
X15865416Y19751932D01*
X15876501Y19747340D01*
X15888499D01*
X15899583Y19751932D01*
X15908069Y19760416D01*
X15909502Y19763875D01*
X15920499D01*
X15921931Y19760416D01*
X15930415Y19751932D01*
X15941501Y19747340D01*
X15953499D01*
X15964584Y19751932D01*
X15973068Y19760416D01*
X15977660Y19771501D01*
Y19783499D01*
X15973068Y19794585D01*
X15964584Y19803069D01*
X15961125Y19804501D01*
Y19815498D01*
X15964584Y19816931D01*
X15973068Y19825417D01*
X15977660Y19836501D01*
Y19848499D01*
X15973068Y19859584D01*
X15966093Y19866559D01*
X15965228Y19872501D01*
X15966093Y19878441D01*
X15973068Y19885416D01*
X15977660Y19896501D01*
Y19908499D01*
X15973068Y19919585D01*
X15964584Y19928069D01*
X15958107Y19930751D01*
Y19941750D01*
X15964584Y19944432D01*
X15973068Y19952916D01*
X15977660Y19964001D01*
Y19975999D01*
X15973068Y19987083D01*
X15964584Y19995567D01*
X15953499Y20000160D01*
D02*
G37*
G36*
X19030540Y19840288D02*
X19018541D01*
X19007455Y19835696D01*
X18998972Y19827213D01*
X18994380Y19816129D01*
Y19804129D01*
X18998972Y19793044D01*
X19007455Y19784560D01*
X19018541Y19779968D01*
X19030540D01*
X19041624Y19784560D01*
X19050108Y19793044D01*
X19054700Y19804129D01*
Y19816129D01*
X19050108Y19827213D01*
X19041624Y19835696D01*
X19030540Y19840288D01*
D02*
G37*
G36*
X16260999Y19835159D02*
X16249001D01*
X16237917Y19830568D01*
X16229433Y19822084D01*
X16224840Y19810999D01*
Y19799001D01*
X16229433Y19787917D01*
X16237917Y19779433D01*
X16249001Y19774840D01*
X16260999D01*
X16272084Y19779433D01*
X16280568Y19787917D01*
X16285159Y19799001D01*
Y19810999D01*
X16280568Y19822084D01*
X16272084Y19830568D01*
X16260999Y19835159D01*
D02*
G37*
G36*
X15806000Y19807660D02*
X15794000D01*
X15782916Y19803069D01*
X15774432Y19794585D01*
X15769839Y19783499D01*
Y19771501D01*
X15774432Y19760416D01*
X15782916Y19751932D01*
X15794000Y19747340D01*
X15806000D01*
X15817084Y19751932D01*
X15825569Y19760416D01*
X15830161Y19771501D01*
Y19783499D01*
X15825569Y19794585D01*
X15817084Y19803069D01*
X15806000Y19807660D01*
D02*
G37*
G36*
X13273499Y19802660D02*
X13261501D01*
X13250417Y19798068D01*
X13241933Y19789584D01*
X13237340Y19778499D01*
Y19766501D01*
X13241933Y19755415D01*
X13250417Y19746931D01*
X13261501Y19742340D01*
X13273499D01*
X13284584Y19746931D01*
X13293068Y19755415D01*
X13297659Y19766501D01*
Y19778499D01*
X13293068Y19789584D01*
X13284584Y19798068D01*
X13273499Y19802660D01*
D02*
G37*
G36*
X14506000Y19837660D02*
X14494000D01*
X14482916Y19833067D01*
X14474432Y19824583D01*
X14469839Y19813499D01*
Y19801501D01*
X14474432Y19790416D01*
X14479639Y19785208D01*
X14481834Y19778751D01*
X14479639Y19772292D01*
X14474432Y19767084D01*
X14469839Y19756000D01*
Y19744000D01*
X14474432Y19732916D01*
X14482916Y19724432D01*
X14494000Y19719839D01*
X14506000D01*
X14517084Y19724432D01*
X14525568Y19732916D01*
X14530161Y19744000D01*
Y19756000D01*
X14525568Y19767084D01*
X14520361Y19772292D01*
X14518166Y19778751D01*
X14520361Y19785208D01*
X14525568Y19790416D01*
X14530161Y19801501D01*
Y19813499D01*
X14525568Y19824583D01*
X14517084Y19833067D01*
X14506000Y19837660D01*
D02*
G37*
G36*
X18856000Y19845160D02*
X18844000D01*
X18832916Y19840569D01*
X18824432Y19832085D01*
X18819839Y19820999D01*
Y19809001D01*
X18824432Y19797916D01*
X18832916Y19789432D01*
X18836375Y19787999D01*
Y19777000D01*
X18832916Y19775568D01*
X18824432Y19767084D01*
X18819839Y19756000D01*
Y19744000D01*
X18824432Y19732916D01*
X18832916Y19724431D01*
X18844000Y19719839D01*
X18856000D01*
X18867084Y19724431D01*
X18875569Y19732916D01*
X18880161Y19744000D01*
Y19756000D01*
X18875569Y19767084D01*
X18867084Y19775568D01*
X18863625Y19777000D01*
Y19787999D01*
X18867084Y19789432D01*
X18875569Y19797916D01*
X18880161Y19809001D01*
Y19820999D01*
X18875569Y19832085D01*
X18867084Y19840569D01*
X18856000Y19845160D01*
D02*
G37*
G36*
X16140999Y19740160D02*
X16129001D01*
X16117915Y19735568D01*
X16109431Y19727084D01*
X16104840Y19715999D01*
Y19704001D01*
X16109431Y19692915D01*
X16117915Y19684431D01*
X16129001Y19679840D01*
X16140999D01*
X16152084Y19684431D01*
X16160568Y19692915D01*
X16165160Y19704001D01*
Y19715999D01*
X16160568Y19727084D01*
X16152084Y19735568D01*
X16140999Y19740160D01*
D02*
G37*
G36*
X15370999D02*
X15359001D01*
X15347916Y19735568D01*
X15339432Y19727084D01*
X15334840Y19715999D01*
Y19704001D01*
X15339432Y19692915D01*
X15347916Y19684431D01*
X15359001Y19679840D01*
X15370999D01*
X15382085Y19684431D01*
X15390569Y19692915D01*
X15395160Y19704001D01*
Y19715999D01*
X15390569Y19727084D01*
X15382085Y19735568D01*
X15370999Y19740160D01*
D02*
G37*
G36*
X16228499Y19707660D02*
X16216501D01*
X16205415Y19703069D01*
X16196931Y19694585D01*
X16192340Y19683499D01*
Y19671501D01*
X16196931Y19660416D01*
X16205415Y19651932D01*
X16216501Y19647340D01*
X16228499D01*
X16239584Y19651932D01*
X16248068Y19660416D01*
X16252660Y19671501D01*
Y19683499D01*
X16248068Y19694585D01*
X16239584Y19703069D01*
X16228499Y19707660D01*
D02*
G37*
G36*
X12185535Y19720743D02*
X12170553D01*
X12156711Y19715010D01*
X12146117Y19704416D01*
X12140384Y19690575D01*
Y19675592D01*
X12146117Y19661751D01*
X12156711Y19651157D01*
X12170553Y19645422D01*
X12185535D01*
X12199376Y19651157D01*
X12209970Y19661751D01*
X12215704Y19675592D01*
Y19690575D01*
X12209970Y19704416D01*
X12199376Y19715010D01*
X12185535Y19720743D01*
D02*
G37*
G36*
X19033038Y19695290D02*
X19021040D01*
X19009956Y19690697D01*
X19001472Y19682213D01*
X18996880Y19671127D01*
Y19659129D01*
X19001472Y19648044D01*
X19009956Y19639560D01*
X19021040Y19634969D01*
X19033038D01*
X19044124Y19639560D01*
X19052609Y19648044D01*
X19057201Y19659129D01*
Y19671127D01*
X19052609Y19682213D01*
X19044124Y19690697D01*
X19033038Y19695290D01*
D02*
G37*
G36*
X14513499Y19622659D02*
X14501501D01*
X14490416Y19618068D01*
X14481932Y19609584D01*
X14481749Y19609143D01*
X14470750D01*
X14470567Y19609584D01*
X14462083Y19618068D01*
X14450999Y19622659D01*
X14439001D01*
X14427916Y19618068D01*
X14419432Y19609584D01*
X14414841Y19598499D01*
Y19586501D01*
X14419432Y19575417D01*
X14427916Y19566933D01*
X14439001Y19562340D01*
X14450999D01*
X14462083Y19566933D01*
X14470567Y19575417D01*
X14470750Y19575858D01*
X14481749D01*
X14481932Y19575417D01*
X14490416Y19566933D01*
X14501501Y19562340D01*
X14513499D01*
X14524583Y19566933D01*
X14533067Y19575417D01*
X14537660Y19586501D01*
Y19598499D01*
X14533067Y19609584D01*
X14524583Y19618068D01*
X14513499Y19622659D01*
D02*
G37*
G36*
X16148499Y19657660D02*
X16136501D01*
X16125417Y19653069D01*
X16116933Y19644585D01*
X16112340Y19633499D01*
Y19621501D01*
X16116933Y19610416D01*
X16125417Y19601932D01*
X16136501Y19597340D01*
X16148499D01*
X16153334Y19599342D01*
X16161110Y19591566D01*
X16159840Y19588499D01*
Y19576501D01*
X16164432Y19565416D01*
X16172916Y19556932D01*
X16184001Y19552341D01*
X16195999D01*
X16207085Y19556932D01*
X16215569Y19565416D01*
X16220160Y19576501D01*
Y19588499D01*
X16215569Y19599583D01*
X16207085Y19608067D01*
X16195999Y19612660D01*
X16184001D01*
X16179166Y19610658D01*
X16171390Y19618434D01*
X16172659Y19621501D01*
Y19633499D01*
X16168069Y19644585D01*
X16159584Y19653069D01*
X16148499Y19657660D01*
D02*
G37*
G36*
X18253499Y19602660D02*
X18241501D01*
X18230415Y19598068D01*
X18221931Y19589584D01*
X18217340Y19578499D01*
Y19566501D01*
X18221931Y19555415D01*
X18230415Y19546931D01*
X18241501Y19542340D01*
X18253499D01*
X18264584Y19546931D01*
X18273068Y19555415D01*
X18277660Y19566501D01*
Y19578499D01*
X18273068Y19589584D01*
X18264584Y19598068D01*
X18253499Y19602660D01*
D02*
G37*
G36*
X13448499Y19942661D02*
X13436501D01*
X13425417Y19938068D01*
X13416933Y19929584D01*
X13412340Y19918500D01*
Y19906500D01*
X13416933Y19895416D01*
X13419640Y19892708D01*
X13422726Y19883626D01*
X13419460Y19879613D01*
X13414432Y19874583D01*
X13409840Y19863499D01*
Y19851501D01*
X13414432Y19840416D01*
X13422916Y19831932D01*
X13422108Y19821269D01*
X13420416Y19820567D01*
X13411932Y19812083D01*
X13407339Y19800999D01*
Y19789001D01*
X13411932Y19777916D01*
X13420416Y19769432D01*
X13429393Y19765714D01*
X13430730Y19758015D01*
X13430403Y19755135D01*
X13425417Y19753069D01*
X13416933Y19744585D01*
X13412340Y19733499D01*
Y19721501D01*
X13416933Y19710416D01*
X13424210Y19703137D01*
X13424306Y19696465D01*
X13423357Y19691788D01*
X13420416Y19690569D01*
X13411932Y19682085D01*
X13407339Y19670999D01*
Y19659001D01*
X13411932Y19647916D01*
X13418210Y19641637D01*
X13420207Y19638000D01*
X13418907Y19629059D01*
X13414432Y19624583D01*
X13409840Y19613499D01*
Y19601501D01*
X13414432Y19590416D01*
X13419460Y19585388D01*
X13422726Y19581374D01*
X13419640Y19572292D01*
X13416933Y19569585D01*
X13412340Y19558499D01*
Y19546501D01*
X13416933Y19535416D01*
X13425417Y19526932D01*
X13436501Y19522340D01*
X13448499D01*
X13459584Y19526932D01*
X13468068Y19535416D01*
X13472659Y19546501D01*
Y19558499D01*
X13468068Y19569585D01*
X13463040Y19574612D01*
X13459773Y19578625D01*
X13462862Y19587708D01*
X13465569Y19590416D01*
X13470160Y19601501D01*
Y19613499D01*
X13465569Y19624583D01*
X13459290Y19630862D01*
X13457294Y19634500D01*
X13458594Y19643440D01*
X13463068Y19647916D01*
X13467661Y19659001D01*
Y19670999D01*
X13463068Y19682085D01*
X13455791Y19689363D01*
X13455693Y19696036D01*
X13456642Y19700713D01*
X13459584Y19701932D01*
X13468068Y19710416D01*
X13472659Y19721501D01*
Y19733499D01*
X13468068Y19744585D01*
X13459584Y19753069D01*
X13450607Y19756787D01*
X13449271Y19764485D01*
X13449596Y19767366D01*
X13454584Y19769432D01*
X13463068Y19777916D01*
X13467661Y19789001D01*
Y19800999D01*
X13463068Y19812083D01*
X13454584Y19820567D01*
X13455392Y19831232D01*
X13457085Y19831932D01*
X13465569Y19840416D01*
X13470160Y19851501D01*
Y19863499D01*
X13465569Y19874583D01*
X13462862Y19877292D01*
X13459773Y19886372D01*
X13463040Y19890387D01*
X13468068Y19895416D01*
X13472659Y19906500D01*
Y19918500D01*
X13468068Y19929584D01*
X13459584Y19938068D01*
X13448499Y19942661D01*
D02*
G37*
G36*
X15698499Y19575160D02*
X15686501D01*
X15675417Y19570567D01*
X15666933Y19562083D01*
X15662340Y19550999D01*
Y19539001D01*
X15666933Y19527916D01*
X15675417Y19519432D01*
X15686501Y19514841D01*
X15698499D01*
X15709584Y19519432D01*
X15718068Y19527916D01*
X15722659Y19539001D01*
Y19550999D01*
X15718068Y19562083D01*
X15709584Y19570567D01*
X15698499Y19575160D01*
D02*
G37*
G36*
X15815999Y19617661D02*
X15804001D01*
X15792915Y19613068D01*
X15784431Y19604584D01*
X15779840Y19593500D01*
Y19581500D01*
X15784431Y19570416D01*
X15785231Y19569617D01*
X15783913Y19556566D01*
X15779431Y19552084D01*
X15774840Y19540999D01*
Y19529001D01*
X15779431Y19517915D01*
X15787917Y19509431D01*
X15799001Y19504840D01*
X15810999D01*
X15822084Y19509431D01*
X15830568Y19517915D01*
X15835159Y19529001D01*
Y19540999D01*
X15830568Y19552084D01*
X15829768Y19552884D01*
X15831087Y19565935D01*
X15835568Y19570416D01*
X15840160Y19581500D01*
Y19593500D01*
X15835568Y19604584D01*
X15827084Y19613068D01*
X15815999Y19617661D01*
D02*
G37*
G36*
X18168500Y19557660D02*
X18156500D01*
X18145416Y19553069D01*
X18136932Y19544585D01*
X18132339Y19533499D01*
Y19521501D01*
X18136932Y19510416D01*
X18145416Y19501932D01*
X18156500Y19497340D01*
X18168500D01*
X18179584Y19501932D01*
X18188069Y19510416D01*
X18192661Y19521501D01*
Y19533499D01*
X18188069Y19544585D01*
X18179584Y19553069D01*
X18168500Y19557660D01*
D02*
G37*
G36*
X14883499D02*
X14871501D01*
X14860416Y19553069D01*
X14851932Y19544585D01*
X14847340Y19533499D01*
Y19521501D01*
X14851932Y19510416D01*
X14860416Y19501932D01*
X14871501Y19497340D01*
X14883499D01*
X14894585Y19501932D01*
X14903069Y19510416D01*
X14907660Y19521501D01*
Y19533499D01*
X14903069Y19544585D01*
X14894585Y19553069D01*
X14883499Y19557660D01*
D02*
G37*
G36*
X11166109Y19572496D02*
X11151127D01*
X11137285Y19566762D01*
X11126691Y19556169D01*
X11120958Y19542326D01*
Y19527345D01*
X11126691Y19513503D01*
X11137285Y19502908D01*
X11151127Y19497176D01*
X11166109D01*
X11179951Y19502908D01*
X11190545Y19513503D01*
X11196278Y19527345D01*
Y19542326D01*
X11190545Y19556169D01*
X11179951Y19566762D01*
X11166109Y19572496D01*
D02*
G37*
G36*
X15368500Y19610159D02*
X15356500D01*
X15345416Y19605568D01*
X15336932Y19597084D01*
X15332339Y19585999D01*
Y19574001D01*
X15336932Y19562915D01*
X15344209Y19555637D01*
X15344305Y19548962D01*
X15343356Y19544287D01*
X15340416Y19543068D01*
X15331931Y19534584D01*
X15327341Y19523499D01*
Y19511501D01*
X15331931Y19500417D01*
X15340416Y19491933D01*
X15351501Y19487340D01*
X15363499D01*
X15374583Y19491933D01*
X15383067Y19500417D01*
X15387660Y19511501D01*
Y19523499D01*
X15383067Y19534584D01*
X15375790Y19541862D01*
X15375694Y19548537D01*
X15376643Y19553214D01*
X15379584Y19554431D01*
X15388069Y19562915D01*
X15392661Y19574001D01*
Y19585999D01*
X15388069Y19597084D01*
X15379584Y19605568D01*
X15368500Y19610159D01*
D02*
G37*
G36*
X15235999Y19740160D02*
X15224001D01*
X15212917Y19735568D01*
X15204433Y19727084D01*
X15199840Y19715999D01*
Y19704001D01*
X15204433Y19692915D01*
X15212917Y19684431D01*
X15216376Y19682999D01*
Y19672002D01*
X15212917Y19670567D01*
X15204433Y19662083D01*
X15199840Y19650999D01*
Y19639001D01*
X15204433Y19627916D01*
X15212917Y19619431D01*
X15216376Y19617999D01*
Y19607001D01*
X15212917Y19605568D01*
X15204433Y19597084D01*
X15199840Y19585999D01*
Y19574001D01*
X15204433Y19562917D01*
X15212917Y19554433D01*
X15214607Y19553731D01*
X15215416Y19543068D01*
X15206932Y19534584D01*
X15202341Y19523499D01*
Y19511501D01*
X15206932Y19500417D01*
X15215416Y19491933D01*
X15226501Y19487340D01*
X15238499D01*
X15249583Y19491933D01*
X15258069Y19500417D01*
X15262660Y19511501D01*
Y19523499D01*
X15258069Y19534584D01*
X15249583Y19543068D01*
X15247893Y19543768D01*
X15247086Y19554433D01*
X15255568Y19562917D01*
X15260159Y19574001D01*
Y19585999D01*
X15255568Y19597084D01*
X15247084Y19605568D01*
X15243625Y19607001D01*
Y19617999D01*
X15247084Y19619431D01*
X15255568Y19627916D01*
X15260159Y19639001D01*
Y19650999D01*
X15255568Y19662083D01*
X15247084Y19670567D01*
X15243625Y19672002D01*
Y19682999D01*
X15247084Y19684431D01*
X15255568Y19692915D01*
X15260159Y19704001D01*
Y19715999D01*
X15255568Y19727084D01*
X15247084Y19735568D01*
X15235999Y19740160D01*
D02*
G37*
G36*
X15560999Y19547659D02*
X15549001D01*
X15537917Y19543068D01*
X15529433Y19534584D01*
X15524840Y19523499D01*
Y19511501D01*
X15529433Y19500415D01*
X15537917Y19491931D01*
X15545644Y19488731D01*
X15546173Y19477953D01*
X15540416Y19475568D01*
X15531932Y19467084D01*
X15531749Y19466643D01*
X15520750D01*
X15520567Y19467084D01*
X15512083Y19475568D01*
X15500999Y19480161D01*
X15489001D01*
X15477916Y19475568D01*
X15469432Y19467084D01*
X15464841Y19456000D01*
Y19444000D01*
X15469432Y19432916D01*
X15477916Y19424432D01*
X15489001Y19419839D01*
X15500999D01*
X15512083Y19424432D01*
X15520567Y19432916D01*
X15520750Y19433357D01*
X15531749D01*
X15531932Y19432916D01*
X15540416Y19424432D01*
X15545125Y19422481D01*
Y19411482D01*
X15542915Y19410568D01*
X15534431Y19402084D01*
X15529840Y19390999D01*
Y19379001D01*
X15534431Y19367915D01*
X15542915Y19359431D01*
X15554001Y19354840D01*
X15565999D01*
X15577084Y19359431D01*
X15584061Y19366406D01*
X15589999Y19367271D01*
X15595941Y19366406D01*
X15602916Y19359431D01*
X15614001Y19354840D01*
X15625999D01*
X15637083Y19359431D01*
X15645567Y19367915D01*
X15650160Y19379001D01*
Y19390999D01*
X15645567Y19402084D01*
X15637083Y19410568D01*
X15633624Y19412001D01*
Y19422998D01*
X15637083Y19424432D01*
X15645567Y19432916D01*
X15648251Y19439394D01*
X15659248D01*
X15661932Y19432916D01*
X15670416Y19424432D01*
X15681500Y19419839D01*
X15693500D01*
X15704584Y19424432D01*
X15713068Y19432916D01*
X15717661Y19444000D01*
Y19456000D01*
X15713068Y19467084D01*
X15704584Y19475568D01*
X15693500Y19480161D01*
X15681500D01*
X15670416Y19475568D01*
X15661932Y19467084D01*
X15659248Y19460606D01*
X15648251D01*
X15645567Y19467084D01*
X15637083Y19475568D01*
X15625999Y19480161D01*
X15614001D01*
X15602916Y19475568D01*
X15594432Y19467084D01*
X15594249Y19466643D01*
X15583250D01*
X15583067Y19467084D01*
X15574583Y19475568D01*
X15566856Y19478769D01*
X15566327Y19489546D01*
X15572084Y19491931D01*
X15580569Y19500415D01*
X15585159Y19511501D01*
Y19523499D01*
X15580569Y19534584D01*
X15572084Y19543068D01*
X15560999Y19547659D01*
D02*
G37*
G36*
X10890488Y19790160D02*
X10874511D01*
X10859751Y19784045D01*
X10848454Y19772749D01*
X10842340Y19757988D01*
Y19742012D01*
X10848454Y19727251D01*
X10859751Y19715955D01*
X10861861Y19715080D01*
Y19704919D01*
X10859751Y19704047D01*
X10848454Y19692749D01*
X10842340Y19677988D01*
Y19662012D01*
X10848454Y19647250D01*
X10859751Y19635954D01*
X10861861Y19635080D01*
Y19624921D01*
X10859751Y19624046D01*
X10848454Y19612749D01*
X10842340Y19597987D01*
Y19582011D01*
X10848454Y19567252D01*
X10859751Y19555954D01*
X10874511Y19549840D01*
X10890488D01*
X10902180Y19554683D01*
X10910397Y19550710D01*
X10912340Y19548730D01*
Y19542012D01*
X10918454Y19527251D01*
X10929751Y19515955D01*
X10931861Y19515080D01*
Y19504919D01*
X10929751Y19504047D01*
X10918454Y19492749D01*
X10912340Y19477988D01*
Y19471269D01*
X10910397Y19469290D01*
X10902180Y19465317D01*
X10890488Y19470160D01*
X10874511D01*
X10859751Y19464046D01*
X10848454Y19452750D01*
X10842340Y19437988D01*
Y19422012D01*
X10848454Y19407251D01*
X10859751Y19395953D01*
X10861860Y19395081D01*
Y19384920D01*
X10859751Y19384045D01*
X10848454Y19372749D01*
X10842340Y19357988D01*
Y19342012D01*
X10848454Y19327251D01*
X10859751Y19315955D01*
X10861861Y19315080D01*
Y19304919D01*
X10859751Y19304047D01*
X10848454Y19292749D01*
X10842340Y19277988D01*
Y19262012D01*
X10848454Y19247250D01*
X10859751Y19235954D01*
X10874511Y19229840D01*
X10890488D01*
X10905248Y19235954D01*
X10916546Y19247250D01*
X10922660Y19262012D01*
Y19277988D01*
X10916546Y19292749D01*
X10905248Y19304047D01*
X10903139Y19304919D01*
Y19315080D01*
X10905248Y19315955D01*
X10916546Y19327251D01*
X10922660Y19342012D01*
Y19348730D01*
X10924602Y19350710D01*
X10932820Y19354683D01*
X10944512Y19349840D01*
X10960488D01*
X10975249Y19355954D01*
X10986546Y19367252D01*
X10992660Y19382011D01*
Y19397987D01*
X10986546Y19412749D01*
X10975249Y19424046D01*
X10973139Y19424921D01*
Y19435080D01*
X10975249Y19435954D01*
X10986546Y19447250D01*
X10992660Y19462012D01*
Y19477988D01*
X10986546Y19492749D01*
X10975249Y19504047D01*
X10973139Y19504919D01*
Y19515080D01*
X10975249Y19515955D01*
X10986546Y19527251D01*
X10992660Y19542012D01*
Y19557988D01*
X10986546Y19572749D01*
X10975249Y19584045D01*
X10973139Y19584920D01*
Y19595081D01*
X10975249Y19595953D01*
X10986546Y19607251D01*
X10992660Y19622012D01*
Y19637988D01*
X10986546Y19652750D01*
X10975249Y19664046D01*
X10960488Y19670160D01*
X10944512D01*
X10932820Y19665317D01*
X10924602Y19669290D01*
X10922660Y19671269D01*
Y19677988D01*
X10916546Y19692749D01*
X10905248Y19704047D01*
X10903139Y19704919D01*
Y19715080D01*
X10905248Y19715955D01*
X10916546Y19727251D01*
X10922660Y19742012D01*
Y19757988D01*
X10916546Y19772749D01*
X10905248Y19784045D01*
X10890488Y19790160D01*
D02*
G37*
G36*
X15885999Y19680161D02*
X15874001D01*
X15862917Y19675568D01*
X15854433Y19667084D01*
X15849840Y19656000D01*
Y19644000D01*
X15854433Y19632916D01*
X15862917Y19624431D01*
X15874001Y19619839D01*
X15885999D01*
X15897084Y19624431D01*
X15905568Y19632916D01*
X15909341Y19642023D01*
X15910159Y19644000D01*
X15919839Y19642842D01*
X15919839Y19641251D01*
Y19639001D01*
X15924432Y19627916D01*
X15932916Y19619431D01*
X15936375Y19617999D01*
Y19607001D01*
X15932916Y19605568D01*
X15924432Y19597084D01*
X15919839Y19585999D01*
Y19574001D01*
X15924432Y19562917D01*
X15932916Y19554433D01*
X15936375Y19552998D01*
Y19542001D01*
X15932916Y19540569D01*
X15924432Y19532085D01*
X15919839Y19520999D01*
Y19509001D01*
X15924432Y19497916D01*
X15932916Y19489432D01*
X15938673Y19487045D01*
X15938142Y19476270D01*
X15930415Y19473068D01*
X15921931Y19464584D01*
X15919547Y19458826D01*
X15908769Y19459357D01*
X15905568Y19467084D01*
X15897084Y19475568D01*
X15885999Y19480161D01*
X15874001D01*
X15862917Y19475568D01*
X15854433Y19467084D01*
X15849840Y19456000D01*
Y19444000D01*
X15854433Y19432916D01*
X15862917Y19424432D01*
X15874001Y19419839D01*
X15885999D01*
X15897084Y19424432D01*
X15905568Y19432916D01*
X15907953Y19438673D01*
X15918732Y19438142D01*
X15921931Y19430415D01*
X15930415Y19421931D01*
X15941501Y19417340D01*
X15953499D01*
X15964584Y19421931D01*
X15973068Y19430415D01*
X15977660Y19441501D01*
Y19453499D01*
X15973068Y19464584D01*
X15964584Y19473068D01*
X15958826Y19475453D01*
X15959357Y19486230D01*
X15967084Y19489432D01*
X15975569Y19497916D01*
X15980161Y19509001D01*
Y19520999D01*
X15975569Y19532085D01*
X15967084Y19540569D01*
X15963625Y19542001D01*
Y19552998D01*
X15967084Y19554433D01*
X15975569Y19562917D01*
X15980161Y19574001D01*
Y19585999D01*
X15975569Y19597084D01*
X15967084Y19605568D01*
X15963625Y19607001D01*
Y19617999D01*
X15967084Y19619431D01*
X15975569Y19627916D01*
X15980161Y19639001D01*
Y19650999D01*
X15975569Y19662083D01*
X15967084Y19670567D01*
X15956000Y19675160D01*
X15944000D01*
X15932916Y19670567D01*
X15924432Y19662083D01*
X15920659Y19652977D01*
X15919839Y19650999D01*
X15910159Y19652158D01*
X15910159Y19653751D01*
Y19656000D01*
X15905568Y19667084D01*
X15897084Y19675568D01*
X15885999Y19680161D01*
D02*
G37*
G36*
X18063499Y19512660D02*
X18051501D01*
X18040416Y19508067D01*
X18031932Y19499583D01*
X18027341Y19488499D01*
Y19476501D01*
X18031932Y19465416D01*
X18040416Y19456932D01*
X18051501Y19452341D01*
X18063499D01*
X18074583Y19456932D01*
X18083067Y19465416D01*
X18087660Y19476501D01*
Y19488499D01*
X18083067Y19499583D01*
X18074583Y19508067D01*
X18063499Y19512660D01*
D02*
G37*
G36*
X15173499Y19480161D02*
X15161501D01*
X15150417Y19475568D01*
X15141933Y19467084D01*
X15137340Y19456000D01*
Y19444000D01*
X15141933Y19432916D01*
X15150417Y19424432D01*
X15161501Y19419839D01*
X15173499D01*
X15184584Y19424432D01*
X15193068Y19432916D01*
X15197659Y19444000D01*
Y19456000D01*
X15193068Y19467084D01*
X15184584Y19475568D01*
X15173499Y19480161D01*
D02*
G37*
G36*
X15303499Y19477660D02*
X15291501D01*
X15280415Y19473068D01*
X15271931Y19464584D01*
X15267340Y19453499D01*
Y19441501D01*
X15271931Y19430415D01*
X15280415Y19421931D01*
X15291501Y19417340D01*
X15303499D01*
X15314584Y19421931D01*
X15323068Y19430415D01*
X15327660Y19441501D01*
Y19453499D01*
X15323068Y19464584D01*
X15314584Y19473068D01*
X15303499Y19477660D01*
D02*
G37*
G36*
X18223499Y19472659D02*
X18211501D01*
X18200417Y19468068D01*
X18191933Y19459584D01*
X18187340Y19448499D01*
Y19436501D01*
X18191933Y19425417D01*
X18200417Y19416931D01*
X18211501Y19412340D01*
X18223499D01*
X18234584Y19416931D01*
X18243068Y19425417D01*
X18247659Y19436501D01*
Y19448499D01*
X18243068Y19459584D01*
X18234584Y19468068D01*
X18223499Y19472659D01*
D02*
G37*
G36*
X15433499Y19415160D02*
X15421501D01*
X15410416Y19410568D01*
X15401932Y19402084D01*
X15401749Y19401642D01*
X15390752D01*
X15390569Y19402084D01*
X15382085Y19410568D01*
X15370999Y19415160D01*
X15359001D01*
X15347916Y19410568D01*
X15339432Y19402084D01*
X15334840Y19390999D01*
Y19379001D01*
X15339432Y19367915D01*
X15347916Y19359431D01*
X15359001Y19354840D01*
X15370999D01*
X15382085Y19359431D01*
X15390569Y19367915D01*
X15390752Y19368356D01*
X15401749D01*
X15401932Y19367915D01*
X15410416Y19359431D01*
X15421501Y19354840D01*
X15433499D01*
X15444585Y19359431D01*
X15453069Y19367915D01*
X15457660Y19379001D01*
Y19390999D01*
X15453069Y19402084D01*
X15444585Y19410568D01*
X15433499Y19415160D01*
D02*
G37*
G36*
X15823499D02*
X15811501D01*
X15800417Y19410568D01*
X15791933Y19402084D01*
X15790498Y19398625D01*
X15779501D01*
X15778069Y19402084D01*
X15769585Y19410568D01*
X15758499Y19415160D01*
X15746501D01*
X15735416Y19410568D01*
X15726932Y19402084D01*
X15722340Y19390999D01*
Y19379001D01*
X15726932Y19367915D01*
X15735416Y19359431D01*
X15746501Y19354840D01*
X15758499D01*
X15769585Y19359431D01*
X15778069Y19367915D01*
X15779501Y19371375D01*
X15790498D01*
X15791933Y19367915D01*
X15800417Y19359431D01*
X15811501Y19354840D01*
X15823499D01*
X15834584Y19359431D01*
X15843068Y19367915D01*
X15847659Y19379001D01*
Y19390999D01*
X15843068Y19402084D01*
X15834584Y19410568D01*
X15823499Y19415160D01*
D02*
G37*
G36*
X14563499Y19452660D02*
X14551501D01*
X14540416Y19448068D01*
X14531932Y19439584D01*
X14527341Y19428499D01*
Y19416501D01*
X14531932Y19405415D01*
X14540416Y19396931D01*
X14551501Y19392340D01*
X14563499D01*
X14574583Y19396931D01*
X14583067Y19405415D01*
X14587660Y19416501D01*
Y19428499D01*
X14583067Y19439584D01*
X14574583Y19448068D01*
X14563499Y19452660D01*
D02*
G37*
G36*
X11339991Y19457660D02*
X11325009D01*
X11311167Y19451927D01*
X11300574Y19441333D01*
X11294840Y19427492D01*
Y19412509D01*
X11300574Y19398666D01*
X11311167Y19388074D01*
X11325009Y19382339D01*
X11339991D01*
X11353833Y19388074D01*
X11364427Y19398666D01*
X11370160Y19412509D01*
Y19427492D01*
X11364427Y19441333D01*
X11353833Y19451927D01*
X11339991Y19457660D01*
D02*
G37*
G36*
X12784991Y19445160D02*
X12770009D01*
X12756167Y19439426D01*
X12745573Y19428833D01*
X12739840Y19414992D01*
Y19400009D01*
X12745573Y19386166D01*
X12756167Y19375574D01*
X12770009Y19369839D01*
X12784991D01*
X12798833Y19375574D01*
X12809427Y19386166D01*
X12815160Y19400009D01*
Y19414992D01*
X12809427Y19428833D01*
X12798833Y19439426D01*
X12784991Y19445160D01*
D02*
G37*
G36*
X16018500Y19412660D02*
X16006500D01*
X15995416Y19408067D01*
X15986932Y19399583D01*
X15982339Y19388499D01*
Y19376501D01*
X15986932Y19365416D01*
X15995416Y19356932D01*
X16006500Y19352341D01*
X16018500D01*
X16029584Y19356932D01*
X16038069Y19365416D01*
X16042661Y19376501D01*
Y19388499D01*
X16038069Y19399583D01*
X16029584Y19408067D01*
X16018500Y19412660D01*
D02*
G37*
G36*
X15238499D02*
X15226501D01*
X15215416Y19408067D01*
X15206932Y19399583D01*
X15202341Y19388499D01*
Y19376501D01*
X15206932Y19365416D01*
X15215416Y19356932D01*
X15226501Y19352341D01*
X15238499D01*
X15249583Y19356932D01*
X15258069Y19365416D01*
X15262660Y19376501D01*
Y19388499D01*
X15258069Y19399583D01*
X15249583Y19408067D01*
X15238499Y19412660D01*
D02*
G37*
G36*
X16933499Y19405161D02*
X16921501D01*
X16910416Y19400569D01*
X16901932Y19392084D01*
X16897340Y19381000D01*
Y19369000D01*
X16901932Y19357916D01*
X16910416Y19349432D01*
X16921501Y19344839D01*
X16933499D01*
X16944585Y19349432D01*
X16953069Y19357916D01*
X16957660Y19369000D01*
Y19381000D01*
X16953069Y19392084D01*
X16944585Y19400569D01*
X16933499Y19405161D01*
D02*
G37*
G36*
X15089272Y19399734D02*
X15077272D01*
X15066187Y19395145D01*
X15057703Y19386659D01*
X15053111Y19375575D01*
Y19363576D01*
X15057703Y19352492D01*
X15066187Y19344006D01*
X15077272Y19339415D01*
X15089272D01*
X15100356Y19344006D01*
X15108839Y19352492D01*
X15113431Y19363576D01*
Y19375575D01*
X15108839Y19386659D01*
X15100356Y19395145D01*
X15089272Y19399734D01*
D02*
G37*
G36*
X18263499Y19377660D02*
X18251501D01*
X18240416Y19373068D01*
X18231932Y19364584D01*
X18227341Y19353499D01*
Y19341501D01*
X18231932Y19330415D01*
X18240416Y19321931D01*
X18251501Y19317340D01*
X18263499D01*
X18274583Y19321931D01*
X18283069Y19330415D01*
X18287660Y19341501D01*
Y19353499D01*
X18283069Y19364584D01*
X18274583Y19373068D01*
X18263499Y19377660D01*
D02*
G37*
G36*
X14670999Y19295160D02*
X14659001D01*
X14647916Y19290569D01*
X14639432Y19282085D01*
X14634840Y19270999D01*
Y19267181D01*
X14624680Y19262973D01*
X14619585Y19268068D01*
X14608499Y19272659D01*
X14596501D01*
X14585416Y19268068D01*
X14576932Y19259584D01*
X14572340Y19248499D01*
Y19236501D01*
X14576932Y19225417D01*
X14585416Y19216933D01*
X14596501Y19212340D01*
X14608499D01*
X14619585Y19216933D01*
X14628069Y19225417D01*
X14632660Y19236501D01*
Y19240318D01*
X14642821Y19244527D01*
X14647916Y19239432D01*
X14659001Y19234840D01*
X14670999D01*
X14682085Y19239432D01*
X14690569Y19247916D01*
X14695160Y19259001D01*
Y19270999D01*
X14690569Y19282085D01*
X14682085Y19290569D01*
X14670999Y19295160D01*
D02*
G37*
G36*
X14878499Y19315160D02*
X14866501D01*
X14855415Y19310568D01*
X14846931Y19302084D01*
X14842340Y19290999D01*
Y19279001D01*
X14846931Y19267915D01*
X14855415Y19259431D01*
X14866501Y19254840D01*
X14878499D01*
X14889584Y19259431D01*
X14898068Y19267915D01*
X14902660Y19279001D01*
Y19290999D01*
X14898068Y19302084D01*
X14889584Y19310568D01*
X14878499Y19315160D01*
D02*
G37*
G36*
X15045999Y19237660D02*
X15034001D01*
X15022916Y19233067D01*
X15014432Y19224583D01*
X15009840Y19213499D01*
Y19201501D01*
X15014432Y19190416D01*
X15022916Y19181932D01*
X15034001Y19177341D01*
X15045999D01*
X15057085Y19181932D01*
X15065569Y19190416D01*
X15070160Y19201501D01*
Y19213499D01*
X15065569Y19224583D01*
X15057085Y19233067D01*
X15045999Y19237660D01*
D02*
G37*
G36*
X15568500Y19220160D02*
X15556500D01*
X15545416Y19215569D01*
X15536932Y19207085D01*
X15532339Y19195999D01*
Y19184001D01*
X15536932Y19172916D01*
X15545416Y19164432D01*
X15556500Y19159840D01*
X15568500D01*
X15579584Y19164432D01*
X15588068Y19172916D01*
X15592661Y19184001D01*
Y19195999D01*
X15588068Y19207085D01*
X15579584Y19215569D01*
X15568500Y19220160D01*
D02*
G37*
G36*
X15690999Y19215160D02*
X15679001D01*
X15667915Y19210568D01*
X15659431Y19202084D01*
X15654840Y19190999D01*
Y19179001D01*
X15659431Y19167915D01*
X15667915Y19159431D01*
X15679001Y19154840D01*
X15690999D01*
X15702084Y19159431D01*
X15710568Y19167915D01*
X15715160Y19179001D01*
Y19190999D01*
X15710568Y19202084D01*
X15702084Y19210568D01*
X15690999Y19215160D01*
D02*
G37*
G36*
X18820999Y19157660D02*
X18809001D01*
X18797916Y19153069D01*
X18789432Y19144585D01*
X18784840Y19133499D01*
Y19121501D01*
X18789432Y19110416D01*
X18797916Y19101932D01*
X18809001Y19097340D01*
X18820999D01*
X18832085Y19101932D01*
X18840569Y19110416D01*
X18845160Y19121501D01*
Y19133499D01*
X18840569Y19144585D01*
X18832085Y19153069D01*
X18820999Y19157660D01*
D02*
G37*
G36*
X18068500Y19150160D02*
X18056500D01*
X18045416Y19145569D01*
X18036932Y19137083D01*
X18032339Y19125999D01*
Y19114001D01*
X18036932Y19102916D01*
X18045416Y19094432D01*
X18056500Y19089841D01*
X18068500D01*
X18079584Y19094432D01*
X18088068Y19102916D01*
X18092661Y19114001D01*
Y19125999D01*
X18088068Y19137083D01*
X18079584Y19145569D01*
X18068500Y19150160D01*
D02*
G37*
G36*
X18498499Y19147659D02*
X18486501D01*
X18475417Y19143068D01*
X18466933Y19134584D01*
X18462340Y19123499D01*
Y19111501D01*
X18466933Y19100417D01*
X18475417Y19091933D01*
X18486501Y19087340D01*
X18498499D01*
X18509584Y19091933D01*
X18518068Y19100417D01*
X18522659Y19111501D01*
Y19123499D01*
X18518068Y19134584D01*
X18509584Y19143068D01*
X18498499Y19147659D01*
D02*
G37*
G36*
X14460999Y19145160D02*
X14449001D01*
X14437917Y19140569D01*
X14429433Y19132085D01*
X14424840Y19120999D01*
Y19109001D01*
X14429433Y19097916D01*
X14437917Y19089432D01*
X14449001Y19084840D01*
X14460999D01*
X14472084Y19089432D01*
X14480568Y19097916D01*
X14485159Y19109001D01*
Y19120999D01*
X14480568Y19132085D01*
X14472084Y19140569D01*
X14460999Y19145160D01*
D02*
G37*
G36*
X11017500Y19218692D02*
X10996953Y19214606D01*
X10979534Y19202966D01*
X10967895Y19185547D01*
X10963808Y19164999D01*
Y19135001D01*
X10967895Y19114453D01*
X10979534Y19097034D01*
X10996953Y19085394D01*
X11017500Y19081308D01*
X11038047Y19085394D01*
X11055466Y19097034D01*
X11067105Y19114453D01*
X11071192Y19135001D01*
Y19164999D01*
X11067105Y19185547D01*
X11055466Y19202966D01*
X11038047Y19214606D01*
X11017500Y19218692D01*
D02*
G37*
G36*
X16120999Y19135159D02*
X16109001D01*
X16097916Y19130568D01*
X16089432Y19122084D01*
X16084840Y19110999D01*
Y19099001D01*
X16089432Y19087917D01*
X16097916Y19079431D01*
X16109001Y19074840D01*
X16120999D01*
X16132085Y19079431D01*
X16140569Y19087917D01*
X16145160Y19099001D01*
Y19110999D01*
X16140569Y19122084D01*
X16132085Y19130568D01*
X16120999Y19135159D01*
D02*
G37*
G36*
X18240999Y19125160D02*
X18229001D01*
X18217915Y19120567D01*
X18209431Y19112083D01*
X18204840Y19100999D01*
Y19089001D01*
X18209431Y19077916D01*
X18217915Y19069432D01*
X18229001Y19064841D01*
X18240999D01*
X18252084Y19069432D01*
X18260568Y19077916D01*
X18265160Y19089001D01*
Y19100999D01*
X18260568Y19112083D01*
X18252084Y19120567D01*
X18240999Y19125160D01*
D02*
G37*
G36*
X18153499D02*
X18141501D01*
X18130415Y19120567D01*
X18121931Y19112083D01*
X18117340Y19100999D01*
Y19089001D01*
X18121931Y19077916D01*
X18130415Y19069432D01*
X18141501Y19064841D01*
X18153499D01*
X18164584Y19069432D01*
X18173068Y19077916D01*
X18177660Y19089001D01*
Y19100999D01*
X18173068Y19112083D01*
X18164584Y19120567D01*
X18153499Y19125160D01*
D02*
G37*
G36*
X17938499Y19105161D02*
X17926501D01*
X17915416Y19100568D01*
X17906932Y19092084D01*
X17902341Y19081000D01*
Y19069000D01*
X17906932Y19057916D01*
X17915416Y19049432D01*
X17926501Y19044839D01*
X17938499D01*
X17949583Y19049432D01*
X17958067Y19057916D01*
X17962660Y19069000D01*
Y19081000D01*
X17958067Y19092084D01*
X17949583Y19100568D01*
X17938499Y19105161D01*
D02*
G37*
G36*
X11747491Y19080161D02*
X11732509D01*
X11718667Y19074426D01*
X11708073Y19063834D01*
X11702340Y19049991D01*
Y19035008D01*
X11708073Y19021167D01*
X11718667Y19010573D01*
X11732509Y19004840D01*
X11747491D01*
X11761333Y19010573D01*
X11771926Y19021167D01*
X11777660Y19035008D01*
Y19049991D01*
X11771926Y19063834D01*
X11761333Y19074426D01*
X11747491Y19080161D01*
D02*
G37*
G36*
X16438499Y19082660D02*
X16426501D01*
X16415416Y19078069D01*
X16406932Y19069585D01*
X16402341Y19058499D01*
Y19046501D01*
X16406932Y19035416D01*
X16415416Y19026932D01*
X16426501Y19022340D01*
X16438499D01*
X16439688Y19022833D01*
X16447464Y19015056D01*
X16446452Y19012613D01*
Y19000615D01*
X16451044Y18989529D01*
X16459528Y18981046D01*
X16470613Y18976454D01*
X16482611D01*
X16493697Y18981046D01*
X16502180Y18989529D01*
X16506772Y19000615D01*
Y19012613D01*
X16502180Y19023698D01*
X16493697Y19032182D01*
X16482611Y19036774D01*
X16470613D01*
X16469424Y19036281D01*
X16461649Y19044057D01*
X16462660Y19046501D01*
Y19058499D01*
X16458067Y19069585D01*
X16449583Y19078069D01*
X16438499Y19082660D01*
D02*
G37*
G36*
X11842491Y19077660D02*
X11827509D01*
X11813667Y19071927D01*
X11803073Y19061333D01*
X11797340Y19047491D01*
Y19032509D01*
X11803073Y19018668D01*
X11807738Y19014003D01*
X11810998Y19004900D01*
X11807603Y19000862D01*
X11800574Y18993832D01*
X11794840Y18979991D01*
Y18965009D01*
X11800574Y18951167D01*
X11811167Y18940573D01*
X11825009Y18934840D01*
X11839991D01*
X11853833Y18940573D01*
X11864427Y18951167D01*
X11870160Y18965009D01*
Y18979991D01*
X11864427Y18993832D01*
X11859762Y18998497D01*
X11856502Y19007600D01*
X11859897Y19011638D01*
X11866926Y19018668D01*
X11872660Y19032509D01*
Y19047491D01*
X11866926Y19061333D01*
X11856333Y19071927D01*
X11842491Y19077660D01*
D02*
G37*
G36*
X16540999Y18990160D02*
X16529001D01*
X16517915Y18985568D01*
X16509431Y18977084D01*
X16504840Y18965999D01*
Y18954001D01*
X16505003Y18953609D01*
X16500732Y18947217D01*
X16497723Y18944630D01*
X16487917Y18940569D01*
X16479433Y18932085D01*
X16474840Y18920999D01*
Y18909001D01*
X16479433Y18897916D01*
X16487917Y18889432D01*
X16499001Y18884840D01*
X16510999D01*
X16522084Y18889432D01*
X16530568Y18897916D01*
X16535159Y18909001D01*
Y18920999D01*
X16534998Y18921391D01*
X16539267Y18927783D01*
X16542276Y18930370D01*
X16552084Y18934431D01*
X16560568Y18942915D01*
X16565160Y18954001D01*
Y18965999D01*
X16560568Y18977084D01*
X16552084Y18985568D01*
X16540999Y18990160D01*
D02*
G37*
G36*
X17940999Y18857660D02*
X17929001D01*
X17917915Y18853069D01*
X17909431Y18844585D01*
X17904840Y18833499D01*
Y18821501D01*
X17909431Y18810416D01*
X17917915Y18801932D01*
X17929001Y18797340D01*
X17940999D01*
X17952084Y18801932D01*
X17960568Y18810416D01*
X17965160Y18821501D01*
Y18833499D01*
X17960568Y18844585D01*
X17952084Y18853069D01*
X17940999Y18857660D01*
D02*
G37*
G36*
X16238499Y18850160D02*
X16226501D01*
X16215416Y18845567D01*
X16206932Y18837083D01*
X16202341Y18825999D01*
Y18814001D01*
X16206932Y18802916D01*
X16215416Y18794432D01*
X16226501Y18789841D01*
X16238499D01*
X16249583Y18794432D01*
X16258067Y18802916D01*
X16262660Y18814001D01*
Y18825999D01*
X16258067Y18837083D01*
X16249583Y18845567D01*
X16238499Y18850160D01*
D02*
G37*
G36*
X14713499Y18792661D02*
X14701501D01*
X14690416Y18788068D01*
X14681932Y18779584D01*
X14677341Y18768500D01*
Y18756500D01*
X14681932Y18745416D01*
X14690416Y18736932D01*
X14701501Y18732339D01*
X14713499D01*
X14724583Y18736932D01*
X14733067Y18745416D01*
X14737660Y18756500D01*
Y18768500D01*
X14733067Y18779584D01*
X14724583Y18788068D01*
X14713499Y18792661D01*
D02*
G37*
G36*
X16200999Y18740160D02*
X16189001D01*
X16177916Y18735568D01*
X16174138Y18731790D01*
X16167500Y18728145D01*
X16160863Y18731790D01*
X16157085Y18735568D01*
X16145999Y18740160D01*
X16134001D01*
X16122916Y18735568D01*
X16117708Y18730360D01*
X16111250Y18728166D01*
X16104791Y18730360D01*
X16099583Y18735568D01*
X16088499Y18740160D01*
X16076501D01*
X16065416Y18735568D01*
X16062888Y18733040D01*
X16056250Y18727638D01*
X16049612Y18733040D01*
X16047084Y18735568D01*
X16035999Y18740160D01*
X16024001D01*
X16012917Y18735568D01*
X16004433Y18727084D01*
X15999840Y18715999D01*
Y18704001D01*
X16004433Y18692915D01*
X16012917Y18684431D01*
X16024001Y18679840D01*
X16035999D01*
X16047084Y18684431D01*
X16049612Y18686960D01*
X16056250Y18692361D01*
X16062888Y18686960D01*
X16065416Y18684431D01*
X16076501Y18679840D01*
X16088499D01*
X16099583Y18684431D01*
X16104791Y18689639D01*
X16111250Y18691833D01*
X16117708Y18689639D01*
X16122916Y18684431D01*
X16134001Y18679840D01*
X16145999D01*
X16157085Y18684431D01*
X16160863Y18688210D01*
X16167500Y18691855D01*
X16174138Y18688210D01*
X16177916Y18684431D01*
X16189001Y18679840D01*
X16200999D01*
X16212083Y18684431D01*
X16220569Y18692915D01*
X16225160Y18704001D01*
Y18715999D01*
X16220569Y18727084D01*
X16212083Y18735568D01*
X16200999Y18740160D01*
D02*
G37*
G36*
X14870999Y18787660D02*
X14859001D01*
X14847916Y18783067D01*
X14839432Y18774583D01*
X14834840Y18763499D01*
Y18751501D01*
X14839432Y18740416D01*
X14847916Y18731932D01*
X14859001Y18727341D01*
X14870999D01*
X14882085Y18731932D01*
X14890569Y18740416D01*
X14895160Y18751501D01*
Y18763499D01*
X14890569Y18774583D01*
X14882085Y18783067D01*
X14870999Y18787660D01*
D02*
G37*
G36*
X17698499Y18780161D02*
X17686501D01*
X17675417Y18775568D01*
X17666933Y18767084D01*
X17662340Y18756000D01*
Y18744000D01*
X17666933Y18732916D01*
X17675417Y18724432D01*
X17686501Y18719839D01*
X17698499D01*
X17709584Y18724432D01*
X17718068Y18732916D01*
X17722659Y18744000D01*
Y18756000D01*
X17718068Y18767084D01*
X17709584Y18775568D01*
X17698499Y18780161D01*
D02*
G37*
G36*
X15888499Y18770160D02*
X15876501D01*
X15865416Y18765569D01*
X15856932Y18757085D01*
X15852341Y18745999D01*
Y18734001D01*
X15856932Y18722916D01*
X15865416Y18714432D01*
X15876501Y18709840D01*
X15888499D01*
X15899583Y18714432D01*
X15908069Y18722916D01*
X15912660Y18734001D01*
Y18745999D01*
X15908069Y18757085D01*
X15899583Y18765569D01*
X15888499Y18770160D01*
D02*
G37*
G36*
X14820999Y18715160D02*
X14809001D01*
X14797916Y18710568D01*
X14789432Y18702084D01*
X14784840Y18690999D01*
Y18679001D01*
X14789432Y18667915D01*
X14797916Y18659431D01*
X14809001Y18654840D01*
X14820999D01*
X14832085Y18659431D01*
X14840569Y18667915D01*
X14845160Y18679001D01*
Y18690999D01*
X14840569Y18702084D01*
X14832085Y18710568D01*
X14820999Y18715160D01*
D02*
G37*
G36*
X18185999Y18690160D02*
X18174001D01*
X18162917Y18685568D01*
X18154433Y18677084D01*
X18149840Y18665999D01*
Y18654001D01*
X18154433Y18642915D01*
X18162917Y18634431D01*
X18174001Y18629840D01*
X18185999D01*
X18197084Y18634431D01*
X18205568Y18642915D01*
X18210159Y18654001D01*
Y18665999D01*
X18205568Y18677084D01*
X18197084Y18685568D01*
X18185999Y18690160D01*
D02*
G37*
G36*
X18306000Y18637660D02*
X18294000D01*
X18282916Y18633067D01*
X18274432Y18624583D01*
X18269839Y18613499D01*
Y18601501D01*
X18274432Y18590416D01*
X18282916Y18581932D01*
X18294000Y18577341D01*
X18306000D01*
X18317084Y18581932D01*
X18325568Y18590416D01*
X18330161Y18601501D01*
Y18613499D01*
X18325568Y18624583D01*
X18317084Y18633067D01*
X18306000Y18637660D01*
D02*
G37*
G36*
X17973499Y18592661D02*
X17961501D01*
X17950417Y18588068D01*
X17941933Y18579584D01*
X17937340Y18568500D01*
Y18556500D01*
X17941933Y18545416D01*
X17950417Y18536932D01*
X17961501Y18532339D01*
X17973499D01*
X17984584Y18536932D01*
X17993068Y18545416D01*
X17997659Y18556500D01*
Y18568500D01*
X17993068Y18579584D01*
X17984584Y18588068D01*
X17973499Y18592661D01*
D02*
G37*
G36*
X13985999Y18632660D02*
X13974001D01*
X13962917Y18628069D01*
X13954433Y18619585D01*
X13949840Y18608499D01*
Y18596501D01*
X13954433Y18585416D01*
X13962915Y18576932D01*
X13958211Y18568362D01*
X13956932Y18567084D01*
X13952341Y18556000D01*
Y18544000D01*
X13956932Y18532916D01*
X13965416Y18524432D01*
X13976501Y18519839D01*
X13988499D01*
X13999583Y18524432D01*
X14008069Y18532916D01*
X14012660Y18544000D01*
Y18556000D01*
X14008069Y18567084D01*
X13999585Y18575568D01*
X14004289Y18584138D01*
X14005568Y18585416D01*
X14010159Y18596501D01*
Y18608499D01*
X14005568Y18619585D01*
X13997084Y18628069D01*
X13985999Y18632660D01*
D02*
G37*
G36*
X11944991Y18640160D02*
X11930009D01*
X11916167Y18634427D01*
X11905573Y18623833D01*
X11899840Y18609991D01*
Y18595009D01*
X11905573Y18581168D01*
X11915491Y18571249D01*
X11905573Y18561333D01*
X11899840Y18547491D01*
Y18532509D01*
X11905573Y18518668D01*
X11916167Y18508073D01*
X11911353Y18499612D01*
X11908073Y18496333D01*
X11902340Y18482491D01*
Y18467509D01*
X11908073Y18453667D01*
X11918667Y18443073D01*
X11932509Y18437340D01*
X11947491D01*
X11961333Y18443073D01*
X11971927Y18453667D01*
X11977660Y18467509D01*
Y18482491D01*
X11971927Y18496333D01*
X11961333Y18506926D01*
X11966147Y18515387D01*
X11969426Y18518668D01*
X11975160Y18532509D01*
Y18547491D01*
X11969426Y18561333D01*
X11959509Y18571249D01*
X11969426Y18581168D01*
X11975160Y18595009D01*
Y18609991D01*
X11969426Y18623833D01*
X11958833Y18634427D01*
X11944991Y18640160D01*
D02*
G37*
G36*
X13983499Y18472659D02*
X13971501D01*
X13960416Y18468068D01*
X13951932Y18459584D01*
X13947340Y18448499D01*
Y18436501D01*
X13951932Y18425417D01*
X13958211Y18419138D01*
X13960207Y18415500D01*
X13958907Y18406560D01*
X13954433Y18402084D01*
X13949840Y18390999D01*
Y18379001D01*
X13954433Y18367915D01*
X13962917Y18359431D01*
X13974001Y18354840D01*
X13985999D01*
X13997084Y18359431D01*
X14005568Y18367915D01*
X14010159Y18379001D01*
Y18390999D01*
X14005568Y18402084D01*
X13999290Y18408362D01*
X13997293Y18412000D01*
X13998593Y18420941D01*
X14003069Y18425417D01*
X14007660Y18436501D01*
Y18448499D01*
X14003069Y18459584D01*
X13994585Y18468068D01*
X13983499Y18472659D01*
D02*
G37*
G36*
X12114991Y18065160D02*
X12100009D01*
X12086167Y18059425D01*
X12075574Y18048833D01*
X12069840Y18034991D01*
Y18020009D01*
X12075574Y18006168D01*
X12086167Y17995573D01*
X12100009Y17989841D01*
X12114991D01*
X12128833Y17995573D01*
X12139427Y18006168D01*
X12145160Y18020009D01*
Y18034991D01*
X12139427Y18048833D01*
X12128833Y18059425D01*
X12114991Y18065160D01*
D02*
G37*
G36*
X12577491Y18032660D02*
X12562509D01*
X12548667Y18026927D01*
X12538073Y18016333D01*
X12532340Y18002492D01*
Y17987509D01*
X12538073Y17973666D01*
X12547991Y17963750D01*
X12538073Y17953833D01*
X12532340Y17939992D01*
Y17925009D01*
X12538073Y17911166D01*
X12548667Y17900574D01*
X12562509Y17894839D01*
X12577491D01*
X12591333Y17900574D01*
X12601927Y17911166D01*
X12607660Y17925009D01*
Y17939992D01*
X12601927Y17953833D01*
X12592009Y17963750D01*
X12601927Y17973666D01*
X12607660Y17987509D01*
Y18002492D01*
X12601927Y18016333D01*
X12591333Y18026927D01*
X12577491Y18032660D01*
D02*
G37*
G36*
X14450999Y17910159D02*
X14439001D01*
X14427916Y17905568D01*
X14419432Y17897084D01*
X14414841Y17885999D01*
Y17874001D01*
X14419432Y17862917D01*
X14427916Y17854433D01*
X14439001Y17849840D01*
X14450999D01*
X14462083Y17854433D01*
X14470567Y17862917D01*
X14475160Y17874001D01*
Y17885999D01*
X14470567Y17897084D01*
X14462083Y17905568D01*
X14450999Y17910159D01*
D02*
G37*
G36*
X14768500Y17815160D02*
X14756500D01*
X14745416Y17810568D01*
X14736932Y17802084D01*
X14732339Y17790999D01*
Y17779001D01*
X14736932Y17767915D01*
X14745416Y17759431D01*
X14756500Y17754840D01*
X14768500D01*
X14779584Y17759431D01*
X14788068Y17767915D01*
X14792661Y17779001D01*
Y17790999D01*
X14788068Y17802084D01*
X14779584Y17810568D01*
X14768500Y17815160D01*
D02*
G37*
G36*
X14648499Y17855161D02*
X14636501D01*
X14625417Y17850568D01*
X14616933Y17842084D01*
X14612340Y17831000D01*
Y17819000D01*
X14616933Y17807916D01*
X14625417Y17799432D01*
X14625858Y17799249D01*
Y17788251D01*
X14625417Y17788068D01*
X14616933Y17779584D01*
X14612340Y17768500D01*
Y17756500D01*
X14616933Y17745416D01*
X14625417Y17736932D01*
X14636501Y17732339D01*
X14648499D01*
X14659584Y17736932D01*
X14668068Y17745416D01*
X14672659Y17756500D01*
Y17768500D01*
X14668068Y17779584D01*
X14659584Y17788068D01*
X14659143Y17788251D01*
Y17799249D01*
X14659584Y17799432D01*
X14668068Y17807916D01*
X14672659Y17819000D01*
Y17831000D01*
X14668068Y17842084D01*
X14659584Y17850568D01*
X14648499Y17855161D01*
D02*
G37*
G36*
X14703499Y17710159D02*
X14691501D01*
X14680415Y17705568D01*
X14671931Y17697084D01*
X14667340Y17685999D01*
Y17674001D01*
X14671931Y17662917D01*
X14680415Y17654433D01*
X14691501Y17649840D01*
X14703499D01*
X14714584Y17654433D01*
X14723068Y17662917D01*
X14727660Y17674001D01*
Y17685999D01*
X14723068Y17697084D01*
X14714584Y17705568D01*
X14703499Y17710159D01*
D02*
G37*
G36*
X12397120Y17652756D02*
X12382138D01*
X12368297Y17647023D01*
X12357703Y17636429D01*
X12351969Y17622588D01*
Y17607605D01*
X12357703Y17593764D01*
X12368297Y17583170D01*
X12382138Y17577435D01*
X12397120D01*
X12410962Y17583170D01*
X12419767Y17591974D01*
X12428667Y17583073D01*
X12442509Y17577341D01*
X12457491D01*
X12471333Y17583073D01*
X12481927Y17593668D01*
X12487660Y17607509D01*
Y17622491D01*
X12481927Y17636333D01*
X12471333Y17646927D01*
X12457491Y17652660D01*
X12442509D01*
X12428667Y17646927D01*
X12419863Y17638123D01*
X12410962Y17647023D01*
X12397120Y17652756D01*
D02*
G37*
G36*
X16091483Y17497659D02*
X16073517D01*
X16056918Y17490785D01*
X16044215Y17478081D01*
X16037340Y17461482D01*
Y17443517D01*
X16044215Y17426920D01*
X16056918Y17414215D01*
X16073517Y17407339D01*
X16091483D01*
X16108081Y17414215D01*
X16120786Y17426920D01*
X16127660Y17443517D01*
Y17461482D01*
X16120786Y17478081D01*
X16108081Y17490785D01*
X16091483Y17497659D01*
D02*
G37*
G36*
X11957607Y17435928D02*
X11942625D01*
X11928784Y17430194D01*
X11918190Y17419600D01*
X11912456Y17405759D01*
Y17390778D01*
X11918190Y17376935D01*
X11928784Y17366341D01*
X11942625Y17360608D01*
X11957607D01*
X11971449Y17366341D01*
X11982043Y17376935D01*
X11987776Y17390778D01*
Y17405759D01*
X11982043Y17419600D01*
X11971449Y17430194D01*
X11957607Y17435928D01*
D02*
G37*
G36*
X14916234Y17312335D02*
X14898268D01*
X14881670Y17305460D01*
X14868967Y17292757D01*
X14862091Y17276158D01*
Y17258192D01*
X14868967Y17241594D01*
X14881670Y17228891D01*
X14898268Y17222015D01*
X14916234D01*
X14932832Y17228891D01*
X14945535Y17241594D01*
X14952411Y17258192D01*
Y17276158D01*
X14945535Y17292757D01*
X14932832Y17305460D01*
X14916234Y17312335D01*
D02*
G37*
G36*
X15218983Y17180161D02*
X15201018D01*
X15184419Y17173285D01*
X15171715Y17160580D01*
X15164841Y17143983D01*
Y17126018D01*
X15171715Y17109419D01*
X15184419Y17096715D01*
X15201018Y17089841D01*
X15218983D01*
X15235580Y17096715D01*
X15248285Y17109419D01*
X15255161Y17126018D01*
Y17143983D01*
X15248285Y17160580D01*
X15235580Y17173285D01*
X15218983Y17180161D01*
D02*
G37*
G36*
X12527491Y17047659D02*
X12512509D01*
X12498667Y17041927D01*
X12492888Y17036147D01*
X12486250Y17032370D01*
X12479613Y17036147D01*
X12473833Y17041927D01*
X12459991Y17047659D01*
X12445009D01*
X12431167Y17041927D01*
X12425388Y17036147D01*
X12418750Y17032370D01*
X12412113Y17036147D01*
X12406333Y17041927D01*
X12392491Y17047659D01*
X12377509D01*
X12363667Y17041927D01*
X12353074Y17031332D01*
X12347340Y17017491D01*
Y17002509D01*
X12353074Y16988667D01*
X12363667Y16978073D01*
X12377509Y16972340D01*
X12392491D01*
X12406333Y16978073D01*
X12412113Y16983853D01*
X12418750Y16987630D01*
X12425388Y16983853D01*
X12431167Y16978073D01*
X12445009Y16972340D01*
X12459991D01*
X12473833Y16978073D01*
X12479613Y16983853D01*
X12486250Y16987630D01*
X12492888Y16983853D01*
X12498667Y16978073D01*
X12512509Y16972340D01*
X12527491D01*
X12541333Y16978073D01*
X12551927Y16988667D01*
X12557660Y17002509D01*
Y17017491D01*
X12551927Y17031332D01*
X12541333Y17041927D01*
X12527491Y17047659D01*
D02*
G37*
G36*
X17208983Y17107660D02*
X17191017D01*
X17174419Y17100784D01*
X17161716Y17088081D01*
X17154840Y17071483D01*
Y17053517D01*
X17161716Y17036919D01*
X17174419Y17024216D01*
X17191017Y17017340D01*
X17208983D01*
X17225581Y17024216D01*
X17238284Y17036919D01*
X17245160Y17053517D01*
Y17071483D01*
X17238284Y17088081D01*
X17225581Y17100784D01*
X17208983Y17107660D01*
D02*
G37*
G36*
X16990567Y17082213D02*
X16972601D01*
X16956003Y17075339D01*
X16943300Y17062634D01*
X16936424Y17046037D01*
Y17028072D01*
X16943300Y17011472D01*
X16956003Y16998769D01*
X16972601Y16991895D01*
X16990567D01*
X17007166Y16998769D01*
X17019868Y17011472D01*
X17026744Y17028072D01*
Y17046037D01*
X17019868Y17062634D01*
X17007166Y17075339D01*
X16990567Y17082213D01*
D02*
G37*
G36*
X10927491Y17065160D02*
X10912509D01*
X10898667Y17059427D01*
X10888073Y17048833D01*
X10882340Y17034991D01*
Y17020009D01*
X10888073Y17006168D01*
X10898667Y16995573D01*
X10912509Y16989841D01*
X10927491D01*
X10941333Y16995573D01*
X10951927Y17006168D01*
X10957660Y17020009D01*
Y17034991D01*
X10951927Y17048833D01*
X10941333Y17059427D01*
X10927491Y17065160D01*
D02*
G37*
G36*
X15988228Y17055588D02*
X15970262D01*
X15953664Y17048714D01*
X15940961Y17036009D01*
X15934085Y17019411D01*
Y17001445D01*
X15940961Y16984846D01*
X15953664Y16972144D01*
X15970262Y16965268D01*
X15988228D01*
X16004826Y16972144D01*
X16017529Y16984846D01*
X16024405Y17001445D01*
Y17019411D01*
X16017529Y17036009D01*
X16004826Y17048714D01*
X15988228Y17055588D01*
D02*
G37*
G36*
X11239991Y16985159D02*
X11225009D01*
X11211167Y16979427D01*
X11200573Y16968832D01*
X11194840Y16954991D01*
Y16940009D01*
X11200573Y16926167D01*
X11211167Y16915573D01*
X11225009Y16909840D01*
X11239991D01*
X11253833Y16915573D01*
X11264427Y16926167D01*
X11270160Y16940009D01*
Y16954991D01*
X11264427Y16968832D01*
X11253833Y16979427D01*
X11239991Y16985159D01*
D02*
G37*
G36*
X16548982Y16885159D02*
X16531017D01*
X16514420Y16878285D01*
X16501715Y16865581D01*
X16494839Y16848982D01*
Y16831017D01*
X16501715Y16814420D01*
X16514420Y16801715D01*
X16531017Y16794839D01*
X16545358D01*
X16549817Y16793594D01*
X16554745Y16786230D01*
Y16774251D01*
X16561621Y16757652D01*
X16574326Y16744949D01*
X16590923Y16738074D01*
X16608888D01*
X16625487Y16744949D01*
X16638191Y16757652D01*
X16645065Y16774251D01*
Y16792216D01*
X16638191Y16808815D01*
X16625487Y16821519D01*
X16608888Y16828394D01*
X16594547D01*
X16590089Y16829639D01*
X16585159Y16837004D01*
Y16848982D01*
X16578285Y16865581D01*
X16565581Y16878285D01*
X16548982Y16885159D01*
D02*
G37*
G36*
X16460568Y16792213D02*
X16442603D01*
X16426003Y16785338D01*
X16413300Y16772635D01*
X16406425Y16756036D01*
Y16738071D01*
X16413300Y16721474D01*
X16426003Y16708769D01*
X16442603Y16701894D01*
X16460568D01*
X16477167Y16708769D01*
X16489870Y16721474D01*
X16496745Y16738071D01*
Y16756036D01*
X16489870Y16772635D01*
X16477167Y16785338D01*
X16460568Y16792213D01*
D02*
G37*
G36*
X15408067Y16759714D02*
X15390102D01*
X15373503Y16752838D01*
X15360800Y16740135D01*
X15353925Y16723537D01*
Y16705571D01*
X15360800Y16688972D01*
X15373503Y16676270D01*
X15390102Y16669394D01*
X15408067D01*
X15424666Y16676270D01*
X15437369Y16688972D01*
X15444244Y16705571D01*
Y16723537D01*
X15437369Y16740135D01*
X15424666Y16752838D01*
X15408067Y16759714D01*
D02*
G37*
G36*
X19802499Y16755502D02*
X19727499D01*
X19702005Y16752147D01*
X19678249Y16742307D01*
X19657848Y16726653D01*
X19642194Y16706252D01*
X19632353Y16682495D01*
X19628996Y16657001D01*
X19632353Y16631506D01*
X19642194Y16607748D01*
X19657848Y16587347D01*
X19678249Y16571693D01*
X19702005Y16561855D01*
X19727499Y16558498D01*
X19802499D01*
X19827994Y16561855D01*
X19851752Y16571693D01*
X19872153Y16587347D01*
X19887807Y16607748D01*
X19897646Y16631506D01*
X19901003Y16657001D01*
X19897646Y16682495D01*
X19887807Y16706252D01*
X19872153Y16726653D01*
X19851752Y16742307D01*
X19827994Y16752147D01*
X19802499Y16755502D01*
D02*
G37*
G36*
X16671483Y16472659D02*
X16653517D01*
X16636919Y16465785D01*
X16624216Y16453081D01*
X16617340Y16436482D01*
Y16418517D01*
X16624216Y16401920D01*
X16636919Y16389215D01*
X16653517Y16382339D01*
X16671483D01*
X16688081Y16389215D01*
X16700784Y16401920D01*
X16707660Y16418517D01*
Y16436482D01*
X16700784Y16453081D01*
X16688081Y16465785D01*
X16671483Y16472659D01*
D02*
G37*
G36*
X18045567Y16444714D02*
X18027602D01*
X18011003Y16437839D01*
X17998300Y16425134D01*
X17991425Y16408537D01*
Y16390572D01*
X17998300Y16373973D01*
X18011003Y16361269D01*
X18027602Y16354395D01*
X18045567D01*
X18062166Y16361269D01*
X18074869Y16373973D01*
X18081744Y16390572D01*
Y16408537D01*
X18074869Y16425134D01*
X18062166Y16437839D01*
X18045567Y16444714D01*
D02*
G37*
G36*
X16348228Y16393088D02*
X16330263D01*
X16313664Y16386214D01*
X16300960Y16373509D01*
X16294086Y16356911D01*
Y16338945D01*
X16300960Y16322346D01*
X16313664Y16309644D01*
X16330263Y16302768D01*
X16348228D01*
X16364825Y16309644D01*
X16377528Y16322346D01*
X16384406Y16338945D01*
Y16356911D01*
X16377528Y16373509D01*
X16364825Y16386214D01*
X16348228Y16393088D01*
D02*
G37*
G36*
X16203983Y16300160D02*
X16186017D01*
X16169418Y16293285D01*
X16156715Y16280582D01*
X16149840Y16263983D01*
Y16246017D01*
X16156715Y16229419D01*
X16169418Y16216714D01*
X16186017Y16209840D01*
X16203983D01*
X16220581Y16216714D01*
X16233286Y16229419D01*
X16240160Y16246017D01*
Y16263983D01*
X16233286Y16280582D01*
X16220581Y16293285D01*
X16203983Y16300160D01*
D02*
G37*
G36*
X15573982Y16255161D02*
X15556017D01*
X15539420Y16248285D01*
X15526715Y16235580D01*
X15519839Y16218983D01*
Y16201018D01*
X15526715Y16184419D01*
X15539420Y16171715D01*
X15556017Y16164841D01*
X15573982D01*
X15590581Y16171715D01*
X15603285Y16184419D01*
X15610159Y16201018D01*
Y16218983D01*
X15603285Y16235580D01*
X15590581Y16248285D01*
X15573982Y16255161D01*
D02*
G37*
G36*
X16203983Y16185159D02*
X16186017D01*
X16169418Y16178285D01*
X16156715Y16165581D01*
X16149840Y16148982D01*
Y16131017D01*
X16156715Y16114420D01*
X16169418Y16101715D01*
X16186017Y16094839D01*
X16203983D01*
X16220581Y16101715D01*
X16233286Y16114420D01*
X16240160Y16131017D01*
Y16148982D01*
X16233286Y16165581D01*
X16220581Y16178285D01*
X16203983Y16185159D01*
D02*
G37*
G36*
X11027500Y16086093D02*
X10892500D01*
X10873904Y16082394D01*
X10858139Y16071860D01*
X10847605Y16056096D01*
X10843906Y16037500D01*
Y15962500D01*
X10847605Y15943904D01*
X10858139Y15928139D01*
X10873904Y15917606D01*
X10892500Y15913905D01*
X11027500D01*
X11046096Y15917606D01*
X11061861Y15928139D01*
X11072395Y15943904D01*
X11076094Y15962500D01*
Y16037500D01*
X11072395Y16056096D01*
X11061861Y16071860D01*
X11046096Y16082394D01*
X11027500Y16086093D01*
D02*
G37*
G36*
X17281483Y15955161D02*
X17263518D01*
X17246919Y15948285D01*
X17234215Y15935580D01*
X17227341Y15918983D01*
Y15901018D01*
X17234215Y15884419D01*
X17246919Y15871715D01*
X17263518Y15864841D01*
X17281483D01*
X17298080Y15871715D01*
X17310785Y15884419D01*
X17317661Y15901018D01*
Y15918983D01*
X17310785Y15935580D01*
X17298080Y15948285D01*
X17281483Y15955161D01*
D02*
G37*
G36*
X16878067Y15749713D02*
X16860101D01*
X16843503Y15742838D01*
X16830800Y15730135D01*
X16823924Y15713538D01*
Y15695570D01*
X16830800Y15678972D01*
X16843503Y15666269D01*
X16860101Y15659393D01*
X16878067D01*
X16894666Y15666269D01*
X16907368Y15678972D01*
X16914244Y15695570D01*
Y15713538D01*
X16907368Y15730135D01*
X16894666Y15742838D01*
X16878067Y15749713D01*
D02*
G37*
G36*
X16241483Y15812660D02*
X16223517D01*
X16206918Y15805785D01*
X16194215Y15793082D01*
X16187340Y15776483D01*
Y15758517D01*
X16194215Y15741919D01*
X16204839Y15731294D01*
X16206339Y15725914D01*
X16205115Y15718965D01*
X16194882Y15708733D01*
X16188007Y15692134D01*
Y15674168D01*
X16194882Y15657570D01*
X16207587Y15644865D01*
X16224184Y15637991D01*
X16242149D01*
X16258748Y15644865D01*
X16271451Y15657570D01*
X16278326Y15674168D01*
Y15692134D01*
X16271451Y15708733D01*
X16260828Y15719356D01*
X16259329Y15724738D01*
X16260551Y15731686D01*
X16270786Y15741919D01*
X16277660Y15758517D01*
Y15776483D01*
X16270786Y15793082D01*
X16258081Y15805785D01*
X16241483Y15812660D01*
D02*
G37*
G36*
X15375999Y15667661D02*
X15364001D01*
X15352916Y15663068D01*
X15344432Y15654584D01*
X15339841Y15643500D01*
Y15631500D01*
X15344432Y15620416D01*
X15352916Y15611932D01*
X15364001Y15607339D01*
X15375999D01*
X15387083Y15611932D01*
X15395567Y15620416D01*
X15400160Y15631500D01*
Y15643500D01*
X15395567Y15654584D01*
X15387083Y15663068D01*
X15375999Y15667661D01*
D02*
G37*
G36*
X14711945Y15692830D02*
X14693979D01*
X14677380Y15685954D01*
X14664677Y15673251D01*
X14657802Y15656653D01*
Y15638689D01*
X14664677Y15622089D01*
X14677380Y15609386D01*
X14693979Y15602512D01*
X14711945D01*
X14728543Y15609386D01*
X14741246Y15622089D01*
X14748122Y15638689D01*
Y15656653D01*
X14741246Y15673251D01*
X14728543Y15685954D01*
X14711945Y15692830D01*
D02*
G37*
G36*
X16561482Y15745160D02*
X16543517D01*
X16526920Y15738284D01*
X16514215Y15725581D01*
X16507339Y15708983D01*
Y15691017D01*
X16514215Y15674419D01*
X16526920Y15661716D01*
X16528574Y15661031D01*
X16528935Y15649883D01*
X16518175Y15639122D01*
X16511299Y15622523D01*
Y15604558D01*
X16518175Y15587959D01*
X16530878Y15575256D01*
X16547476Y15568381D01*
X16565442D01*
X16582040Y15575256D01*
X16594743Y15587959D01*
X16601619Y15604558D01*
Y15622523D01*
X16594743Y15639122D01*
X16582040Y15651825D01*
X16580386Y15652510D01*
X16580023Y15663658D01*
X16590785Y15674419D01*
X16597659Y15691017D01*
Y15708983D01*
X16590785Y15725581D01*
X16578081Y15738284D01*
X16561482Y15745160D01*
D02*
G37*
G36*
X15636482Y15545160D02*
X15618517D01*
X15601920Y15538284D01*
X15589215Y15525581D01*
X15582339Y15508983D01*
Y15491017D01*
X15589215Y15474419D01*
X15601920Y15461716D01*
X15618517Y15454840D01*
X15636482D01*
X15653081Y15461716D01*
X15665785Y15474419D01*
X15672659Y15491017D01*
Y15508983D01*
X15665785Y15525581D01*
X15653081Y15538284D01*
X15636482Y15545160D01*
D02*
G37*
G36*
X16206483Y15480161D02*
X16188518D01*
X16171919Y15473285D01*
X16159215Y15460580D01*
X16152341Y15443983D01*
Y15426018D01*
X16159215Y15409419D01*
X16171919Y15396715D01*
X16188518Y15389841D01*
X16206483D01*
X16223080Y15396715D01*
X16235785Y15409419D01*
X16242661Y15426018D01*
Y15443983D01*
X16235785Y15460580D01*
X16223080Y15473285D01*
X16206483Y15480161D01*
D02*
G37*
G36*
X19789999Y15563004D02*
X19714999D01*
X19689505Y15559647D01*
X19665749Y15549806D01*
X19645348Y15534152D01*
X19629694Y15513751D01*
X19619855Y15489993D01*
X19616496Y15464500D01*
X19619855Y15439005D01*
X19629694Y15415250D01*
X19645348Y15394849D01*
X19665749Y15379195D01*
X19689505Y15369354D01*
X19714999Y15365997D01*
X19789999D01*
X19815495Y15369354D01*
X19839252Y15379195D01*
X19859653Y15394849D01*
X19875307Y15415250D01*
X19885146Y15439005D01*
X19888503Y15464500D01*
X19885146Y15489993D01*
X19875307Y15513751D01*
X19859653Y15534152D01*
X19839252Y15549806D01*
X19815495Y15559647D01*
X19789999Y15563004D01*
D02*
G37*
G36*
X18038068Y15232214D02*
X18020100D01*
X18003503Y15225339D01*
X17990800Y15212634D01*
X17983923Y15196037D01*
Y15178072D01*
X17990800Y15161473D01*
X18003503Y15148769D01*
X18020100Y15141895D01*
X18038068D01*
X18054665Y15148769D01*
X18067369Y15161473D01*
X18074245Y15178072D01*
Y15196037D01*
X18067369Y15212634D01*
X18054665Y15225339D01*
X18038068Y15232214D01*
D02*
G37*
G36*
X16610567Y15167213D02*
X16592603D01*
X16576003Y15160338D01*
X16563300Y15147635D01*
X16556425Y15131036D01*
Y15113071D01*
X16563300Y15096472D01*
X16576003Y15083769D01*
X16592603Y15076894D01*
X16610567D01*
X16627167Y15083769D01*
X16639870Y15096472D01*
X16646744Y15113071D01*
Y15131036D01*
X16639870Y15147635D01*
X16627167Y15160338D01*
X16610567Y15167213D01*
D02*
G37*
G36*
X16323227Y15153088D02*
X16305263D01*
X16288663Y15146213D01*
X16275960Y15133508D01*
X16269086Y15116911D01*
Y15098946D01*
X16275960Y15082347D01*
X16288663Y15069643D01*
X16305263Y15062769D01*
X16323227D01*
X16339825Y15069643D01*
X16352528Y15082347D01*
X16359404Y15098946D01*
Y15116911D01*
X16352528Y15133508D01*
X16339825Y15146213D01*
X16323227Y15153088D01*
D02*
G37*
G36*
X12877499Y15058395D02*
X12855269Y15055469D01*
X12834552Y15046887D01*
X12816763Y15033237D01*
X12803113Y15015448D01*
X12794532Y14994733D01*
X12791605Y14972501D01*
Y14922501D01*
X12794532Y14900269D01*
X12803113Y14879553D01*
X12816763Y14861763D01*
X12834552Y14848112D01*
X12855269Y14839532D01*
X12877499Y14836604D01*
X12899731Y14839532D01*
X12920447Y14848112D01*
X12938237Y14861763D01*
X12951888Y14879553D01*
X12960468Y14900269D01*
X12963394Y14922501D01*
Y14972501D01*
X12960468Y14994733D01*
X12951888Y15015448D01*
X12938237Y15033237D01*
X12920447Y15046887D01*
X12899731Y15055469D01*
X12877499Y15058395D01*
D02*
G37*
G36*
X14353500Y15055894D02*
X14331268Y15052968D01*
X14310553Y15044386D01*
X14292763Y15030737D01*
X14279112Y15012949D01*
X14270532Y14992232D01*
X14267606Y14970000D01*
Y14920000D01*
X14270532Y14897769D01*
X14279112Y14877052D01*
X14292763Y14859264D01*
X14310553Y14845613D01*
X14331268Y14837032D01*
X14353500Y14834105D01*
X14375731Y14837032D01*
X14396448Y14845613D01*
X14414236Y14859264D01*
X14427887Y14877052D01*
X14436469Y14897769D01*
X14439395Y14920000D01*
Y14970000D01*
X14436469Y14992232D01*
X14427887Y15012949D01*
X14414236Y15030737D01*
X14396448Y15044386D01*
X14375731Y15052968D01*
X14353500Y15055894D01*
D02*
G37*
%LPD*%
D110*
X19735001Y23814000D02*
D03*
X19727499Y22853999D02*
D03*
X19764999Y16403000D02*
D03*
X19752499Y15210500D02*
D03*
X19727499Y23108000D02*
D03*
X19735001Y24067999D02*
D03*
X19727499Y22600000D02*
D03*
X19735001Y23560001D02*
D03*
X19764999Y16657001D02*
D03*
X19752499Y15464500D02*
D03*
D111*
X12290000Y18060001D02*
D03*
Y17950000D02*
D03*
D112*
X14607500Y14945000D02*
D03*
X13131500Y14947501D02*
D03*
X14942000Y22900000D02*
D03*
X14353500Y14945000D02*
D03*
X14561000Y22646001D02*
D03*
X14688000Y22900000D02*
D03*
X15450000D02*
D03*
X15069000Y22646001D02*
D03*
X14814999D02*
D03*
X15196001Y22900000D02*
D03*
X12877499Y14947501D02*
D03*
D113*
X10917500Y19910500D02*
D03*
Y19109500D02*
D03*
D114*
X10882500Y19942999D02*
D03*
X10297500D02*
D03*
X10882500Y19077000D02*
D03*
X10297500Y19077000D02*
D03*
D115*
X10952500Y19789999D02*
D03*
Y19230000D02*
D03*
X10882500Y19270000D02*
D03*
Y19350000D02*
D03*
Y19430000D02*
D03*
Y19750000D02*
D03*
Y19670000D02*
D03*
Y19589999D02*
D03*
X10952500Y19389999D02*
D03*
Y19470000D02*
D03*
Y19630000D02*
D03*
Y19550000D02*
D03*
D116*
X11430000Y15700000D02*
D03*
D117*
X10960000Y15400000D02*
D03*
Y16000000D02*
D03*
D118*
X15323000Y22646001D02*
D03*
D119*
X15414500Y23941000D02*
D03*
X14596500D02*
D03*
X15668500D02*
D03*
X14342500D02*
D03*
D120*
X14217999Y23230000D02*
D03*
X15792999D02*
D03*
D121*
X12914999Y24214999D02*
D03*
X13414999D02*
D03*
D123*
X11017500Y19870000D02*
D03*
D124*
X11017500Y19150000D02*
D03*
D125*
X17735001Y24114999D02*
D03*
X18035001D02*
D03*
D126*
X15694659Y19380200D02*
D03*
X13977499Y18442500D02*
D03*
X16082500Y18710001D02*
D03*
X13267500Y19772501D02*
D03*
X15187500Y20330000D02*
D03*
X15495000Y19450000D02*
D03*
X18180000Y18660001D02*
D03*
X14877499Y19527499D02*
D03*
X17935001Y18827499D02*
D03*
X15232500Y19517500D02*
D03*
X17932500Y19075000D02*
D03*
X18492500Y19117500D02*
D03*
X15364999Y19710001D02*
D03*
X15562500Y19189999D02*
D03*
X18235001Y19095000D02*
D03*
X15170000Y20100000D02*
D03*
X15752499Y20037500D02*
D03*
X15167500Y19450000D02*
D03*
X11056906Y23626488D02*
D03*
X15232500Y20037500D02*
D03*
X14497501Y19972501D02*
D03*
X14445000Y17880000D02*
D03*
X16142500Y19627499D02*
D03*
X14567500Y22064999D02*
D03*
X15880000Y19650000D02*
D03*
X14512500Y22064999D02*
D03*
X15567500Y20412500D02*
D03*
X19994092Y24253578D02*
D03*
X19744092Y24503578D02*
D03*
X19508806Y23757785D02*
D03*
X19244092Y24503578D02*
D03*
X19008806Y24257785D02*
D03*
X19508806D02*
D03*
X19008806Y23757785D02*
D03*
X19994092Y23753578D02*
D03*
X19258806Y23507785D02*
D03*
X19994092Y23253578D02*
D03*
X19035001Y23145000D02*
D03*
X18744092Y24503578D02*
D03*
X18508806Y24257785D02*
D03*
Y23757785D02*
D03*
Y24007785D02*
D03*
X18244092Y24503578D02*
D03*
X18008806Y24257785D02*
D03*
Y24007785D02*
D03*
X18758806Y23507785D02*
D03*
X18258806D02*
D03*
X18758806Y23257785D02*
D03*
X18008806D02*
D03*
X17995667Y23746065D02*
D03*
X20020053Y22755145D02*
D03*
X19994092Y22253578D02*
D03*
X19508806Y22257785D02*
D03*
Y22757785D02*
D03*
X19008806Y23007785D02*
D03*
Y22507785D02*
D03*
X19758806Y22007785D02*
D03*
X19250000Y22000000D02*
D03*
X19080000Y22005000D02*
D03*
X18515378Y23008966D02*
D03*
X18508806Y22507785D02*
D03*
X19003836Y22242226D02*
D03*
X18508806Y22257785D02*
D03*
X18258806Y22757785D02*
D03*
X18008806Y22507785D02*
D03*
X18258806Y22257785D02*
D03*
X18947040Y22000130D02*
D03*
X18510599Y22002563D02*
D03*
X18008806Y22007785D02*
D03*
X17758806Y24257785D02*
D03*
X17744092Y24503578D02*
D03*
X17758806Y24007785D02*
D03*
X17258806Y24257785D02*
D03*
X17244092Y24503578D02*
D03*
X17008806Y24007785D02*
D03*
X17758806Y23507785D02*
D03*
X17508806Y23257785D02*
D03*
X17464999Y23785001D02*
D03*
X17258806Y23757785D02*
D03*
X16758806Y24257785D02*
D03*
X16744092Y24503578D02*
D03*
X16758806Y23757785D02*
D03*
X16508806Y24007785D02*
D03*
X16263295Y24250679D02*
D03*
X16244092Y24503578D02*
D03*
X16258806Y23757785D02*
D03*
X16902322Y23282207D02*
D03*
X17852499Y23139999D02*
D03*
X17758411Y22995917D02*
D03*
X17061456Y22978032D02*
D03*
X17508806Y22507785D02*
D03*
Y22757785D02*
D03*
X17758806Y22257785D02*
D03*
X17508806Y22007785D02*
D03*
X17258806Y22257785D02*
D03*
X17093958Y22593031D02*
D03*
X17004782Y22005441D02*
D03*
X16600000Y23155000D02*
D03*
X16599628Y23028865D02*
D03*
X16602499Y22900000D02*
D03*
X16048807Y22037785D02*
D03*
X19997472Y21747697D02*
D03*
X19508806Y21757785D02*
D03*
X19994141Y20768086D02*
D03*
X19994092Y21253578D02*
D03*
X19258806Y21007785D02*
D03*
Y21257785D02*
D03*
Y20757785D02*
D03*
X19024541Y20555128D02*
D03*
X18758806Y21507785D02*
D03*
X18508806Y21757785D02*
D03*
Y21007785D02*
D03*
Y21257785D02*
D03*
X17875000Y21752499D02*
D03*
X18852499Y20550000D02*
D03*
X19258806Y20507785D02*
D03*
X19217039Y20312630D02*
D03*
X19994092Y20253577D02*
D03*
X19256010Y20251953D02*
D03*
X19984146Y19765150D02*
D03*
X19177040Y19722629D02*
D03*
X19039999Y20085001D02*
D03*
X18847501Y20322501D02*
D03*
X18852499Y20070000D02*
D03*
X18847501Y19697501D02*
D03*
X17700000Y20714999D02*
D03*
X17535001Y20614999D02*
D03*
X17697501Y20314999D02*
D03*
X17508806Y21507785D02*
D03*
X16648807Y21857785D02*
D03*
X17508806Y21257785D02*
D03*
X16474194Y21262964D02*
D03*
X16388806Y21457785D02*
D03*
X16308806Y21117786D02*
D03*
X16118806Y20947784D02*
D03*
X17258806Y20757785D02*
D03*
X16928806Y20887785D02*
D03*
X17508806Y20757785D02*
D03*
X16591458Y20575533D02*
D03*
X16162500Y20250000D02*
D03*
X17673923Y19855531D02*
D03*
X17695930Y19688554D02*
D03*
X16102499Y20217500D02*
D03*
X17469351Y20097955D02*
D03*
X16439999Y19917500D02*
D03*
X16012500Y19710001D02*
D03*
X15938806Y22117786D02*
D03*
X15897017Y21981937D02*
D03*
X15764517Y21989436D02*
D03*
X15758806Y23007785D02*
D03*
X15744092Y24503578D02*
D03*
X15758806Y22507785D02*
D03*
Y22757785D02*
D03*
X15644540Y22602629D02*
D03*
X15697017Y21989436D02*
D03*
X15838806Y21727785D02*
D03*
X15976459Y20395532D02*
D03*
X15882500Y20100000D02*
D03*
X15781458Y20438033D02*
D03*
X15705000Y21807500D02*
D03*
X15689999Y20100000D02*
D03*
X15687500Y19962498D02*
D03*
X15505605Y23759955D02*
D03*
X15487500Y23200000D02*
D03*
X15584517Y22374435D02*
D03*
X15578806Y22197784D02*
D03*
X15518806Y21997784D02*
D03*
X15498958Y21650533D02*
D03*
X15410001Y23295000D02*
D03*
X15258806Y23257785D02*
D03*
X15439999Y23200000D02*
D03*
X15410001Y23247501D02*
D03*
X15258806Y24007785D02*
D03*
X15244092Y24503578D02*
D03*
X15253680Y23503970D02*
D03*
X15410001Y23117500D02*
D03*
Y23164999D02*
D03*
X15455000Y22227499D02*
D03*
X15179517Y22371936D02*
D03*
X15567500Y20352499D02*
D03*
X15427499Y20035001D02*
D03*
X15545000Y19939999D02*
D03*
X15305000Y21620000D02*
D03*
X15298807Y21207785D02*
D03*
X15198956Y21410532D02*
D03*
Y21315532D02*
D03*
X15397501Y20530000D02*
D03*
X15198946Y21060315D02*
D03*
X15185001Y20639999D02*
D03*
X15186458Y20273032D02*
D03*
X15820000Y19905000D02*
D03*
X15880000Y19839999D02*
D03*
X15685001Y19839999D02*
D03*
X15810001Y19642500D02*
D03*
X15688271Y19707076D02*
D03*
X15685773Y19772075D02*
D03*
X15687500Y19645000D02*
D03*
X15623273Y19837074D02*
D03*
Y19774574D02*
D03*
X15558270Y19839575D02*
D03*
X15623273Y19709575D02*
D03*
X15558270Y19707076D02*
D03*
Y19772075D02*
D03*
X15493272Y19842075D02*
D03*
X15297501Y19839999D02*
D03*
X15493272Y19709575D02*
D03*
X15492500Y19780000D02*
D03*
X15625000Y19642500D02*
D03*
X15492500Y19645000D02*
D03*
X15362500Y19645000D02*
D03*
X19994092Y18753578D02*
D03*
Y19253578D02*
D03*
X19997475Y18265742D02*
D03*
X19758806Y18507785D02*
D03*
X19008806Y19007785D02*
D03*
X18750000Y19000000D02*
D03*
X19008806Y18757785D02*
D03*
X18758806D02*
D03*
X19502023Y17744514D02*
D03*
Y17994514D02*
D03*
X20002023Y17744514D02*
D03*
X19744092Y17503578D02*
D03*
X19258806Y18257785D02*
D03*
X19002023Y17994514D02*
D03*
Y17744514D02*
D03*
X18274472Y19498077D02*
D03*
X18193192Y19127238D02*
D03*
X18434492Y19078978D02*
D03*
X18258806Y18757785D02*
D03*
X18005232Y19076437D02*
D03*
X17802032Y18751318D02*
D03*
X18089052Y18664958D02*
D03*
X18502023Y17994514D02*
D03*
X18353212Y18649718D02*
D03*
X18744092Y17503578D02*
D03*
X18502023Y17744514D02*
D03*
X18030632Y18611618D02*
D03*
X18002023Y17994514D02*
D03*
Y17744514D02*
D03*
X19994092Y17253578D02*
D03*
X19508806Y17257785D02*
D03*
X19994092Y16753578D02*
D03*
X19575897Y17021031D02*
D03*
X19244092Y17503578D02*
D03*
X19000000Y17250000D02*
D03*
X19008806Y17007785D02*
D03*
X18508806D02*
D03*
X18244092Y17503578D02*
D03*
X18008806Y17257785D02*
D03*
X18508806D02*
D03*
X17518806Y18747784D02*
D03*
X17502023Y17994514D02*
D03*
X17744092Y17503578D02*
D03*
X17502023Y17744514D02*
D03*
X17258806Y17257785D02*
D03*
X17244092Y17503578D02*
D03*
X17208957Y17178032D02*
D03*
X17763197Y17006757D02*
D03*
X16994092Y18003578D02*
D03*
X16698807Y18737785D02*
D03*
X16994092Y17753578D02*
D03*
X16744092Y17503578D02*
D03*
X16571458Y18918031D02*
D03*
X16494092Y18003578D02*
D03*
Y17753578D02*
D03*
X16758806Y17257785D02*
D03*
X16542500Y16922501D02*
D03*
X16672501Y16767500D02*
D03*
X19994092Y16253578D02*
D03*
X19558806Y16387785D02*
D03*
X19994092Y16003578D02*
D03*
X19744092D02*
D03*
X19068806Y16247784D02*
D03*
X19244092Y16003578D02*
D03*
X19744092Y15753578D02*
D03*
X19494092D02*
D03*
X20000000Y15500000D02*
D03*
X19244092Y15503578D02*
D03*
X18994092Y15753578D02*
D03*
X18744092Y16003578D02*
D03*
X18494092Y15753578D02*
D03*
X18244092Y16003578D02*
D03*
X17994092Y15753578D02*
D03*
X18244092Y15503578D02*
D03*
X19744092Y15003578D02*
D03*
X19538806Y15197784D02*
D03*
X20000000Y15000000D02*
D03*
X19750000Y14750000D02*
D03*
X19244092Y15003578D02*
D03*
X19018806Y15147784D02*
D03*
X19250000Y14750000D02*
D03*
X18750000D02*
D03*
X18250000D02*
D03*
X17744092Y16003578D02*
D03*
X17356458Y15910532D02*
D03*
X17494092Y15753578D02*
D03*
X16987308Y16010007D02*
D03*
X16744092Y15753578D02*
D03*
X16630000Y15675000D02*
D03*
X16494092Y16003578D02*
D03*
X16602499Y15552499D02*
D03*
X17744092Y15503578D02*
D03*
X17750000Y14750000D02*
D03*
X17250000D02*
D03*
X16494092Y15003578D02*
D03*
X16750000Y14750000D02*
D03*
X16138959Y19500533D02*
D03*
X15947501Y19382500D02*
D03*
X15750000Y19542500D02*
D03*
X16360001Y19007500D02*
D03*
X16087500Y19289999D02*
D03*
X16046457Y19170532D02*
D03*
X15764999Y19135001D02*
D03*
X15870000Y19010001D02*
D03*
X15487500Y19567500D02*
D03*
X15492500Y19320000D02*
D03*
X15297501Y19385001D02*
D03*
Y19580000D02*
D03*
X15597501Y19137500D02*
D03*
X15395000Y19217500D02*
D03*
X15239999Y19160001D02*
D03*
X16253958Y18710532D02*
D03*
X16252470Y17494060D02*
D03*
X16250000Y17250000D02*
D03*
X16433957Y16368031D02*
D03*
X16196458Y16325533D02*
D03*
X15994092Y18003578D02*
D03*
X15914999Y18780000D02*
D03*
X15994092Y17753578D02*
D03*
X15744092Y17503578D02*
D03*
X15994092Y16503578D02*
D03*
X15744092Y16753578D02*
D03*
X16196458Y16073032D02*
D03*
X16232500Y15850000D02*
D03*
X16250000Y14750000D02*
D03*
X16238957Y15105531D02*
D03*
X16000000Y15000000D02*
D03*
X15750000Y15250000D02*
D03*
Y14750000D02*
D03*
X15597501Y18747501D02*
D03*
X15494092Y17753578D02*
D03*
Y18003578D02*
D03*
X15244092Y15253578D02*
D03*
X15500000Y15000000D02*
D03*
X15250000Y14750000D02*
D03*
X15015979Y24251611D02*
D03*
X15008806Y23757785D02*
D03*
X14939999Y23225000D02*
D03*
X14758806Y23507785D02*
D03*
X15062016Y22224435D02*
D03*
X14758806Y24007785D02*
D03*
X14744092Y24503578D02*
D03*
X14508806Y23257785D02*
D03*
Y23757785D02*
D03*
X14244092Y24503578D02*
D03*
X14008806Y24007785D02*
D03*
Y23507785D02*
D03*
X14258806Y22507785D02*
D03*
Y22757785D02*
D03*
X14298956Y22395532D02*
D03*
X14258806Y23007785D02*
D03*
X14538957Y22115532D02*
D03*
X14387016Y22161935D02*
D03*
X15139999Y22030000D02*
D03*
Y21947501D02*
D03*
X14339517Y22161935D02*
D03*
X13744092Y24503578D02*
D03*
X13508806Y24007785D02*
D03*
X13758806Y23757785D02*
D03*
X13244092Y24503578D02*
D03*
X13758806Y23257785D02*
D03*
X13512228Y23492760D02*
D03*
X13293958Y23278032D02*
D03*
X13508806Y23257785D02*
D03*
X13203957Y23645532D02*
D03*
X13008806Y24007785D02*
D03*
X12744092Y24503578D02*
D03*
X13121457Y23265532D02*
D03*
X12758806Y23257785D02*
D03*
X13806458Y23105531D02*
D03*
X12758806Y23007785D02*
D03*
X13631458Y22763033D02*
D03*
X13500000Y22500000D02*
D03*
Y22000000D02*
D03*
Y22250000D02*
D03*
X13008806Y22507785D02*
D03*
X12770607Y22755255D02*
D03*
X13258806Y22257785D02*
D03*
X15100000Y21787500D02*
D03*
X14796458Y21845532D02*
D03*
X14664517Y21621936D02*
D03*
X14662016Y21456937D02*
D03*
X14620000Y21367500D02*
D03*
X14782500Y21364999D02*
D03*
X15080000Y21105000D02*
D03*
X14988806Y20937785D02*
D03*
X15092500Y20232500D02*
D03*
X14872501Y20880000D02*
D03*
X14605000Y21017500D02*
D03*
X14620000Y20700000D02*
D03*
X14781458Y20230531D02*
D03*
X14497017Y21621936D02*
D03*
X14499516Y21454436D02*
D03*
X14355000Y21852499D02*
D03*
X14337500Y21230000D02*
D03*
X14298807Y21597784D02*
D03*
X13958806Y21527785D02*
D03*
X12761847Y21501692D02*
D03*
X12742500Y21314999D02*
D03*
X14220000Y21120000D02*
D03*
X13948807Y21117786D02*
D03*
X14189999Y21020000D02*
D03*
X12980132Y21012294D02*
D03*
X12976027Y21241585D02*
D03*
X12758806Y21007785D02*
D03*
X14307500Y20787500D02*
D03*
X14425000Y20272501D02*
D03*
X14073956Y20308032D02*
D03*
X13982500Y20757500D02*
D03*
X13091457Y20698032D02*
D03*
X12980704Y20759572D02*
D03*
X13283957Y20528032D02*
D03*
X13121457Y20478032D02*
D03*
X13173956Y20395532D02*
D03*
X13321457Y20350533D02*
D03*
X12322500Y24412500D02*
D03*
X11994092Y24503578D02*
D03*
X11494092D02*
D03*
X11758806Y24257785D02*
D03*
X11508806Y24007785D02*
D03*
X12508806D02*
D03*
X12008806D02*
D03*
X12508806Y23507785D02*
D03*
X12008806Y23257785D02*
D03*
X11758806Y23507785D02*
D03*
Y23757785D02*
D03*
X11508806Y23257785D02*
D03*
X11307040Y23177629D02*
D03*
X11258806Y23757785D02*
D03*
Y24257785D02*
D03*
Y23507785D02*
D03*
X11300000Y23070000D02*
D03*
X12508806Y23007785D02*
D03*
Y22507785D02*
D03*
X12258806Y22757785D02*
D03*
X12027500Y23012500D02*
D03*
X12508806Y22007785D02*
D03*
X12377500Y21830000D02*
D03*
X12508806Y21507785D02*
D03*
Y21757785D02*
D03*
X12258806Y22007785D02*
D03*
X11508806D02*
D03*
X12010941Y22001286D02*
D03*
X11758806Y22007785D02*
D03*
X11282500Y23012500D02*
D03*
X11759629Y21510776D02*
D03*
X11758806Y21757785D02*
D03*
X12008806Y21507785D02*
D03*
X11508806D02*
D03*
Y21757785D02*
D03*
X11500000Y21250000D02*
D03*
X10994092Y24503578D02*
D03*
X10967500Y24410001D02*
D03*
X10969989Y24239055D02*
D03*
X11057500Y23697501D02*
D03*
X11008806Y23257785D02*
D03*
X10888957Y23853032D02*
D03*
X10753957Y24020377D02*
D03*
X10507053Y24491078D02*
D03*
X10244092Y24253578D02*
D03*
X10508806Y23757785D02*
D03*
X10758806Y23507785D02*
D03*
X10810000Y23335001D02*
D03*
X10748549Y22998438D02*
D03*
X10508806Y23257785D02*
D03*
X10244092Y23753578D02*
D03*
Y23253578D02*
D03*
X11008806Y22257785D02*
D03*
X10972500Y22995000D02*
D03*
X10508806Y22757785D02*
D03*
X10758806Y22507785D02*
D03*
X10244092Y22253578D02*
D03*
Y22753578D02*
D03*
X10500000Y22250000D02*
D03*
X10244092Y21753578D02*
D03*
Y21253578D02*
D03*
X12000000Y21250000D02*
D03*
X11750000D02*
D03*
X12000000Y21000000D02*
D03*
X11750000D02*
D03*
X12258806Y20757785D02*
D03*
X11758806D02*
D03*
X10244092Y20753577D02*
D03*
X10508806Y20507785D02*
D03*
X12005517Y20503654D02*
D03*
X11508806Y20507785D02*
D03*
X11758806Y20257785D02*
D03*
X11258806D02*
D03*
X10997614Y20491978D02*
D03*
X10758806Y20257785D02*
D03*
X10244092Y20253577D02*
D03*
X14937500Y20145000D02*
D03*
X14556458Y19473032D02*
D03*
X14541458Y20140532D02*
D03*
X14852499Y19435001D02*
D03*
X14907500Y19330000D02*
D03*
X14353166Y20072723D02*
D03*
X14488959Y19858032D02*
D03*
X13483958Y19960532D02*
D03*
X14472501Y19637500D02*
D03*
X13516457Y19550533D02*
D03*
X14008806Y19507785D02*
D03*
X13758806D02*
D03*
X13347501Y19772501D02*
D03*
X15127499Y19245000D02*
D03*
X14877499Y18707500D02*
D03*
X14994092Y18003578D02*
D03*
X14698807Y18007785D02*
D03*
X14453957Y19173032D02*
D03*
X14017007Y19227187D02*
D03*
X14652499Y19135001D02*
D03*
X14008806Y19007785D02*
D03*
X13756078Y19248228D02*
D03*
X13808806Y18667786D02*
D03*
X13508806Y18757785D02*
D03*
X13258806Y19007785D02*
D03*
X13008806Y19257785D02*
D03*
Y18757785D02*
D03*
X13978958Y18495532D02*
D03*
X13978806Y18327785D02*
D03*
X13994092Y18003578D02*
D03*
X13744092Y18253578D02*
D03*
X13368806Y18247784D02*
D03*
X12994092Y18253578D02*
D03*
X13244092Y18003578D02*
D03*
X12500000Y19747501D02*
D03*
X12767068Y18999924D02*
D03*
X12500000Y18750000D02*
D03*
X12568957Y18078032D02*
D03*
X12494092Y18253578D02*
D03*
X12512134Y17760629D02*
D03*
X12244092Y18503578D02*
D03*
X14994092Y17503578D02*
D03*
Y17753578D02*
D03*
X14558806Y17707785D02*
D03*
X14494092Y17503578D02*
D03*
X15108957Y17133032D02*
D03*
X14995399Y16985098D02*
D03*
X14494092Y17003578D02*
D03*
X14995399Y16496507D02*
D03*
X14298807Y17247784D02*
D03*
Y17737785D02*
D03*
X13994092Y17503578D02*
D03*
X13744092Y17753578D02*
D03*
Y17253578D02*
D03*
X13994092Y16253578D02*
D03*
X13986967Y15501329D02*
D03*
X13744092Y15003578D02*
D03*
X14000000Y14750000D02*
D03*
X12994092Y17753578D02*
D03*
X13260857Y17492737D02*
D03*
X12994092Y17253578D02*
D03*
X13494092Y16003578D02*
D03*
Y16753578D02*
D03*
X13735889Y15505437D02*
D03*
X13494092Y15503578D02*
D03*
X12744092Y15753578D02*
D03*
Y16253578D02*
D03*
X13494092Y15003578D02*
D03*
X12744092D02*
D03*
Y16753578D02*
D03*
X12250000Y14750000D02*
D03*
X12244092Y15503578D02*
D03*
Y16003578D02*
D03*
Y16503578D02*
D03*
X12240000Y15130000D02*
D03*
X11758806Y19507785D02*
D03*
X11994092Y19253578D02*
D03*
X11494092D02*
D03*
X11994092Y18253578D02*
D03*
X11744092Y18003578D02*
D03*
X10244092Y19753578D02*
D03*
X10598806Y19747784D02*
D03*
X10895000Y19512500D02*
D03*
X10598806Y19247784D02*
D03*
X10562500Y19420000D02*
D03*
X10244092Y19253578D02*
D03*
X11244092Y19003578D02*
D03*
X10244092Y18753578D02*
D03*
X10994092Y18003578D02*
D03*
X10244092Y18253578D02*
D03*
X11744092Y17503578D02*
D03*
Y17003578D02*
D03*
Y16503578D02*
D03*
Y16003578D02*
D03*
X11750000Y14750000D02*
D03*
X11744092Y15503578D02*
D03*
X11244092D02*
D03*
X11250000Y14750000D02*
D03*
X10994092Y17753578D02*
D03*
X10898957Y17118031D02*
D03*
X10244092Y17253578D02*
D03*
Y17753578D02*
D03*
X10994092Y15753578D02*
D03*
X10750000Y14750000D02*
D03*
X10250000Y15000000D02*
D03*
X10244092Y16003578D02*
D03*
Y16503578D02*
D03*
Y15503578D02*
D03*
X13980000Y18385001D02*
D03*
X16139999Y18710001D02*
D03*
X15950000Y19645000D02*
D03*
X17692500Y18750000D02*
D03*
X15620000Y19450000D02*
D03*
X19080000Y20139999D02*
D03*
X15034286Y19871745D02*
D03*
X18247501Y19572501D02*
D03*
X15947501Y19970000D02*
D03*
X13092500Y20755000D02*
D03*
X15360001Y20100000D02*
D03*
X14705000Y21850000D02*
D03*
X15950000Y19580000D02*
D03*
X14707500Y18762500D02*
D03*
X15232500Y19382500D02*
D03*
X13980000Y18602499D02*
D03*
X16189999Y19582500D02*
D03*
X16195000Y18710001D02*
D03*
X16114999Y19105000D02*
D03*
X16184113Y19903548D02*
D03*
X13442500Y19727499D02*
D03*
X18700000Y21147501D02*
D03*
X18695000Y20677499D02*
D03*
X18217500Y19442500D02*
D03*
X16450000Y19864999D02*
D03*
X15755000Y20100000D02*
D03*
X16087500Y20352499D02*
D03*
X16255000Y19805000D02*
D03*
X18852499Y20239999D02*
D03*
X16535001Y18960001D02*
D03*
X17007500Y22595000D02*
D03*
X17062128Y22893864D02*
D03*
X14697501Y17680000D02*
D03*
X15620000Y19385001D02*
D03*
X14507500Y19592500D02*
D03*
X13337500Y20500000D02*
D03*
X15232500Y19970000D02*
D03*
X15905000Y20337500D02*
D03*
X13437500Y19664999D02*
D03*
X13982500Y18550000D02*
D03*
X16030000Y18710001D02*
D03*
X18062500Y19120000D02*
D03*
X15947501Y19447501D02*
D03*
X14455000Y19114999D02*
D03*
X16012500Y19382500D02*
D03*
X14497501Y19912500D02*
D03*
X14642500Y17762500D02*
D03*
X14864999Y18757500D02*
D03*
X15752499Y19385001D02*
D03*
X14814999Y18685001D02*
D03*
X13442500Y19912500D02*
D03*
X15950000Y19514999D02*
D03*
X15600000Y20297501D02*
D03*
X18850000Y19750000D02*
D03*
X18162500Y19527499D02*
D03*
X15947501Y19902499D02*
D03*
X18850000Y20392500D02*
D03*
X15947501Y19777499D02*
D03*
X13295000Y20587500D02*
D03*
X15232500Y19907500D02*
D03*
X14544868Y20216327D02*
D03*
X15230000Y19580000D02*
D03*
X13187500Y20462500D02*
D03*
X14010001Y20407500D02*
D03*
X15177499Y20700000D02*
D03*
X15117500Y20552499D02*
D03*
X17075000Y23277499D02*
D03*
X16505000Y18914999D02*
D03*
X15880000Y19450000D02*
D03*
X15805000Y19535001D02*
D03*
X15780000Y20375000D02*
D03*
X13439999Y19607500D02*
D03*
Y19857500D02*
D03*
X16135001Y19710001D02*
D03*
X16335001Y19907500D02*
D03*
X18852499Y20475000D02*
D03*
X18814999Y19127499D02*
D03*
X16222501Y19677499D02*
D03*
X17967500Y18562500D02*
D03*
X15557500Y19450000D02*
D03*
X15297501Y19447501D02*
D03*
X15039999Y19207500D02*
D03*
X14300000Y22337500D02*
D03*
X14500000Y19807500D02*
D03*
X14642500Y17825000D02*
D03*
X14795000Y20050000D02*
D03*
X15817500Y19385001D02*
D03*
X14445000Y19592500D02*
D03*
X13375000Y20822501D02*
D03*
X15817500Y19970000D02*
D03*
X14762500Y21012500D02*
D03*
X19027499Y21789999D02*
D03*
X19014999Y21847501D02*
D03*
X19155000Y20662500D02*
D03*
X19019540Y20315129D02*
D03*
X18295000Y23789999D02*
D03*
X16605000Y23410001D02*
D03*
X17685001Y20552499D02*
D03*
X17705495Y20073277D02*
D03*
X16097501Y20160001D02*
D03*
X15895000Y21897501D02*
D03*
X15539517Y24259436D02*
D03*
X15895000Y21850000D02*
D03*
X15392500Y21770000D02*
D03*
X15510001Y21400000D02*
D03*
X15416853Y20244518D02*
D03*
X15427499Y20100000D02*
D03*
X19024541Y19810129D02*
D03*
X15800000Y19777499D02*
D03*
X19027040Y19665129D02*
D03*
X16232500Y18820000D02*
D03*
X15810001Y19587500D02*
D03*
X15692500Y19545000D02*
D03*
X15622501Y19962498D02*
D03*
X15555000Y19517500D02*
D03*
X15377499Y19942499D02*
D03*
X15362500Y19579999D02*
D03*
X15357500Y19517500D02*
D03*
X15364999Y19385001D02*
D03*
X15370000Y15637500D02*
D03*
X14457500Y24257500D02*
D03*
X14602499Y22322501D02*
D03*
X14272017Y22159436D02*
D03*
X12150000Y22480000D02*
D03*
X15105000Y21617500D02*
D03*
X12632500Y21972501D02*
D03*
X12175000Y21830000D02*
D03*
X12025000Y21697501D02*
D03*
X11514540Y23065129D02*
D03*
X11512040Y23182629D02*
D03*
X11537040Y23012630D02*
D03*
X11210000Y23864999D02*
D03*
X11364540Y22492628D02*
D03*
X10854540D02*
D03*
X11800000Y22295000D02*
D03*
X11632500Y22300000D02*
D03*
X14917500Y20814999D02*
D03*
X14539999Y20832500D02*
D03*
X14512500Y20785001D02*
D03*
X14889999Y20677499D02*
D03*
X14114999Y20900000D02*
D03*
X14070000Y20872501D02*
D03*
X14485001Y20830000D02*
D03*
X14114999Y20852499D02*
D03*
X15095000Y20092500D02*
D03*
X15083270Y19369576D02*
D03*
X14872501Y19285001D02*
D03*
X13509058Y20355545D02*
D03*
X15230000Y19645000D02*
D03*
X13442500Y19552499D02*
D03*
X15177499Y20547501D02*
D03*
X15242500Y20650000D02*
D03*
X17705000Y20160001D02*
D03*
X16620000Y20475000D02*
D03*
X18850000Y19814999D02*
D03*
X15687500Y20037500D02*
D03*
X18147501Y19095000D02*
D03*
X15560001Y19385001D02*
D03*
X14022501Y20357500D02*
D03*
X13239999Y20364999D02*
D03*
X14602499Y19242500D02*
D03*
X14500000Y19750000D02*
D03*
X15230000Y19710001D02*
D03*
X16476611Y19006615D02*
D03*
X15642500Y21792500D02*
D03*
X15882500Y18739999D02*
D03*
X15685001Y19185001D02*
D03*
X13437500Y19795000D02*
D03*
X15882500Y19777499D02*
D03*
X16387500Y19910001D02*
D03*
X18257500Y19347501D02*
D03*
X18057500Y19482500D02*
D03*
X15947501Y19842500D02*
D03*
X15817500Y20100000D02*
D03*
X16100000Y20300000D02*
D03*
X18300000Y18607500D02*
D03*
X15427499Y19385001D02*
D03*
X18852499Y20630000D02*
D03*
X16927499Y19375000D02*
D03*
X19097501Y20050000D02*
D03*
X15232500Y19839999D02*
D03*
X14557500Y19422501D02*
D03*
X14762500Y17785001D02*
D03*
X15687500Y19450000D02*
D03*
X14802499Y20332500D02*
D03*
X13139999Y20532500D02*
D03*
X15300000Y20645000D02*
D03*
X15237500Y20545000D02*
D03*
X14657500Y20232500D02*
D03*
X14664999Y19264999D02*
D03*
X15470000Y21592500D02*
D03*
X16432500Y19052499D02*
D03*
X14185564Y20901514D02*
D03*
X14185001Y20839999D02*
D03*
X14482500Y20897501D02*
D03*
X15124516Y21411935D02*
D03*
X14537500Y20897501D02*
D03*
X14927017Y22001936D02*
D03*
Y21936935D02*
D03*
X14555000Y21222501D02*
D03*
X14839999D02*
D03*
X10947500Y23852499D02*
D03*
X15125000Y21314999D02*
D03*
D127*
X19345000Y16392500D02*
D03*
X18892500Y16714999D02*
D03*
X17146062Y16951234D02*
D03*
X17664999Y16687500D02*
D03*
X17441061Y16813734D02*
D03*
X17148563Y16826234D02*
D03*
X18875000Y15512500D02*
D03*
X18100000Y16170000D02*
D03*
X17972501D02*
D03*
X19342500Y15207500D02*
D03*
X18092500Y14957500D02*
D03*
X17125000Y15702499D02*
D03*
Y15572501D02*
D03*
X16724464Y16213734D02*
D03*
X16851965Y16211235D02*
D03*
X17642500Y15462500D02*
D03*
X17964999Y14957500D02*
D03*
X17439999Y15564999D02*
D03*
X16825000Y14955000D02*
D03*
X16685001Y14957500D02*
D03*
X16132500Y17280000D02*
D03*
X16227499Y16814999D02*
D03*
X15842500Y16439999D02*
D03*
X16154324Y16015376D02*
D03*
X16156824Y15897874D02*
D03*
X16207500Y15557500D02*
D03*
X15777499Y15572501D02*
D03*
X15727499Y17325000D02*
D03*
X15672501Y16370000D02*
D03*
X15495000D02*
D03*
X15489999Y15955000D02*
D03*
X15712500Y15767500D02*
D03*
X15525000Y15507500D02*
D03*
X15197501Y15697501D02*
D03*
X15205000Y15572501D02*
D03*
X15152499Y17557500D02*
D03*
X15166583Y16829555D02*
D03*
Y16709554D02*
D03*
X14175470Y16468535D02*
D03*
X14607433Y15376541D02*
D03*
X14552432Y15491541D02*
D03*
X13102594Y15376089D02*
D03*
X11690000Y16389999D02*
D03*
Y16300000D02*
D03*
X11560000Y16200000D02*
D03*
X11470000D02*
D03*
X11120000Y16722501D02*
D03*
X11107500Y16597501D02*
D03*
X10690000Y16780000D02*
D03*
X10545000Y16770000D02*
D03*
X14907251Y17267175D02*
D03*
X15627499Y15500000D02*
D03*
X15564999Y16210001D02*
D03*
X16082500Y17452499D02*
D03*
X17272501Y15910001D02*
D03*
X17200000Y17062500D02*
D03*
X16339246Y16347928D02*
D03*
X16314244Y15107928D02*
D03*
X15979245Y17010428D02*
D03*
X16601585Y15122054D02*
D03*
X14702962Y15647672D02*
D03*
X16869084Y15704555D02*
D03*
X18029083Y15187054D02*
D03*
X18036584Y16399554D02*
D03*
X16662500Y16427499D02*
D03*
X16981586Y17037054D02*
D03*
X16451585Y16747054D02*
D03*
X15399084Y16714554D02*
D03*
X16197501Y15435001D02*
D03*
X15210001Y17135001D02*
D03*
X16552499Y15700000D02*
D03*
X16232500Y15767500D02*
D03*
X16556459Y15613541D02*
D03*
X16233167Y15683151D02*
D03*
X16195000Y16139999D02*
D03*
Y16255000D02*
D03*
X16599905Y16783234D02*
D03*
X16539999Y16839999D02*
D03*
D128*
X13285001Y23527499D02*
D03*
X13130000Y23420000D02*
D03*
X13687650Y23116081D02*
D03*
X13763481Y22889490D02*
D03*
X13533481Y22824490D02*
D03*
X12687500Y20662500D02*
D03*
X12690000Y20600000D02*
D03*
X12781689Y20380659D02*
D03*
X11087500Y21805000D02*
D03*
X11085000Y21917500D02*
D03*
X10922500Y21947501D02*
D03*
X10925000Y21837500D02*
D03*
X12446689Y20285660D02*
D03*
X12668771Y20258466D02*
D03*
X12370967Y20547260D02*
D03*
Y20484760D02*
D03*
X11392500Y20982500D02*
D03*
X11305000Y20900000D02*
D03*
X11195000D02*
D03*
X11050000Y20872501D02*
D03*
X12346689Y20378160D02*
D03*
X12329189Y20283160D02*
D03*
X11193630Y20789859D02*
D03*
X11306130D02*
D03*
X12953098Y20148074D02*
D03*
X12950598Y20023074D02*
D03*
X12937500Y19475000D02*
D03*
X12665640Y19226520D02*
D03*
X12245000Y19970000D02*
D03*
X12130000Y20139999D02*
D03*
X12430000Y18110001D02*
D03*
X12178629Y17873630D02*
D03*
X12590849Y17531529D02*
D03*
Y17404028D02*
D03*
X12732500Y17264999D02*
D03*
X12220000Y17395000D02*
D03*
X12225397Y17210950D02*
D03*
X12235000Y17132500D02*
D03*
X12045000Y20137500D02*
D03*
X12020544Y19418083D02*
D03*
X11965000Y19689999D02*
D03*
X12107500Y18989999D02*
D03*
X12020000Y18914999D02*
D03*
X12032500Y18630000D02*
D03*
X12112500Y18500000D02*
D03*
X11720000Y18760001D02*
D03*
X11450000Y19585001D02*
D03*
X11477500Y19420000D02*
D03*
X11440000Y18830000D02*
D03*
X11090000Y18717500D02*
D03*
X11440000Y18667500D02*
D03*
X11092500Y18587500D02*
D03*
X11090000Y18457500D02*
D03*
X12122897Y17395949D02*
D03*
X12120000Y17214999D02*
D03*
X11952500Y17289999D02*
D03*
X11217500Y17080000D02*
D03*
X11217308Y17014999D02*
D03*
X11212500Y16872501D02*
D03*
X10852500Y16867500D02*
D03*
X12570000Y17932500D02*
D03*
Y17995000D02*
D03*
X13810001Y23035001D02*
D03*
X13762500Y22957500D02*
D03*
X11373473Y21783659D02*
D03*
Y21913660D02*
D03*
Y21976160D02*
D03*
Y21851160D02*
D03*
X12812500Y20214999D02*
D03*
X12374516Y20066493D02*
D03*
X11402500Y20500000D02*
D03*
X12777500Y19407500D02*
D03*
X12178044Y19683083D02*
D03*
X13700000Y22762500D02*
D03*
X11332500Y19420000D02*
D03*
X12520000Y17010001D02*
D03*
X12385000D02*
D03*
X12452500D02*
D03*
X11158618Y19534836D02*
D03*
X11127500Y19877499D02*
D03*
Y19972501D02*
D03*
X13287148Y23621146D02*
D03*
X13119330Y23621005D02*
D03*
X13112500Y23335001D02*
D03*
X13302499Y23337500D02*
D03*
X11950116Y17398268D02*
D03*
X12389629Y17615096D02*
D03*
X12450000Y17614999D02*
D03*
X11940000Y18475000D02*
D03*
X11937500Y18539999D02*
D03*
Y18602499D02*
D03*
X12107500Y18027499D02*
D03*
X11455000Y20755000D02*
D03*
X11280462Y20647955D02*
D03*
X10902500Y20972501D02*
D03*
X11832500Y18972501D02*
D03*
X11835000Y19039999D02*
D03*
X11740000Y19042500D02*
D03*
X11765000Y19975000D02*
D03*
Y19880000D02*
D03*
X12032500Y19900000D02*
D03*
X12127500D02*
D03*
X10920000Y17027499D02*
D03*
X11232500Y16947501D02*
D03*
%TF.MD5,c2024ef16f0e6081cca32c0825e85bb9*%
M02*
