%TF.GenerationSoftware,Altium Limited,Altium Designer,26.8.1 (31)*%
G04 Layer_Color=65535*
G04 Board_Origin=0|0*
%FSLAX45Y45*%
%MOMM*%
%TF.SameCoordinates,53F6FBF9-B70B-408D-9132-D8E13A354014*%
%TF.FilePolarity,Positive*%
%TF.FileFunction,Legend,Top*%
%TF.Part,Single*%
G01*
G75*
%TA.AperFunction,NonConductor*%
%ADD133C,0.20000*%
%ADD134C,0.25000*%
%ADD135C,0.15240*%
%ADD136C,0.10000*%
%ADD137C,0.60000*%
%ADD138C,1.20000*%
%ADD139C,0.25400*%
%ADD140C,0.15000*%
%ADD141C,0.12700*%
%ADD142C,0.07620*%
G36*
X12735500Y15497501D02*
X12810500D01*
Y15517500D01*
X12760500Y15567500D01*
X12735500D01*
Y15497501D01*
D02*
G37*
G36*
X14660001Y16245000D02*
Y16195000D01*
X14639999D01*
X14610001Y16225000D01*
Y16245000D01*
X14660001Y16245000D01*
D02*
G37*
G36*
X15495950Y16165820D02*
Y16191220D01*
X15534050D01*
Y16165820D01*
X15495950D01*
D02*
G37*
G36*
X17425000Y14955000D02*
X17375000D01*
Y14975000D01*
X17405000Y15005000D01*
X17425000D01*
X17425000Y14955000D01*
D02*
G37*
G36*
X17430000Y16210001D02*
X17380000D01*
Y16230000D01*
X17409999Y16260001D01*
X17429999D01*
X17430000Y16210001D01*
D02*
G37*
G36*
X18670000Y14995000D02*
X18620000D01*
Y15014999D01*
X18650000Y15045000D01*
X18670000D01*
X18670000Y14995000D01*
D02*
G37*
G36*
X18682500Y16202499D02*
X18632500D01*
Y16222501D01*
X18662500Y16252499D01*
X18682500D01*
X18682500Y16202499D01*
D02*
G37*
G36*
X12391420Y19437440D02*
X12353320D01*
Y19412041D01*
X12391420D01*
Y19437440D01*
D02*
G37*
G36*
X11344088Y20654280D02*
X11305988D01*
Y20628880D01*
X11344088D01*
Y20654280D01*
D02*
G37*
G36*
X12442220Y20058780D02*
X12404120D01*
Y20084180D01*
X12442220D01*
Y20058780D01*
D02*
G37*
G36*
X12810040Y19741760D02*
X12835440D01*
Y19703661D01*
X12810040D01*
Y19741760D01*
D02*
G37*
G36*
X15742499Y16882500D02*
Y16932500D01*
X15722499D01*
X15692499Y16902499D01*
Y16882500D01*
X15742499D01*
D02*
G37*
G36*
X18743500Y19594901D02*
Y19658400D01*
X18774001Y19688901D01*
X18837502D01*
X18743500Y19594901D01*
D02*
G37*
G36*
X16860001Y23786000D02*
Y23746001D01*
X16785001Y23671001D01*
X16745000D01*
Y23781000D01*
X16739999Y23786000D01*
X16860001D01*
D02*
G37*
D133*
X18741100Y19592500D02*
G03*
X18743500Y19594901I0J2400D01*
G01*
X18786700Y19688901D02*
G03*
X18743500Y19645700I0J-43200D01*
G01*
X16745000Y23671001D02*
G03*
X16860001Y23786000I0J115000D01*
G01*
X13425000Y24664999D02*
G03*
X13425000Y24664999I-10000J0D01*
G01*
X17429999Y16260001D02*
G03*
X17380000Y16210001I0J-50000D01*
G01*
X18682500Y16252499D02*
G03*
X18632500Y16202499I0J-50000D01*
G01*
X10807931Y18289343D02*
G03*
X10807931Y17440656I202069J-424344D01*
G01*
X11211037Y17439671D02*
G03*
X11211037Y18288361I-202069J424344D01*
G01*
X18670000Y15045000D02*
G03*
X18620000Y14995000I0J-50000D01*
G01*
X12805499Y15497501D02*
G03*
X12735500Y15567500I-70000J0D01*
G01*
X15742499Y16932500D02*
G03*
X15692499Y16882500I0J-50000D01*
G01*
X14610001Y16245000D02*
G03*
X14660001Y16195000I50000J0D01*
G01*
X17425000Y15005000D02*
G03*
X17375000Y14955000I0J-50000D01*
G01*
X10512500Y14630000D02*
X11452500D01*
Y15557500D01*
Y15852499D02*
Y16070000D01*
X11100000D02*
X11452500D01*
X10512500Y14630000D02*
Y16002499D01*
Y16070000D01*
X10810000D01*
X18743500Y19594901D02*
Y19645700D01*
X18786700Y19688901D02*
X18837502D01*
X17887502Y19592500D02*
X18741100D01*
X18837502Y19688901D01*
Y21832500D01*
X17887502D02*
X18837502D01*
X17887502Y19592500D02*
Y21832500D01*
X12370000Y18125000D02*
X12395000D01*
X12185000D02*
X12210000D01*
X12185000Y17885001D02*
X12210000D01*
X12310000D02*
X12395000D01*
X16739999Y23671001D02*
X16745000D01*
X16739999Y22525999D02*
Y22825999D01*
X17239999Y22525999D02*
Y22825999D01*
X16739999Y22525999D02*
X17239999D01*
X16900000Y23046001D02*
Y23266000D01*
Y23046001D02*
X16939999D01*
Y23266000D01*
X16900000D02*
X16939999D01*
X16900000D02*
Y23356000D01*
Y22956000D02*
Y23046001D01*
X17239999Y23486000D02*
Y23786000D01*
X16739999D02*
X17239999D01*
X16739999Y23486000D02*
Y23786000D01*
X16760001D01*
X14740500Y15264999D02*
X14750500D01*
Y14625000D02*
Y15264999D01*
X14210500Y14625000D02*
X14750500D01*
X14210500D02*
Y15264999D01*
X14740500D01*
X14544000Y14652901D02*
X14671001D01*
X14518600Y14625000D02*
X14544000Y14652901D01*
X14671001D02*
X14696400Y14625000D01*
X14417000Y14652901D02*
X14442400Y14625000D01*
X14264600D02*
X14289999Y14652901D01*
X14417000D01*
X14218100Y24614500D02*
X15005499D01*
X14218100Y23408000D02*
Y24614500D01*
Y22506300D02*
Y23027000D01*
Y22506300D02*
X15005499D01*
X15792900D01*
Y23027000D01*
Y23408000D02*
Y24614500D01*
X15005499D02*
X15792900D01*
X12244999Y22887500D02*
Y24277499D01*
X12114999Y22887500D02*
X12244999D01*
X10865000D02*
X10905000D01*
X10865000D02*
Y23237500D01*
Y23437500D02*
Y23847501D01*
Y24067500D02*
Y24117500D01*
Y24507500D02*
Y24637500D01*
X12244999D01*
Y24547501D02*
Y24637500D01*
X15192500Y18859999D02*
Y18910001D01*
Y19009999D02*
Y19059999D01*
X15472501Y18859999D02*
Y18910001D01*
Y19009999D02*
Y19059999D01*
X15332500Y18859999D02*
X15472501D01*
X15192500Y19059999D02*
X15472501D01*
X15192500Y18859999D02*
X15332500D01*
X12389360Y20457480D02*
X12649360D01*
X12669360Y20477480D01*
Y20687480D01*
Y20697479D01*
X12389360D02*
X12669360D01*
X12389360Y20457480D02*
Y20697479D01*
X19445000Y16789999D02*
Y16800000D01*
X20085001D01*
Y16260001D02*
Y16800000D01*
X19445000Y16260001D02*
X20085001D01*
X19445000D02*
Y16789999D01*
X20057100Y16593500D02*
Y16720500D01*
Y16593500D02*
X20085001Y16568100D01*
X20057100Y16720500D02*
X20085001Y16745900D01*
X20057100Y16466499D02*
X20085001Y16491901D01*
X20057100Y16339500D02*
X20085001Y16314101D01*
X20057100Y16339500D02*
Y16466499D01*
X17110001Y16710001D02*
X17430000D01*
X17110001Y16210001D02*
X17430000D01*
X17110001D02*
Y16710001D01*
X17430000Y16210001D02*
Y16710001D01*
X11340000Y16339999D02*
X11360000D01*
X11260000D02*
X11270000D01*
X11340000Y16300000D02*
Y16389999D01*
X11270000Y16339999D02*
X11340000Y16389999D01*
X11270000Y16339999D02*
X11340000Y16300000D01*
X11270000Y16289999D02*
Y16389999D01*
X10935000Y16365401D02*
Y16505099D01*
X11678300D01*
X10935000Y16365401D02*
X10954400D01*
Y16505099D01*
Y16174899D02*
Y16314600D01*
X10935000D02*
X10954400D01*
X11678300Y16457500D02*
Y16505099D01*
X10935000Y16174899D02*
Y16314600D01*
X11678300Y16174899D02*
Y16222501D01*
X10935000Y16174899D02*
X11678300D01*
X19414999Y24200999D02*
Y24211000D01*
X20055000D01*
Y23417000D02*
Y24211000D01*
X19414999Y23417000D02*
X20055000D01*
X19414999D02*
Y24200999D01*
X20027100Y24004500D02*
Y24131500D01*
Y24004500D02*
X20055000Y23979100D01*
X20027100Y24131500D02*
X20055000Y24156900D01*
X20027100Y23877499D02*
X20055000Y23902901D01*
X20027100Y23750500D02*
X20055000Y23725101D01*
X20027100Y23750500D02*
Y23877499D01*
Y23496500D02*
Y23623500D01*
Y23496500D02*
X20055000Y23471100D01*
X20027100Y23623500D02*
X20055000Y23648900D01*
X11751700Y18875000D02*
X11774200D01*
X11976700D02*
X12026700D01*
X11751700Y18645000D02*
X11774200D01*
X12004200D02*
X12026700D01*
X19407500Y23241000D02*
Y23250999D01*
X20047501D01*
Y22457001D02*
Y23250999D01*
X19407500Y22457001D02*
X20047501D01*
X19407500D02*
Y23241000D01*
X20019600Y23044501D02*
Y23171500D01*
Y23044501D02*
X20047501Y23019099D01*
X20019600Y23171500D02*
X20047501Y23196899D01*
X20019600Y22917500D02*
X20047501Y22942900D01*
X20019600Y22790500D02*
X20047501Y22765100D01*
X20019600Y22790500D02*
Y22917500D01*
Y22536501D02*
Y22663499D01*
Y22536501D02*
X20047501Y22511099D01*
X20019600Y22663499D02*
X20047501Y22688901D01*
X18682500Y16202499D02*
Y16702499D01*
X18362500Y16202499D02*
Y16702499D01*
Y16202499D02*
X18682500D01*
X18362500Y16702499D02*
X18682500D01*
X15547501Y18764999D02*
X15807500D01*
X15827499Y18784999D01*
Y18995000D01*
Y19004999D01*
X15547501D02*
X15827499D01*
X15547501Y18764999D02*
Y19004999D01*
X11065000Y21155000D02*
Y21655000D01*
X11585000Y21155000D02*
Y21655000D01*
X11065000Y21155000D02*
X11195000D01*
X11065000Y21655000D02*
X11195000D01*
X11455000Y21155000D02*
X11585000D01*
X11455000Y21655000D02*
X11585000D01*
X13264500Y15267500D02*
X13274500D01*
Y14627499D02*
Y15267500D01*
X12734500Y14627499D02*
X13274500D01*
X12734500D02*
Y15267500D01*
X13264500D01*
X13067999Y14655400D02*
X13195000D01*
X13042599Y14627499D02*
X13067999Y14655400D01*
X13195000D02*
X13220399Y14627499D01*
X12941000Y14655400D02*
X12966400Y14627499D01*
X12788600D02*
X12814000Y14655400D01*
X12941000D01*
X13147501Y22872501D02*
Y22932500D01*
X13267500Y22872501D02*
Y22932500D01*
X11320000Y18364999D02*
X11510000D01*
Y17364999D02*
Y18364999D01*
X11320000Y17364999D02*
X11510000D01*
X10510000Y18364999D02*
X10700000D01*
X10510000Y17364999D02*
X10700000D01*
X10510000D02*
Y18364999D01*
X19432500Y15597501D02*
Y15607500D01*
X20072501D01*
Y15067500D02*
Y15607500D01*
X19432500Y15067500D02*
X20072501D01*
X19432500D02*
Y15597501D01*
X20044600Y15400999D02*
Y15528000D01*
Y15400999D02*
X20072501Y15375600D01*
X20044600Y15528000D02*
X20072501Y15553400D01*
X20044600Y15274001D02*
X20072501Y15299400D01*
X20044600Y15147000D02*
X20072501Y15121600D01*
X20044600Y15147000D02*
Y15274001D01*
X10057500Y19062000D02*
X10190000D01*
X10057500D02*
Y19958000D01*
X10190000D01*
X10405000D02*
X10775000D01*
X10405000Y19062000D02*
X10775000Y19060001D01*
X11000000Y19958000D02*
X11142500D01*
X11000000Y19062000D02*
X11142500D01*
Y19958000D01*
X18670000Y14995000D02*
Y15495000D01*
X18350000Y14995000D02*
Y15495000D01*
Y14995000D02*
X18670000D01*
X18350000Y15495000D02*
X18670000D01*
X11025000Y21089999D02*
Y22070000D01*
X10365000Y21089999D02*
Y22070000D01*
X10892500D02*
X11025000D01*
X10365000D02*
X10497500D01*
X10365000Y21089999D02*
X10645000D01*
Y21110001D01*
X10365000D02*
X10645000D01*
X10745000D02*
X11025000D01*
X10745000Y21089999D02*
Y21110001D01*
Y21089999D02*
X11025000D01*
X10645000Y21539999D02*
X10745000D01*
X10695000D02*
X10735000Y21610001D01*
X10645000D02*
X10695000Y21539999D01*
X10645000Y21610001D02*
X10735000D01*
X10695000Y21520000D02*
Y21539999D01*
Y21610001D02*
Y21639999D01*
X18127499Y22622900D02*
X18762500D01*
X18114799Y22800700D02*
Y23029300D01*
X18775200Y22800700D02*
Y23029300D01*
X18127499Y23207100D02*
X18762500D01*
X12735500Y15497501D02*
X13359500D01*
Y16077499D01*
X12735500Y15497501D02*
Y16077499D01*
X13359500D01*
X15578999Y22060001D02*
X15839000D01*
X15878999Y22020001D01*
Y21800002D02*
Y22020001D01*
X15578999Y21800002D02*
X15878999D01*
X15578999D02*
Y22060001D01*
X17875000Y23980000D02*
X18045000D01*
X18220000Y24070000D02*
Y24160001D01*
X17550000Y24070000D02*
Y24160001D01*
X18035001Y24250000D02*
Y24400000D01*
X17885001D02*
X18035001D01*
X17885001Y24250000D02*
Y24400000D01*
X17589999Y24250000D02*
X18180000D01*
X15422501Y17382500D02*
X15742499D01*
X15422501Y16882500D02*
X15742499D01*
X15422501D02*
Y17382500D01*
X15742499Y16882500D02*
Y17382500D01*
X14160001Y15925000D02*
Y16245000D01*
X14660001Y15925000D02*
Y16245000D01*
X14160001Y15925000D02*
X14660001D01*
X14160001Y16245000D02*
X14660001D01*
X17105000Y15455000D02*
X17425000D01*
X17105000Y14955000D02*
X17425000D01*
X17105000D02*
Y15455000D01*
X17425000Y14955000D02*
Y15455000D01*
D134*
X18950002Y19589999D02*
G03*
X18950002Y19589999I-12500J0D01*
G01*
X17555000Y16184500D02*
G03*
X17555000Y16184500I-12500J0D01*
G01*
X18807500Y16177000D02*
G03*
X18807500Y16177000I-12500J0D01*
G01*
X18795000Y14969501D02*
G03*
X18795000Y14969501I-12500J0D01*
G01*
X12693000Y15487500D02*
G03*
X12693000Y15487500I-12500J0D01*
G01*
X15864999Y16857001D02*
G03*
X15864999Y16857001I-12500J0D01*
G01*
X14698000Y16357500D02*
G03*
X14698000Y16357500I-12500J0D01*
G01*
X17550000Y14929500D02*
G03*
X17550000Y14929500I-12500J0D01*
G01*
D135*
X13307616Y23872701D02*
G03*
X13307616Y23872701I-7620J0D01*
G01*
X11813040Y19845000D02*
G03*
X11813040Y19845000I-7620J0D01*
G01*
X16599420Y16631660D02*
G03*
X16538460Y16631660I-30480J0D01*
G01*
X11894660Y17400000D02*
G03*
X11894660Y17400000I-10160J0D01*
G01*
X16585480Y15375140D02*
G03*
X16524519Y15375140I-30480J0D01*
G01*
X10247500Y16339999D02*
G03*
X10247500Y16339999I-7620J0D01*
G01*
X15395004Y19209100D02*
Y19234500D01*
Y20250500D02*
Y20275900D01*
X15719997Y19209100D02*
Y19234500D01*
Y20250500D02*
Y20275900D01*
X16044991Y19209100D02*
Y19234500D01*
Y20250500D02*
Y20275900D01*
X16098000Y19547504D02*
X16123399D01*
X15056599Y19872498D02*
X15082001D01*
X16098000D02*
X16123399D01*
X15056599Y20197490D02*
X15082001D01*
X16098000D02*
X16123399D01*
X16110699Y19221800D02*
Y20263200D01*
X15069299D02*
X16110699D01*
X15069299Y19221800D02*
Y20263200D01*
Y19221800D02*
X16110699D01*
X12239020Y20008459D02*
X12275556D01*
X12759720Y19971924D02*
Y20008459D01*
X12723184Y19487759D02*
X12759720D01*
X12239020D02*
Y19524297D01*
Y19971924D02*
Y20008459D01*
X12723184D02*
X12759720D01*
Y19487759D02*
Y19524297D01*
X12239020Y19487759D02*
X12275556D01*
X14230161Y21859219D02*
Y21887160D01*
X14903259D02*
X14931200D01*
Y21186121D02*
Y21214059D01*
X14230161Y21186121D02*
X14258099D01*
X14230161D02*
Y21214059D01*
X14903259Y21186121D02*
X14931200D01*
Y21859219D02*
Y21887160D01*
X14230161D02*
X14258099D01*
X13171217Y23719031D02*
X13238782D01*
X13039900Y23553931D02*
Y23719031D01*
Y23553931D02*
X13143787D01*
X13370100D02*
Y23719031D01*
X13266214Y23553931D02*
X13370100D01*
X11361755Y19667200D02*
X11528845D01*
X11361755Y20022800D02*
X11528845D01*
X16424159Y16931380D02*
X16713721D01*
X16424159Y16631660D02*
X16538460D01*
X16599420D01*
X16713721D01*
X11062059Y20657040D02*
X11137915D01*
X11437979D02*
Y20732896D01*
X11362122Y21032961D02*
X11437979D01*
X11062059Y20957103D02*
Y21032961D01*
X11137915D01*
X11062059Y20657040D02*
Y20732896D01*
X11362122Y20657040D02*
X11437979D01*
Y20957103D02*
Y21032961D01*
X12337640Y17453593D02*
Y17472639D01*
X12002360Y17137360D02*
Y17156406D01*
Y17453593D02*
Y17472639D01*
X12337640D01*
Y17137360D02*
Y17156406D01*
X12002360Y17137360D02*
X12337640D01*
X16585480Y15375140D02*
X16699780D01*
X16524519D02*
X16585480D01*
X16410220D02*
X16524519D01*
X16410220Y15674860D02*
X16699780D01*
X10516455Y16517799D02*
X10683545D01*
X10516455Y16162199D02*
X10683545D01*
X11314515Y19322211D02*
X11365485D01*
X11314515Y19517790D02*
X11365485D01*
X15657640Y15787360D02*
Y15834026D01*
X15610974Y16122639D02*
X15657640D01*
X15322360Y16075974D02*
Y16122639D01*
Y15787360D02*
X15369026D01*
X15610974D02*
X15657640D01*
Y16075974D02*
Y16122639D01*
X15322360D02*
X15369026D01*
X15322360Y15787360D02*
Y15834026D01*
D136*
X12684360Y20447479D02*
G03*
X12684360Y20447479I-5000J0D01*
G01*
X15842500Y18754999D02*
G03*
X15842500Y18754999I-5000J0D01*
G01*
X15884000Y22060001D02*
G03*
X15884000Y22060001I-5000J0D01*
G01*
X15325000Y19127499D02*
Y19147499D01*
X15189999D02*
X15325000D01*
X15189999Y19127499D02*
Y19147499D01*
Y19082500D02*
Y19102499D01*
Y19082500D02*
X15325000D01*
Y19102499D01*
X15675250Y19085001D02*
Y19105000D01*
X15540250D02*
X15675250D01*
X15540250Y19085001D02*
Y19105000D01*
Y19039999D02*
Y19059999D01*
Y19039999D02*
X15675250D01*
Y19059999D01*
X15687500Y19039999D02*
Y19059999D01*
Y19039999D02*
X15822501D01*
Y19059999D01*
Y19084999D02*
Y19104999D01*
X15687500D02*
X15822501D01*
X15687500Y19084999D02*
Y19104999D01*
X14919000Y20095000D02*
Y20114999D01*
X15053999D01*
Y20095000D02*
Y20114999D01*
Y20049998D02*
Y20070000D01*
X14919000Y20049998D02*
X15053999D01*
X14919000D02*
Y20070000D01*
X16305000Y18932500D02*
Y18952499D01*
Y18932500D02*
X16439999D01*
Y18952499D01*
Y18977499D02*
Y18997501D01*
X16305000D02*
X16439999D01*
X16305000Y18977499D02*
Y18997501D01*
X16175000Y20233501D02*
X16195000D01*
Y20098500D02*
Y20233501D01*
X16175000Y20098500D02*
X16195000D01*
X16130000D02*
X16150000D01*
X16130000D02*
Y20233501D01*
X16150000D01*
X14920000Y19335001D02*
Y19355000D01*
X15055000D01*
Y19335001D02*
Y19355000D01*
Y19289999D02*
Y19310001D01*
X14920000Y19289999D02*
X15055000D01*
X14920000D02*
Y19310001D01*
X15337500Y19082500D02*
Y19102499D01*
Y19082500D02*
X15472501D01*
Y19102499D01*
Y19127499D02*
Y19147499D01*
X15337500D02*
X15472501D01*
X15337500Y19127499D02*
Y19147499D01*
X14397501Y20187500D02*
Y20207500D01*
Y20187500D02*
X14532500D01*
Y20207500D01*
Y20232500D02*
Y20252499D01*
X14397501D02*
X14532500D01*
X14397501Y20232500D02*
Y20252499D01*
D137*
X15120496Y19152565D02*
G03*
X15120500Y19152499I-496J-65D01*
G01*
D138*
X16772247Y23933881D02*
G03*
X16772501Y23930000I-29748J-3880D01*
G01*
D139*
X13417500Y16750000D02*
X13617500D01*
X13417500Y17210001D02*
X13617500D01*
Y16750000D02*
Y17210001D01*
X13417500Y16750000D02*
Y17210001D01*
X12845000Y16552499D02*
X13927499D01*
X12845000Y17267500D02*
X13927499D01*
Y16552499D02*
Y17267500D01*
X12845000Y16552499D02*
Y17267500D01*
X13668057Y16752245D02*
X13868057D01*
X13668057Y17212244D02*
X13868057D01*
Y16752245D02*
Y17212244D01*
X13668057Y16752245D02*
Y17212244D01*
X13157500Y16750000D02*
X13357500D01*
X13157500Y17210001D02*
X13357500D01*
Y16750000D02*
Y17210001D01*
X13157500Y16750000D02*
Y17210001D01*
X12900000Y16750000D02*
X13100000D01*
X12900000Y17210001D02*
X13100000D01*
Y16750000D02*
Y17210001D01*
X12900000Y16750000D02*
Y17210001D01*
X15450381Y17947874D02*
Y17967868D01*
X15430386D01*
Y17947874D01*
X15450381D01*
X15470374Y17967868D01*
Y18007855D01*
X15450381Y18027847D01*
X15410394D01*
X15390401Y18007855D01*
Y17927881D01*
X15410394Y17907887D01*
X15470374D01*
X15510361Y17987862D02*
Y17927881D01*
X15530354Y17907887D01*
X15590335D01*
Y17887894D01*
X15570341Y17867900D01*
X15550348D01*
X15590335Y17907887D02*
Y17987862D01*
X15630322Y17907887D02*
X15670309D01*
X15650316D01*
Y17987862D01*
X15630322D01*
X15770277Y17867900D02*
X15790271D01*
X15810265Y17887894D01*
Y17987862D01*
X15750284D01*
X15730290Y17967868D01*
Y17927881D01*
X15750284Y17907887D01*
X15810265D01*
X15850250D02*
X15890237D01*
X15870245D01*
Y18027847D01*
X15850250D01*
X15950220Y17987862D02*
X16030193D01*
X15950220Y17907887D01*
X16030193D01*
X13052901Y18250348D02*
Y18130386D01*
X13112881D01*
X13132874Y18150381D01*
Y18230354D01*
X13112881Y18250348D01*
X13052901D01*
X13232841Y18130386D02*
X13192854D01*
X13172861Y18150381D01*
Y18190367D01*
X13192854Y18210361D01*
X13232841D01*
X13252835Y18190367D01*
Y18170374D01*
X13172861D01*
X13292822Y18210361D02*
X13332809Y18130386D01*
X13372797Y18210361D01*
X13472765Y18130386D02*
X13432777D01*
X13412782Y18150381D01*
Y18190367D01*
X13432777Y18210361D01*
X13472765D01*
X13492758Y18190367D01*
Y18170374D01*
X13412782D01*
X13532745Y18130386D02*
X13572733D01*
X13552737D01*
Y18250348D01*
X13532745D01*
X13652705Y18130386D02*
X13692693D01*
X13712688Y18150381D01*
Y18190367D01*
X13692693Y18210361D01*
X13652705D01*
X13632712Y18190367D01*
Y18150381D01*
X13652705Y18130386D01*
X13752673Y18090401D02*
Y18210361D01*
X13812654D01*
X13832648Y18190367D01*
Y18150381D01*
X13812654Y18130386D01*
X13752673D01*
X13872635D02*
Y18210361D01*
X13892628D01*
X13912622Y18190367D01*
Y18130386D01*
Y18190367D01*
X13932616Y18210361D01*
X13952609Y18190367D01*
Y18130386D01*
X14052576D02*
X14012589D01*
X13992596Y18150381D01*
Y18190367D01*
X14012589Y18210361D01*
X14052576D01*
X14072569Y18190367D01*
Y18170374D01*
X13992596D01*
X14112556Y18130386D02*
Y18210361D01*
X14172539D01*
X14192531Y18190367D01*
Y18130386D01*
X14252512Y18230354D02*
Y18210361D01*
X14232518D01*
X14272505D01*
X14252512D01*
Y18150381D01*
X14272505Y18130386D01*
X14532420D02*
X14512428Y18150381D01*
X14492435Y18130386D01*
X14472441D01*
X14452448Y18150381D01*
Y18170374D01*
X14472441Y18190367D01*
X14452448Y18210361D01*
Y18230354D01*
X14472441Y18250348D01*
X14492435D01*
X14512428Y18230354D01*
Y18210361D01*
X14492435Y18190367D01*
X14512428Y18170374D01*
Y18150381D01*
X14532420Y18190367D02*
X14512428Y18170374D01*
X14472441Y18190367D02*
X14492435D01*
X14692369Y18130386D02*
Y18250348D01*
X14732356Y18210361D01*
X14772343Y18250348D01*
Y18130386D01*
X14812331D02*
X14852318D01*
X14832324D01*
Y18210361D01*
X14812331D01*
X14912299D02*
X14992273Y18130386D01*
X14952284Y18170374D01*
X14992273Y18210361D01*
X14912299Y18130386D01*
X15092239D02*
X15052254D01*
X15032259Y18150381D01*
Y18190367D01*
X15052254Y18210361D01*
X15092239D01*
X15112234Y18190367D01*
Y18170374D01*
X15032259D01*
X15232195Y18250348D02*
Y18130386D01*
X15172214D01*
X15152222Y18150381D01*
Y18190367D01*
X15172214Y18210361D01*
X15232195D01*
X15472118Y18230354D02*
X15452124Y18250348D01*
X15412137D01*
X15392143Y18230354D01*
Y18210361D01*
X15412137Y18190367D01*
X15452124D01*
X15472118Y18170374D01*
Y18150381D01*
X15452124Y18130386D01*
X15412137D01*
X15392143Y18150381D01*
X15512103Y18130386D02*
X15552090D01*
X15532098D01*
Y18210361D01*
X15512103D01*
X15652058Y18090401D02*
X15672052D01*
X15692046Y18110393D01*
Y18210361D01*
X15632066D01*
X15612073Y18190367D01*
Y18150381D01*
X15632066Y18130386D01*
X15692046D01*
X15732033D02*
Y18210361D01*
X15792014D01*
X15812007Y18190367D01*
Y18130386D01*
X15871988Y18210361D02*
X15911975D01*
X15931969Y18190367D01*
Y18130386D01*
X15871988D01*
X15851994Y18150381D01*
X15871988Y18170374D01*
X15931969D01*
X15971954Y18130386D02*
X16011942D01*
X15991949D01*
Y18250348D01*
X15971954D01*
X16191884D02*
X16231871D01*
X16211877D01*
Y18130386D01*
X16191884D01*
X16231871D01*
X16291852D02*
Y18210361D01*
X16351833D01*
X16371826Y18190367D01*
Y18130386D01*
X16411813D02*
X16471794D01*
X16491788Y18150381D01*
X16471794Y18170374D01*
X16431807D01*
X16411813Y18190367D01*
X16431807Y18210361D01*
X16491788D01*
X16551768Y18230354D02*
Y18210361D01*
X16531773D01*
X16571761D01*
X16551768D01*
Y18150381D01*
X16571761Y18130386D01*
X16631741Y18210361D02*
Y18130386D01*
Y18170374D01*
X16651736Y18190367D01*
X16671729Y18210361D01*
X16691724D01*
X16751703D02*
Y18150381D01*
X16771696Y18130386D01*
X16831677D01*
Y18210361D01*
X16871664Y18130386D02*
Y18210361D01*
X16891658D01*
X16911652Y18190367D01*
Y18130386D01*
Y18190367D01*
X16931645Y18210361D01*
X16951639Y18190367D01*
Y18130386D01*
X17051607D02*
X17011620D01*
X16991626Y18150381D01*
Y18190367D01*
X17011620Y18210361D01*
X17051607D01*
X17071600Y18190367D01*
Y18170374D01*
X16991626D01*
X17111588Y18130386D02*
Y18210361D01*
X17171567D01*
X17191560Y18190367D01*
Y18130386D01*
X17251543Y18230354D02*
Y18210361D01*
X17231548D01*
X17271535D01*
X17251543D01*
Y18150381D01*
X17271535Y18130386D01*
X17351509Y18210361D02*
X17391496D01*
X17411490Y18190367D01*
Y18130386D01*
X17351509D01*
X17331516Y18150381D01*
X17351509Y18170374D01*
X17411490D01*
X17471471Y18230354D02*
Y18210361D01*
X17451477D01*
X17491464D01*
X17471471D01*
Y18150381D01*
X17491464Y18130386D01*
X17551445D02*
X17591432D01*
X17571439D01*
Y18210361D01*
X17551445D01*
X17671407Y18130386D02*
X17711394D01*
X17731387Y18150381D01*
Y18190367D01*
X17711394Y18210361D01*
X17671407D01*
X17651413Y18190367D01*
Y18150381D01*
X17671407Y18130386D01*
X17771375D02*
Y18210361D01*
X17831354D01*
X17851347Y18190367D01*
Y18130386D01*
X18011296D02*
Y18250348D01*
X18071277D01*
X18091270Y18230354D01*
Y18190367D01*
X18071277Y18170374D01*
X18011296D01*
X18131258Y18130386D02*
X18171243D01*
X18151251D01*
Y18250348D01*
X18131258D01*
X18251219Y18210361D02*
X18291205D01*
X18311198Y18190367D01*
Y18130386D01*
X18251219D01*
X18231226Y18150381D01*
X18251219Y18170374D01*
X18311198D01*
X18371181Y18230354D02*
Y18210361D01*
X18351186D01*
X18391173D01*
X18371181D01*
Y18150381D01*
X18391173Y18130386D01*
X18471147D02*
Y18230354D01*
Y18190367D01*
X18451154D01*
X18491141D01*
X18471147D01*
Y18230354D01*
X18491141Y18250348D01*
X18571115Y18130386D02*
X18611102D01*
X18631096Y18150381D01*
Y18190367D01*
X18611102Y18210361D01*
X18571115D01*
X18551122Y18190367D01*
Y18150381D01*
X18571115Y18130386D01*
X18671083Y18210361D02*
Y18130386D01*
Y18170374D01*
X18691077Y18190367D01*
X18711070Y18210361D01*
X18731062D01*
X18791045Y18130386D02*
Y18210361D01*
X18811038D01*
X18831030Y18190367D01*
Y18130386D01*
Y18190367D01*
X18851025Y18210361D01*
X18871017Y18190367D01*
Y18130386D01*
X14897874Y18422868D02*
X14877881Y18442860D01*
X14837894D01*
X14817900Y18422868D01*
Y18402875D01*
X14837894Y18382881D01*
X14877881D01*
X14897874Y18362888D01*
Y18342894D01*
X14877881Y18322900D01*
X14837894D01*
X14817900Y18342894D01*
X14937862Y18442860D02*
X15017834D01*
X14977847D01*
Y18322900D01*
X15057822D02*
Y18442860D01*
X15097809Y18402875D01*
X15137796Y18442860D01*
Y18322900D01*
X15177783Y18422868D02*
X15197777Y18442860D01*
X15237764D01*
X15257758Y18422868D01*
Y18402875D01*
X15237764Y18382881D01*
X15217770D01*
X15237764D01*
X15257758Y18362888D01*
Y18342894D01*
X15237764Y18322900D01*
X15197777D01*
X15177783Y18342894D01*
X15377719Y18322900D02*
X15297745D01*
X15377719Y18402875D01*
Y18422868D01*
X15357726Y18442860D01*
X15317738D01*
X15297745Y18422868D01*
X15417706Y18442860D02*
Y18322900D01*
Y18382881D01*
X15497681D01*
Y18442860D01*
Y18322900D01*
X15537666Y18442860D02*
X15617641D01*
Y18422868D01*
X15537666Y18342894D01*
Y18322900D01*
X15657628Y18422868D02*
X15677621Y18442860D01*
X15717609D01*
X15737602Y18422868D01*
Y18402875D01*
X15717609Y18382881D01*
X15697615D01*
X15717609D01*
X15737602Y18362888D01*
Y18342894D01*
X15717609Y18322900D01*
X15677621D01*
X15657628Y18342894D01*
X15857562Y18442860D02*
X15777589D01*
Y18382881D01*
X15817577Y18402875D01*
X15837570D01*
X15857562Y18382881D01*
Y18342894D01*
X15837570Y18322900D01*
X15797583D01*
X15777589Y18342894D01*
X16017513Y18322900D02*
Y18442860D01*
X16057498Y18402875D01*
X16097485Y18442860D01*
Y18322900D01*
X16137473Y18402875D02*
Y18342894D01*
X16157466Y18322900D01*
X16217447D01*
Y18402875D01*
X16257434Y18322900D02*
X16297421D01*
X16277428D01*
Y18442860D01*
X16257434D01*
X16377396Y18422868D02*
Y18402875D01*
X16357402D01*
X16397389D01*
X16377396D01*
Y18342894D01*
X16397389Y18322900D01*
X16457368D02*
X16497356D01*
X16477364D01*
Y18402875D01*
X16457368D01*
X16557336Y18442860D02*
Y18322900D01*
X16617319D01*
X16637311Y18342894D01*
Y18362888D01*
Y18382881D01*
X16617319Y18402875D01*
X16557336D01*
X16697292Y18322900D02*
X16737279D01*
X16757272Y18342894D01*
Y18382881D01*
X16737279Y18402875D01*
X16697292D01*
X16677298Y18382881D01*
Y18342894D01*
X16697292Y18322900D01*
X16817253Y18402875D02*
X16857240D01*
X16877234Y18382881D01*
Y18322900D01*
X16817253D01*
X16797260Y18342894D01*
X16817253Y18362888D01*
X16877234D01*
X16917221Y18402875D02*
Y18322900D01*
Y18362888D01*
X16937215Y18382881D01*
X16957208Y18402875D01*
X16977200D01*
X17117155Y18442860D02*
Y18322900D01*
X17057175D01*
X17037183Y18342894D01*
Y18382881D01*
X17057175Y18402875D01*
X17117155D01*
X19682045Y14993706D02*
X19665384Y15010368D01*
X19632060D01*
X19615401Y14993706D01*
Y14927061D01*
X19632060Y14910400D01*
X19665384D01*
X19682045Y14927061D01*
Y14960384D01*
X19648721D01*
X19715369Y14910400D02*
Y15010368D01*
X19782013Y14910400D01*
Y15010368D01*
X19815337D02*
Y14910400D01*
X19865318D01*
X19881981Y14927061D01*
Y14993706D01*
X19865318Y15010368D01*
X19815337D01*
X19682045Y16191206D02*
X19665384Y16207867D01*
X19632060D01*
X19615401Y16191206D01*
Y16124561D01*
X19632060Y16107899D01*
X19665384D01*
X19682045Y16124561D01*
Y16157884D01*
X19648721D01*
X19715369Y16107899D02*
Y16207867D01*
X19782013Y16107899D01*
Y16207867D01*
X19815337D02*
Y16107899D01*
X19865318D01*
X19881981Y16124561D01*
Y16191206D01*
X19865318Y16207867D01*
X19815337D01*
X18212900Y24467751D02*
Y24315401D01*
Y24391576D01*
X18314467D01*
Y24467751D01*
Y24315401D01*
X18365251Y24467751D02*
X18416034D01*
X18390643D01*
Y24315401D01*
X18365251D01*
X18416034D01*
X18593777Y24442358D02*
X18568385Y24467751D01*
X18517603D01*
X18492210Y24442358D01*
Y24340791D01*
X18517603Y24315401D01*
X18568385D01*
X18593777Y24340791D01*
Y24391576D01*
X18542993D01*
X18644560Y24467751D02*
Y24315401D01*
Y24391576D01*
X18746127D01*
Y24467751D01*
Y24315401D01*
X17000400Y24275250D02*
Y24122900D01*
X17101967D01*
X17228926Y24275250D02*
X17178143D01*
X17152751Y24249860D01*
Y24148293D01*
X17178143Y24122900D01*
X17228926D01*
X17254318Y24148293D01*
Y24249860D01*
X17228926Y24275250D01*
X17305103D02*
Y24122900D01*
X17355885Y24173683D01*
X17406670Y24122900D01*
Y24275250D01*
X17000400Y24485251D02*
Y24332899D01*
X17076575D01*
X17101967Y24358292D01*
Y24383684D01*
X17076575Y24409074D01*
X17000400D01*
X17076575D01*
X17101967Y24434467D01*
Y24459859D01*
X17076575Y24485251D01*
X17000400D01*
X17228926D02*
X17178143D01*
X17152751Y24459859D01*
Y24358292D01*
X17178143Y24332899D01*
X17228926D01*
X17254318Y24358292D01*
Y24459859D01*
X17228926Y24485251D01*
X17381277D02*
X17330493D01*
X17305103Y24459859D01*
Y24358292D01*
X17330493Y24332899D01*
X17381277D01*
X17406670Y24358292D01*
Y24459859D01*
X17381277Y24485251D01*
X17457452D02*
X17559019D01*
X17508237D01*
Y24332899D01*
X13529633Y23395374D02*
X13509639Y23375380D01*
Y23335393D01*
X13529633Y23315401D01*
X13609605D01*
X13629601Y23335393D01*
Y23375380D01*
X13609605Y23395374D01*
X13629601Y23435361D02*
X13549626D01*
X13509639Y23475348D01*
X13549626Y23515335D01*
X13629601D01*
X13569620D01*
Y23435361D01*
X13629601Y23555322D02*
X13509639D01*
X13629601Y23635297D01*
X13509639D01*
Y23675282D02*
X13629601D01*
Y23755257D01*
X12794632Y23392874D02*
X12774639Y23372881D01*
Y23332893D01*
X12794632Y23312900D01*
X12874606D01*
X12894600Y23332893D01*
Y23372881D01*
X12874606Y23392874D01*
X12894600Y23432861D02*
X12814626D01*
X12774639Y23472849D01*
X12814626Y23512836D01*
X12894600D01*
X12834619D01*
Y23432861D01*
X12894600Y23552821D02*
X12774639D01*
X12894600Y23632796D01*
X12774639D01*
Y23672783D02*
X12894600D01*
X12834619D01*
Y23752757D01*
X12774639D01*
X12894600D01*
X10311967Y23949860D02*
X10286575Y23975250D01*
X10235792D01*
X10210400Y23949860D01*
Y23848293D01*
X10235792Y23822900D01*
X10286575D01*
X10311967Y23848293D01*
X10362751Y23822900D02*
Y23924467D01*
X10413534Y23975250D01*
X10464318Y23924467D01*
Y23822900D01*
Y23899075D01*
X10362751D01*
X10515101Y23822900D02*
Y23975250D01*
X10591277D01*
X10616669Y23949860D01*
Y23899075D01*
X10591277Y23873685D01*
X10515101D01*
X10565885D02*
X10616669Y23822900D01*
X10667452Y23975250D02*
Y23822900D01*
X10743627D01*
X10769019Y23848293D01*
Y23949860D01*
X10743627Y23975250D01*
X10667452D01*
X10439467Y24244859D02*
X10414075Y24270251D01*
X10363292D01*
X10337900Y24244859D01*
Y24219467D01*
X10363292Y24194075D01*
X10414075D01*
X10439467Y24168683D01*
Y24143292D01*
X10414075Y24117900D01*
X10363292D01*
X10337900Y24143292D01*
X10490251Y24270251D02*
Y24117900D01*
X10566426D01*
X10591818Y24143292D01*
Y24244859D01*
X10566426Y24270251D01*
X10490251D01*
X10215400Y20445251D02*
X10316967D01*
X10266183D01*
Y20292900D01*
X10367751Y20445251D02*
Y20419859D01*
X10418534Y20369075D01*
X10469318Y20419859D01*
Y20445251D01*
X10418534Y20369075D02*
Y20292900D01*
X10520101D02*
Y20445251D01*
X10596277D01*
X10621669Y20419859D01*
Y20369075D01*
X10596277Y20343683D01*
X10520101D01*
X10774019Y20445251D02*
X10672452D01*
Y20292900D01*
X10774019D01*
X10672452Y20369075D02*
X10723236D01*
X10824803D02*
X10926370D01*
X11078721Y20419859D02*
X11053329Y20445251D01*
X11002545D01*
X10977154Y20419859D01*
Y20318292D01*
X11002545Y20292900D01*
X11053329D01*
X11078721Y20318292D01*
X11281855Y20445251D02*
X11332638D01*
X11307247D01*
Y20292900D01*
X11281855D01*
X11332638D01*
X11408814D02*
Y20445251D01*
X11510381Y20292900D01*
Y20445251D01*
X11561165Y20292900D02*
Y20445251D01*
X11637340D01*
X11662732Y20419859D01*
Y20369075D01*
X11637340Y20343683D01*
X11561165D01*
X11713515Y20445251D02*
Y20318292D01*
X11738907Y20292900D01*
X11789691D01*
X11815083Y20318292D01*
Y20445251D01*
X11865866D02*
X11967433D01*
X11916650D01*
Y20292900D01*
X10336967Y20222751D02*
X10235400D01*
Y20146574D01*
X10286183Y20171967D01*
X10311575D01*
X10336967Y20146574D01*
Y20095792D01*
X10311575Y20070399D01*
X10260792D01*
X10235400Y20095792D01*
X10387751Y20222751D02*
Y20121184D01*
X10438534Y20070399D01*
X10489318Y20121184D01*
Y20222751D01*
X10540101Y20070399D02*
X10641669Y20171967D01*
X10794019Y20070399D02*
X10692452D01*
X10794019Y20171967D01*
Y20197359D01*
X10768627Y20222751D01*
X10717844D01*
X10692452Y20197359D01*
X10844803Y20146574D02*
X10946370D01*
X10997154Y20197359D02*
X11022545Y20222751D01*
X11073329D01*
X11098721Y20197359D01*
Y20171967D01*
X11073329Y20146574D01*
X11047937D01*
X11073329D01*
X11098721Y20121184D01*
Y20095792D01*
X11073329Y20070399D01*
X11022545D01*
X10997154Y20095792D01*
X11149504Y20070399D02*
Y20171967D01*
X11200288Y20222751D01*
X11251071Y20171967D01*
Y20070399D01*
Y20146574D01*
X11149504D01*
X16390141Y22551967D02*
X16364749Y22526575D01*
Y22475792D01*
X16390141Y22450400D01*
X16415533D01*
X16440924Y22475792D01*
Y22526575D01*
X16466316Y22551967D01*
X16491708D01*
X16517101Y22526575D01*
Y22475792D01*
X16491708Y22450400D01*
X16364749Y22704318D02*
Y22602751D01*
X16517101D01*
Y22704318D01*
X16440924Y22602751D02*
Y22653534D01*
X16517101Y22755101D02*
X16364749D01*
Y22831277D01*
X16390141Y22856670D01*
X16440924D01*
X16466316Y22831277D01*
Y22755101D01*
Y22805885D02*
X16517101Y22856670D01*
X16364749Y22907452D02*
Y22958237D01*
Y22932845D01*
X16517101D01*
Y22907452D01*
Y22958237D01*
Y23034412D02*
X16415533D01*
X16364749Y23085194D01*
X16415533Y23135979D01*
X16517101D01*
X16440924D01*
Y23034412D01*
X16364749Y23186761D02*
X16517101D01*
Y23288329D01*
X16364749Y23491463D02*
X16517101D01*
X16466316Y23542247D01*
X16517101Y23593030D01*
X16364749D01*
Y23643814D02*
Y23694597D01*
Y23669206D01*
X16517101D01*
Y23643814D01*
Y23694597D01*
Y23770773D02*
X16364749D01*
Y23846948D01*
X16390141Y23872340D01*
X16440924D01*
X16466316Y23846948D01*
Y23770773D01*
Y23821556D02*
X16517101Y23872340D01*
X16364749Y24024690D02*
Y23923123D01*
X16517101D01*
Y24024690D01*
X16440924Y23923123D02*
Y23973907D01*
X19162900Y22537900D02*
Y22637868D01*
X19212885D01*
X19229546Y22621207D01*
Y22587885D01*
X19212885Y22571223D01*
X19162900D01*
X19196222D02*
X19229546Y22537900D01*
X19262868Y22637868D02*
X19329514Y22537900D01*
Y22637868D02*
X19262868Y22537900D01*
X19137778Y22907193D02*
X19121117Y22923856D01*
X19087794D01*
X19071133Y22907193D01*
Y22840549D01*
X19087794Y22823888D01*
X19121117D01*
X19137778Y22840549D01*
Y22873871D01*
X19104456D01*
X19171100Y22823888D02*
Y22923856D01*
X19237746Y22823888D01*
Y22923856D01*
X19271068D02*
Y22823888D01*
X19321053D01*
X19337714Y22840549D01*
Y22907193D01*
X19321053Y22923856D01*
X19271068D01*
X19162900Y23195367D02*
X19229546D01*
X19196222D01*
Y23095399D01*
X19262868Y23195367D02*
X19329514Y23095399D01*
Y23195367D02*
X19262868Y23095399D01*
X19129546Y23823706D02*
X19112885Y23840369D01*
X19079561D01*
X19062900Y23823706D01*
Y23757060D01*
X19079561Y23740401D01*
X19112885D01*
X19129546Y23757060D01*
Y23790384D01*
X19096222D01*
X19162868Y23740401D02*
Y23840369D01*
X19229514Y23740401D01*
Y23840369D01*
X19262836D02*
Y23740401D01*
X19312819D01*
X19329482Y23757060D01*
Y23823706D01*
X19312819Y23840369D01*
X19262836D01*
X18677901Y24124529D02*
X18711221D01*
X18694560D01*
Y24024561D01*
X18677901D01*
X18711221D01*
X18827850D02*
X18761206D01*
X18827850Y24091206D01*
Y24107867D01*
X18811189Y24124529D01*
X18777869D01*
X18761206Y24107867D01*
X18927818D02*
X18911159Y24124529D01*
X18877835D01*
X18861174Y24107867D01*
Y24041223D01*
X18877835Y24024561D01*
X18911159D01*
X18927818Y24041223D01*
X18961142Y24007899D02*
X19027786D01*
X19127756Y24107867D02*
X19111095Y24124529D01*
X19077771D01*
X19061110Y24107867D01*
Y24091206D01*
X19077771Y24074545D01*
X19111095D01*
X19127756Y24057884D01*
Y24041223D01*
X19111095Y24024561D01*
X19077771D01*
X19061110Y24041223D01*
X19161078Y24124529D02*
Y24024561D01*
X19211061D01*
X19227724Y24041223D01*
Y24107867D01*
X19211061Y24124529D01*
X19161078D01*
X19261044Y24024561D02*
Y24091206D01*
X19294368Y24124529D01*
X19327690Y24091206D01*
Y24024561D01*
Y24074545D01*
X19261044D01*
X18702901Y23549529D02*
X18736223D01*
X18719560D01*
Y23449561D01*
X18702901D01*
X18736223D01*
X18852852D02*
X18786208D01*
X18852852Y23516206D01*
Y23532867D01*
X18836189Y23549529D01*
X18802869D01*
X18786208Y23532867D01*
X18952818D02*
X18936159Y23549529D01*
X18902837D01*
X18886174Y23532867D01*
Y23466223D01*
X18902837Y23449561D01*
X18936159D01*
X18952818Y23466223D01*
X18986142Y23432899D02*
X19052786D01*
X19152756Y23532867D02*
X19136095Y23549529D01*
X19102771D01*
X19086110Y23532867D01*
Y23516206D01*
X19102771Y23499545D01*
X19136095D01*
X19152756Y23482884D01*
Y23466223D01*
X19136095Y23449561D01*
X19102771D01*
X19086110Y23466223D01*
X19252724Y23532867D02*
X19236063Y23549529D01*
X19202739D01*
X19186078Y23532867D01*
Y23466223D01*
X19202739Y23449561D01*
X19236063D01*
X19252724Y23466223D01*
X19286046Y23549529D02*
Y23449561D01*
X19352692D01*
X19232899Y24437750D02*
X19283684D01*
X19258292D01*
Y24285400D01*
X19232899D01*
X19283684D01*
X19461426D02*
X19359859D01*
X19461426Y24386967D01*
Y24412360D01*
X19436034Y24437750D01*
X19385251D01*
X19359859Y24412360D01*
X19613777D02*
X19588385Y24437750D01*
X19537602D01*
X19512210Y24412360D01*
Y24310793D01*
X19537602Y24285400D01*
X19588385D01*
X19613777Y24310793D01*
X18095399Y22347900D02*
Y22500250D01*
X18171574D01*
X18196967Y22474860D01*
Y22424075D01*
X18171574Y22398683D01*
X18095399D01*
X18146182D02*
X18196967Y22347900D01*
X18349318Y22500250D02*
X18247751D01*
Y22347900D01*
X18349318D01*
X18247751Y22424075D02*
X18298534D01*
X18501669Y22474860D02*
X18476277Y22500250D01*
X18425493D01*
X18400101Y22474860D01*
Y22449467D01*
X18425493Y22424075D01*
X18476277D01*
X18501669Y22398683D01*
Y22373293D01*
X18476277Y22347900D01*
X18425493D01*
X18400101Y22373293D01*
X18654019Y22500250D02*
X18552452D01*
Y22347900D01*
X18654019D01*
X18552452Y22424075D02*
X18603236D01*
X18704803Y22500250D02*
X18806371D01*
X18755586D01*
Y22347900D01*
X19437900Y22377751D02*
Y22250792D01*
X19463292Y22225400D01*
X19514075D01*
X19539467Y22250792D01*
Y22377751D01*
X19590251Y22225400D02*
Y22326967D01*
X19641034Y22377751D01*
X19691818Y22326967D01*
Y22225400D01*
Y22301575D01*
X19590251D01*
X19742601Y22225400D02*
Y22377751D01*
X19818777D01*
X19844170Y22352359D01*
Y22301575D01*
X19818777Y22276184D01*
X19742601D01*
X19793385D02*
X19844170Y22225400D01*
X19894952Y22377751D02*
X19996519D01*
X19945737D01*
Y22225400D01*
X18102901Y16917900D02*
Y17019467D01*
X18153683Y17070251D01*
X18204466Y17019467D01*
Y16917900D01*
Y16994075D01*
X18102901D01*
X18255251Y17070251D02*
Y16917900D01*
X18331425D01*
X18356818Y16943292D01*
Y17044859D01*
X18331425Y17070251D01*
X18255251D01*
X18509169Y17044859D02*
X18483777Y17070251D01*
X18432993D01*
X18407600Y17044859D01*
Y16943292D01*
X18432993Y16917900D01*
X18483777D01*
X18509169Y16943292D01*
X18813870Y17044859D02*
X18788478Y17070251D01*
X18737695D01*
X18712303Y17044859D01*
Y16943292D01*
X18737695Y16917900D01*
X18788478D01*
X18813870Y16943292D01*
X18864655Y17070251D02*
Y16917900D01*
Y16994075D01*
X18966222D01*
Y17070251D01*
Y16917900D01*
X19017004D02*
Y17019467D01*
X19067789Y17070251D01*
X19118571Y17019467D01*
Y16917900D01*
Y16994075D01*
X19017004D01*
X19169354Y16917900D02*
Y17070251D01*
X19270921Y16917900D01*
Y17070251D01*
X19321706Y16917900D02*
Y17070251D01*
X19423273Y16917900D01*
Y17070251D01*
X19575624D02*
X19474057D01*
Y16917900D01*
X19575624D01*
X19474057Y16994075D02*
X19524840D01*
X19626407Y17070251D02*
Y16917900D01*
X19727975D01*
X20032677D02*
X19931110D01*
X20032677Y17019467D01*
Y17044859D01*
X20007285Y17070251D01*
X19956500D01*
X19931110Y17044859D01*
X18135400Y15692900D02*
Y15794467D01*
X18186185Y15845251D01*
X18236967Y15794467D01*
Y15692900D01*
Y15769075D01*
X18135400D01*
X18287750Y15845251D02*
Y15692900D01*
X18363927D01*
X18389317Y15718292D01*
Y15819859D01*
X18363927Y15845251D01*
X18287750D01*
X18541669Y15819859D02*
X18516277Y15845251D01*
X18465492D01*
X18440102Y15819859D01*
Y15718292D01*
X18465492Y15692900D01*
X18516277D01*
X18541669Y15718292D01*
X18846370Y15819859D02*
X18820978Y15845251D01*
X18770195D01*
X18744803Y15819859D01*
Y15718292D01*
X18770195Y15692900D01*
X18820978D01*
X18846370Y15718292D01*
X18897154Y15845251D02*
Y15692900D01*
Y15769075D01*
X18998721D01*
Y15845251D01*
Y15692900D01*
X19049504D02*
Y15794467D01*
X19100288Y15845251D01*
X19151073Y15794467D01*
Y15692900D01*
Y15769075D01*
X19049504D01*
X19201855Y15692900D02*
Y15845251D01*
X19303423Y15692900D01*
Y15845251D01*
X19354205Y15692900D02*
Y15845251D01*
X19455772Y15692900D01*
Y15845251D01*
X19608124D02*
X19506557D01*
Y15692900D01*
X19608124D01*
X19506557Y15769075D02*
X19557339D01*
X19658907Y15845251D02*
Y15692900D01*
X19760475D01*
X19963609D02*
X20014392D01*
X19989001D01*
Y15845251D01*
X19963609Y15819859D01*
X13817657Y16812643D02*
Y16845966D01*
Y16829305D01*
X13717690D01*
X13734351Y16812643D01*
Y16895950D02*
X13717690Y16912611D01*
Y16945934D01*
X13734351Y16962595D01*
X13800996D01*
X13817657Y16945934D01*
Y16912611D01*
X13800996Y16895950D01*
X13734351D01*
Y16995918D02*
X13717690Y17012579D01*
Y17045901D01*
X13734351Y17062563D01*
X13800996D01*
X13817657Y17045901D01*
Y17012579D01*
X13800996Y16995918D01*
X13734351D01*
X13817657Y17095886D02*
X13717690D01*
Y17145869D01*
X13734351Y17162531D01*
X13767674D01*
X13784335Y17145869D01*
Y17095886D01*
Y17129208D02*
X13817657Y17162531D01*
X13567101Y16895399D02*
Y16928723D01*
Y16912062D01*
X13467133D01*
X13483794Y16895399D01*
X13467133Y16978706D02*
X13567101D01*
X13533777D01*
X13467133Y17045352D01*
X13517116Y16995367D01*
X13567101Y17045352D01*
X13304601Y16852901D02*
Y16886221D01*
Y16869560D01*
X13204633D01*
X13221294Y16852901D01*
Y16936206D02*
X13204633Y16952869D01*
Y16986189D01*
X13221294Y17002850D01*
X13287938D01*
X13304601Y16986189D01*
Y16952869D01*
X13287938Y16936206D01*
X13221294D01*
X13204633Y17036174D02*
X13304601D01*
X13271277D01*
X13204633Y17102818D01*
X13254616Y17052835D01*
X13304601Y17102818D01*
X13049600Y16810400D02*
Y16843723D01*
Y16827061D01*
X12949632D01*
X12966293Y16810400D01*
Y16893706D02*
X12949632Y16910368D01*
Y16943690D01*
X12966293Y16960352D01*
X13032939D01*
X13049600Y16943690D01*
Y16910368D01*
X13032939Y16893706D01*
X12966293D01*
Y16993674D02*
X12949632Y17010335D01*
Y17043658D01*
X12966293Y17060320D01*
X13032939D01*
X13049600Y17043658D01*
Y17010335D01*
X13032939Y16993674D01*
X12966293D01*
X12949632Y17093642D02*
X13049600D01*
X13016277D01*
X12949632Y17160287D01*
X12999615Y17110303D01*
X13049600Y17160287D01*
X12987900Y16605400D02*
X13021223D01*
X13004561D01*
Y16705368D01*
X12987900Y16688707D01*
X13284544Y16605400D02*
X13217900D01*
X13284544Y16672044D01*
Y16688707D01*
X13267883Y16705368D01*
X13234561D01*
X13217900Y16688707D01*
X13482899D02*
X13499561Y16705368D01*
X13532884D01*
X13549545Y16688707D01*
Y16672044D01*
X13532884Y16655383D01*
X13516222D01*
X13532884D01*
X13549545Y16638724D01*
Y16622061D01*
X13532884Y16605400D01*
X13499561D01*
X13482899Y16622061D01*
X13777884Y16605400D02*
Y16705368D01*
X13727901Y16655383D01*
X13794545D01*
X14829749Y14675400D02*
X14982100D01*
Y14751575D01*
X14956708Y14776967D01*
X14931317D01*
X14905925Y14751575D01*
Y14675400D01*
Y14751575D01*
X14880533Y14776967D01*
X14855141D01*
X14829749Y14751575D01*
Y14675400D01*
Y14903926D02*
Y14853143D01*
X14855141Y14827751D01*
X14956708D01*
X14982100Y14853143D01*
Y14903926D01*
X14956708Y14929318D01*
X14855141D01*
X14829749Y14903926D01*
Y14980101D02*
X14982100D01*
Y15056277D01*
X14956708Y15081670D01*
X14855141D01*
X14829749Y15056277D01*
Y14980101D01*
Y15234019D02*
Y15132452D01*
X14982100D01*
Y15234019D01*
X14905925Y15132452D02*
Y15183237D01*
X14829749Y15513329D02*
Y15462544D01*
X14855141Y15437154D01*
X14956708D01*
X14982100Y15462544D01*
Y15513329D01*
X14956708Y15538721D01*
X14855141D01*
X14829749Y15513329D01*
Y15589503D02*
X14956708D01*
X14982100Y15614896D01*
Y15665680D01*
X14956708Y15691071D01*
X14829749D01*
Y15741855D02*
Y15843422D01*
Y15792638D01*
X14982100D01*
X13584599Y14675400D02*
X13432249D01*
Y14751575D01*
X13457642Y14776967D01*
X13508424D01*
X13533817Y14751575D01*
Y14675400D01*
Y14726183D02*
X13584599Y14776967D01*
X13432249Y14827751D02*
X13584599D01*
Y14929318D01*
X13457642Y15081670D02*
X13432249Y15056277D01*
Y15005493D01*
X13457642Y14980101D01*
X13559209D01*
X13584599Y15005493D01*
Y15056277D01*
X13559209Y15081670D01*
X13432249Y15360979D02*
Y15310194D01*
X13457642Y15284802D01*
X13559209D01*
X13584599Y15310194D01*
Y15360979D01*
X13559209Y15386369D01*
X13457642D01*
X13432249Y15360979D01*
Y15437154D02*
X13559209D01*
X13584599Y15462544D01*
Y15513329D01*
X13559209Y15538721D01*
X13432249D01*
Y15589503D02*
Y15691071D01*
Y15640288D01*
X13584599D01*
X11924208Y15020399D02*
X11949600Y15045792D01*
Y15096574D01*
X11924208Y15121967D01*
X11822641D01*
X11797249Y15096574D01*
Y15045792D01*
X11822641Y15020399D01*
X11848033D01*
X11873425Y15045792D01*
Y15121967D01*
Y15172751D02*
Y15274318D01*
X11949600Y15325101D02*
Y15375885D01*
Y15350493D01*
X11797249D01*
X11822641Y15325101D01*
X11949600Y15553629D02*
Y15452060D01*
X11848033Y15553629D01*
X11822641D01*
X11797249Y15528236D01*
Y15477452D01*
X11822641Y15452060D01*
X11797249Y15604411D02*
X11898816D01*
X11949600Y15655194D01*
X11898816Y15705978D01*
X11797249D01*
X11552249Y14759467D02*
Y14708682D01*
Y14734074D01*
X11679208D01*
X11704600Y14708682D01*
Y14683292D01*
X11679208Y14657899D01*
X11704600Y14810251D02*
X11603032D01*
X11552249Y14861034D01*
X11603032Y14911818D01*
X11704600D01*
X11628424D01*
Y14810251D01*
X11577641Y15064168D02*
X11552249Y15038777D01*
Y14987993D01*
X11577641Y14962601D01*
X11679208D01*
X11704600Y14987993D01*
Y15038777D01*
X11679208Y15064168D01*
X11552249Y15114952D02*
X11704600D01*
X11653816D01*
X11552249Y15216519D01*
X11628424Y15140344D01*
X11704600Y15216519D01*
X11552249Y15419653D02*
Y15470438D01*
Y15445045D01*
X11704600D01*
Y15419653D01*
Y15470438D01*
Y15546613D02*
X11552249D01*
X11704600Y15648180D01*
X11552249D01*
X11704600Y15698962D02*
X11552249D01*
Y15775137D01*
X11577641Y15800529D01*
X11628424D01*
X11653816Y15775137D01*
Y15698962D01*
X11552249Y15851314D02*
X11679208D01*
X11704600Y15876706D01*
Y15927489D01*
X11679208Y15952881D01*
X11552249D01*
Y16003664D02*
Y16105232D01*
Y16054448D01*
X11704600D01*
D140*
X18053200Y23739200D02*
Y23751900D01*
Y23739200D02*
X18281799D01*
Y23751900D01*
Y23828101D02*
Y23840800D01*
X18053200D02*
X18281799D01*
X18053200Y23828101D02*
Y23840800D01*
X18167500Y23739200D02*
Y23840800D01*
X15928200Y15596700D02*
Y15609399D01*
Y15596700D02*
X16156799D01*
Y15609399D01*
Y15685600D02*
Y15698300D01*
X15928200D02*
X16156799D01*
X15928200Y15685600D02*
Y15698300D01*
X16042500Y15596700D02*
Y15698300D01*
X11963100Y22575700D02*
X11975800D01*
Y22804300D01*
X11963100D02*
X11975800D01*
X11874200D02*
X11886900D01*
X11874200Y22575700D02*
Y22804300D01*
Y22575700D02*
X11886900D01*
X11874200Y22689999D02*
X11975800D01*
X14554201Y22192500D02*
X14655800D01*
X14554201Y22078200D02*
X14566901D01*
X14554201D02*
Y22306799D01*
X14566901D01*
X14643100D02*
X14655800D01*
Y22078200D02*
Y22306799D01*
X14643100Y22078200D02*
X14655800D01*
X15341701Y21650000D02*
X15443300D01*
X15341701Y21535699D02*
X15354401D01*
X15341701D02*
Y21764301D01*
X15354401D01*
X15430600D02*
X15443300D01*
Y21535699D02*
Y21764301D01*
X15430600Y21535699D02*
X15443300D01*
X11796800Y19008099D02*
Y19020799D01*
X11568200D02*
X11796800D01*
X11568200Y19008099D02*
Y19020799D01*
Y18919200D02*
Y18931900D01*
Y18919200D02*
X11796800D01*
Y18931900D01*
X11682500Y18919200D02*
Y19020799D01*
X15030000Y20131499D02*
X15050000D01*
Y20331499D01*
X15030000D02*
X15050000D01*
X14950000D02*
X14970000D01*
X14950000Y20131499D02*
Y20331499D01*
Y20131499D02*
X14970000D01*
X17218999Y16847501D02*
Y16867500D01*
X17418999D01*
Y16847501D02*
Y16867500D01*
Y16767500D02*
Y16787500D01*
X17218999Y16767500D02*
X17418999D01*
X17218999D02*
Y16787500D01*
X15182500Y16782500D02*
Y16802499D01*
Y16782500D02*
X15382500D01*
Y16802499D01*
Y16862500D02*
Y16882500D01*
X15182500D02*
X15382500D01*
X15182500Y16862500D02*
Y16882500D01*
X18132500Y16189000D02*
X18152499D01*
Y16389000D01*
X18132500D02*
X18152499D01*
X18052499D02*
X18072501D01*
X18052499Y16189000D02*
Y16389000D01*
Y16189000D02*
X18072501D01*
X14510001Y16725000D02*
X14530000D01*
Y16525000D02*
Y16725000D01*
X14510001Y16525000D02*
X14530000D01*
X14430000D02*
X14450000D01*
X14430000D02*
Y16725000D01*
X14450000D01*
X17105000Y15732500D02*
Y15752499D01*
X16905000D02*
X17105000D01*
X16905000Y15732500D02*
Y15752499D01*
Y15652499D02*
Y15672501D01*
Y15652499D02*
X17105000D01*
Y15672501D01*
X19014999Y20342500D02*
Y20362500D01*
X19214999D01*
Y20342500D02*
Y20362500D01*
Y20262500D02*
Y20282500D01*
X19014999Y20262500D02*
X19214999D01*
X19014999D02*
Y20282500D01*
X13160001Y23460001D02*
X13180000D01*
X13160001Y23260001D02*
Y23460001D01*
Y23260001D02*
X13180000D01*
X13239999D02*
X13260001D01*
Y23460001D01*
X13239999D02*
X13260001D01*
X10927500Y21030000D02*
X10947500D01*
X10927500Y20830000D02*
Y21030000D01*
Y20830000D02*
X10947500D01*
X11007500D02*
X11027500D01*
Y21030000D01*
X11007500D02*
X11027500D01*
X10880000Y16630000D02*
Y16650000D01*
X11080000D01*
Y16630000D02*
Y16650000D01*
Y16550000D02*
Y16570000D01*
X10880000Y16550000D02*
X11080000D01*
X10880000D02*
Y16570000D01*
X17709300Y23820599D02*
Y23833299D01*
X17480701D02*
X17709300D01*
X17480701Y23820599D02*
Y23833299D01*
Y23731700D02*
Y23744400D01*
Y23731700D02*
X17709300D01*
Y23744400D01*
X17595000Y23731700D02*
Y23833299D01*
X10730000Y16814999D02*
X10760000D01*
Y17095000D01*
X10730000D02*
X10760000D01*
X10620000D02*
X10650000D01*
X10620000Y16814999D02*
Y17095000D01*
Y16814999D02*
X10650000D01*
X10620000Y16955000D02*
X10760000D01*
X15309200Y16264999D02*
X15410800D01*
X15398100Y16379300D02*
X15410800D01*
Y16150700D02*
Y16379300D01*
X15398100Y16150700D02*
X15410800D01*
X15309200D02*
X15321899D01*
X15309200D02*
Y16379300D01*
X15321899D01*
X13155600Y16133200D02*
X13168300D01*
Y16361800D01*
X13155600D02*
X13168300D01*
X13066701D02*
X13079401D01*
X13066701Y16133200D02*
Y16361800D01*
Y16133200D02*
X13079401D01*
X13066701Y16247501D02*
X13168300D01*
X16764999Y15224200D02*
Y15325800D01*
X16650700Y15313100D02*
Y15325800D01*
X16879300D01*
Y15313100D02*
Y15325800D01*
Y15224200D02*
Y15236900D01*
X16650700Y15224200D02*
X16879300D01*
X16650700D02*
Y15236900D01*
X16256700Y15264999D02*
X16358299D01*
X16345599Y15379300D02*
X16358299D01*
Y15150700D02*
Y15379300D01*
X16345599Y15150700D02*
X16358299D01*
X16256700D02*
X16269400D01*
X16256700D02*
Y15379300D01*
X16269400D01*
X13285600Y16135699D02*
X13298300D01*
Y16364301D01*
X13285600D02*
X13298300D01*
X13196700D02*
X13209399D01*
X13196700Y16135699D02*
Y16364301D01*
Y16135699D02*
X13209399D01*
X13196700Y16250000D02*
X13298300D01*
X11813100Y22573199D02*
X11825800D01*
Y22801801D01*
X11813100D02*
X11825800D01*
X11724200D02*
X11736900D01*
X11724200Y22573199D02*
Y22801801D01*
Y22573199D02*
X11736900D01*
X11724200Y22687500D02*
X11825800D01*
X15452499Y21414200D02*
Y21515800D01*
X15566800Y21414200D02*
Y21426900D01*
X15338200Y21414200D02*
X15566800D01*
X15338200D02*
Y21426900D01*
Y21503101D02*
Y21515800D01*
X15566800D01*
Y21503101D02*
Y21515800D01*
X14860001Y20706700D02*
Y20808299D01*
X14745700Y20795599D02*
Y20808299D01*
X14974300D01*
Y20795599D02*
Y20808299D01*
Y20706700D02*
Y20719400D01*
X14745700Y20706700D02*
X14974300D01*
X14745700D02*
Y20719400D01*
X11458200Y18779201D02*
Y18791901D01*
Y18779201D02*
X11686800D01*
Y18791901D01*
Y18868100D02*
Y18880800D01*
X11458200D02*
X11686800D01*
X11458200Y18868100D02*
Y18880800D01*
X11572500Y18779201D02*
Y18880800D01*
X16287500Y20046500D02*
X16307500D01*
Y20246500D01*
X16287500D02*
X16307500D01*
X16207500D02*
X16227499D01*
X16207500Y20046500D02*
Y20246500D01*
Y20046500D02*
X16227499D01*
X11970000Y19921500D02*
X11990000D01*
X11970000D02*
Y20121500D01*
X11990000D01*
X12050000D02*
X12070000D01*
Y19921500D02*
Y20121500D01*
X12050000Y19921500D02*
X12070000D01*
X12559000Y20407500D02*
Y20427499D01*
X12359000D02*
X12559000D01*
X12359000Y20407500D02*
Y20427499D01*
Y20327499D02*
Y20347501D01*
Y20327499D02*
X12559000D01*
Y20347501D01*
X12735360Y20047479D02*
Y20067480D01*
X12935361D01*
Y20047479D02*
Y20067480D01*
Y19967480D02*
Y19987480D01*
X12735360Y19967480D02*
X12935361D01*
X12735360D02*
Y19987480D01*
X17647501Y16666499D02*
X17667500D01*
X17647501Y16466499D02*
Y16666499D01*
Y16466499D02*
X17667500D01*
X17727499D02*
X17747501D01*
Y16666499D01*
X17727499D02*
X17747501D01*
X15424001Y15527499D02*
Y15547501D01*
X15224001Y15527499D02*
X15424001D01*
X15224001D02*
Y15547501D01*
Y15607500D02*
Y15627499D01*
X15424001D01*
Y15607500D02*
Y15627499D01*
X15766499Y15525000D02*
Y15545000D01*
X15566499Y15525000D02*
X15766499D01*
X15566499D02*
Y15545000D01*
Y15605000D02*
Y15625000D01*
X15766499D01*
Y15605000D02*
Y15625000D01*
X15525000Y15728500D02*
X15545000D01*
Y15528500D02*
Y15728500D01*
X15525000Y15528500D02*
X15545000D01*
X15445000D02*
X15464999D01*
X15445000D02*
Y15728500D01*
X15464999D01*
X15425999Y15647501D02*
Y15667500D01*
X15225999Y15647501D02*
X15425999D01*
X15225999D02*
Y15667500D01*
Y15727499D02*
Y15747501D01*
X15425999D01*
Y15727499D02*
Y15747501D01*
X12445000Y17120000D02*
Y17139999D01*
X12245000D02*
X12445000D01*
X12245000Y17120000D02*
Y17139999D01*
Y17039999D02*
Y17060001D01*
Y17039999D02*
X12445000D01*
Y17060001D01*
X12380000Y17560001D02*
Y17580000D01*
X12580000D01*
Y17560001D02*
Y17580000D01*
Y17480000D02*
Y17500000D01*
X12380000Y17480000D02*
X12580000D01*
X12380000D02*
Y17500000D01*
Y17430000D02*
Y17450000D01*
X12580000D01*
Y17430000D02*
Y17450000D01*
Y17350000D02*
Y17370000D01*
X12380000Y17350000D02*
X12580000D01*
X12380000D02*
Y17370000D01*
X16635001Y15178999D02*
X16655000D01*
X16635001Y14978999D02*
Y15178999D01*
Y14978999D02*
X16655000D01*
X16714999D02*
X16735001D01*
Y15178999D01*
X16714999D02*
X16735001D01*
X15875000Y15711000D02*
X15895000D01*
Y15511000D02*
Y15711000D01*
X15875000Y15511000D02*
X15895000D01*
X15795000D02*
X15814999D01*
X15795000D02*
Y15711000D01*
X15814999D01*
X14418500Y20732500D02*
Y20752499D01*
X14618500D01*
Y20732500D02*
Y20752499D01*
Y20652499D02*
Y20672501D01*
X14418500Y20652499D02*
X14618500D01*
X14418500D02*
Y20672501D01*
X11325000Y21870000D02*
Y21889999D01*
X11125000Y21870000D02*
X11325000D01*
X11125000D02*
Y21889999D01*
Y21950000D02*
Y21970000D01*
X11325000D01*
Y21950000D02*
Y21970000D01*
X12149360Y19366679D02*
Y19468280D01*
X12263660Y19366679D02*
Y19379379D01*
X12035060Y19366679D02*
X12263660D01*
X12035060D02*
Y19379379D01*
Y19455580D02*
Y19468280D01*
X12263660D01*
Y19455580D02*
Y19468280D01*
X17313100Y16890700D02*
X17325800D01*
Y17119299D01*
X17313100D02*
X17325800D01*
X17224199D02*
X17236899D01*
X17224199Y16890700D02*
Y17119299D01*
Y16890700D02*
X17236899D01*
X17224199Y17005000D02*
X17325800D01*
X14185699Y15604201D02*
Y15616901D01*
Y15604201D02*
X14414301D01*
Y15616901D01*
Y15693100D02*
Y15705800D01*
X14185699D02*
X14414301D01*
X14185699Y15693100D02*
Y15705800D01*
X14300000Y15604201D02*
Y15705800D01*
X14388100Y16578200D02*
X14400800D01*
Y16806799D01*
X14388100D02*
X14400800D01*
X14299200D02*
X14311900D01*
X14299200Y16578200D02*
Y16806799D01*
Y16578200D02*
X14311900D01*
X14299200Y16692500D02*
X14400800D01*
X14388100Y16830701D02*
X14400800D01*
Y17059300D01*
X14388100D02*
X14400800D01*
X14299200D02*
X14311900D01*
X14299200Y16830701D02*
Y17059300D01*
Y16830701D02*
X14311900D01*
X14299200Y16945000D02*
X14400800D01*
X12885600Y16133200D02*
X12898300D01*
Y16361800D01*
X12885600D02*
X12898300D01*
X12796700D02*
X12809399D01*
X12796700Y16133200D02*
Y16361800D01*
Y16133200D02*
X12809399D01*
X12796700Y16247501D02*
X12898300D01*
X13015601Y16135699D02*
X13028300D01*
Y16364301D01*
X13015601D02*
X13028300D01*
X12926700D02*
X12939400D01*
X12926700Y16135699D02*
Y16364301D01*
Y16135699D02*
X12939400D01*
X12926700Y16250000D02*
X13028300D01*
X16505000Y15224200D02*
Y15325800D01*
X16619299Y15224200D02*
Y15236900D01*
X16390700Y15224200D02*
X16619299D01*
X16390700D02*
Y15236900D01*
Y15313100D02*
Y15325800D01*
X16619299D01*
Y15313100D02*
Y15325800D01*
X17224200Y15755000D02*
X17325800D01*
X17224200Y15640700D02*
X17236900D01*
X17224200D02*
Y15869299D01*
X17236900D01*
X17313100D02*
X17325800D01*
Y15640700D02*
Y15869299D01*
X17313100Y15640700D02*
X17325800D01*
X15925700Y15724200D02*
Y15736900D01*
Y15724200D02*
X16154300D01*
Y15736900D01*
Y15813100D02*
Y15825800D01*
X15925700D02*
X16154300D01*
X15925700Y15813100D02*
Y15825800D01*
X16039999Y15724200D02*
Y15825800D01*
X11833100Y22305701D02*
X11845800D01*
Y22534300D01*
X11833100D02*
X11845800D01*
X11744200D02*
X11756900D01*
X11744200Y22305701D02*
Y22534300D01*
Y22305701D02*
X11756900D01*
X11744200Y22420000D02*
X11845800D01*
X10865700Y22439200D02*
Y22451900D01*
Y22439200D02*
X11094300D01*
Y22451900D01*
Y22528101D02*
Y22540800D01*
X10865700D02*
X11094300D01*
X10865700Y22528101D02*
Y22540800D01*
X10980000Y22439200D02*
Y22540800D01*
X14760001Y20581700D02*
Y20683299D01*
X14645700Y20670599D02*
Y20683299D01*
X14874300D01*
Y20670599D02*
Y20683299D01*
Y20581700D02*
Y20594400D01*
X14645700Y20581700D02*
X14874300D01*
X14645700D02*
Y20594400D01*
X12148083Y18515535D02*
X12160783D01*
Y18744135D01*
X12148083D02*
X12160783D01*
X12059183D02*
X12071883D01*
X12059183Y18515535D02*
Y18744135D01*
Y18515535D02*
X12071883D01*
X12059183Y18629836D02*
X12160783D01*
X10583100Y16798199D02*
X10595800D01*
Y17026801D01*
X10583100D02*
X10595800D01*
X10494200D02*
X10506900D01*
X10494200Y16798199D02*
Y17026801D01*
Y16798199D02*
X10506900D01*
X10494200Y16912500D02*
X10595800D01*
X19280000Y16589999D02*
X19320000D01*
X19280000Y16577499D02*
X19320000D01*
X19280000Y16417500D02*
Y16577499D01*
Y16417500D02*
X19292500D01*
X19405000Y16577499D02*
Y16589999D01*
X19364999Y16577499D02*
Y16589999D01*
X19405000D01*
X19364999Y16577499D02*
X19405000D01*
Y16417500D02*
Y16577499D01*
X19392500Y16417500D02*
X19405000D01*
X19280000Y16577499D02*
Y16589999D01*
X19320000Y16577499D02*
Y16589999D01*
X15425000Y20281499D02*
X15445000D01*
Y20481499D01*
X15425000D02*
X15445000D01*
X15345000D02*
X15364999D01*
X15345000Y20281499D02*
Y20481499D01*
Y20281499D02*
X15364999D01*
X15566499Y15725000D02*
Y15745000D01*
X15766499D01*
Y15725000D02*
Y15745000D01*
Y15645000D02*
Y15664999D01*
X15566499Y15645000D02*
X15766499D01*
X15566499D02*
Y15664999D01*
X15525000Y16353999D02*
X15545000D01*
Y16153999D02*
Y16353999D01*
X15525000Y16153999D02*
X15545000D01*
X15445000D02*
X15464999D01*
X15445000D02*
Y16353999D01*
X15464999D01*
X14396001Y16455000D02*
Y16475000D01*
X14196001Y16455000D02*
X14396001D01*
X14196001D02*
Y16475000D01*
Y16535001D02*
Y16555000D01*
X14396001D01*
Y16535001D02*
Y16555000D01*
X14439999Y15505000D02*
X14460001D01*
X14439999D02*
Y15705000D01*
X14460001D01*
X14520000D02*
X14539999D01*
Y15505000D02*
Y15705000D01*
X14520000Y15505000D02*
X14539999D01*
X15875000Y15939000D02*
X15895000D01*
Y15739000D02*
Y15939000D01*
X15875000Y15739000D02*
X15895000D01*
X15795000D02*
X15814999D01*
X15795000D02*
Y15939000D01*
X15814999D01*
X19030000Y19677499D02*
Y19697501D01*
X19230000D01*
Y19677499D02*
Y19697501D01*
Y19597501D02*
Y19617500D01*
X19030000Y19597501D02*
X19230000D01*
X19030000D02*
Y19617500D01*
X14760001Y21028500D02*
X14780000D01*
X14760001Y20828500D02*
Y21028500D01*
Y20828500D02*
X14780000D01*
X14839999D02*
X14860001D01*
Y21028500D01*
X14839999D02*
X14860001D01*
X13691800Y20313100D02*
Y20325800D01*
X13463200D02*
X13691800D01*
X13463200Y20313100D02*
Y20325800D01*
Y20224200D02*
Y20236900D01*
Y20224200D02*
X13691800D01*
Y20236900D01*
X13577499Y20224200D02*
Y20325800D01*
X14628200Y19151700D02*
Y19164400D01*
Y19151700D02*
X14856799D01*
Y19164400D01*
Y19240601D02*
Y19253300D01*
X14628200D02*
X14856799D01*
X14628200Y19240601D02*
Y19253300D01*
X14742500Y19151700D02*
Y19253300D01*
X12244300Y20260600D02*
Y20273300D01*
X12015700D02*
X12244300D01*
X12015700Y20260600D02*
Y20273300D01*
Y20171700D02*
Y20184399D01*
Y20171700D02*
X12244300D01*
Y20184399D01*
X12130000Y20171700D02*
Y20273300D01*
X15150000Y16163400D02*
Y16264999D01*
X15035699Y16252299D02*
Y16264999D01*
X15264301D01*
Y16252299D02*
Y16264999D01*
Y16163400D02*
Y16176100D01*
X15035699Y16163400D02*
X15264301D01*
X15035699D02*
Y16176100D01*
Y16033400D02*
Y16046100D01*
Y16033400D02*
X15264301D01*
Y16046100D01*
Y16122301D02*
Y16135001D01*
X15035699D02*
X15264301D01*
X15035699Y16122301D02*
Y16135001D01*
X15150000Y16033400D02*
Y16135001D01*
X15035699Y15903400D02*
Y15916100D01*
Y15903400D02*
X15264301D01*
Y15916100D01*
Y15992300D02*
Y16005000D01*
X15035699D02*
X15264301D01*
X15035699Y15992300D02*
Y16005000D01*
X15150000Y15903400D02*
Y16005000D01*
X15035699Y15783400D02*
Y15796100D01*
Y15783400D02*
X15264301D01*
Y15796100D01*
Y15872301D02*
Y15885001D01*
X15035699D02*
X15264301D01*
X15035699Y15872301D02*
Y15885001D01*
X15150000Y15783400D02*
Y15885001D01*
X16646800Y16573100D02*
Y16585800D01*
X16418201D02*
X16646800D01*
X16418201Y16573100D02*
Y16585800D01*
Y16484200D02*
Y16496899D01*
Y16484200D02*
X16646800D01*
Y16496899D01*
X16532500Y16484200D02*
Y16585800D01*
X19137500Y15286700D02*
Y15388300D01*
X19023199Y15375600D02*
Y15388300D01*
X19251801D01*
Y15375600D02*
Y15388300D01*
Y15286700D02*
Y15299400D01*
X19023199Y15286700D02*
X19251801D01*
X19023199D02*
Y15299400D01*
X12136800Y22523100D02*
Y22535800D01*
X11908200D02*
X12136800D01*
X11908200Y22523100D02*
Y22535800D01*
Y22434200D02*
Y22446899D01*
Y22434200D02*
X12136800D01*
Y22446899D01*
X12022500Y22434200D02*
Y22535800D01*
X14667500Y22334200D02*
Y22435800D01*
X14781799Y22334200D02*
Y22346899D01*
X14553200Y22334200D02*
X14781799D01*
X14553200D02*
Y22346899D01*
Y22423100D02*
Y22435800D01*
X14781799D01*
Y22423100D02*
Y22435800D01*
X14902499Y21133099D02*
Y21145799D01*
X15072501D01*
Y21133099D02*
Y21145799D01*
Y21064200D02*
Y21076900D01*
X14902499Y21064200D02*
X15072501D01*
X14902499D02*
Y21076900D01*
X14987500Y21064999D02*
Y21145000D01*
X11431800Y19625600D02*
Y19638300D01*
X11203200D02*
X11431800D01*
X11203200Y19625600D02*
Y19638300D01*
Y19536700D02*
Y19549400D01*
Y19536700D02*
X11431800D01*
Y19549400D01*
X11317500Y19536700D02*
Y19638300D01*
X14412500Y15352499D02*
X14425000D01*
X14412500Y15312500D02*
X14425000D01*
X14585001Y15425000D02*
Y15437500D01*
X14425000D02*
X14585001D01*
X14425000Y15397501D02*
Y15437500D01*
X14412500Y15397501D02*
Y15437500D01*
Y15397501D02*
X14425000D01*
X14412500Y15437500D02*
X14425000D01*
X14585001Y15312500D02*
Y15325000D01*
X14425000Y15312500D02*
X14585001D01*
X14425000D02*
Y15352499D01*
X14412500Y15312500D02*
Y15352499D01*
X12914999Y15355000D02*
X12927499D01*
X12914999Y15314999D02*
X12927499D01*
X13087500Y15427499D02*
Y15439999D01*
X12927499D02*
X13087500D01*
X12927499Y15400000D02*
Y15439999D01*
X12914999Y15400000D02*
Y15439999D01*
Y15400000D02*
X12927499D01*
X12914999Y15439999D02*
X12927499D01*
X13087500Y15314999D02*
Y15327499D01*
X12927499Y15314999D02*
X13087500D01*
X12927499D02*
Y15355000D01*
X12914999Y15314999D02*
Y15355000D01*
X19280000Y15392500D02*
X19320000D01*
X19280000Y15380000D02*
X19320000D01*
X19280000Y15220000D02*
Y15380000D01*
Y15220000D02*
X19292500D01*
X19405000Y15380000D02*
Y15392500D01*
X19364999Y15380000D02*
Y15392500D01*
X19405000D01*
X19364999Y15380000D02*
X19405000D01*
Y15220000D02*
Y15380000D01*
X19392500Y15220000D02*
X19405000D01*
X19280000Y15380000D02*
Y15392500D01*
X19320000Y15380000D02*
Y15392500D01*
X12573500Y20327499D02*
Y20347501D01*
Y20327499D02*
X12773500D01*
Y20347501D01*
Y20407500D02*
Y20427499D01*
X12573500D02*
X12773500D01*
X12573500Y20407500D02*
Y20427499D01*
X12719360Y19507480D02*
Y19527480D01*
X12919360D01*
Y19507480D02*
Y19527480D01*
Y19427480D02*
Y19447479D01*
X12719360Y19427480D02*
X12919360D01*
X12719360D02*
Y19447479D01*
X12675000Y19435001D02*
X12695000D01*
Y19235001D02*
Y19435001D01*
X12675000Y19235001D02*
X12695000D01*
X12595000D02*
X12615000D01*
X12595000D02*
Y19435001D01*
X12615000D01*
X16880000Y16230000D02*
X16900000D01*
Y16430000D01*
X16880000D02*
X16900000D01*
X16800000D02*
X16820000D01*
X16800000Y16230000D02*
Y16430000D01*
Y16230000D02*
X16820000D01*
X15620000Y16145000D02*
X15639999D01*
X15620000D02*
Y16345000D01*
X15639999D01*
X15700000D02*
X15720000D01*
Y16145000D02*
Y16345000D01*
X15700000Y16145000D02*
X15720000D01*
X17914999Y15180000D02*
X17935001D01*
X17914999Y14980000D02*
Y15180000D01*
Y14980000D02*
X17935001D01*
X17995000D02*
X18014999D01*
Y15180000D01*
X17995000D02*
X18014999D01*
X18122501Y14980000D02*
X18142500D01*
Y15180000D01*
X18122501D02*
X18142500D01*
X18042500D02*
X18062500D01*
X18042500Y14980000D02*
Y15180000D01*
Y14980000D02*
X18062500D01*
X17219000Y15514999D02*
Y15535001D01*
Y15514999D02*
X17419000D01*
Y15535001D01*
Y15595000D02*
Y15614999D01*
X17219000D02*
X17419000D01*
X17219000Y15595000D02*
Y15614999D01*
X15930000Y15925000D02*
Y15945000D01*
X16130000D01*
Y15925000D02*
Y15945000D01*
Y15845000D02*
Y15864999D01*
X15930000Y15845000D02*
X16130000D01*
X15930000D02*
Y15864999D01*
X17678500Y20502499D02*
Y20522501D01*
X17478500Y20502499D02*
X17678500D01*
X17478500D02*
Y20522501D01*
Y20582500D02*
Y20602499D01*
X17678500D01*
Y20582500D02*
Y20602499D01*
X14930000Y21877499D02*
Y21897501D01*
Y21877499D02*
X15130000D01*
Y21897501D01*
Y21957500D02*
Y21977499D01*
X14930000D02*
X15130000D01*
X14930000Y21957500D02*
Y21977499D01*
X11325000Y21750000D02*
Y21770000D01*
X11125000Y21750000D02*
X11325000D01*
X11125000D02*
Y21770000D01*
Y21830000D02*
Y21850000D01*
X11325000D01*
Y21830000D02*
Y21850000D01*
X10307500Y17120000D02*
X10327500D01*
Y16920000D02*
Y17120000D01*
X10307500Y16920000D02*
X10327500D01*
X10227500D02*
X10247500D01*
X10227500D02*
Y17120000D01*
X10247500D01*
X15928200Y16084200D02*
Y16096899D01*
Y16084200D02*
X16156799D01*
Y16096899D01*
Y16173100D02*
Y16185800D01*
X15928200D02*
X16156799D01*
X15928200Y16173100D02*
Y16185800D01*
X16042500Y16084200D02*
Y16185800D01*
X17858099Y15098199D02*
X17870799D01*
Y15326801D01*
X17858099D02*
X17870799D01*
X17769200D02*
X17781900D01*
X17769200Y15098199D02*
Y15326801D01*
Y15098199D02*
X17781900D01*
X17769200Y15212500D02*
X17870799D01*
X18136800Y15335600D02*
Y15348300D01*
X17908200D02*
X18136800D01*
X17908200Y15335600D02*
Y15348300D01*
Y15246700D02*
Y15259399D01*
Y15246700D02*
X18136800D01*
Y15259399D01*
X18022501Y15246700D02*
Y15348300D01*
X11693100Y22573199D02*
X11705800D01*
Y22801801D01*
X11693100D02*
X11705800D01*
X11604200D02*
X11616900D01*
X11604200Y22573199D02*
Y22801801D01*
Y22573199D02*
X11616900D01*
X11604200Y22687500D02*
X11705800D01*
X11133200Y22439200D02*
Y22451900D01*
Y22439200D02*
X11361800D01*
Y22451900D01*
Y22528101D02*
Y22540800D01*
X11133200D02*
X11361800D01*
X11133200Y22528101D02*
Y22540800D01*
X11247500Y22439200D02*
Y22540800D01*
X14638100Y20773199D02*
X14650800D01*
Y21001801D01*
X14638100D02*
X14650800D01*
X14549200D02*
X14561900D01*
X14549200Y20773199D02*
Y21001801D01*
Y20773199D02*
X14561900D01*
X14549200Y20887500D02*
X14650800D01*
X11575700Y18479201D02*
Y18491901D01*
Y18479201D02*
X11804300D01*
Y18491901D01*
Y18568100D02*
Y18580800D01*
X11575700D02*
X11804300D01*
X11575700Y18568100D02*
Y18580800D01*
X11690000Y18479201D02*
Y18580800D01*
X11345000Y20519200D02*
Y20620799D01*
X11230700Y20608099D02*
Y20620799D01*
X11459300D01*
Y20608099D02*
Y20620799D01*
Y20519200D02*
Y20531900D01*
X11230700Y20519200D02*
X11459300D01*
X11230700D02*
Y20531900D01*
X12479360Y20281480D02*
X12499360D01*
Y20081480D02*
Y20281480D01*
X12479360Y20081480D02*
X12499360D01*
X12399360D02*
X12419360D01*
X12399360D02*
Y20281480D01*
X12419360D01*
X16675000Y16430000D02*
X16695000D01*
X16675000Y16230000D02*
Y16430000D01*
Y16230000D02*
X16695000D01*
X16755000D02*
X16775000D01*
Y16430000D01*
X16755000D02*
X16775000D01*
X17125000Y16857500D02*
Y16877499D01*
X16925000D02*
X17125000D01*
X16925000Y16857500D02*
Y16877499D01*
Y16777499D02*
Y16797501D01*
Y16777499D02*
X17125000D01*
Y16797501D01*
X17122501Y16982500D02*
Y17002499D01*
X16922501D02*
X17122501D01*
X16922501Y16982500D02*
Y17002499D01*
Y16902499D02*
Y16922501D01*
Y16902499D02*
X17122501D01*
Y16922501D01*
X17922501Y16391000D02*
X17942500D01*
X17922501Y16191000D02*
Y16391000D01*
Y16191000D02*
X17942500D01*
X18002499D02*
X18022501D01*
Y16391000D01*
X18002499D02*
X18022501D01*
X14932500Y22000000D02*
Y22020000D01*
Y22000000D02*
X15132500D01*
Y22020000D01*
Y22080000D02*
Y22100000D01*
X14932500D02*
X15132500D01*
X14932500Y22080000D02*
Y22100000D01*
X14214999Y22175000D02*
Y22195000D01*
Y22175000D02*
X14414999D01*
Y22195000D01*
Y22254999D02*
Y22274998D01*
X14214999D02*
X14414999D01*
X14214999Y22254999D02*
Y22274998D01*
X10860000Y18620000D02*
Y18639999D01*
X11060000D01*
Y18620000D02*
Y18639999D01*
Y18539999D02*
Y18560001D01*
X10860000Y18539999D02*
X11060000D01*
X10860000D02*
Y18560001D01*
X10600000Y17320000D02*
Y17339999D01*
X10800000D01*
Y17320000D02*
Y17339999D01*
Y17239999D02*
Y17260001D01*
X10600000Y17239999D02*
X10800000D01*
X10600000D02*
Y17260001D01*
X16037500Y16211700D02*
Y16313300D01*
X15923199Y16300600D02*
Y16313300D01*
X16151801D01*
Y16300600D02*
Y16313300D01*
Y16211700D02*
Y16224400D01*
X15923199Y16211700D02*
X16151801D01*
X15923199D02*
Y16224400D01*
X19135001Y16484200D02*
Y16585800D01*
X19020700Y16573100D02*
Y16585800D01*
X19249300D01*
Y16573100D02*
Y16585800D01*
Y16484200D02*
Y16496899D01*
X19020700Y16484200D02*
X19249300D01*
X19020700D02*
Y16496899D01*
X11553100Y22573199D02*
X11565800D01*
Y22801801D01*
X11553100D02*
X11565800D01*
X11464200D02*
X11476900D01*
X11464200Y22573199D02*
Y22801801D01*
Y22573199D02*
X11476900D01*
X11464200Y22687500D02*
X11565800D01*
X15964999Y20696700D02*
Y20798300D01*
X16079300Y20696700D02*
Y20709399D01*
X15850700Y20696700D02*
X16079300D01*
X15850700D02*
Y20709399D01*
Y20785600D02*
Y20798300D01*
X16079300D01*
Y20785600D02*
Y20798300D01*
X15450000Y21289200D02*
Y21390800D01*
X15335699Y21378101D02*
Y21390800D01*
X15564301D01*
Y21378101D02*
Y21390800D01*
Y21289200D02*
Y21301900D01*
X15335699Y21289200D02*
X15564301D01*
X15335699D02*
Y21301900D01*
X14371700Y20902499D02*
X14473300D01*
X14460600Y21016800D02*
X14473300D01*
Y20788200D02*
Y21016800D01*
X14460600Y20788200D02*
X14473300D01*
X14371700D02*
X14384399D01*
X14371700D02*
Y21016800D01*
X14384399D01*
X13562500Y23066701D02*
Y23168300D01*
X13448199Y23155600D02*
Y23168300D01*
X13676801D01*
Y23155600D02*
Y23168300D01*
Y23066701D02*
Y23079401D01*
X13448199Y23066701D02*
X13676801D01*
X13448199D02*
Y23079401D01*
X12172500Y19919000D02*
X12192500D01*
Y20119000D01*
X12172500D02*
X12192500D01*
X12092500D02*
X12112500D01*
X12092500Y19919000D02*
Y20119000D01*
Y19919000D02*
X12112500D01*
X12699360Y20247479D02*
X12719360D01*
Y20047479D02*
Y20247479D01*
X12699360Y20047479D02*
X12719360D01*
X12619360D02*
X12639360D01*
X12619360D02*
Y20247479D01*
X12639360D01*
X12171000Y19720000D02*
Y19739999D01*
X11971000D02*
X12171000D01*
X11971000Y19720000D02*
Y19739999D01*
Y19639999D02*
Y19660001D01*
Y19639999D02*
X12171000D01*
Y19660001D01*
X15872501Y16181000D02*
X15892500D01*
Y15981000D02*
Y16181000D01*
X15872501Y15981000D02*
X15892500D01*
X15792500D02*
X15812500D01*
X15792500D02*
Y16181000D01*
X15812500D01*
X15934000Y16045000D02*
Y16064999D01*
X16134000D01*
Y16045000D02*
Y16064999D01*
Y15964999D02*
Y15985001D01*
X15934000Y15964999D02*
X16134000D01*
X15934000D02*
Y15985001D01*
X18892500Y15485001D02*
X18912500D01*
X18892500Y15285001D02*
Y15485001D01*
Y15285001D02*
X18912500D01*
X18972501D02*
X18992500D01*
Y15485001D01*
X18972501D02*
X18992500D01*
X17635001Y15195000D02*
X17655000D01*
X17635001Y14995000D02*
Y15195000D01*
Y14995000D02*
X17655000D01*
X17714999D02*
X17735001D01*
Y15195000D01*
X17714999D02*
X17735001D01*
X19032500Y20722501D02*
X19052499D01*
X19032500Y20522501D02*
Y20722501D01*
Y20522501D02*
X19052499D01*
X19112500D02*
X19132500D01*
Y20722501D01*
X19112500D02*
X19132500D01*
X18897501Y21792500D02*
X18917500D01*
X18897501D02*
Y21992500D01*
X18917500D01*
X18977501D02*
X18997501D01*
Y21792500D02*
Y21992500D01*
X18977501Y21792500D02*
X18997501D01*
X15995000Y21830000D02*
X16014999D01*
Y22030000D01*
X15995000D02*
X16014999D01*
X15914999D02*
X15935001D01*
X15914999Y21830000D02*
Y22030000D01*
Y21830000D02*
X15935001D01*
X12138799Y18966418D02*
X12158799D01*
Y18766418D02*
Y18966418D01*
X12138799Y18766418D02*
X12158799D01*
X12058799D02*
X12078799D01*
X12058799D02*
Y18966418D01*
X12078799D01*
X10860000Y18750000D02*
Y18770000D01*
X11060000D01*
Y18750000D02*
Y18770000D01*
Y18670000D02*
Y18689999D01*
X10860000Y18670000D02*
X11060000D01*
X10860000D02*
Y18689999D01*
X12430000Y17910001D02*
X12450000D01*
X12430000D02*
Y18110001D01*
X12450000D01*
X12510000D02*
X12530000D01*
Y17910001D02*
Y18110001D01*
X12510000Y17910001D02*
X12530000D01*
X12052500Y18021001D02*
X12072500D01*
X12052500Y17821001D02*
Y18021001D01*
Y17821001D02*
X12072500D01*
X12132500D02*
X12152500D01*
Y18021001D01*
X12132500D02*
X12152500D01*
X10880000Y16760001D02*
Y16780000D01*
X11080000D01*
Y16760001D02*
Y16780000D01*
Y16680000D02*
Y16700000D01*
X10880000Y16680000D02*
X11080000D01*
X10880000D02*
Y16700000D01*
X12196800Y19853101D02*
Y19865800D01*
X11968200D02*
X12196800D01*
X11968200Y19853101D02*
Y19865800D01*
Y19764200D02*
Y19776900D01*
Y19764200D02*
X12196800D01*
Y19776900D01*
X12082500Y19764200D02*
Y19865800D01*
X12724300Y17175600D02*
Y17188300D01*
X12495700D02*
X12724300D01*
X12495700Y17175600D02*
Y17188300D01*
Y17086700D02*
Y17099400D01*
Y17086700D02*
X12724300D01*
Y17099400D01*
X12610000Y17086700D02*
Y17188300D01*
X15101700Y17402499D02*
X15203300D01*
X15190601Y17516800D02*
X15203300D01*
Y17288200D02*
Y17516800D01*
X15190601Y17288200D02*
X15203300D01*
X15101700D02*
X15114400D01*
X15101700D02*
Y17516800D01*
X15114400D01*
X16072501Y17149200D02*
Y17250800D01*
X16186800Y17149200D02*
Y17161900D01*
X15958200Y17149200D02*
X16186800D01*
X15958200D02*
Y17161900D01*
Y17238100D02*
Y17250800D01*
X16186800D01*
Y17238100D02*
Y17250800D01*
X14962500Y17291701D02*
Y17393300D01*
X15076801Y17291701D02*
Y17304401D01*
X14848199Y17291701D02*
X15076801D01*
X14848199D02*
Y17304401D01*
Y17380600D02*
Y17393300D01*
X15076801D01*
Y17380600D02*
Y17393300D01*
X15959200Y17392500D02*
X16060800D01*
X15959200Y17278200D02*
X15971899D01*
X15959200D02*
Y17506799D01*
X15971899D01*
X16048100D02*
X16060800D01*
Y17278200D02*
Y17506799D01*
X16048100Y17278200D02*
X16060800D01*
X17774200Y16455000D02*
X17875800D01*
X17774200Y16340700D02*
X17786900D01*
X17774200D02*
Y16569299D01*
X17786900D01*
X17863100D02*
X17875800D01*
Y16340700D02*
Y16569299D01*
X17863100Y16340700D02*
X17875800D01*
X18037500Y16464200D02*
Y16565800D01*
X18151801Y16464200D02*
Y16476900D01*
X17923199Y16464200D02*
X18151801D01*
X17923199D02*
Y16476900D01*
Y16553101D02*
Y16565800D01*
X18151801D01*
Y16553101D02*
Y16565800D01*
X11233100Y22563200D02*
X11245800D01*
Y22791800D01*
X11233100D02*
X11245800D01*
X11144200D02*
X11156900D01*
X11144200Y22563200D02*
Y22791800D01*
Y22563200D02*
X11156900D01*
X11144200Y22677499D02*
X11245800D01*
X14060699Y20734200D02*
Y20746899D01*
Y20734200D02*
X14289301D01*
Y20746899D01*
Y20823100D02*
Y20835800D01*
X14060699D02*
X14289301D01*
X14060699Y20823100D02*
Y20835800D01*
X14175000Y20734200D02*
Y20835800D01*
X10814300Y17208099D02*
Y17220799D01*
X10585700D02*
X10814300D01*
X10585700Y17208099D02*
Y17220799D01*
Y17119200D02*
Y17131900D01*
Y17119200D02*
X10814300D01*
Y17131900D01*
X10700000Y17119200D02*
Y17220799D01*
X18897501Y16684000D02*
X18917500D01*
X18897501Y16484000D02*
Y16684000D01*
Y16484000D02*
X18917500D01*
X18977499D02*
X18997501D01*
Y16684000D01*
X18977499D02*
X18997501D01*
X17727499Y16439999D02*
X17747501D01*
Y16239999D02*
Y16439999D01*
X17727499Y16239999D02*
X17747501D01*
X17647501D02*
X17667500D01*
X17647501D02*
Y16439999D01*
X17667500D01*
X15378500Y16742500D02*
Y16762500D01*
X15178499D02*
X15378500D01*
X15178499Y16742500D02*
Y16762500D01*
Y16662500D02*
Y16682500D01*
Y16662500D02*
X15378500D01*
Y16682500D01*
X14650000Y15705000D02*
X14670000D01*
Y15505000D02*
Y15705000D01*
X14650000Y15505000D02*
X14670000D01*
X14570000D02*
X14589999D01*
X14570000D02*
Y15705000D01*
X14589999D01*
X13942500Y20962500D02*
X13962500D01*
X13942500Y20762500D02*
Y20962500D01*
Y20762500D02*
X13962500D01*
X14022501D02*
X14042500D01*
Y20962500D01*
X14022501D02*
X14042500D01*
X14214999Y22045000D02*
Y22064999D01*
Y22045000D02*
X14414999D01*
Y22064999D01*
Y22124998D02*
Y22145000D01*
X14214999D02*
X14414999D01*
X14214999Y22124998D02*
Y22145000D01*
X13852499Y22810001D02*
X13872501D01*
Y23010001D01*
X13852499D02*
X13872501D01*
X13772501D02*
X13792500D01*
X13772501Y22810001D02*
Y23010001D01*
Y22810001D02*
X13792500D01*
X10860000Y18489999D02*
Y18510001D01*
X11060000D01*
Y18489999D02*
Y18510001D01*
Y18410001D02*
Y18430000D01*
X10860000Y18410001D02*
X11060000D01*
X10860000D02*
Y18430000D01*
X13122501Y23145000D02*
Y23225000D01*
X13207500Y23213100D02*
Y23225800D01*
X13037500D02*
X13207500D01*
X13037500Y23213100D02*
Y23225800D01*
Y23144200D02*
Y23156900D01*
Y23144200D02*
X13207500D01*
Y23156900D01*
X16474300Y18875600D02*
Y18888300D01*
X16245700D02*
X16474300D01*
X16245700Y18875600D02*
Y18888300D01*
Y18786700D02*
Y18799400D01*
Y18786700D02*
X16474300D01*
Y18799400D01*
X16360001Y18786700D02*
Y18888300D01*
X16668201Y16486700D02*
Y16499400D01*
Y16486700D02*
X16896800D01*
Y16499400D01*
Y16575600D02*
Y16588300D01*
X16668201D02*
X16896800D01*
X16668201Y16575600D02*
Y16588300D01*
X16782500Y16486700D02*
Y16588300D01*
X16286700Y16619299D02*
X16299400D01*
X16286700Y16390700D02*
Y16619299D01*
Y16390700D02*
X16299400D01*
X16375600D02*
X16388300D01*
Y16619299D01*
X16375600D02*
X16388300D01*
X16286700Y16505000D02*
X16388300D01*
X12721800Y17305600D02*
Y17318300D01*
X12493200D02*
X12721800D01*
X12493200Y17305600D02*
Y17318300D01*
Y17216701D02*
Y17229401D01*
Y17216701D02*
X12721800D01*
Y17229401D01*
X12607500Y17216701D02*
Y17318300D01*
X11105600Y22560699D02*
X11118300D01*
Y22789301D01*
X11105600D02*
X11118300D01*
X11016700D02*
X11029400D01*
X11016700Y22560699D02*
Y22789301D01*
Y22560699D02*
X11029400D01*
X11016700Y22675000D02*
X11118300D01*
X11584200Y22539301D02*
X11596900D01*
X11584200Y22310699D02*
Y22539301D01*
Y22310699D02*
X11596900D01*
X11673100D02*
X11685800D01*
Y22539301D01*
X11673100D02*
X11685800D01*
X11584200Y22425000D02*
X11685800D01*
X14175000Y20904199D02*
Y21005798D01*
X14289301Y20904199D02*
Y20916899D01*
X14060699Y20904199D02*
X14289301D01*
X14060699D02*
Y20916899D01*
Y20993098D02*
Y21005798D01*
X14289301D01*
Y20993098D02*
Y21005798D01*
X13402499Y23156900D02*
X13402499Y23144200D01*
X13232500D02*
X13402499D01*
X13232500D02*
Y23156900D01*
X13232500Y23225800D02*
X13232500Y23213100D01*
X13232500Y23225800D02*
X13402499D01*
Y23213100D02*
Y23225800D01*
X13317500Y23145000D02*
Y23225000D01*
X11686800Y18708099D02*
Y18720799D01*
X11458200D02*
X11686800D01*
X11458200Y18708099D02*
Y18720799D01*
Y18619200D02*
Y18631900D01*
Y18619200D02*
X11686800D01*
Y18631900D01*
X11572500Y18619200D02*
Y18720799D01*
X10455600Y16908200D02*
X10468300D01*
Y17136800D01*
X10455600D02*
X10468300D01*
X10366700D02*
X10379400D01*
X10366700Y16908200D02*
Y17136800D01*
Y16908200D02*
X10379400D01*
X10366700Y17022501D02*
X10468300D01*
X15053500Y19370000D02*
Y19389999D01*
X14853500Y19370000D02*
X15053500D01*
X14853500D02*
Y19389999D01*
Y19450000D02*
Y19470000D01*
X15053500D01*
Y19450000D02*
Y19470000D01*
X12743360Y20177480D02*
Y20197479D01*
X12943359D01*
Y20177480D02*
Y20197479D01*
Y20097479D02*
Y20117480D01*
X12743360Y20097479D02*
X12943359D01*
X12743360D02*
Y20117480D01*
X12279360Y20077480D02*
X12299360D01*
X12279360D02*
Y20277480D01*
X12299360D01*
X12359360D02*
X12379360D01*
Y20077480D02*
Y20277480D01*
X12359360Y20077480D02*
X12379360D01*
X15792500Y16220000D02*
X15812500D01*
X15792500D02*
Y16420000D01*
X15812500D01*
X15872501D02*
X15892500D01*
Y16220000D02*
Y16420000D01*
X15872501Y16220000D02*
X15892500D01*
X17712500Y15417500D02*
X17732500D01*
Y15217500D02*
Y15417500D01*
X17712500Y15217500D02*
X17732500D01*
X17632500D02*
X17652499D01*
X17632500D02*
Y15417500D01*
X17652499D01*
X17105000Y15602499D02*
Y15622501D01*
X16905000D02*
X17105000D01*
X16905000Y15602499D02*
Y15622501D01*
Y15522501D02*
Y15542500D01*
Y15522501D02*
X17105000D01*
Y15542500D01*
X16855000Y14978999D02*
X16875000D01*
Y15178999D01*
X16855000D02*
X16875000D01*
X16775000D02*
X16795000D01*
X16775000Y14978999D02*
Y15178999D01*
Y14978999D02*
X16795000D01*
X19027501Y21792500D02*
X19047501D01*
X19027501D02*
Y21992500D01*
X19047501D01*
X19107501D02*
X19127499D01*
Y21792500D02*
Y21992500D01*
X19107501Y21792500D02*
X19127499D01*
X19032500Y19742500D02*
Y19762500D01*
Y19742500D02*
X19232500D01*
Y19762500D01*
Y19822501D02*
Y19842500D01*
X19032500D02*
X19232500D01*
X19032500Y19822501D02*
Y19842500D01*
X15105000Y21575000D02*
Y21595000D01*
Y21575000D02*
X15305000D01*
Y21595000D01*
Y21654999D02*
Y21674998D01*
X15105000D02*
X15305000D01*
X15105000Y21654999D02*
Y21674998D01*
X11570000Y20705000D02*
X11590000D01*
Y20905000D01*
X11570000D02*
X11590000D01*
X11490000D02*
X11510000D01*
X11490000Y20705000D02*
Y20905000D01*
Y20705000D02*
X11510000D01*
D141*
X13664999Y23805000D02*
Y24564999D01*
X12665000Y23805000D02*
Y24564999D01*
Y23805000D02*
X13664999D01*
X12665000Y24564999D02*
X13664999D01*
X13533000Y23070000D02*
X13562000D01*
X13533000Y22780000D02*
X13562000D01*
D142*
X10250750Y16276500D02*
X10293070D01*
X10271910D01*
Y16403459D01*
X10250750Y16382298D01*
%TF.MD5,ba08ae88dfe99aae163d1aed9d6b669d*%
M02*
